/* XPM */
static char *output_13[] = {
/* columns rows colors chars-per-pixel */
"64 130 25 1 ",
"  c black",
". c #222034",
"X c #45212D",
"o c #3F3F74",
"O c #3C447C",
"+ c #46426C",
"@ c #8F563B",
"# c #954A51",
"$ c #CB7173",
"% c #4F5AA5",
"& c #6A78AC",
"* c #616FCB",
"= c #7C8DB5",
"- c #639BFF",
"; c #9C859F",
": c #F5A489",
"> c #F9BF99",
", c #FFF3AB",
"< c #FFE0B1",
"1 c #A6AEE1",
"2 c #E1EAFD",
"3 c white",
"4 c #3F3F74",
"5 c #5C5CA9",
"6 c None",
/* pixels */
"6666666666666666666666666666666666666666666666666666666666666666",
"6666666666666666666666666666666666666666666666666666666666666666",
"6666666666666666666666666666666666666666666666666666666666666666",
"6666666666666666666666666666666666666666666666666666666666666666",
"6666666666666666666666666666666666666666666666666666666666666666",
"6666666666666666666666666666666666666666666666666666666666666666",
"6666666666666666666666666666666666666666666666666666666666666666",
"6666666666666666666666666666666666666666666666666666666666666666",
"6666666666666666666666666666666666666666666666666666666666666666",
"6666666666666666666666666666666666666666666666666666666666666666",
"6666666666666666666666666666666666666666666666666666666666666666",
"6666666666666666666666666666666666666666666666666666666666666666",
"6666666666666666666666666666.........666666666666666666666666666",
"66666666666666666666666666.O%*******%O.6666666666666666666666666",
"666666666666666666666666.O%***********%O.66666666666666666666666",
"66666666666666666666666.%***************%.6666666666666666666666",
"6666666666666666666666.***************%OO...66666666666666666666",
"666666666666666666666.%*************%%*%%OOO..666666666666666666",
"666666666666666666666O*************%**%**%%%%O.66666666666666666",
"66666666666666666666.%************%**%**%O****O.6666666666666666",
"66666666666666666666O************.**%***O%****%.6666666666666666",
"6666666666666666666.%************O*%****%******O6666666666666666",
"6666666666666666666.************.%*O****%******%.666666666666666",
"6666666666666666666.************O*%O****O******%.666666666666666",
"6666666666666666666.***********.%*O%****O******%.666666666666666",
"6666666666666666666O***********.%*.*****O******%.666666666666666",
"666666666666666666.%**********%.%*.****%.%****%%.666666666666666",
"666666666666666666.%%********%O.%%.%**%%.O***%%%.666666666666666",
"666666666666666666.%%*******%OO.%%O%%%%%..%**%%O6666666666666666",
"666666666666666666.%%%*****%OOO.%.*%%%%%.@O%%%%.6666666666666666",
"666666666666666666.%%%%%%%O...O.%.*%%OO.>>.%%O.66666666666666666",
"666666666666666666.%%%%%%%.#X#..%.OOOO.::>>.. 666666666666666666",
"666666666666666666.%%%%%%O#><<#.%%....   $>X66666666666666666666",
"666666666666666666.%%%%%%.X<:$:.%%%%.     :X66666666666666666666",
"666666666666666666O%%%%%%.X<>:<.%%%%.X;    #66666666666666666666",
"66666666666666666.%%%%%%%O#:>:<>O%%%.#3o3:>$#X666666666666666666",
"66666666666666666.%%%%%%%O.X>$:>.%%%.:3oo><>:$X66666666666666666",
"66666666666666666.%%%%%%%OO#:><<.%%%.<:--><<>:X66666666666666666",
"66666666666666666O%%%%%%OOO.X:>#.%%%.<>:><<<>#666666666666666666",
"6666666666666666.%%%%%%%OOOO.XXX$O%%.<<<<<<>:X666666666666666666",
"6666666666666666.%%%%%%%OOOO.X$$X.%%.<<<<<>:X6666666666666666666",
"6666666666666666.%%%%%%OOOOO.X$$$.%%.>>>>#$X66666666666666666666",
"6666666666666666.%%%%%%OOOO.X$$$$$...:>>>:X666666666666666666666",
"6666666666666666O%%%%%%OOO.X+++::$$$###XXX6666666666666666666666",
"666666666666666.%%%%%%OOO.++111++:$$$+&+666666666666666666666666",
"666666666666666.%%%%%%OOO+==&&&=1+:$$$+=+66666666666666666666666",
"666666666666666.%%%%%%OO.=&+<<<+31+#$<<+=&+666666666666666666666",
"666666666666666.%%%%%%OO++><<<<<+31+<>#,&2=&+6666666666666666666",
"666666666666666.%%%%%%O.+><<<<<<>&31+>>#+3333+666666666666666666",
"666666666666666.%%%O%OO.X<<<<<<<>+=2=&+&=33333+66666666666666666",
"666666666666666.%%%O%OO.#<<<<<<<:$&223332123233+6666666666666666",
"666666666666666.%%%O%OOX:<<<<<<<$#+233333333133&6666666666666666",
"6666666666666666O%%O%OOX<<<<<<<<#$+333333321=33=+666666666666666",
"6666666666666666.%%O%OOX<<<<<<<<X<&3333333331331=666666666666666",
"6666666666666666.%%O%O.#<<<<<<<:X+=3333333333=211+66666666666666",
"66666666666666666.%..OX:<<<<<<<#:&23333333333=11=+66666666666666",
"666666666666666666..6.X<<<<<<<<X+=133333333333&==+66666666666666",
"6666666666666666666666X<<<<<<<<X=1123333333321+=+X66666666666666",
"6666666666666666666666X<<<<<<<<#=1133333333231=+$X66666666666666",
"6666666666666666666666X<<<<<<<<:X113123333321=1+$X66666666666666",
"6666666666666666666666X:<<<<<<<<<X2311123XXXX1=+X666666666666666",
"66666666666666666666666#<<<<<<<<<:#X11XX#:<>:X+#X666666666666666",
"66666666666666666666666X:<<<<<<<<<<:##:<<<$$>:X$X666666666666666",
"66666666666666666666666+X<<<<<<<<<<<<<<<<<<<#:X$X666666666666666",
"6666666666666666666666+1XX<<<<<<<<<<<<<<<<<>:#X$X666666666666666",
"6666666666666666666666+&23X:<<<<<<<<<<<<<<$$:#XX6666666666666666",
"6666666666666666666666+=333X#:<<<<<<<<<<<<<<#X666666666666666666",
"6666666666666666666666+133333X#:<<<<<<<<<<<>:#666666666666666666",
"6666666666666666666666+221&++&1X#::>>>>>:X#::X666666666666666666",
"6666666666666666666666+1&+<<<<+++X#:::::#X:::X666666666666666666",
"6666666666666666666666++<<<<<<<<<<<XXXXX6XXXX6666666666666666666",
"6666666666666666666666X><<<<<<<<<<<<<<XX666666666666666666666666",
"6666666666666666666666X:><<<<<<<<<<<<<XX666666666666666666666666",
"66666666666666666666666X::><<<<<<<<<<:XX666666666666666666666666",
"666666666666666666666666X#::><<<<<<<<#:X666666666666666666666666",
"6666666666666666666666666X<<<<<<<<<<<X:X666666666666666666666666",
"6666666666666666666666666X:<<<<<<<<<:X:X666666666666666666666666",
"666666666666666666666666XX#<<<<<<<<<#::X666666666666666666666666",
"6666666666666666666XXXX#$:X<<<<<<<<<X::X666666666666666666666666",
"666666666666666666X$::::::X<<<<<<<<<X:$X666666666666666666666666",
"666666666666666666X:::::::X:<<<<<<<<X:#6666666666666666666666666",
"666666666666666666#::::::::#<<<<<<<:X:X6666666666666666666666666",
"66666666666666666X$::::::::X<<<<<<<#:$X6666666666666666666666666",
"66666666666666666X:::::::::X<<<<<<<X$X66666666666666666666666666",
"66666666666666666X::::::::X$><<<<<>XX666666666666666666666666666",
"66666666666666666X:::::$#X$::><<<>:X6666666666666666666666666666",
"66666666666666666X$:::$X6#::::::::$X4456666666666666666666666666",
"666666666666666666X:::X4X$::::::::#44444445666666666666666666666",
"6666666666666666665XXX44X:::::::::X44444444445666666666666666666",
"666666666666666654444444X$::::::::X44444444444456666666666666666",
"6666666666666654444444444#:::::::$X44444444444444566666666666666",
"6666666666665444444444444X:::::::#444444444444444445666666666666",
"6666666666654444444444444X:::::::X444444444444444444566666666666",
"6666666666544444444444444X$::::::X444444444444444444456666666666",
"66666666664444444444444444#::::::X444444444444444444446666666666",
"66666666654444444444444444X::::::#444444444444444444445666666666",
"66666666644444444444444444X::::::$X44444444444444444444666666666",
"66666666644444444444444444X:::::::$X4444444444444444444666666666",
"66666666644444444444444444X:::::::::X444444444444444444666666666",
"66666666644444444444444444X$::::::::X444444444444444444666666666",
"666666666544444444444444444XX#$:::$X4444444444444444445666666666",
"666666666644444444444444444444XXXXX44444444444444444446666666666",
"6666666666544444444444444444444444444444444444444444456666666666",
"6666666666654444444444444444444444444444444444444444566666666666",
"6666666666665444444444444444444444444444444444444445666666666666",
"6666666666666654444444444444444444444444444444444566666666666666",
"6666666666666665444444444444444444444444444444446666666666666666",
"6666666666666666654444444444444444444444444444566666666666666666",
"6666666666666666666654444444444444444444444566666666666666666666",
"6666666666666666666666666544444444444456666666666666666666666666",
"6666666666666666666666666666666666666666666666666666666666666666",
"6666666666666666666666666666666666666666666666666666666666666666",
"6666666666666666666666666666666666666666666666666666666666666666",
"6666666666666666666666666666666666666666666666666666666666666666",
"6666666666666666666666666666666666666666666666666666666666666666",
"6666666666666666666666666666666666666666666666666666666666666666",
"6666666666666666666666666666666666666666666666666666666666666666",
"6666666666666666666666666666666666666666666666666666666666666666",
"6666666666666666666666666666666666666666666666666666666666666666",
"6666666666666666666666666666666666666666666666666666666666666666",
"6666666666666666666666666666666666666666666666666666666666666666",
"6666666666666666666666666666666666666666666666666666666666666666",
"6666666666666666666666666666666666666666666666666666666666666666",
"6666666666666666666666666666666666666666666666666666666666666666",
"6666666666666666666666666666666666666666666666666666666666666666",
"6666666666666666666666666666666666666666666666666666666666666666",
"6666666666666666666666666666666666666666666666666666666666666666",
"6666666666666666666666666666666666666666666666666666666666666666",
"6666666666666666666666666666666666666666666666666666666666666666",
"6666666666666666666666666666666666666666666666666666666666666666"
};
