/* XPM */
static char *output_16[] = {
/* columns rows colors chars-per-pixel */
"64 130 23 1 ",
"  c black",
". c #222034",
"X c #45212D",
"o c #3F3F74",
"O c #3C447C",
"+ c #46426C",
"@ c #954A51",
"# c #CB7173",
"$ c #4F5AA5",
"% c #6A78AC",
"& c #616FCB",
"* c #7C8DB5",
"= c #639BFF",
"- c #9C859F",
"; c #F5A489",
": c #F9BF99",
"> c #FFE0B1",
", c #A6AEE1",
"< c #E1EAFD",
"1 c white",
"2 c #3F3F74",
"3 c #5C5CA9",
"4 c None",
/* pixels */
"4444444444444444444444444444444444444444444444444444444444444444",
"4444444444444444444444444444444444444444444444444444444444444444",
"4444444444444444444444444444444444444444444444444444444444444444",
"4444444444444444444444444444444444444444444444444444444444444444",
"4444444444444444444444444444444444444444444444444444444444444444",
"4444444444444444444444444444444444444444444444444444444444444444",
"4444444444444444444444444444444444444444444444444444444444444444",
"4444444444444444444444444444444444444444444444444444444444444444",
"4444444444444444444444444444444444444444444444444444444444444444",
"4444444444444444444444444444444444444444444444444444444444444444",
"4444444444444444444444444444444444444444444444444444444444444444",
"4444444444444444444444444444444444444444444444444444444444444444",
"4444444444444444444444444444444444444444444444444444444444444444",
"4444444444444444444444444444.........444444444444444444444444444",
"44444444444444444444444444.O$&&&&&&&$O.4444444444444444444444444",
"444444444444444444444444.O$&&&&&&&&&&&$O.44444444444444444444444",
"44444444444444444444444.$&&&&&&&&&&&&&&&$.4444444444444444444444",
"4444444444444444444444.&&&&&&&&&&&&&&&&&&&.444444444444444444444",
"444444444444444444444.$&&&&&&&&&&&&&&&$OO.....444444444444444444",
"444444444444444444444O&&&&&&&&&&&&&&$$&$$OOOOO.44444444444444444",
"44444444444444444444.$&&&&&&&&&&&&&$&&$&&$$$$$O.4444444444444444",
"44444444444444444444O&&&&&&&&&&&&&$&&$&&$O&&&&$.4444444444444444",
"4444444444444444444.$&&&&&&&&&&&&.&&$&&&O$&&&&$O.444444444444444",
"4444444444444444444.&&&&&&&&&&&&&O&O&&&&$&&&&&&$O444444444444444",
"4444444444444444444.&&&&&&&&&&&&.$O$&&&&$&&&&&&$$.44444444444444",
"4444444444444444444.&&&&&&&&&&&&O&O&&&&&O&&&&&&$$.44444444444444",
"4444444444444444444O&&&&&&&&&&&.$O$&&&&&O&&&&&&$$.44444444444444",
"444444444444444444.$&&&&&&&&&&$O$.$&&&&&O&&&&&&$$.44444444444444",
"444444444444444444.$$&&&&&&&&$.$$O$$&&&$.$&&&&$$$.44444444444444",
"444444444444444444.$$&&&&&&&$O.$.&$$$&$$.O&&&$$$O444444444444444",
"444444444444444444.$$$&&&&&$OO.$.O$$$$$O..$&&$$O.444444444444444",
"444444444444444444.$$$$$$$O....$O..O$$O...O$$$$.4444444444444444",
"444444444444444444.$$$$$$$.@X@.$$$O....;;::....44444444444444444",
"444444444444444444.$$$$$$O@:>>.$$$$$.#   #:X44444444444444444444",
"444444444444444444.$$$$$$.X>;#.$$$$$.     ;X44444444444444444444",
"444444444444444444O$$$$$$.X>:;.$$$$O.X-    @44444444444444444444",
"44444444444444444.$$$$$$$O@;:;.$$$$.;@1o1;:#@X444444444444444444",
"44444444444444444.$$$$$$$O.X:#.$$$$.>;1oo:>:;#X44444444444444444",
"44444444444444444.$$$$$$$OO@;:.$$$$.>>;==:>>:;X44444444444444444",
"44444444444444444O$$$$$$$OO.X;:O$$$.>>:;:>>>:@444444444444444444",
"4444444444444444.$$$$$$$OOOO.XX.$$$.>>>>>>>:;X444444444444444444",
"4444444444444444.$$$$$$$OOOO.X##O$$.>>>>>>:;X4444444444444444444",
"4444444444444444.$$$$$$$OOOO.@##.$$.:::::@#X44444444444444444444",
"4444444444444444.$$$$$$$OOO.#####...#;:::;X444444444444444444444",
"444444444444444.O$$$$$$OOOO.+++++###@@@XXX4444444444444444444444",
"444444444444444.$$$$$$$OOO.+,,,,<++##++X444444444444444444444444",
"444444444444444.$$$$$$$OOO.,%%%%<1<+#@:++%++44444444444444444444",
"44444444444444.O$$$$$$$OO.+%;:::%%1<+;::+<<*%+444444444444444444",
"44444444444444.$$$$$$$$OO.@;:>>>>:%1<+@@%1111<+44444444444444444",
"4444444444444.O$$O$$$$OOO.@:>>>>>>:%<,+%*,1111*+4444444444444444",
"444444444444.$$$$O$O$$OOO.@>>>>>>>>#<<<<<<,*1<,%4444444444444444",
"444444444...$$$$OO$O$$OOO.@>>>>>>>>#<1111111*1**+444444444444444",
"444444444.O$$$$OOO$O$OOOO.@>>>>>>>>#11111111,1*,+444444444444444",
"4444444444.O$OOOO$$.O.OOO.@>>>>>>>>@1111111111,*+444444444444444",
"44444444444...OO$$O.O.OOO.@>>>>>>>>@111111111<+%+444444444444444",
"44444444444444.$$O..O.OOO.@>>>>>>>>X1111111111,+4444444444444444",
"44444444444444.OO.4..4.O.@X>>>>>>>>X1111111111,+4444444444444444",
"44444444444444...444444..XX>>>>>>>>X111111111XXXXX44444444444444",
"44444444444444444444444444X>>>>>>>>@<111111X@;>>:;X4444444444444",
"44444444444444444444444444X>>>>>>>>;@XX111X;>>>##;X4444444444444",
"44444444444444444444444444X>>>>>>>>>>>;@X@;>>>>>>@X4444444444444",
"44444444444444444444444444X;>>>>>>>>>>>>>>>>>>>>>;X4444444444444",
"4444444444444444444444444X;@>>>>>>>>>>>>>>>>>>>##;#X444444444444",
"444444444444444444444444X>>X;>>>>>>>>>>>>>>>>>>>>@#X444444444444",
"44444444444444444444444++>>>X;>>>>>>>>>>>>>>>>>>>:@X444444444444",
"44444444444444444444444%,%+>>X@;::::::::::::;;;@@:;X444444444444",
"4444444444444444444444+,<<,%+++X@;;;;;;;;;;#@XXX#;#X444444444444",
"4444444444444444444444%<11111111<X@#;;#@XXXX444XXXX4444444444444",
"444444444444444444444+,<1111111111<XXXX,+X4444444444444444444444",
"444444444444444444444++++++++++%,<111<,+X44444444444444444444444",
"44444444444444444444X;>>>>>>>>>>+++%,,,+@44444444444444444444444",
"44444444444444444444X;>>>>>>>>>>>>>>+++;#X4444444444444444444444",
"44444444444444444444X;>>>>>>>>>>>>>>>X;;;X4444444444444444444444",
"44444444444444444444X;:>>>>>>>>>>>>>>X;;;@4444444444444444444444",
"444444444444444444444X;;:>>>>>>>>>>>>X;;;#X444444444444444444444",
"4444444444444444444444X@;;:>>>>>>>>>;X;;;;X444444444444444444444",
"44444444444444444444444X;:>>>>>>>>>>@;;;;;X444444444444444444444",
"444444444444444444444444@>>>>>>>>>>>X;;;;;@444444444444444444444",
"444444444444444444444444X>>>>>>>>>>>X;;;;;#X44444444444444444444",
"44444444444444444444444XX@>>>>>>>>>;X;;;;;;X44444444444444444444",
"444444444444444444444X@#;;@>>>>>>>>@;;;;;;#X44444444444444444444",
"4444444444444444444X@#;;;;;#>>>>>>:X;;;;;;@444444444444444444444",
"44444444444444XXXX@#;;;;;;;;;:>>>:;X;;;;;#X444444444444444444444",
"4444444444444X;;;;;;;;;;;;;;;;;;;;@;;;;;;@4444444444444444444444",
"4444444444444X;;;;;;;;;;;;;;;;;;;;X;;;;;#X4444444444444444444444",
"4444444444444@;;;;;;;;;;;;;;;;;;;#X;;;;;@44444444444444444444444",
"444444444444X#;;;;;;;;;;;;;;;;;;;@;;;;;;X44444444444444444444444",
"444444444444X;;;;;;;;;;;;;;;;;;;#X;;;;;#X23444444444444444444444",
"444444444444X;;;;;;;;;;;;;;;;;;#X;;;;;;@222223444444444444444444",
"444444444444X;;;;#@XXXXXXXXXXXXX;;;;;;;X222222234444444444444444",
"444444444444X#;;;X2222222222222X;;;;;;#X222222222344444444444444",
"4444444444443X;;X22222222222222X;;;;;;@2222222222223444444444444",
"44444444444322XX222222222222222X;;;;;;@2222222222222344444444444",
"4444444444322222222222222222222X;;;;;;#X222222222222234444444444",
"4444444444222222222222222222222X;;;;;;;;X22222222222224444444444",
"4444444443222222222222222222222X;;;;;;;;;X2222222222223444444444",
"4444444442222222222222222222222X;;;;;;;;;X2222222222222444444444",
"44444444422222222222222222222222XX@#;;;#X22222222222222444444444",
"44444444422222222222222222222222222XXXXX222222222222222444444444",
"4444444442222222222222222222222222222222222222222222222444444444",
"4444444443222222222222222222222222222222222222222222223444444444",
"4444444444222222222222222222222222222222222222222222224444444444",
"4444444444322222222222222222222222222222222222222222234444444444",
"4444444444432222222222222222222222222222222222222222344444444444",
"4444444444443222222222222222222222222222222222222223444444444444",
"4444444444444432222222222222222222222222222222222344444444444444",
"4444444444444443222222222222222222222222222222224444444444444444",
"4444444444444444432222222222222222222222222222344444444444444444",
"4444444444444444444432222222222222222222222344444444444444444444",
"4444444444444444444444444322222222222234444444444444444444444444",
"4444444444444444444444444444444444444444444444444444444444444444",
"4444444444444444444444444444444444444444444444444444444444444444",
"4444444444444444444444444444444444444444444444444444444444444444",
"4444444444444444444444444444444444444444444444444444444444444444",
"4444444444444444444444444444444444444444444444444444444444444444",
"4444444444444444444444444444444444444444444444444444444444444444",
"4444444444444444444444444444444444444444444444444444444444444444",
"4444444444444444444444444444444444444444444444444444444444444444",
"4444444444444444444444444444444444444444444444444444444444444444",
"4444444444444444444444444444444444444444444444444444444444444444",
"4444444444444444444444444444444444444444444444444444444444444444",
"4444444444444444444444444444444444444444444444444444444444444444",
"4444444444444444444444444444444444444444444444444444444444444444",
"4444444444444444444444444444444444444444444444444444444444444444",
"4444444444444444444444444444444444444444444444444444444444444444",
"4444444444444444444444444444444444444444444444444444444444444444",
"4444444444444444444444444444444444444444444444444444444444444444",
"4444444444444444444444444444444444444444444444444444444444444444",
"4444444444444444444444444444444444444444444444444444444444444444",
"4444444444444444444444444444444444444444444444444444444444444444"
};
