/* XPM */
static char *output_14[] = {
/* columns rows colors chars-per-pixel */
"64 130 24 1 ",
"  c black",
". c #222034",
"X c #45212D",
"o c #3F3F74",
"O c #3C447C",
"+ c #46426C",
"@ c #954A51",
"# c #CB7173",
"$ c #4F5AA5",
"% c #6A78AC",
"& c #616FCB",
"* c #7C8DB5",
"= c #639BFF",
"- c #9C859F",
"; c #F5A489",
": c #F9BF99",
"> c #FFF3AB",
", c #FFE0B1",
"< c #A6AEE1",
"1 c #E1EAFD",
"2 c white",
"3 c #3F3F74",
"4 c #5C5CA9",
"5 c None",
/* pixels */
"5555555555555555555555555555555555555555555555555555555555555555",
"5555555555555555555555555555555555555555555555555555555555555555",
"5555555555555555555555555555555555555555555555555555555555555555",
"5555555555555555555555555555555555555555555555555555555555555555",
"5555555555555555555555555555555555555555555555555555555555555555",
"5555555555555555555555555555555555555555555555555555555555555555",
"5555555555555555555555555555555555555555555555555555555555555555",
"5555555555555555555555555555555555555555555555555555555555555555",
"5555555555555555555555555555555555555555555555555555555555555555",
"5555555555555555555555555555555555555555555555555555555555555555",
"5555555555555555555555555555.........555555555555555555555555555",
"55555555555555555555555555.O$&&&&&&&$O.5555555555555555555555555",
"555555555555555555555555.O$&&&&&&&&&&&$O.55555555555555555555555",
"55555555555555555555555.$&&&&&&&&&&&&&&&$.5555555555555555555555",
"5555555555555555555555.&&&&&&&&&&&&&&&$OO...55555555555555555555",
"555555555555555555555.$&&&&&&&&&&&&&$$&$$OOO.5555555555555555555",
"555555555555555555555O&&&&&&&&&&&&&$&&$&&$$$$.555555555555555555",
"55555555555555555555.$&&&&&&&&&&&&$&&$&&$O&&&&.55555555555555555",
"55555555555555555555O&&&&&&&&&&&&.&&$&&&O$&&&&O55555555555555555",
"5555555555555555555.$&&&&&&&&&&&&O&$&&&&$&&&&&$.5555555555555555",
"5555555555555555555.&&&&&&&&&&&&&$&O&&&&$&&&&&&O5555555555555555",
"5555555555555555555.&&&&&&&&&&&&.&$O&&&&O&&&&&&$5555555555555555",
"5555555555555555555.&&&&&&&&&&&&.&O$&&&&O&&&&&&$.555555555555555",
"5555555555555555555O&&&&&&&&&&&$O&.&&&&&O&&&&&&$.555555555555555",
"555555555555555555.$&&&&&&&&&&$.$&.$&&&$.$&&&&$$.555555555555555",
"555555555555555555.$$&&&&&&&&$O.$$.$$&$$.O&&&$$$.555555555555555",
"555555555555555555.$$&&&&&&&$OO.$$O$$$$$..$&&$$O.555555555555555",
"555555555555555555.$$$&&&&&$OOO.$.$&$$$$..O$$$$O5555555555555555",
"555555555555555555.$$$$$$$O...O.$.$$$OO.:.O$$O..5555555555555555",
"555555555555555555.$$$$$$$.@X@..$......;;:... 555555555555555555",
"555555555555555555.$$$$$$O@:,,@.$$$$.#   #:X55555555555555555555",
"555555555555555555.$$$$$$.X,;#;.$$$$.     ;X55555555555555555555",
"555555555555555555.$$$$$$.X,:;,.$$$$.X-    @55555555555555555555",
"555555555555555555.$$$$$$O@;:;,.$$$$.@2o2;:#@X555555555555555555",
"555555555555555555.$$$$$$O.X:#;.$$$$.;2oo:,:;#X55555555555555555",
"555555555555555555.$$$$$$OO@;:,.$$$$.,;==:,,:;X55555555555555555",
"555555555555555555O$$$$$$OO.X;:@O$$$.,:;:,,,:@555555555555555555",
"55555555555555555.$$$$$$OOOO.XXX.$$$.,,,,,,:;X555555555555555555",
"55555555555555555.$$$$$$OOOO.X##XO$$.,,,,,:;X5555555555555555555",
"55555555555555555.$$$$$$OOO..@###.$$.::::@#X55555555555555555555",
"55555555555555555.$$$$$OOO.X@#####...;:::;X555555555555555555555",
"55555555555555555.$$$$$OO.X++++++###@@@XXX5555555555555555555555",
"55555555555555555O$$$$$O.X+*<<<<<+###+55555555555555555555555555",
"5555555555555555.$$$$$$O.#**%%%%*<+##;++555555555555555555555555",
"5555555555555555.$$$$$$O.+*+,,,,+2<+@,:+++5555555555555555555555",
"5555555555555555.$$$$$$O.++,,,,,,+2<+##>+1+555555555555555555555",
"5555555555555555.$$$$$$O.@,,,,,,,,%22%+#+11+55555555555555555555",
"5555555555555555O$$O$O$O.@,,,,,,,,+*111+*221+5555555555555555555",
"555555555555555.$$$O$OOO.@,,,,,,,,#%11111<21<+555555555555555555",
"555555555555555.$$$O$OOO.@,,,,,,,,#+1222222<<%555555555555555555",
"555555555555555.$$$O$OO$.@,,,,,,,,#+222221<*<<+55555555555555555",
"555555555555555.$$$O$OO$.@,,,,,,,,@+22222222*<%55555555555555555",
"555555555555555.O$$O$O.$.X,,,,,,,,@+22222222<+<+5555555555555555",
"5555555555555555.O$O.O.$.X,,,,,,,,X%222222222%<+5555555555555555",
"55555555555555555...5.5..X,,,,,,,,X*2222222221+%5555555555555555",
"5555555555555555555555555X,,,,,,,,X12222222222%+5555555555555555",
"5555555555555555555555555X,,,,,,,,X<2222222222*+5555555555555555",
"5555555555555555555555555X,,,,,,,,;X122222222XXXX555555555555555",
"5555555555555555555555555X,,,,,,,,,;XX2222XX@;,,;X55555555555555",
"555555555555555555555555+X;,,,,,,,,,,;@XX@;,,,#@#X55555555555555",
"555555555555555555555555+XX;,,,,,,,,,,,,,,,,,,,,@X55555555555555",
"555555555555555555555555X++X,,,,,,,,,,,,,,,,,,,,;X55555555555555",
"55555555555555555555555X,,,,X;,,,,,,,,,,,,,,,,##@X55555555555555",
"5555555555555555555555+++++++X;,,,,,,,,,,,,,,,,,,#X5555555555555",
"555555555555555555555+<1222222X@;,,,,,,,,,,,,,,,,;X5555555555555",
"555555555555555555555%1222222222X@;,,,,,,,,,;;X@;;X5555555555555",
"55555555555555555555+<<%+++++%<111XXXXXX@;;;@XX#;#X5555555555555",
"55555555555555555555+++,,,,,,,++%<111<<<<XXX55XXXX55555555555555",
"55555555555555555555+:,,,,,,,,,,,+%<<<<<%+;X55555555555555555555",
"55555555555555555555X:,,,,,,,,,,,,,+%<<+;;;@55555555555555555555",
"55555555555555555555X;,,,,,,,,,,,,,,@++;;;;#X5555555555555555555",
"55555555555555555555X;:,,,,,,,,,,,,;X;;;;;;;@5555555555555555555",
"555555555555555555555X;:,,,,,,,,,,,@;;;;;;;;#X555555555555555555",
"5555555555555555555555X@;;:,,,,,,,;X;;;;;;;;;X555555555555555555",
"55555555555555555555555X,,,,,,,,,,@#;;;;;;;;;X555555555555555555",
"55555555555555555555555@,,,,,,,,,;X@#;;;;;;;;X555555555555555555",
"5555555555555555555555X;,,,,,,,,,@X#;;;;;;;;#X555555555555555555",
"5555555555555555555555X,,,,,,,,,;X@;;;;;;;;;@5555555555555555555",
"5555555555555555555555@,,,,,,,,,@X#;;;;;;;;#X5555555555555555555",
"555555555555555555555X#,,,,,,,,;XX;;;;;;;;;@55555555555555555555",
"55555555555555555555X#;,,,,,,,,@5X;;;;;;;;#X55555555555555555555",
"55555555555555555555@;;,,,,,,,;X5X#;;;;;;;@555555555555555555555",
"5555555555555555555X#;;:,,,,:;@555X;;;;;;#X555555555555555555555",
"5555555555555555555@;;;;:,,:;#X555X;;;;;;@5555555555555555555555",
"555555555555555555X#;;;;;;;;;@5555X;;;;;#X5555555555555555555555",
"555555555555555555X;;;;;;;;;#X555X#;;;;;@55555555555555555555555",
"555555555555555555X;;;;;;;;;@333X#;;;;;;X55555555555555555555555",
"555555555555555555X;;;;;;;;#X333X;;;;;;#X34555555555555555555555",
"555555555555555555X;;;;;;;;@3333X;;;;;;@333334555555555555555555",
"555555555555555543X;;;;;;;#X3333X;;;;;;X333333345555555555555555",
"555555555555554333X;;;;;;;@33333X;;;;;;X333333333455555555555555",
"555555555555433333X;;;;;;#X33333X#;;;;#X333333333334555555555555",
"555555555554333333X;;;;;;@333333X#;;;;@3333333333333455555555555",
"555555555543333333X;;;;;;X3333333X;;;;X3333333333333345555555555",
"555555555533333333X;;;;;;X33333333XXXX33333333333333335555555555",
"555555555433333333X;;;;;;@33333333333333333333333333334555555555",
"555555555333333333X#;;;;;#X3333333333333333333333333333555555555",
"555555555333333333X#;;;;;;#X333333333333333333333333333555555555",
"5555555553333333333X#;;;;;;;X33333333333333333333333333555555555",
"55555555533333333333X@#;;;;;X33333333333333333333333333555555555",
"5555555554333333333333X@#;#X333333333333333333333333334555555555",
"555555555533333333333333XXX3333333333333333333333333335555555555",
"5555555555433333333333333333333333333333333333333333345555555555",
"5555555555543333333333333333333333333333333333333333455555555555",
"5555555555554333333333333333333333333333333333333334555555555555",
"5555555555555543333333333333333333333333333333333455555555555555",
"5555555555555554333333333333333333333333333333335555555555555555",
"5555555555555555543333333333333333333333333333455555555555555555",
"5555555555555555555543333333333333333333333455555555555555555555",
"5555555555555555555555555433333333333345555555555555555555555555",
"5555555555555555555555555555555555555555555555555555555555555555",
"5555555555555555555555555555555555555555555555555555555555555555",
"5555555555555555555555555555555555555555555555555555555555555555",
"5555555555555555555555555555555555555555555555555555555555555555",
"5555555555555555555555555555555555555555555555555555555555555555",
"5555555555555555555555555555555555555555555555555555555555555555",
"5555555555555555555555555555555555555555555555555555555555555555",
"5555555555555555555555555555555555555555555555555555555555555555",
"5555555555555555555555555555555555555555555555555555555555555555",
"5555555555555555555555555555555555555555555555555555555555555555",
"5555555555555555555555555555555555555555555555555555555555555555",
"5555555555555555555555555555555555555555555555555555555555555555",
"5555555555555555555555555555555555555555555555555555555555555555",
"5555555555555555555555555555555555555555555555555555555555555555",
"5555555555555555555555555555555555555555555555555555555555555555",
"5555555555555555555555555555555555555555555555555555555555555555",
"5555555555555555555555555555555555555555555555555555555555555555",
"5555555555555555555555555555555555555555555555555555555555555555",
"5555555555555555555555555555555555555555555555555555555555555555",
"5555555555555555555555555555555555555555555555555555555555555555"
};
