/* XPM */
static char *output_12[] = {
/* columns rows colors chars-per-pixel */
"64 130 26 1 ",
"  c black",
". c #222034",
"X c #45212D",
"o c #333A6C",
"O c #3F3F74",
"+ c #3C447C",
"@ c #46426C",
"# c #954A51",
"$ c #CB7173",
"% c #4F5AA5",
"& c #6A78AC",
"* c #616FCB",
"= c #7C8DB5",
"- c #639BFF",
"; c #9C859F",
": c #F5A489",
"> c #F9BF99",
", c #FFF3AB",
"< c #FFE0B1",
"1 c #A6AEE1",
"2 c #E1EAFD",
"3 c #FEFEFF",
"4 c white",
"5 c #3F3F74",
"6 c #5C5CA9",
"7 c None",
/* pixels */
"7777777777777777777777777777777777777777777777777777777777777777",
"7777777777777777777777777777777777777777777777777777777777777777",
"7777777777777777777777777777777777777777777777777777777777777777",
"7777777777777777777777777777777777777777777777777777777777777777",
"7777777777777777777777777777777777777777777777777777777777777777",
"7777777777777777777777777777777777777777777777777777777777777777",
"7777777777777777777777777777777777777777777777777777777777777777",
"7777777777777777777777777777777777777777777777777777777777777777",
"7777777777777777777777777777777777777777777777777777777777777777",
"7777777777777777777777777777777777777777777777777777777777777777",
"7777777777777777777777777777777777777777777777777777777777777777",
"7777777777777777777777777777777777777777777777777777777777777777",
"7777777777777777777777777777777777777777777777777777777777777777",
"7777777777777777777777777777777777777777777777777777777777777777",
"7777777777777777777777777777777777777777777777777777777777777777",
"7777777777777777777777777777777777777777777777777777777777777777",
"7777777777777777777777777777.........777777777777777777777777777",
"77777777777777777777777777.+%%%+.+%%%+.7777777777777777777777777",
"777777777777777777777777.+%****%+%****%+.77777777777777777777777",
"77777777777777777777777.********%********.7777777777777777777777",
"7777777777777777777777.******.o%%%o.******.777777777777777777777",
"777777777777777777777.****oooo%***%oooo****.77777777777777777777",
"77777777777777777777.+**oo%**o*****+%*%oo**+.7777777777777777777",
"77777777777777777777o%*o%****+*****%+***%o*%o7777777777777777777",
"7777777777777777777.+**o**%**%******+****o**+.777777777777777777",
"7777777777777777777o%*o%**%**%******+****%o*%o777777777777777777",
"7777777777777777777+*%o**%***%******+*****o%*+777777777777777777",
"777777777777777777.+*+o**%***%******o%****o+*+.77777777777777777",
"777777777777777777.+%o%**%***%******o+%***%o%+.77777777777777777",
"777777777777777777.++o***%***+%*****%.o****o++.77777777777777777",
"777777777777777777.+.%**%o***+o******.o%***%.+.77777777777777777",
"7777777777777777...o%***oo**%oo%*****.oo****o..77777777777777777",
"7777777777777777.o%%***%o.%*oo.o%****.ooo%**%oX77777777777777777",
"7777777777777777.%%**%oo+.ooo.<.o%**%..+oo%**%o.7777777777777777",
"77777777777777777.o%%oo+..oo.>>.oo++.>>.++oo%**%.777777777777777",
"77777777777777777X.ooo+.::..:>>>....::::..++oo...777777777777777",
"7777777777777777.X:....$    $:>>>>>:$    $....:X7777777777777777",
"7777777777777777o+X.++.      $>>>>>$      o%%oX77777777777777777",
"777777777777777.++.o%%o$X;    ><<<>    ;X.%%%o.77777777777777777",
"777777777777777o++o%*%.>#4OO4O<<<<<O4OO4#+**%..77777777777777777",
"77777777777777.+++o**+#<:4-OO-<<<<<-OO-4:+**o%.77777777777777777",
"77777777777777o++%.%*+X:<:4--<<<<<<<--4:<+*%.%.77777777777777777",
"7777777777777.++%%%o*+%X:>:>><<<<<<<>>:>:+*o%%.77777777777777777",
"7777777777777.%%%%%.%o%%X:<<<<<<<<<<<<<:Xo%.%%.77777777777777777",
"7777777777777o%%%%%%..%%%X:<<<<<<<<<<<:X%..%%%.77777777777777777",
"777777777777.+%%%%%%%%%%%XX#:<<$:$<<:#X.XX%%%%.77777777777777777",
"777777777777o%%%%%%%+%%%X:..X#:<<<:#X@1@::#X%%.77777777777777777",
"77777777777.+%%%%%%+o%%X::&1.$XXXXX$$&1@<<<:X+.77777777777777777",
"77777777777.%%%%%%%o+%%#:@11@:$$$$$:#&1@<<<<:X777777777777777777",
"77777777777.%%%%%%+o%%X:@44&#$:$$:$#:&1@<<<<<:X77777777777777777",
"77777777777.+%%%%+o+%%X$&44@<<<<<<<<@44@:<<<<<#77777777777777777",
"777777777777o%%%%+o%%%@&12@>><<<<<<<@44&$<<<<<:X7777777777777777",
"777777777777+%%%%oo%%@2222&>>>$,$>>>&221@<<<<<<#7777777777777777",
"777777777777.%%*+oo%@244442@>>:#:>@&22221:<<<<<:X777777777777777",
"7777777777777+%*+.o@12444444&@:#@&2222222@<<<<<<X777777777777777",
"7777777777777.+*+.@&2444444442@@224444444&<<<<<<#777777777777777",
"77777777777777.%o7@1244444444412444444444=:<<<<<:X77777777777777",
"777777777777777..7@11244444444144444444441#<<<<<<X77777777777777",
"777777777777777777@12324444444244444444442X<<<<<<#77777777777777",
"777777777777777777@=1224444442444444444444X<<<<<<:X7777777777777",
"777777777777777777@&&114424412444422144444X:><<<<<X7777777777777",
"7777777777777777X#@&=1=4442441244244414442X::><<<<X7777777777777",
"777777777777XXX#$$@&==12444124112112&2&1=1X><<<<<<X7777777777777",
"7777777777XX#$::::$@&1111222142=1=1&&2&1&X>><<<<<:X7777777777777",
"777777777X$X#::#$::@&&=11111124211===&$$X>><<<<<<#77777777777777",
"777777777XX$#$:X#::$@&&&122211442121=#<<#$><<<<<<X77777777777777",
"777777777XX$$#:#$:X$#@@@@&24212442121#<<$>$#$$$<>X77777777777777",
"777777777XX$:X#:::XX::::::@&2214442XX#<<:<<$<<>>:X77777777777777",
"777777777X$#::#:$X$X<<<<<<<<@@@@@@@X:#<<:<<:<#$>#777777777777777",
"7777777777XX$:XXXXXX<<<<<<<<<<<#X#<X:#::#<<$>:#:X777777777777777",
"777777777777XXXXX77@<<<<<<<<<<<$$:<X$:###><#:$#$X777777777777777",
"777777777777777777@1@@@@@@<<<<<>:<<<X$::X:::XXXX7777777777777777",
"777777777777777777@2224421&@@@@@<<<@&XX$$X::$XX77777777777777777",
"777777777777777777X@2444444444421&@1211XXX$$$X777777777777777777",
"777777777777777777X<@@@@&1244444424441&@::XXX7777777777777777777",
"777777777777777777X<<<<<<@&1244441442@::::::X7777777777777777777",
"777777777777777777X<<<<<<<<@&1111=11&:::::::X7777777777777777777",
"777777777777777777X><<<<<<<<<@@==&=@:::::::$X7777777777777777777",
"777777777777777777X:<<<<<<<<<<<@@@@::::::::#77777777777777777777",
"7777777777777777777#<<<<<<<<<<<$XX#::::::::X77777777777777777777",
"7777777777777777777X><<<<<<<<<<:X#$::::::::X77777777777777777777",
"7777777777777777777X:<<<<<<<<<<>X$:::::::::X77777777777777777777",
"77777777777777777777#<<<<<<<<<<<#:::::::::$X77777777777777777777",
"77777777777777777777X><<<<<<<<<<#:::::::::#777777777777777777777",
"77777777777777777777X:<<<<<<<<<<$::::::::$X777777777777777777777",
"777777777777777777777#><<<<<<<<<$::::::::#7777777777777777777777",
"777777777777777777777X:<<<<<<<<<$:::::::$X7777777777777777777777",
"7777777777777777777777#><<<<<<<<$:::::::#77777777777777777777777",
"7777777777777777777777X:<<<<<<<<$::::::$X77777777777777777777777",
"77777777777777777777777#<<<<<<<<#$$$$$#X777777777777777777777777",
"77777777777777777777777X<<<<<<<<#XXXXX67777777777777777777777777",
"77777777777777777777765X<<<<<<<<#5555555556777777777777777777777",
"77777777777777777765555X<<<<<<<<#5555555555556777777777777777777",
"77777777777777776555555X><<<<<<<:X555555555555567777777777777777",
"77777777777777655555555X:<<<<<<<>X555555555555555677777777777777",
"777777777777655555555555#<<<<<<<<X555555555555555556777777777777",
"777777777776555555555555X><<<<<<<X555555555555555555677777777777",
"777777777765555555555555X:<<<<<<<X555555555555555555567777777777",
"7777777777555555555555555#<<<<<<<X555555555555555555557777777777",
"7777777776555555555555555X><<<<<>X555555555555555555556777777777",
"7777777775555555555555555X:<<<<>:X555555555555555555555777777777",
"77777777755555555555555555#<<<>::#555555555555555555555777777777",
"77777777755555555555555555X:<<<<<:X55555555555555555555777777777",
"777777777555555555555555555X><<<<>X55555555555555555555777777777",
"7777777776555555555555555555X:::::X55555555555555555556777777777",
"77777777775555555555555555555XXXXX555555555555555555557777777777",
"7777777777655555555555555555555555555555555555555555567777777777",
"7777777777765555555555555555555555555555555555555555677777777777",
"7777777777776555555555555555555555555555555555555556777777777777",
"7777777777777765555555555555555555555555555555555677777777777777",
"7777777777777777555555555555555555555555555555556777777777777777",
"7777777777777777765555555555555555555555555555677777777777777777",
"7777777777777777777765555555555555555555555677777777777777777777",
"7777777777777777777777777655555555555567777777777777777777777777",
"7777777777777777777777777777777777777777777777777777777777777777",
"7777777777777777777777777777777777777777777777777777777777777777",
"7777777777777777777777777777777777777777777777777777777777777777",
"7777777777777777777777777777777777777777777777777777777777777777",
"7777777777777777777777777777777777777777777777777777777777777777",
"7777777777777777777777777777777777777777777777777777777777777777",
"7777777777777777777777777777777777777777777777777777777777777777",
"7777777777777777777777777777777777777777777777777777777777777777",
"7777777777777777777777777777777777777777777777777777777777777777",
"7777777777777777777777777777777777777777777777777777777777777777",
"7777777777777777777777777777777777777777777777777777777777777777",
"7777777777777777777777777777777777777777777777777777777777777777",
"7777777777777777777777777777777777777777777777777777777777777777",
"7777777777777777777777777777777777777777777777777777777777777777",
"7777777777777777777777777777777777777777777777777777777777777777",
"7777777777777777777777777777777777777777777777777777777777777777"
};
