/* XPM */
static char *output_28[] = {
/* columns rows colors chars-per-pixel */
"64 130 26 1 ",
"  c black",
". c #222034",
"X c #45212D",
"o c #333A6C",
"O c #3F3F74",
"+ c #3C447C",
"@ c #46426C",
"# c #954A51",
"$ c #CB7173",
"% c #4F5AA5",
"& c #6A78AC",
"* c #616FCB",
"= c #7C8DB5",
"- c #639BFF",
"; c #9C859F",
": c #F5A489",
"> c #F9BF99",
", c #FFF3AB",
"< c #FFE0B1",
"1 c #A6AEE1",
"2 c #E1EAFD",
"3 c #FEFEFF",
"4 c white",
"5 c #3F3F74",
"6 c #5C5CA9",
"7 c None",
/* pixels */
"7777777777777777777777777777777777777777777777777777777777777777",
"7777777777777777777777777777777777777777777777777777777777777777",
"7777777777777777777777777777777777777777777777777777777777777777",
"7777777777777777777777777777777777777777777777777777777777777777",
"7777777777777777777777777777777777777777777777777777777777777777",
"7777777777777777777777777777777777777777777777777777777777777777",
"7777777777777777777777777777777777777777777777777777777777777777",
"7777777777777777777777777777777777777777777777777777777777777777",
"7777777777777777777777777777777777777777777777777777777777777777",
"7777777777777777777777777777777777777777777777777777777777777777",
"7777777777777777777777777777777777777777777777777777777777777777",
"7777777777777777777777777777777777777777777777777777777777777777",
"7777777777777777777777777777777777777777777777777777777777777777",
"7777777777777777777777777777777777777777777777777777777777777777",
"7777777777777777777777777777777777777777777777777777777777777777",
"7777777777777777777777777777777777777777777777777777777777777777",
"777777777777777777777777777.........7777777777777777777777777777",
"7777777777777777777777777.+%%%+.+%%%+.77777777777777777777777777",
"77777777777777777777777.+%****%+%****%+.777777777777777777777777",
"7777777777777777777777.********%********.77777777777777777777777",
"777777777777777777777.******.o%%%o.******.7777777777777777777777",
"77777777777777777777.****oooo%***%oooo****.777777777777777777777",
"7777777777777777777.+**oo%**o*****+%*%oo**+.77777777777777777777",
"7777777777777777777o%*o%****+*****%+***%o*%o77777777777777777777",
"777777777777777777.+**o**%**%******+****o**+.7777777777777777777",
"777777777777777777o%*o%**%**%******+****%o*%o7777777777777777777",
"777777777777777777+*%o**%***%******+*****o%*+7777777777777777777",
"77777777777777777.+*+o**%***%******o%****o+*+.777777777777777777",
"77777777777777777.+%o%**%***%******o+%***%o%+.777777777777777777",
"77777777777777777.++o***%***+%*****%.o*****o+.777777777777777777",
"77777777777777777.+.%**%o***+o%*****.o%****%..777777777777777777",
"77777777777777777..%***oo**%o.o*****o.o*****%o...777777777777777",
"77777777777777777.o***%o.%*oo.o%****o.oo%******%.777777777777777",
"7777777777777777.o%*%oo+.oo+.<.o%***%o.oo+ooooo.7777777777777777",
"7777777777777777.ooooo++.o+o.>>>.o++oo>..+++++.77777777777777777",
"7777777777777777X...o+..:...>>>>>>....::>.....X77777777777777777",
"7777777777777777X:.+..$    $:>>>>>:$    $.++.:X.7777777777777777",
"77777777777777777X.++..     $>>>>>$      o%%o.+o7777777777777777",
"77777777777777777..o%%oX;    ><<<>    ;X$.+%%o++.777777777777777",
"77777777777777777.%o**+#4OO4O<<<<<O4OO4#>:+**o++o777777777777777",
"77777777777777777.%o**+:4-OO-<<<<<-OO-4:<#+**o+++.77777777777777",
"77777777777777777.%.%*+<:4--<<<<<<<--4:<:X+*%.%++o77777777777777",
"77777777777777777.%%o*+:>:>><<<<<<<>>:>:X%+*o%%%++.7777777777777",
"77777777777777777.%%.%oX:<<<<<<<<<<<<<:X%%o%.%%%%%.7777777777777",
"77777777777777777.%%%..%X:<<<<<<<<<<<:X%%%..%%%%%%o7777777777777",
"77777777777777777.%%%%XX.X#:<<$:$<<:#XX%%%%%%%%%%%+.777777777777",
"77777777777777777.%%X#::@1@X#:<<<:#X..:X%%%+%%%%%%%o777777777777",
"77777777777777777.+X:<<<@1&$$XXXXX$.1&::X%%o+%%%%%%+.77777777777",
"777777777777777777X:<<<<@1&#:$$$$$:@11@:#%%+o%%%%%%%.77777777777",
"77777777777777777X:<<<<<@1&:#$:$$:$#&44@:X%%o+%%%%%%.77777777777",
"77777777777777777#<<<<<:@44@<<<<<<<<@44&$X%%+o+%%%%+.77777777777",
"7777777777777777X:<<<<<$&44@<<<<<<<>>@21&@%%%o+%%%%o777777777777",
"7777777777777777#<<<<<<@122&>>>$,$>>>&2222@%%oo%%%%+777777777777",
"777777777777777X:<<<<<:12222&@>:#:>>@244442@%oo+*%%.777777777777",
"777777777777777X<<<<<<@2222222&@#:@&44444421@o.+*%+7777777777777",
"777777777777777#<<<<<<&444444422@@2444444442&@.+*+.7777777777777",
"77777777777777X:<<<<<:=4444444442144444444421@7o%.77777777777777",
"77777777777777X<<<<<<#14444444444144444444211@7..777777777777777",
"77777777777777#<<<<<<X24444444444244444442321@777777777777777777",
"7777777777777X:<<<<<<X4444444444442444444221=@777777777777777777",
"7777777777777X<<<<<>:X444441224444214424411&&@777777777777777777",
"7777777777777X<<<<>::X2444144424421442444=1=&@#X7777777777777777",
"7777777777777X<<<<<<>X1=1&2&21121142144421==&@$$#XXX777777777777",
"7777777777777X:<<<<<>>X&1&2&&1=1=2412221111&@$::::$#XX7777777777",
"77777777777777#<<<<<<>>X$$&===11242111111=&&@::$#::#X$X777777777",
"77777777777777X<<<<<<>$#<<#=121244112221&&&@$::#X:$#$XX777777777",
"77777777777777X><$$$#$>$<<#12124421242&@@@@#$X:$#:#$$XX777777777",
"77777777777777X:>><<$<<:<<#XX2444122&@::::::XX:::#X:$XX777777777",
"777777777777777#>$#<:<<:<<#:X@@@@@@@<<<<<<<<X$X$:#::#$X777777777",
"777777777777777X:#:>$<<#::#:X<#X#<<<<<<<<<<<XXXXXX:$XX7777777777",
"777777777777777X$#$:#<>###:$X<:$$<<<<<<<<<<<@77XXXXX777777777777",
"7777777777777777XXXX:::X::$X<<<:><<<<<@@@@@@1@777777777777777777",
"77777777777777777XX$::X$$XX&@<<<@@@@@&1244222@777777777777777777",
"777777777777777777X$$$XXX1121@&1244444444442@X777777777777777777",
"7777777777777777777XXX::@&1444244444421&@@@@<X777777777777777777",
"7777777777777777777X::::::@2441444421&@<<<<<<X777777777777777777",
"7777777777777777777X:::::::&11=1111&@<<<<<<<<X777777777777777777",
"7777777777777777777X$:::::::@=&==@@<<<<<<<<<>X777777777777777777",
"77777777777777777777#::::::::@@@@<<<<<<<<<<<:X777777777777777777",
"77777777777777777777X::::::::#XX$<<<<<<<<<<<#7777777777777777777",
"77777777777777777777X::::::::$#X:<<<<<<<<<<>X7777777777777777777",
"77777777777777777777X:::::::::$X><<<<<<<<<<:X7777777777777777777",
"77777777777777777777X$:::::::::#<<<<<<<<<<<#77777777777777777777",
"777777777777777777777#:::::::::#<<<<<<<<<<>X77777777777777777777",
"777777777777777777777X$::::::::$<<<<<<<<<<:X77777777777777777777",
"7777777777777777777777#::::::::$<<<<<<<<<>#777777777777777777777",
"7777777777777777777777X$:::::::$<<<<<<<<<:X777777777777777777777",
"77777777777777777777777#:::::::$<<<<<<<<>#7777777777777777777777",
"77777777777777777777777X$::::::$<<<<<<<<:X7777777777777777777777",
"777777777777777777777777X#$$$$$#<<<<<<<<#77777777777777777777777",
"77777777777777777777777776XXXXX#<<<<<<<<X77777777777777777777777",
"7777777777777777777776555555555#<<<<<<<<X56777777777777777777777",
"7777777777777777776555555555555#<<<<<<<<X55556777777777777777777",
"777777777777777765555555555555X:<<<<<<<>X55555567777777777777777",
"777777777777776555555555555555X><<<<<<<:X55555555677777777777777",
"777777777777655555555555555555X<<<<<<<<#555555555556777777777777",
"777777777776555555555555555555X<<<<<<<>X555555555555677777777777",
"777777777765555555555555555555X<<<<<<<:X555555555555567777777777",
"777777777755555555555555555555X<<<<<<<#5555555555555557777777777",
"777777777655555555555555555555X><<<<<>X5555555555555556777777777",
"777777777555555555555555555555X:><<<<:X5555555555555555777777777",
"777777777555555555555555555555#::><<<#55555555555555555777777777",
"77777777755555555555555555555X:<<<<<:X55555555555555555777777777",
"77777777755555555555555555555X><<<<>X555555555555555555777777777",
"77777777765555555555555555555X:::::X5555555555555555556777777777",
"777777777755555555555555555555XXXXX55555555555555555557777777777",
"7777777777655555555555555555555555555555555555555555567777777777",
"7777777777765555555555555555555555555555555555555555677777777777",
"7777777777776555555555555555555555555555555555555556777777777777",
"7777777777777765555555555555555555555555555555555677777777777777",
"7777777777777777555555555555555555555555555555556777777777777777",
"7777777777777777765555555555555555555555555555677777777777777777",
"7777777777777777777765555555555555555555555677777777777777777777",
"7777777777777777777777777655555555555567777777777777777777777777",
"7777777777777777777777777777777777777777777777777777777777777777",
"7777777777777777777777777777777777777777777777777777777777777777",
"7777777777777777777777777777777777777777777777777777777777777777",
"7777777777777777777777777777777777777777777777777777777777777777",
"7777777777777777777777777777777777777777777777777777777777777777",
"7777777777777777777777777777777777777777777777777777777777777777",
"7777777777777777777777777777777777777777777777777777777777777777",
"7777777777777777777777777777777777777777777777777777777777777777",
"7777777777777777777777777777777777777777777777777777777777777777",
"7777777777777777777777777777777777777777777777777777777777777777",
"7777777777777777777777777777777777777777777777777777777777777777",
"7777777777777777777777777777777777777777777777777777777777777777",
"7777777777777777777777777777777777777777777777777777777777777777",
"7777777777777777777777777777777777777777777777777777777777777777",
"7777777777777777777777777777777777777777777777777777777777777777",
"7777777777777777777777777777777777777777777777777777777777777777"
};
