/* XPM */
static char *output_15[] = {
/* columns rows colors chars-per-pixel */
"64 130 23 1 ",
"  c black",
". c #222034",
"X c #45212D",
"o c #3F3F74",
"O c #3C447C",
"+ c #46426C",
"@ c #954A51",
"# c #CB7173",
"$ c #4F5AA5",
"% c #6A78AC",
"& c #616FCB",
"* c #7C8DB5",
"= c #639BFF",
"- c #9C859F",
"; c #F5A489",
": c #F9BF99",
"> c #FFE0B1",
", c #A6AEE1",
"< c #E1EAFD",
"1 c white",
"2 c #3F3F74",
"3 c #5C5CA9",
"4 c None",
/* pixels */
"4444444444444444444444444444444444444444444444444444444444444444",
"4444444444444444444444444444444444444444444444444444444444444444",
"4444444444444444444444444444444444444444444444444444444444444444",
"4444444444444444444444444444444444444444444444444444444444444444",
"4444444444444444444444444444444444444444444444444444444444444444",
"4444444444444444444444444444444444444444444444444444444444444444",
"4444444444444444444444444444444444444444444444444444444444444444",
"4444444444444444444444444444444444444444444444444444444444444444",
"4444444444444444444444444444444444444444444444444444444444444444",
"4444444444444444444444444444444444444444444444444444444444444444",
"4444444444444444444444444444444444444444444444444444444444444444",
"4444444444444444444444444444.........444444444444444444444444444",
"44444444444444444444444444.O$&&&&&&&$O.4444444444444444444444444",
"444444444444444444444444.O$&&&&&&&&&&&$O.44444444444444444444444",
"44444444444444444444444.$&&&&&&&&&&&&&&&$.4444444444444444444444",
"4444444444444444444444.&&&&&&&&&&&&&&&&&&&.444444444444444444444",
"444444444444444444444.$&&&&&&&&&&&&&&&$OO.....444444444444444444",
"444444444444444444444O&&&&&&&&&&&&&&$$&$$OOOOO.44444444444444444",
"44444444444444444444.$&&&&&&&&&&&&&$&&$&&$$$$$O.4444444444444444",
"44444444444444444444O&&&&&&&&&&&&&$&&$&&$O&&&&$.4444444444444444",
"4444444444444444444.$&&&&&&&&&&&&.&&$&&&O$&&&&$O.444444444444444",
"4444444444444444444.&&&&&&&&&&&&&O&O&&&&$&&&&&&$O444444444444444",
"444444444444444444.O&&&&&&&&&&&&.$O$&&&&$&&&&&&$$.44444444444444",
"444444444444444444.$&&&&&&&&&&&&O&O&&&&&O&&&&&&$$.44444444444444",
"444444444444444444.$&&&&&&&&&&&.$O$&&&&&O&&&&&&$$.44444444444444",
"44444444444444444.O$&&&&&&&&&&$O$.$&&&&&O&&&&&&$$.44444444444444",
"44444444444444444.$$$&&&&&&&&$.$$O$$&&&$.$&&&&$$$.44444444444444",
"44444444444444444.$$$&&&&&&&$O.$.&$$$&$$.O&&&$$$O444444444444444",
"4444444444444444.O$$$$&&&&&$OO.$.O$$$$$O..$&&$$O.444444444444444",
"4444444444444444.$$$$$$$$$O....$O..O$$O...O$$$$.4444444444444444",
"444444444444444.O$$$$$$$$$.@X@.$$$O....;;::....44444444444444444",
"444444444444444.$$$$$$$$$O@:>>.$$$$$.#   #:X44444444444444444444",
"444444444444444O$$$$$$$$$.X>;#.$$$$$.     ;X44444444444444444444",
"44444444444444.$$$$$$$$$$.X>:;.$$$$O.X-    @44444444444444444444",
"44444444444444O$$$$$$$$$$O@;:;.$$$$.;@1o1;:#@X444444444444444444",
"4444444444444.$$$$$$$$$$$O.X:#.$$$$.>;1oo:>:;#X44444444444444444",
"4444444444444O$$$$$$$$$$OOO@;:.$$$$.>>;==:>>:;X44444444444444444",
"444444444444.$$$$$$$$$$$OOO.X;:O$$$.>>:;:>>>:@444444444444444444",
"444444444444O$$$$$$$$$$$OOOO.XX.$$$.>>>>>>>:;X444444444444444444",
"44444444444.$$$$$$$$$$$OOOOO.X##O$$.>>>>>>:;X4444444444444444444",
"44444444444O$$$$$$$$$$$OOOOO.@##.$$.:::::@#X44444444444444444444",
"4444444444.$$$$$$$$$$$$OOOO.#####...#;:::;X444444444444444444444",
"4444444444.$$$$$$$$$$$OOOOO.#+++++##@@@XXX4444444444444444444444",
"4444444444.$$$$$$$$$$$OOOOO.+,,,,,+##+44444444444444444444444444",
"4444444444.$$$$$$$$$$$OOOO.+**%%%*,+##+++44444444444444444444444",
"4444444444.$$$$$$O$$$OOOOO.*++>>>+1,+@::;++444444444444444444444",
"44444444444O$$$$$O$$$OOOOO.+:>>>>>+11++@:+*++4444444444444444444",
"44444444444.$$$$$O$$$OOOOO.@>>>>>>>+1<*%+*,,*+444444444444444444",
"444444444444O$$$$O$$OOOOOO.X>>>>>>>>%<<<<<**,*+44444444444444444",
"444444444444.$$$$OO$OOOOOO.X>>>>>>>>+*<11111*,+44444444444444444",
"4444444444444.O$$OO$OOOOOO.X>>>>>>>>@%1111111+*+4444444444444444",
"44444444444444.$$$O$OOOOOO.X>>>>>>>>@+11111111++4444444444444444",
"444444444444444.$$OOOOOOOO.X>>>>>>>>X,111111111+4444444444444444",
"4444444444444444.$OOOO.OO.*X;>>>>>>>;X111111111*+444444444444444",
"44444444444444444.O.OO.OO.+*@>>>>>>>>X111111111XXXX4444444444444",
"444444444444444444.4..#..;+*X>>>>>>>>X1111111XX;>>;X444444444444",
"4444444444444444444444@;;;+*X>>>>>>>>X,11111X;>>>##@X44444444444",
"4444444444444444444444X#;;+*X;>>>>>>>@%,11,X>>>>>>>>;X4444444444",
"44444444444444444444444@;;++*@>>>>>>>;@XXX@;>>>>>>>>;X4444444444",
"44444444444444444444444X#;XX+X>>>>>>>>>>>>>>>>>>>>#@#X4444444444",
"444444444444444444444444XX;>>X;>>>>>>>>>>>>>>>>>>>>>@X4444444444",
"444444444444444444444444X;>>>>@>>>>>>>>>>>>>>>>>>>>>>;X444444444",
"44444444444444444444444++++>>>X;>>>>>>>>>>>>>>>>;;@@>;X444444444",
"4444444444444444444444+,<<,%++++>>>>>>>>>>>>>>:;XXX#;X4444444444",
"444444444444444444444+,<1111111<X;>>>>>>>>>:;;#X44XXX44444444444",
"444444444444444444444++++++%,<111X@;;;;;;;#@XXX44444444444444444",
"44444444444444444444X;>>>>>>++%,<11XXXXXXXX444444444444444444444",
"44444444444444444444X:>>>>>>>>>+%,<<<<,,,+X444444444444444444444",
"44444444444444444444X:>>>>>>>>>>>+%,<,,,+;X444444444444444444444",
"44444444444444444444X;>>>>>>>>>>>>>+++++;;@444444444444444444444",
"44444444444444444444X#>>>>>>>>>>>>>>;X;;;;#X44444444444444444444",
"444444444444444444444@:>>>>>>>>>>>>>@;;;;;;X44444444444444444444",
"444444444444444444444X;:>>>>>>>>>>>;X;;;;;;@44444444444444444444",
"4444444444444444444444X;;;:>>>>>>>>@;;;;;;;#X4444444444444444444",
"44444444444444444444444X>>>>>>>>>>;X;;;;;;;;X4444444444444444444",
"44444444444444444444444X>>>>>>>>>>@;;;;;;;;;@4444444444444444444",
"444444444444444444XXXX4X>>>>>>>>>;X#;;;;;;;;#X444444444444444444",
"444444444444444XX@#;;#@X>>>>>>>>>@4X#;;;;;;;;X444444444444444444",
"4444444444XXXX@#;;;;;;;;#>>>>>>>;X44@;;;;;;;;@444444444444444444",
"444444444X#;;;;;;;;;;;;;;:>>>>>:@444X#;;;;;;;#X44444444444444444",
"444444444X;;;;;;;;;;;;;;;;:::::;X4444@;;;;;;;;X44444444444444444",
"444444444@;;;;;;;;;;;;;;;;;;;;;@44444X#;;;;;;;@44444444444444444",
"44444444X#;;;;;;;;;;;;;;;;;;;;#X444444@;;;;;;;#X4444444444444444",
"44444444X;;;;;;;;;;;;;;;;;;;;;X4444444X;;;;;;;;X4444444444444444",
"44444444X;;;;;;;;;;;;;;;;;;;;X44444444X;;;;;;;;@4444444444444444",
"44444444X;;;;#@XXX@#;;;;;;;#X444444444X;;;;;;;;#X444444444444444",
"44444444X#;;#X44444XXXXXXXXX2222222222X#;;;;;;;;X444444444444444",
"444444444X;;X44444444322222222222222222@;;;;;;;;@444444444444444",
"4444444444XX444444322222222222222222222X#;;;;;;;#X44444444444444",
"4444444444444444322222222222222222222222X;;;;;;;;X44444444444444",
"44444444444444322222222222222222222222222X#;;;;;;@44444444444444",
"444444444444322222222222222222222222222222@;;;;;;#@X444444444444",
"444444444443222222222222222222222222222222X#;;;;;;;#X44444444444",
"4444444444322222222222222222222222222222222@;;;;;;;;;X4444444444",
"4444444444222222222222222222222222222222222X#;;;;;;;;X4444444444",
"44444444432222222222222222222222222222222222@;;;;;;#X23444444444",
"44444444422222222222222222222222222222222222X#;;#@XX222444444444",
"444444444222222222222222222222222222222222222XXXX222222444444444",
"4444444442222222222222222222222222222222222222222222222444444444",
"4444444442222222222222222222222222222222222222222222222444444444",
"4444444443222222222222222222222222222222222222222222223444444444",
"4444444444222222222222222222222222222222222222222222224444444444",
"4444444444322222222222222222222222222222222222222222234444444444",
"4444444444432222222222222222222222222222222222222222344444444444",
"4444444444443222222222222222222222222222222222222223444444444444",
"4444444444444432222222222222222222222222222222222344444444444444",
"4444444444444443222222222222222222222222222222224444444444444444",
"4444444444444444432222222222222222222222222222344444444444444444",
"4444444444444444444432222222222222222222222344444444444444444444",
"4444444444444444444444444322222222222234444444444444444444444444",
"4444444444444444444444444444444444444444444444444444444444444444",
"4444444444444444444444444444444444444444444444444444444444444444",
"4444444444444444444444444444444444444444444444444444444444444444",
"4444444444444444444444444444444444444444444444444444444444444444",
"4444444444444444444444444444444444444444444444444444444444444444",
"4444444444444444444444444444444444444444444444444444444444444444",
"4444444444444444444444444444444444444444444444444444444444444444",
"4444444444444444444444444444444444444444444444444444444444444444",
"4444444444444444444444444444444444444444444444444444444444444444",
"4444444444444444444444444444444444444444444444444444444444444444",
"4444444444444444444444444444444444444444444444444444444444444444",
"4444444444444444444444444444444444444444444444444444444444444444",
"4444444444444444444444444444444444444444444444444444444444444444",
"4444444444444444444444444444444444444444444444444444444444444444",
"4444444444444444444444444444444444444444444444444444444444444444",
"4444444444444444444444444444444444444444444444444444444444444444",
"4444444444444444444444444444444444444444444444444444444444444444",
"4444444444444444444444444444444444444444444444444444444444444444",
"4444444444444444444444444444444444444444444444444444444444444444",
"4444444444444444444444444444444444444444444444444444444444444444"
};
