/* XPM */
static char *output_0[] = {
/* columns rows colors chars-per-pixel */
"64 130 26 1 ",
"  c black",
". c #222034",
"X c #45212D",
"o c #333A6C",
"O c #3F3F74",
"+ c #3C447C",
"@ c #46426C",
"# c #8F563B",
"$ c #954A51",
"% c #CB7173",
"& c #4F5AA5",
"* c #6A78AC",
"= c #616FCB",
"- c #7C8DB5",
"; c #639BFF",
": c #9C859F",
"> c #F5A489",
", c #F9BF99",
"< c #FFF3AB",
"1 c #FFE0B1",
"2 c #A6AEE1",
"3 c #E1EAFD",
"4 c white",
"5 c #3F3F74",
"6 c #5C5CA9",
"7 c None",
/* pixels */
"7777777777777777777777777777777777777777777777777777777777777777",
"7777777777777777777777777777777777777777777777777777777777777777",
"7777777777777777777777777777777777777777777777777777777777777777",
"7777777777777777777777777777777777777777777777777777777777777777",
"7777777777777777777777777777777777777777777777777777777777777777",
"7777777777777777777777777777777777777777777777777777777777777777",
"7777777777777777777777777777777777777777777777777777777777777777",
"7777777777777777777777777777777777777777777777777777777777777777",
"7777777777777777777777777777777777777777777777777777777777777777",
"7777777777777777777777777777777777777777777777777777777777777777",
"7777777777777777777777777777777777777777777777777777777777777777",
"7777777777777777777777777777777777777777777777777777777777777777",
"7777777777777777777777777777777777777777777777777777777777777777",
"7777777777777777777777777777777777777777777777777777777777777777",
"7777777777777777777777777777777777777777777777777777777777777777",
"7777777777777777777777777777777777777777777777777777777777777777",
"7777777777777777777777777777777777777777777777777777777777777777",
"7777777777777777777777777777.........777777777777777777777777777",
"77777777777777777777777777.+&&&+.+&&&+.7777777777777777777777777",
"777777777777777777777777.+&====&+&====&+.77777777777777777777777",
"77777777777777777777777.========&========.7777777777777777777777",
"7777777777777777777777.======.o&&&o.======.777777777777777777777",
"777777777777777777777.====oooo&===&oooo====.77777777777777777777",
"77777777777777777777.+==oo&==o=====+&=&oo==+.7777777777777777777",
"77777777777777777777o&=o&====+=====&+===&o=&o7777777777777777777",
"7777777777777777777.+==o==&==&======+====o==+.777777777777777777",
"7777777777777777777o&=o&==&==&======+====&o=&o777777777777777777",
"7777777777777777777+=&o==&===&======+=====o&=+777777777777777777",
"777777777777777777.+=+o==&===&======o&====o+=+.77777777777777777",
"777777777777777777.+&o&==&===&======o+&===&o&+.77777777777777777",
"777777777777777777.++o===&===+&=====&.o====o++.77777777777777777",
"777777777777777777.+.&==&o===+o&=====.o&===&.+.77777777777777777",
"7777777777777777...o&===oo==&o.o=====o.o====&o...777777777777777",
"7777777777777777.o&====&o.&=oo1o&====o.oo&=====&.777777777777777",
"77777777777777777.o&=&oo+.oo+.1.o&==&o#.ooooooo.7777777777777777",
"77777777777777777X.oooo+..o+.,,,.o++oo,,.+++++.X7777777777777777",
"77777777777777777X,..o+.>>..>,,,,,....>>>.....,X7777777777777777",
"77777777777777777X>.+..%    %>,,,,,>%    %.++.>X7777777777777777",
"77777777777777777.X.++.      %,,,,,%      o&&oX.7777777777777777",
"77777777777777777.&o&&o%X:    ,111,    :X%+&&o&.7777777777777777",
"77777777777777777.&o==+,$4OO4O11111O4OO4$.+=&o&.7777777777777777",
"77777777777777777.&o==+1>4;OO;11111;OO;4>+&=o&&.7777777777777777",
"77777777777777777.&.==+>1>4;;1111111;;4>1+=&.&&.7777777777777777",
"77777777777777777o&.&=+X>,>,,1111111,,>,>+=o&&&o7777777777777777",
"7777777777777777.+&.oo.&X>1111111111111>Xo&.&&&+.777777777777777",
"7777777777777777.&&&..&&&X>11111111111>X&..&&&&&.777777777777777",
"7777777777777777.&&&&&&X..X$>11%>%11>$X..&&&&&&&.777777777777777",
"7777777777777777.&&&&X$%@2@%X$>111>$X%@2@$X&&&&&.777777777777777",
"7777777777777777.&&&X>11@2@>%%XXXXX%%>@2@1>X&&&&.777777777777777",
"7777777777777777.&&X>111@4@$>>%%%%%>>$@4@111X&&&.777777777777777",
"7777777777777777.&&$1111@4@>$%>%%%>%$>@4@111>X&&.777777777777777",
"7777777777777777.&X%111>@4@11111111111@4@>111$&&.777777777777777",
"7777777777777777.&X>111%*3*11111111111*3*%11,%X&.777777777777777",
"7777777777777777.&$>,11@233@,,,%<%,,,@332@,,>>X&.777777777777777",
"7777777777777777.X%>>>>23333*@,,$,,@*33332@>>>$&.777777777777777",
"7777777777777777.X>>>>@3344444*,%,*44444333@>>%X.777777777777777",
"7777777777777777.X>>>>244444443*@*344444443*>>>Xo777777777777777",
"7777777777777777.$>>>@4444444442343444444443@>>$&.77777777777777",
"7777777777777777X%>>>*4444444443243444444444*>>%X&.7777777777777",
"7777777777777777X>>>@24444444444232444444333-@>>X+.7777777777777",
"7777777777777777X>>>*443333444444244444434442@>>X.77777777777777",
"7777777777777777$>>@3424444344444244444434422@,,$777777777777777",
"777777777777777X>,,@3423244344432-244444232--@11>X77777777777777",
"777777777777777$,11@23-2*32-34443-344333-2-*-@11,X77777777777777",
"77777777777777X>111@222-*3-22344323442222-**-@,11$77777777777777",
"77777777777777$1111@-222233223443*344222222-X>,,,>X7777777777777",
"7777777777777X>,,,,,X-22223322444*244322222X>%%%,%$X777777777777",
"777777777777X$%,%%%>$*--222222344223443222X>%11>11,,X77777777777",
"77777777777X,111>11%,X@*34334234432344343*X,%11>11>1>X7777777777",
"7777777777X>1>11>11%,X*@@@*3443443@343*@@1X,$11%11%1>1X777777777",
"777777777X,>1%11$11$,X432*@@@@@@*@1@@@@@@@X>$>>$1>$1%1X777777777",
"777777777X,%1$>1$>>$>X24432*@@1%$11@@*2344X>>XXX>>X>$>X777777777",
"777777777X>$>X>>XXX>>X@*234432*@@@*23444444X>>%X%X%%X>X777777777",
"777777777X>X%%X%X%>>X111@*234444444444432*@@XXXXXXXX%%X777777777",
"777777777X%%XXXXXXXX111111@*3444344432*@@1111X777777XX7777777777",
"7777777777XX777777X11111111%@2332432*@1111111X777777777777777777",
"777777777777777777X111111111$@22-22@111111111X777777777777777777",
"777777777777777777X1111111111$@-*-@1111111111X777777777777777777",
"777777777777777777X111111111111@@@1111111111,X777777777777777777",
"777777777777777777X>11111111111XX>1111111111>X777777777777777777",
"7777777777777777777$11111111111$X11111111111$7777777777777777777",
"7777777777777777777X11111111111>$1111111111,X7777777777777777777",
"7777777777777777777X>11111111111$1111111111>X7777777777777777777",
"77777777777777777777$11111111111%1111111111$77777777777777777777",
"77777777777777777777X11111111111%1111111111X77777777777777777777",
"77777777777777777777X>1111111111%1111111111X77777777777777777777",
"777777777777777777777$,111111111%111111111,X77777777777777777777",
"777777777777777777777X>,1111111,%111111111>X77777777777777777777",
"7777777777777777777777$>1111111>$11111111,$777777777777777777777",
"7777777777777777777777X%>,111,>%X,1111111>X777777777777777777777",
"77777777777777777777777X%>>>>>>XX>,11111,%X777777777777777777777",
"777777777777777777777655X$%>>%X5X>>,,,,,>$6777777777777777777777",
"77777777777777777765555555XXXX55X>>>>>>>>X5556777777777777777777",
"77777777777777776555555555555555X>>>>>>>%X5555567777777777777777",
"77777777777777655555555555555555X>>>>>>>$55555555677777777777777",
"77777777777765555555555555555555X>>>>>>>X55555555556777777777777",
"77777777777655555555555555555555X>>>>>>>X55555555555677777777777",
"77777777776555555555555555555555X>>>>>>>X55555555555567777777777",
"77777777775555555555555555555555X>>>>>>%X55555555555557777777777",
"77777777765555555555555555555555X>>>>>>$555555555555556777777777",
"77777777755555555555555555555555X>>>>>>X555555555555555777777777",
"77777777755555555555555555555555X,1111,X555555555555555777777777",
"77777777755555555555555555555555X111111X555555555555555777777777",
"77777777755555555555555555555555X,1111,X555555555555555777777777",
"777777777655555555555555555555555X,11,X5555555555555556777777777",
"7777777777555555555555555555555555XXXX55555555555555557777777777",
"7777777777655555555555555555555555555555555555555555567777777777",
"7777777777765555555555555555555555555555555555555555677777777777",
"7777777777776555555555555555555555555555555555555556777777777777",
"7777777777777765555555555555555555555555555555555677777777777777",
"7777777777777777555555555555555555555555555555556777777777777777",
"7777777777777777765555555555555555555555555555677777777777777777",
"7777777777777777777765555555555555555555555677777777777777777777",
"7777777777777777777777777655555555555567777777777777777777777777",
"7777777777777777777777777777777777777777777777777777777777777777",
"7777777777777777777777777777777777777777777777777777777777777777",
"7777777777777777777777777777777777777777777777777777777777777777",
"7777777777777777777777777777777777777777777777777777777777777777",
"7777777777777777777777777777777777777777777777777777777777777777",
"7777777777777777777777777777777777777777777777777777777777777777",
"7777777777777777777777777777777777777777777777777777777777777777",
"7777777777777777777777777777777777777777777777777777777777777777",
"7777777777777777777777777777777777777777777777777777777777777777",
"7777777777777777777777777777777777777777777777777777777777777777",
"7777777777777777777777777777777777777777777777777777777777777777",
"7777777777777777777777777777777777777777777777777777777777777777",
"7777777777777777777777777777777777777777777777777777777777777777",
"7777777777777777777777777777777777777777777777777777777777777777",
"7777777777777777777777777777777777777777777777777777777777777777",
"7777777777777777777777777777777777777777777777777777777777777777"
};
