/* XPM */
static char *output_30[] = {
/* columns rows colors chars-per-pixel */
"64 130 25 1 ",
"  c black",
". c #222034",
"X c #45212D",
"o c #3F3F74",
"O c #3C447C",
"+ c #46426C",
"@ c #8F563B",
"# c #954A51",
"$ c #CB7173",
"% c #4F5AA5",
"& c #6A78AC",
"* c #616FCB",
"= c #7C8DB5",
"- c #639BFF",
"; c #9C859F",
": c #F5A489",
"> c #F9BF99",
", c #FFF3AB",
"< c #FFE0B1",
"1 c #A6AEE1",
"2 c #E1EAFD",
"3 c white",
"4 c #3F3F74",
"5 c #5C5CA9",
"6 c None",
/* pixels */
"6666666666666666666666666666666666666666666666666666666666666666",
"6666666666666666666666666666666666666666666666666666666666666666",
"6666666666666666666666666666666666666666666666666666666666666666",
"6666666666666666666666666666666666666666666666666666666666666666",
"6666666666666666666666666666666666666666666666666666666666666666",
"6666666666666666666666666666666666666666666666666666666666666666",
"6666666666666666666666666666666666666666666666666666666666666666",
"6666666666666666666666666666666666666666666666666666666666666666",
"6666666666666666666666666666666666666666666666666666666666666666",
"6666666666666666666666666666666666666666666666666666666666666666",
"6666666666666666666666666666666666666666666666666666666666666666",
"6666666666666666666666666666666666666666666666666666666666666666",
"6666666666666666666666666666666666666666666666666666666666666666",
"6666666666666666666666666666666666666666666666666666666666666666",
"666666666666666666666666666.........6666666666666666666666666666",
"6666666666666666666666666.O%*******%O.66666666666666666666666666",
"66666666666666666666666.O%***********%O.666666666666666666666666",
"6666666666666666666666.%***************%.66666666666666666666666",
"66666666666666666666...OO%***************.6666666666666666666666",
"666666666666666666..OOO%%*%%*************%.666666666666666666666",
"66666666666666666.O%%%%**%**%*************O666666666666666666666",
"6666666666666666.O****O%**%**%************%.66666666666666666666",
"6666666666666666.%****%O***%**.************O66666666666666666666",
"6666666666666666O******%****%*O************%.6666666666666666666",
"666666666666666.%******%****O*%.************.6666666666666666666",
"666666666666666.%******O****O%*O************.6666666666666666666",
"666666666666666.%******O****%O*%.***********.6666666666666666666",
"666666666666666.%******O*****.*%.***********O6666666666666666666",
"666666666666666.%%****%.%****.*%.%**********%.666666666666666666",
"666666666666666.%%%***O.%%**%.%%.O%********%%.666666666666666666",
"6666666666666666O%%**%..%%%%%O%%.OO%*******%%.666666666666666666",
"6666666666666666.%%%%O@.%%%%%*.%.OOO%*****%%%.666666666666666666",
"66666666666666666.O%%.>>.OO%%*.%.O...O%%%%%%%.666666666666666666",
"666666666666666666 ..>>::.OOOO.%..#X#.%%%%%%%.666666666666666666",
"66666666666666666666X>$   ....%%.#<<>#O%%%%%%.666666666666666666",
"66666666666666666666X:     .%%%%.:$:<X.%%%%%%.666666666666666666",
"66666666666666666666#    ;X.%%%%.<:><X.%%%%%%O666666666666666666",
"666666666666666666X#$>:3o3#.%%%O><:>:#O%%%%%%%.66666666666666666",
"66666666666666666X$:><>oo3:.%%%.>:$>X.O%%%%%%%.66666666666666666",
"66666666666666666X:><<>--:<.%%%.<<>:#OO%%%%%%%.66666666666666666",
"666666666666666666#><<<>:><.%%%.#>:X.OO%%%%%%%O66666666666666666",
"666666666666666666X:><<<<<<.%%O$XXX.OOO%%%%%%%%.6666666666666666",
"6666666666666666666X:><<<<<.%%.X$$X.OOOO%%%%%%%.6666666666666666",
"66666666666666666666X$#>>>>.%%.$$$$.OOOO%%%%%%%.6666666666666666",
"666666666666666666666X:>>>:...$$$$$$.OOO%%%%%%%.6666666666666666",
"6666666666666666666666XXX###$$$::+++$.OO%%%%%%%O6666666666666666",
"666666666666666666666666+&+$$$:++111++.OO%%%%%%%.666666666666666",
"66666666666666666666666+=+#$$:+1=&&&==+OO%%%%%%%.666666666666666",
"666666666666666666666+&=+>>$#+13+<<<+&=.O%%%%%%%.666666666666666",
"6666666666666666666+&=2&,,#<+13+<<<<<<++O%%%%%%%.666666666666666",
"666666666666666666+3333+##>+13&><<<<<<<+.%%%%%%%.666666666666666",
"66666666666666666+33333=&+&=2=+><<<<<<<X.%%%O%%%.666666666666666",
"6666666666666666+332321233322&$><<<<<<<#.%%%O%%%.666666666666666",
"6666666666666666&331333333332+#:<<<<<<<:.%%%O%%%.666666666666666",
"666666666666666+=33=123333333+:#<<<<<<<<XO%%O%%O6666666666666666",
"66666666666666+=1331333333333&<X<<<<<<<<X.%%O%%.6666666666666666",
"66666666666666+112=3333333333=+X:<<<<<<<#.%%O%%.6666666666666666",
"66666666666666+=11=33333333332&:#<<<<<<<:.%..%.66666666666666666",
"666666666666666+=&333333333331=+X<<<<<<<<..6..666666666666666666",
"66666666666666X$++3333333333211=X<<<<<<<<.6666666666666666666666",
"66666666666666X$+=3333333333311=#<<<<<<<<X6666666666666666666666",
"66666666666666X$+1=123333321311X:<<<<<<<<X6666666666666666666666",
"66666666666666XX+=1XXX33211132X<<<<<<<<<:X6666666666666666666666",
"666666666666666X+=X:><:#XX11X#:<<<<<<<<<#66666666666666666666666",
"666666666666666X$X:>$$<<<:#X:<<<<<<<<<<:X66666666666666666666666",
"666666666666666X$X:#<<<<<<<<<<<<<<<<<<<#+66666666666666666666666",
"666666666666666X$X#:<<<<<<<<<<<<<<<<<:#X1+6666666666666666666666",
"6666666666666666XXX:$$<<<<<<<<<<<<<<:X21&+6666666666666666666666",
"666666666666666666X#<<<<<<<<<<<<<<:#X332=+6666666666666666666666",
"666666666666666666X:<<<<<<<<<<<<:#X333331+6666666666666666666666",
"666666666666666666X:<#X:<<<<<<:#X33333332+6666666666666666666666",
"666666666666666666X::$#X$:::$#X++++&12332+6666666666666666666666",
"6666666666666666666XXXX6XXXXX<<<<<<<+&122+6666666666666666666666",
"666666666666666666666666X<<<<<<<<<<<<<+11+6666666666666666666666",
"666666666666666666666666X<<<<<<<<<<<<<<&+66666666666666666666666",
"666666666666666666666666X<<<<<<<<<<<<<:$+66666666666666666666666",
"666666666666666666666666X<<<<<<<<<<<::#X666666666666666666666666",
"666666666666666666666666X<<<<<<<<<<<<X66666666666666666666666666",
"666666666666666666666666X<<<<<<<<<<<XX66666666666666666666666666",
"666666666666666666666666X<<<<<<<<<<X:X66666666666666666666666666",
"666666666666666666666666X<<<<<<<<<<X#666666666666666666666666666",
"666666666666666666666666X<<<<<<<<#XXX666666666666666666666666666",
"666666666666666666666666X><<<<<<#:::$#XX666666666666666666666666",
"666666666666666666666666X:><<<<>:::::::$#XXXX6666666666666666666",
"666666666666666666666666X$::::::::::::::::::$X666666666666666666",
"6666666666666666666666666#:::::::::::::::::::X666666666666666666",
"6666666666666666666666666X:::::::::::::::::::#666666666666666666",
"6666666666666666666666666X:::::::::::::::::::$X66666666666666666",
"66666666666666666666666665X:::::::::::::::::::X66666666666666666",
"666666666666666666666544444XX#::::::::::::::::X66666666666666666",
"66666666666666666654444444444XXXXXXXXXX#$:::::X66666666666666666",
"666666666666666654444444444444X:::::::X4X$:::$X56666666666666666",
"666666666666665444444444444444X::::::$X44X$:$X444566666666666666",
"666666666666544444444444444444X::::::#4444XXX4444445666666666666",
"666666666665444444444444444444#::::::X44444444444444566666666666",
"66666666665444444444444444444X$::::::X44444444444444456666666666",
"6666666666444444444444444444X::::::::X44444444444444446666666666",
"666666666544444444444444444X:::::::::X44444444444444445666666666",
"666666666444444444444444444X::::::::$X44444444444444444666666666",
"6666666664444444444444444444X::::$#XX444444444444444444666666666",
"66666666644444444444444444444XXXXX444444444444444444444666666666",
"6666666664444444444444444444444444444444444444444444444666666666",
"6666666665444444444444444444444444444444444444444444445666666666",
"6666666666444444444444444444444444444444444444444444446666666666",
"6666666666544444444444444444444444444444444444444444456666666666",
"6666666666654444444444444444444444444444444444444444566666666666",
"6666666666665444444444444444444444444444444444444445666666666666",
"6666666666666654444444444444444444444444444444444566666666666666",
"6666666666666666444444444444444444444444444444445666666666666666",
"6666666666666666654444444444444444444444444444566666666666666666",
"6666666666666666666654444444444444444444444566666666666666666666",
"6666666666666666666666666544444444444456666666666666666666666666",
"6666666666666666666666666666666666666666666666666666666666666666",
"6666666666666666666666666666666666666666666666666666666666666666",
"6666666666666666666666666666666666666666666666666666666666666666",
"6666666666666666666666666666666666666666666666666666666666666666",
"6666666666666666666666666666666666666666666666666666666666666666",
"6666666666666666666666666666666666666666666666666666666666666666",
"6666666666666666666666666666666666666666666666666666666666666666",
"6666666666666666666666666666666666666666666666666666666666666666",
"6666666666666666666666666666666666666666666666666666666666666666",
"6666666666666666666666666666666666666666666666666666666666666666",
"6666666666666666666666666666666666666666666666666666666666666666",
"6666666666666666666666666666666666666666666666666666666666666666",
"6666666666666666666666666666666666666666666666666666666666666666",
"6666666666666666666666666666666666666666666666666666666666666666",
"6666666666666666666666666666666666666666666666666666666666666666",
"6666666666666666666666666666666666666666666666666666666666666666",
"6666666666666666666666666666666666666666666666666666666666666666",
"6666666666666666666666666666666666666666666666666666666666666666"
};
