/* XPM */
static char *output_24[] = {
/* columns rows colors chars-per-pixel */
"64 122 20 1 ",
"  c #222034",
". c #45212D",
"X c #333A6C",
"o c #3C447C",
"O c #46426C",
"+ c #954A51",
"@ c #CB7173",
"# c #4F5AA5",
"$ c #6A78AC",
"% c #616FCB",
"& c #7C8DB5",
"* c #F5A489",
"= c #F9BF99",
"- c #FFE0B1",
"; c #A6AEE1",
": c #E1EAFD",
"> c white",
", c #3F3F74",
"< c #5C5CA9",
"1 c None",
/* pixels */
"1111111111111111111111111111111111111111111111111111111111111111",
"1111111111111111111111111111111111111111111111111111111111111111",
"1111111111111111111111111111111111111111111111111111111111111111",
"1111111111111111111111111111111111111111111111111111111111111111",
"1111111111111111111111111111111111111111111111111111111111111111",
"1111111111111111111111111111111111111111111111111111111111111111",
"1111111111111111111111111111111111111111111111111111111111111111",
"1111111111111111111111111111111111111111111111111111111111111111",
"1111111111111111111111111111111111111111111111111111111111111111",
"1111111111111111111111111111111111111111111111111111111111111111",
"11111111111111111111111111         11111111111111111111111111111",
"111111111111111111111111 Xo%%%%%%%oX 111111111111111111111111111",
"1111111111111111111111 Xo%%%%%%%%%%%oX 1111111111111111111111111",
"111111111111111111111 %%%%%%%%%%%%%%%%% 111111111111111111111111",
"11111111111111111111 %%%%%%%%%%%%%%%%%%% 11111111111111111111111",
"1111111111111111111 %%%%%%%%%%%%%%%%%%%%% 1111111111111111111111",
"1111111111111111111X%%%%%%%%%%%%%%%%%%%%%X1111111111111111111111",
"111111111111111111 o%%%%%%%%%%%%%%%%%%%%%o 111111111111111111111",
"111111111111111111X%%%%%%%%%%%%%%%%%%%%%%%X111111111111111111111",
"11111111111111111 o%%%%%%%%%%%%%%%%%%%%%%%o 11111111111111111111",
"11111111111111111 %%%%%%%%%%%%%%%%%%%%%%%%% 11111111111111111111",
"11111111111111111 %%%%%%%%%%%%%%%%%%%%%%%%% 11111111111111111111",
"11111111111111111 %%%%%%%%%%%%%%%%%%%%%%%%% X   1111111111111111",
"1111111111111111  %%%%%%%%%%%%%%%%%%%%%%%%%X%%# 1111111111111111",
"111111111111111 X %%%%%%%%%%%%%%%%%%%%%%%%%o X 11111111111111111",
"111111111111111 XX%%%%%%%%%%%%%%%%%%%%%%%%%#  111111111111111111",
"1111111111111111 o#%%%%%%%%%%%%%%%%%%%%%%%##X1111111111111111111",
"111111111111111. ##%%%%%%%%%%%%%%%%%%%%%%%##o 111111111111111111",
"111111111111111. ###%%%%%%%%%%%%%%%%%%%%%###o 111111111111111111",
"111111111111111. ###%%%%%%%%%%%%%%%%%%%%%###oX111111111111111111",
"111111111111111. ####%%%%%%%%%%%%%%%%%%%####oo 11111111111111111",
"1111111111111111 ######%%%%%%%%%%%%%%%######ooX11111111111111111",
"1111111111111111 ##########%%%%%%%##########ooo 1111111111111111",
"1111111111111111 ###########################oooX1111111111111111",
"1111111111111111 ############################ooo 111111111111111",
"1111111111111111 #############################ooX111111111111111",
"1111111111111111 ##############################oo 11111111111111",
"1111111111111111 ################################ 11111111111111",
"1111111111111111 ################################X11111111111111",
"1111111111111111 ################################o 1111111111111",
"1111111111111111 #########################o#######X1111111111111",
"1111111111111111 o########################Xo######o 111111111111",
"11111111111111111X########################oX####### 111111111111",
"11111111111111111 #########################Xo###### 111111111111",
"11111111111111111 #########o########o######oXo####o 111111111111",
"11111111111111111 ####o####oX#######oX######Xo####X1111111111111",
"11111111111111111 ####o####Xo#######Xo######XX####o1111111111111",
"11111111111111111 o###X####oo####%##oo######XXo%## 1111111111111",
"111111111111111111X#%#X#%%##o###%%%##X##%%##X o%#o11111111111111",
"111111111111111111 #%oX#%%%#X##%%%%%#Xo%%%#oX o%o 11111111111111",
"11111111111111111.@o%o X%%%#Xo#%%%%%#oX%%%#X &X# 111111111111111",
"11111111111111111.* #   #%%#Xo#%%%%%#oX%%%# &$  1111111111111111",
"11111111111111111.**  *O #%XXX##%%%##XXo%# *.O111111111111111111",
"11111111111111111.****O;; XX X###%### XX# -=+O111111111111111111",
"11111111111111111.****O;::    #####X .   ---*.111111111111111111",
"11111111111111111.@***O&;:$;:> X##X :;.------*+.1111111111111111",
"11111111111111111.@**@.O&:O;>>>   >>>;.*------=*+....11111111111",
"11111111111111111.@@@.+=$&O;>>>;O;:>>;$.------=******.1111111111",
"111111111111111111.@@OOOOOO$>>>:OO$:>;$.*----=********.111111111",
"1111111111111111111.O;:>>:&$$&&&O+*$&&OO.*==******@+.*.111111111",
"1111111111111111111O;>>>>>>:&$O*+@----=*@.***********+.111111111",
"1111111111111111111O:>>>>>>>>:&$O+-----=*@.+*******@*..111111111",
"1111111111111111111OOOOOO$;:>>>>:O-----=*@O..+***@++*.1111111111",
"1111111111111111111+------O&;>>>>&$OOOOOOO&&O1....***.1111111111",
"111111111111111111.@--------O;>>>&;>>>:;;;;&O1111....11111111111",
"111111111111111111.*---------O;>>&;:>>:;;;;&O1111111111111111111",
"111111111111111111.*=---------$>:&;;::;;;;;O.1111111111111111111",
"111111111111111111.*********=-O;&$;;;;;;;&O@.1111111111111111111",
"111111111111111111.@===*@@@@***$$$&;;;;&OO@@.1111111111111111111",
"1111111111111111111+=======*@+*O$&&;;&$O@@@@.1111111111111111111",
"1111111111111111111.=========*+.OOOOOO@@@@@+11111111111111111111",
"1111111111111111111.===========.+.+@@@@@+.@.11111111111111111111",
"1111111111111111111.*==========.++...+++@@@.11111111111111111111",
"11111111111111111111+==========.++@@@@@@@@@.11111111111111111111",
"11111111111111111111.==========.+@@@@@@@@@+111111111111111111111",
"11111111111111111111.==========.+@@@@@@@@@.111111111111111111111",
"11111111111111111111.=========*.@@@@@@@@@@.111111111111111111111",
"11111111111111111111.*=======*+.@@@@@@@@@+1111111111111111111111",
"111111111111111111111+===*+++++.@@@@@@@@@.1111111111111111111111",
"111111111111111111111.==-------+@@@@@@@@@.1111111111111111111111",
"111111111111111111111.=--------*.@@@@@@@+11111111111111111111111",
"111111111111111111111.*---------.@@@@@@@.11111111111111111111111",
"1111111111111111111111+*--------.@@@@@@@.11111111111111111111111",
"1111111111111111111111.+--------.@@@@@@@.11111111111111111111111",
"11111111111111111111111+*---====+@@@@@@+111111111111111111111111",
"111111111111111111111<,.*=-=====*.@@@@@.,,<111111111111111111111",
"111111111111111111<,,,,,.*=======.@@@@+.,,,,,<111111111111111111",
"1111111111111111<,,,,,,,,.*======.+++++.,,,,,,,<1111111111111111",
"11111111111111<,,,,,,,,,,,+======.+++++,,,,,,,,,,<11111111111111",
"111111111111<,,,,,,,,,,,,,.======.++++.,,,,,,,,,,,,<111111111111",
"11111111111<,,,,,,,,,,,,,,.*====*.++++.,,,,,,,,,,,,,<11111111111",
"1111111111<,,,,,,,,,,,,,,,,.====.+++++.,,,,,,,,,,,,,,<1111111111",
"1111111111,,,,,,,,,,,,,,,,,,....++++++.,,,,,,,,,,,,,,,1111111111",
"111111111<,,,,,,,,,,,,,,,,,,,,,.+++++.,,,,,,,,,,,,,,,,<111111111",
"111111111,,,,,,,,,,,,,,,,,,,,,,.+++++.,,,,,,,,,,,,,,,,,111111111",
"111111111,,,,,,,,,,,,,,,,,,,,,,,.....,,,,,,,,,,,,,,,,,,111111111",
"111111111,,,,,,,,,,,,,,,,,,,,,,,,,,,,,,,,,,,,,,,,,,,,,,111111111",
"111111111,,,,,,,,,,,,,,,,,,,,,,,,,,,,,,,,,,,,,,,,,,,,,,111111111",
"111111111<,,,,,,,,,,,,,,,,,,,,,,,,,,,,,,,,,,,,,,,,,,,,<111111111",
"1111111111,,,,,,,,,,,,,,,,,,,,,,,,,,,,,,,,,,,,,,,,,,,,1111111111",
"1111111111<,,,,,,,,,,,,,,,,,,,,,,,,,,,,,,,,,,,,,,,,,,<1111111111",
"11111111111<,,,,,,,,,,,,,,,,,,,,,,,,,,,,,,,,,,,,,,,,<11111111111",
"111111111111<,,,,,,,,,,,,,,,,,,,,,,,,,,,,,,,,,,,,,,<111111111111",
"11111111111111<,,,,,,,,,,,,,,,,,,,,,,,,,,,,,,,,,,<11111111111111",
"1111111111111111,,,,,,,,,,,,,,,,,,,,,,,,,,,,,,,,<111111111111111",
"11111111111111111<,,,,,,,,,,,,,,,,,,,,,,,,,,,,<11111111111111111",
"11111111111111111111<,,,,,,,,,,,,,,,,,,,,,,<11111111111111111111",
"1111111111111111111111111<,,,,,,,,,,,,<1111111111111111111111111",
"1111111111111111111111111111111111111111111111111111111111111111",
"1111111111111111111111111111111111111111111111111111111111111111",
"1111111111111111111111111111111111111111111111111111111111111111",
"1111111111111111111111111111111111111111111111111111111111111111",
"1111111111111111111111111111111111111111111111111111111111111111",
"1111111111111111111111111111111111111111111111111111111111111111",
"1111111111111111111111111111111111111111111111111111111111111111",
"1111111111111111111111111111111111111111111111111111111111111111",
"1111111111111111111111111111111111111111111111111111111111111111",
"1111111111111111111111111111111111111111111111111111111111111111",
"1111111111111111111111111111111111111111111111111111111111111111",
"1111111111111111111111111111111111111111111111111111111111111111",
"1111111111111111111111111111111111111111111111111111111111111111",
"1111111111111111111111111111111111111111111111111111111111111111"
};
