/* XPM */
static char *output_8[] = {
/* columns rows colors chars-per-pixel */
"64 130 25 1 ",
"  c black",
". c #222034",
"X c #45212D",
"o c #3F3F74",
"O c #3C447C",
"+ c #46426C",
"@ c #8F563B",
"# c #954A51",
"$ c #CB7173",
"% c #4F5AA5",
"& c #6A78AC",
"* c #616FCB",
"= c #7C8DB5",
"- c #639BFF",
"; c #9C859F",
": c #F5A489",
"> c #F9BF99",
", c #FFF3AB",
"< c #FFE0B1",
"1 c #A6AEE1",
"2 c #E1EAFD",
"3 c white",
"4 c #3F3F74",
"5 c #5C5CA9",
"6 c None",
/* pixels */
"6666666666666666666666666666666666666666666666666666666666666666",
"6666666666666666666666666666666666666666666666666666666666666666",
"6666666666666666666666666666666666666666666666666666666666666666",
"6666666666666666666666666666666666666666666666666666666666666666",
"6666666666666666666666666666666666666666666666666666666666666666",
"6666666666666666666666666666666666666666666666666666666666666666",
"6666666666666666666666666666666666666666666666666666666666666666",
"6666666666666666666666666666666666666666666666666666666666666666",
"6666666666666666666666666666666666666666666666666666666666666666",
"6666666666666666666666666666666666666666666666666666666666666666",
"6666666666666666666666666666666666666666666666666666666666666666",
"6666666666666666666666666666666666666666666666666666666666666666",
"6666666666666666666666666666.........666666666666666666666666666",
"66666666666666666666666666.O%*******%O.6666666666666666666666666",
"666666666666666666666666.O%***********%O.66666666666666666666666",
"66666666666666666666666.%***************%.6666666666666666666666",
"6666666666666666666666.***************%OO...66666666666666666666",
"666666666666666666666.%*************%%*%%OOO..666666666666666666",
"666666666666666666666O*************%**%**%%%%O.66666666666666666",
"66666666666666666666.%************%**%**%O****O.6666666666666666",
"66666666666666666666O************.**%***O%****%.6666666666666666",
"6666666666666666666.%************O*%****%******O6666666666666666",
"6666666666666666666.************.%*O****%******%.666666666666666",
"6666666666666666666.************O*%O****O******%.666666666666666",
"6666666666666666666.***********.%*O%****O******%.666666666666666",
"6666666666666666666O***********.%*.*****O******%.666666666666666",
"666666666666666666.%**********%.%*.****%.%****%%.666666666666666",
"666666666666666666.%%********%O.%%.%**%%.O***%%%.666666666666666",
"666666666666666666.%%*******%OO.%%O%%%%%..%**%%O6666666666666666",
"666666666666666666.%%%*****%OOO.%.*%%%%%.@O%%%%.6666666666666666",
"666666666666666666.%%%%%%%O...O.%.*%%OO.>>.%%O.66666666666666666",
"666666666666666666.%%%%%%%.#X#..%.OOOO.::>>.. 666666666666666666",
"666666666666666666.%%%%%%O#><<#.%%....   $>X66666666666666666666",
"666666666666666666.%%%%%%.X<:$:.%%%%.     :X66666666666666666666",
"666666666666666666O%%%%%%.X<>:<.%%%%.X;    #66666666666666666666",
"66666666666666666.%%%%%%%O#:>:<>O%%%.#3o3:>$#X666666666666666666",
"66666666666666666.%%%%%%%O.X>$:>.%%%.:3oo><>:$X66666666666666666",
"66666666666666666.%%%%%%%OO#:><<.%%%.<:--><<>:X66666666666666666",
"66666666666666666O%%%%%%%OO.X:>#.%%%.<>:><<<>#666666666666666666",
"6666666666666666.%%%%%%%%OOO.XXX$O%%.<<<<<<>:X666666666666666666",
"6666666666666666.%%%%%%%OOOO.X$$X.%%.<<<<<>:X6666666666666666666",
"6666666666666666.%%%%%%%OOOO.$$$$.%%.>>>>#$X66666666666666666666",
"6666666666666666.%%%%%%%OOO.$$$$$$...:>>>:X666666666666666666666",
"6666666666666666O%%%%%%%OO.$+++::$$$###XXX6666666666666666666666",
"666666666666666.%%%%%%%OO.++111++:$$$+&+666666666666666666666666",
"666666666666666.%%%%%%%OO+==&&&=1+:$$#+=+66666666666666666666666",
"666666666666666.%%%%%%%O.=&+<<<+31+#$>>+=&+666666666666666666666",
"666666666666666.%%%%%%%O++<<<<<<+31+<#,,&2=&+6666666666666666666",
"666666666666666.%%%%%%%.+<<<<<<<>&31+>##+3333+666666666666666666",
"666666666666666.%%%O%%%.X<<<<<<<>+=2=&+&=33333+66666666666666666",
"666666666666666.%%%O%%%.#<<<<<<<>$&223332123233+6666666666666666",
"666666666666666.%%%O%%%.:<<<<<<<:#+233333333133&6666666666666666",
"6666666666666666O%%O%%OX<<<<<<<<#:+333333321=33=+666666666666666",
"6666666666666666.%%O%%.X<<<<<<<<X<&3333333331331=+66666666666666",
"6666666666666666.%%O%%.#<<<<<<<:X+=3333333333=211+66666666666666",
"66666666666666666.%..%.:<<<<<<<#:&23333333333=11=+66666666666666",
"666666666666666666..6..<<<<<<<<X+=133333333333&=+666666666666666",
"6666666666666666666666.<<<<<<<<X=1123333333333++$X66666666666666",
"6666666666666666666666X<<<<<<<<#=1133333333333=+$X66666666666666",
"6666666666666666666666X<<<<<<<<:X113123333321=1+$X66666666666666",
"6666666666666666666666X:<<<<<<<<<X23111233XXX1=+XX66666666666666",
"66666666666666666666666#<<<<<<<<<:#X11XX#:<>:X=+X666666666666666",
"66666666666666666666666X:<<<<<<<<<<:X#:<<<$$>:X$X666666666666666",
"66666666666666666666666+#<<<<<<<<<<<<<<<<<<<#:X$X666666666666666",
"6666666666666666666666+1X#:<<<<<<<<<<<<<<<<<:#X$X666666666666666",
"6666666666666666666666+&12X:<<<<<<<<<<<<<<$$:XXX6666666666666666",
"6666666666666666666666+=233X#:<<<<<<<<<<<<<<#X666666666666666666",
"6666666666666666666666+133333X#:<<<<<<<<<<<<:X666666666666666666",
"6666666666666666666666+23333333X#:<<<<<<:X#<:X666666666666666666",
"6666666666666666666666+23321&++++X#$:::$X#$::X666666666666666666",
"6666666666666666666666+221&+<<<<<<<XXXXX6XXXX6666666666666666666",
"6666666666666666666666+11+<<<<<<<<<<<<<X666666666666666666666666",
"66666666666666666666666+&<<<<<<<<<<<<<<X666666666666666666666666",
"66666666666666666666666+$:<<<<<<<<<<<<<X666666666666666666666666",
"666666666666666666666666X#::<<<<<<<<<<<X666666666666666666666666",
"66666666666666666666666666X<<<<<<<<<<<<X666666666666666666666666",
"66666666666666666666666666XX<<<<<<<<<<<X666666666666666666666666",
"66666666666666666666666666X:X<<<<<<<<<<X666666666666666666666666",
"666666666666666666666666666#X<<<<<<<<<<X666666666666666666666666",
"666666666666666666666666666XXX#<<<<<<<<X666666666666666666666666",
"666666666666666666666666XX#$:::#<<<<<<>X666666666666666666666666",
"6666666666666666666XXXX#$:::::::><<<<>:X666666666666666666666666",
"666666666666666666X$::::::::::::::::::$X666666666666666666666666",
"666666666666666666X:::::::::::::::::::#6666666666666666666666666",
"666666666666666666#:::::::::::::::::::X6666666666666666666666666",
"66666666666666666X$:::::::::::::::::::X6666666666666666666666666",
"66666666666666666X:::::::::::::::::::X56666666666666666666666666",
"66666666666666666X::::::::::::::::#XX444445666666666666666666666",
"66666666666666666X:::::$#XXXXXXXXXX44444444445666666666666666666",
"66666666666666665X$:::$X4X:::::::X444444444444456666666666666666",
"666666666666665444X$:$X44X$::::::X444444444444444566666666666666",
"6666666666665444444XXX4444#::::::X444444444444444445666666666666",
"66666666666544444444444444X::::::#444444444444444444566666666666",
"66666666665444444444444444X::::::$X44444444444444444456666666666",
"66666666664444444444444444X::::::::X4444444444444444446666666666",
"66666666654444444444444444X:::::::::X444444444444444445666666666",
"66666666644444444444444444X$::::::::X444444444444444444666666666",
"666666666444444444444444444XX#$::::X4444444444444444444666666666",
"666666666444444444444444444444XXXXX44444444444444444444666666666",
"6666666664444444444444444444444444444444444444444444444666666666",
"6666666665444444444444444444444444444444444444444444445666666666",
"6666666666444444444444444444444444444444444444444444446666666666",
"6666666666544444444444444444444444444444444444444444456666666666",
"6666666666654444444444444444444444444444444444444444566666666666",
"6666666666665444444444444444444444444444444444444445666666666666",
"6666666666666654444444444444444444444444444444444566666666666666",
"6666666666666665444444444444444444444444444444446666666666666666",
"6666666666666666654444444444444444444444444444566666666666666666",
"6666666666666666666654444444444444444444444566666666666666666666",
"6666666666666666666666666544444444444456666666666666666666666666",
"6666666666666666666666666666666666666666666666666666666666666666",
"6666666666666666666666666666666666666666666666666666666666666666",
"6666666666666666666666666666666666666666666666666666666666666666",
"6666666666666666666666666666666666666666666666666666666666666666",
"6666666666666666666666666666666666666666666666666666666666666666",
"6666666666666666666666666666666666666666666666666666666666666666",
"6666666666666666666666666666666666666666666666666666666666666666",
"6666666666666666666666666666666666666666666666666666666666666666",
"6666666666666666666666666666666666666666666666666666666666666666",
"6666666666666666666666666666666666666666666666666666666666666666",
"6666666666666666666666666666666666666666666666666666666666666666",
"6666666666666666666666666666666666666666666666666666666666666666",
"6666666666666666666666666666666666666666666666666666666666666666",
"6666666666666666666666666666666666666666666666666666666666666666",
"6666666666666666666666666666666666666666666666666666666666666666",
"6666666666666666666666666666666666666666666666666666666666666666",
"6666666666666666666666666666666666666666666666666666666666666666",
"6666666666666666666666666666666666666666666666666666666666666666",
"6666666666666666666666666666666666666666666666666666666666666666",
"6666666666666666666666666666666666666666666666666666666666666666"
};
