/* XPM */
static char *output_7[] = {
/* columns rows colors chars-per-pixel */
"64 130 23 1 ",
"  c black",
". c #222034",
"X c #45212D",
"o c #3F3F74",
"O c #3C447C",
"+ c #46426C",
"@ c #954A51",
"# c #CB7173",
"$ c #4F5AA5",
"% c #6A78AC",
"& c #616FCB",
"* c #7C8DB5",
"= c #639BFF",
"- c #9C859F",
"; c #F5A489",
": c #F9BF99",
"> c #FFE0B1",
", c #A6AEE1",
"< c #E1EAFD",
"1 c white",
"2 c #3F3F74",
"3 c #5C5CA9",
"4 c None",
/* pixels */
"4444444444444444444444444444444444444444444444444444444444444444",
"4444444444444444444444444444444444444444444444444444444444444444",
"4444444444444444444444444444444444444444444444444444444444444444",
"4444444444444444444444444444444444444444444444444444444444444444",
"4444444444444444444444444444444444444444444444444444444444444444",
"4444444444444444444444444444444444444444444444444444444444444444",
"4444444444444444444444444444444444444444444444444444444444444444",
"4444444444444444444444444444444444444444444444444444444444444444",
"4444444444444444444444444444444444444444444444444444444444444444",
"4444444444444444444444444444444444444444444444444444444444444444",
"4444444444444444444444444444444444444444444444444444444444444444",
"4444444444444444444444444444444444444444444444444444444444444444",
"4444444444444444444444444444444444444444444444444444444444444444",
"4444444444444444444444444444444444444444444444444444444444444444",
"4444444444444444444444444444444444444444444444444444444444444444",
"444444444444444444444444444.........4444444444444444444444444444",
"4444444444444444444444444.O$&&&&&&&$O.44444444444444444444444444",
"44444444444444444444444.O$&&&&&&&&&&&$O.444444444444444444444444",
"4444444444444444444444.$&&&&&&&&&&&&&&&$.44444444444444444444444",
"444444444444444444444.&&&&&&&&&&&&&&&&&&&.4444444444444444444444",
"444444444444444444.....OO$&&&&&&&&&&&&&&&$.444444444444444444444",
"44444444444444444.OOOOO$$&$$&&&&&&&&&&&&&&O444444444444444444444",
"4444444444444444.O$$$$$&&$&&$&&&&&&&&&&&&&$.44444444444444444444",
"4444444444444444.$&&&&O$&&$&&$&&&&&&&&&&&&&O44444444444444444444",
"444444444444444.O$&&&&$O&&&$&&.&&&&&&&&&&&&$.4444444444444444444",
"444444444444444O$&&&&&&$&&&&O&O&&&&&&&&&&&&&.4444444444444444444",
"44444444444444.$$&&&&&&$&&&&$O$.&&&&&&&&&&&&.4444444444444444444",
"44444444444444.$$&&&&&&O&&&&&O&O&&&&&&&&&&&&.4444444444444444444",
"44444444444444.$$&&&&&&O&&&&&$O$.&&&&&&&&&&&O4444444444444444444",
"44444444444444.$$&&&&&&O&&&&&$.$O$&&&&&&&&&&$.444444444444444444",
"44444444444444.$$$&&&&$.$&&&$$O$$.$&&&&&&&&$$.444444444444444444",
"444444444444444O$$$&&&O.$$&$$$&.$.O$&&&&&&&$$.444444444444444444",
"444444444444444.O$$&&$..O$$$$$O.$.OO$&&&&&$$$.444444444444444444",
"4444444444444444.$$$$O...O$$O..O$....O$$$$$$$.444444444444444444",
"44444444444444444....::;;....O$$$.@X@.$$$$$$$.444444444444444444",
"44444444444444444444X:#   #.$$$$$.>>:@O$$$$$$.444444444444444444",
"44444444444444444444X;     .$$$$$.#;>X.$$$$$$.444444444444444444",
"44444444444444444444@    -X.O$$$$.;:>X.$$$$$$O444444444444444444",
"444444444444444444X@#:;1o1@;.$$$$.;:;@O$$$$$$$.44444444444444444",
"44444444444444444X#;:>:oo1;>.$$$$.#:X.O$$$$$$$.44444444444444444",
"44444444444444444X;:>>:==;>>.$$$$.:;@OO$$$$$$$.44444444444444444",
"444444444444444444@:>>>:;:>>.$$$O:;X.OO$$$$$$$O44444444444444444",
"444444444444444444X;:>>>>>>>.$$$.XX.OOOO$$$$$$$.4444444444444444",
"4444444444444444444X;:>>>>>>.$$O##X.OOOO$$$$$$$.4444444444444444",
"44444444444444444444X#@:::::.$$.##@.OOOO$$$$$$$.4444444444444444",
"444444444444444444444X;:::;#...#####.OOO$$$$$$$.4444444444444444",
"4444444444444444444444XXX@@@###+++++.OOOO$$$$$$O.444444444444444",
"444444444444444444444444X++##++<,,,,+.OOO$$$$$$$.444444444444444",
"44444444444444444444++%++:@#+<1<%%%%,.OOO$$$$$$$.444444444444444",
"444444444444444444+%*<<+::;+<1%%:::;%+.OO$$$$$$$O.44444444444444",
"44444444444444444+<1111%@@+<1%:>>>>:;@.OO$$$$$$$$.44444444444444",
"4444444444444444+*1111,*%+,<%:>>>>>>:@.OOO$$$$O$$O.4444444444444",
"4444444444444444%,<1*,<<<<<<#>>>>>>>>@.OOO$$O$O$$$$.444444444444",
"444444444444444+**1*1111111<#>>>>>>>>@.OOO$$O$OO$$$$...444444444",
"444444444444444+,*1,11111111#>>>>>>>>@.OOOO$O$OOO$$$$O.444444444",
"444444444444444+*,1111111111@>>>>>>>>@.OOO.O.$$OOOO$O.4444444444",
"444444444444444+%+<111111111@>>>>>>>>@.OOO.O.O$$OO...44444444444",
"4444444444444444+,1111111111X>>>>>>>>@.OOO.O..O$$.44444444444444",
"4444444444444444+,1111111111X>>>>>>>>X@.O.4..4.OO.44444444444444",
"44444444444444XXXXX111111111X>>>>>>>>XX..444444...44444444444444",
"4444444444444X;:>>;@X111111<@>>>>>>>>X44444444444444444444444444",
"4444444444444X;##>>>;X111XX@;>>>>>>>>X44444444444444444444444444",
"4444444444444X@>>>>>>;@X@;>>>>>>>>>>>X44444444444444444444444444",
"4444444444444X;>>>>>>>>>>>>>>>>>>>>>;X44444444444444444444444444",
"444444444444X#;##>>>>>>>>>>>>>>>>>>>@;X4444444444444444444444444",
"444444444444X#@>>>>>>>>>>>>>>>>>>>>;X>>X444444444444444444444444",
"444444444444X@:>>>>>>>>>>>>>>>>>>>;X>>>++44444444444444444444444",
"444444444444X;:@@;;;::::::::::::;@X>>+%,%44444444444444444444444",
"444444444444X#;#XXX@#;;;;;;;;;;@X+++%,<<,+4444444444444444444444",
"4444444444444XXXX444XXXX@#;;#@X<11111111<%4444444444444444444444",
"4444444444444444444444X+,XXXX<1111111111<,+444444444444444444444",
"44444444444444444444444X+,<111<,%++++++++++444444444444444444444",
"44444444444444444444444@+,,,%+++>>>>>>>>>>;X44444444444444444444",
"4444444444444444444444X#;+++>>>>>>>>>>>>>>;X44444444444444444444",
"4444444444444444444444X;;;X>>>>>>>>>>>>>>>;X44444444444444444444",
"4444444444444444444444@;;;X>>>>>>>>>>>>>>:;X44444444444444444444",
"444444444444444444444X#;;;X>>>>>>>>>>>>:;;X444444444444444444444",
"444444444444444444444X;;;;X;>>>>>>>>>:;;@X4444444444444444444444",
"444444444444444444444X;;;;;@>>>>>>>>>>:;X44444444444444444444444",
"444444444444444444444@;;;;;X>>>>>>>>>>>@444444444444444444444444",
"44444444444444444444X#;;;;;X>>>>>>>>>>>X444444444444444444444444",
"44444444444444444444X;;;;;;X;>>>>>>>>>@XX44444444444444444444444",
"44444444444444444444X#;;;;;;@>>>>>>>>@;;#@X444444444444444444444",
"444444444444444444444@;;;;;;X:>>>>>>#;;;;;#@X4444444444444444444",
"444444444444444444444X#;;;;;X;:>>>:;;;;;;;;;#@XXXX44444444444444",
"4444444444444444444444@;;;;;;@;;;;;;;;;;;;;;;;;;;;X4444444444444",
"4444444444444444444444X#;;;;;X;;;;;;;;;;;;;;;;;;;;X4444444444444",
"44444444444444444444444@;;;;;X#;;;;;;;;;;;;;;;;;;;@4444444444444",
"44444444444444444444444X;;;;;;@;;;;;;;;;;;;;;;;;;;#X444444444444",
"44444444444444444444432X#;;;;;X#;;;;;;;;;;;;;;;;;;;X444444444444",
"444444444444444444322222@;;;;;;X#;;;;;;;;;;;;;;;;;;X444444444444",
"444444444444444432222222X;;;;;;;XXXXXXXXXXXXX@#;;;;X444444444444",
"444444444444443222222222X#;;;;;;X2222222222222X;;;#X444444444444",
"4444444444443222222222222@;;;;;;X22222222222222X;;X3444444444444",
"4444444444432222222222222@;;;;;;X222222222222222XX22344444444444",
"444444444432222222222222X#;;;;;;X2222222222222222222234444444444",
"44444444442222222222222X;;;;;;;;X2222222222222222222224444444444",
"4444444443222222222222X;;;;;;;;;X2222222222222222222223444444444",
"4444444442222222222222X;;;;;;;;;X2222222222222222222222444444444",
"44444444422222222222222X#;;;#@XX22222222222222222222222444444444",
"444444444222222222222222XXXXX22222222222222222222222222444444444",
"4444444442222222222222222222222222222222222222222222222444444444",
"4444444443222222222222222222222222222222222222222222223444444444",
"4444444444222222222222222222222222222222222222222222224444444444",
"4444444444322222222222222222222222222222222222222222234444444444",
"4444444444432222222222222222222222222222222222222222344444444444",
"4444444444443222222222222222222222222222222222222223444444444444",
"4444444444444432222222222222222222222222222222222344444444444444",
"4444444444444444222222222222222222222222222222223444444444444444",
"4444444444444444432222222222222222222222222222344444444444444444",
"4444444444444444444432222222222222222222222344444444444444444444",
"4444444444444444444444444322222222222234444444444444444444444444",
"4444444444444444444444444444444444444444444444444444444444444444",
"4444444444444444444444444444444444444444444444444444444444444444",
"4444444444444444444444444444444444444444444444444444444444444444",
"4444444444444444444444444444444444444444444444444444444444444444",
"4444444444444444444444444444444444444444444444444444444444444444",
"4444444444444444444444444444444444444444444444444444444444444444",
"4444444444444444444444444444444444444444444444444444444444444444",
"4444444444444444444444444444444444444444444444444444444444444444",
"4444444444444444444444444444444444444444444444444444444444444444",
"4444444444444444444444444444444444444444444444444444444444444444",
"4444444444444444444444444444444444444444444444444444444444444444",
"4444444444444444444444444444444444444444444444444444444444444444",
"4444444444444444444444444444444444444444444444444444444444444444",
"4444444444444444444444444444444444444444444444444444444444444444",
"4444444444444444444444444444444444444444444444444444444444444444",
"4444444444444444444444444444444444444444444444444444444444444444",
"4444444444444444444444444444444444444444444444444444444444444444",
"4444444444444444444444444444444444444444444444444444444444444444"
};
