/* XPM */
static char *output_6[] = {
/* columns rows colors chars-per-pixel */
"64 130 23 1 ",
"  c black",
". c #222034",
"X c #45212D",
"o c #3F3F74",
"O c #3C447C",
"+ c #46426C",
"@ c #954A51",
"# c #CB7173",
"$ c #4F5AA5",
"% c #6A78AC",
"& c #616FCB",
"* c #7C8DB5",
"= c #639BFF",
"- c #9C859F",
"; c #F5A489",
": c #F9BF99",
"> c #FFE0B1",
", c #A6AEE1",
"< c #E1EAFD",
"1 c white",
"2 c #3F3F74",
"3 c #5C5CA9",
"4 c None",
/* pixels */
"4444444444444444444444444444444444444444444444444444444444444444",
"4444444444444444444444444444444444444444444444444444444444444444",
"4444444444444444444444444444444444444444444444444444444444444444",
"4444444444444444444444444444444444444444444444444444444444444444",
"4444444444444444444444444444444444444444444444444444444444444444",
"4444444444444444444444444444444444444444444444444444444444444444",
"4444444444444444444444444444444444444444444444444444444444444444",
"4444444444444444444444444444444444444444444444444444444444444444",
"4444444444444444444444444444444444444444444444444444444444444444",
"4444444444444444444444444444444444444444444444444444444444444444",
"4444444444444444444444444444444444444444444444444444444444444444",
"4444444444444444444444444444444444444444444444444444444444444444",
"4444444444444444444444444444444444444444444444444444444444444444",
"444444444444444444444444444.........4444444444444444444444444444",
"4444444444444444444444444.O$&&&&&&&$O.44444444444444444444444444",
"44444444444444444444444.O$&&&&&&&&&&&$O.444444444444444444444444",
"4444444444444444444444.$&&&&&&&&&&&&&&&$.44444444444444444444444",
"444444444444444444444.&&&&&&&&&&&&&&&&&&&.4444444444444444444444",
"444444444444444444.....OO$&&&&&&&&&&&&&&&$.444444444444444444444",
"44444444444444444.OOOOO$$&$$&&&&&&&&&&&&&&O444444444444444444444",
"4444444444444444.O$$$$$&&$&&$&&&&&&&&&&&&&$.44444444444444444444",
"4444444444444444.$&&&&O$&&$&&$&&&&&&&&&&&&&O44444444444444444444",
"444444444444444.O$&&&&$O&&&$&&.&&&&&&&&&&&&$.4444444444444444444",
"444444444444444O$&&&&&&$&&&&O&O&&&&&&&&&&&&&.4444444444444444444",
"44444444444444.$$&&&&&&$&&&&$O$.&&&&&&&&&&&&O.444444444444444444",
"44444444444444.$$&&&&&&O&&&&&O&O&&&&&&&&&&&&$.444444444444444444",
"44444444444444.$$&&&&&&O&&&&&$O$.&&&&&&&&&&&$.444444444444444444",
"44444444444444.$$&&&&&&O&&&&&$.$O$&&&&&&&&&&$O.44444444444444444",
"44444444444444.$$$&&&&$.$&&&$$O$$.$&&&&&&&&$$$.44444444444444444",
"444444444444444O$$$&&&O.$$&$$$&.$.O$&&&&&&&$$$.44444444444444444",
"444444444444444.O$$&&$..O$$$$$O.$.OO$&&&&&$$$$O.4444444444444444",
"4444444444444444.$$$$O...O$$O..O$....O$$$$$$$$$.4444444444444444",
"44444444444444444....::;;....O$$$.@X@.$$$$$$$$$O.444444444444444",
"44444444444444444444X:#   #.$$$$$.>>:@O$$$$$$$$$.444444444444444",
"44444444444444444444X;     .$$$$$.#;>X.$$$$$$$$$O444444444444444",
"44444444444444444444@    -X.O$$$$.;:>X.$$$$$$$$$$.44444444444444",
"444444444444444444X@#:;1o1@;.$$$$.;:;@O$$$$$$$$$$O44444444444444",
"44444444444444444X#;:>:oo1;>.$$$$.#:X.O$$$$$$$$$$$.4444444444444",
"44444444444444444X;:>>:==;>>.$$$$.:;@OOO$$$$$$$$$$O4444444444444",
"444444444444444444@:>>>:;:>>.$$$O:;X.OOO$$$$$$$$$$$.444444444444",
"444444444444444444X;:>>>>>>>.$$$.XX.OOOO$$$$$$$$$$$O444444444444",
"4444444444444444444X;:>>>>>>.$$O##X.OOOOO$$$$$$$$$$$.44444444444",
"44444444444444444444X#@:::::.$$.##@.OOOOO$$$$$$$$$$$O44444444444",
"444444444444444444444X;:::;#...#####.OOOO$$$$$$$$$$$$.4444444444",
"4444444444444444444444XXX@@@##+++++#.OOOOO$$$$$$$$$$$.4444444444",
"44444444444444444444444444+##+,,,,,+.OOOOO$$$$$$$$$$$.4444444444",
"44444444444444444444444+++##+,*%%%**+.OOOO$$$$$$$$$$$.4444444444",
"444444444444444444444++;::@+,1+>>>++*.OOOOO$$$O$$$$$$.4444444444",
"4444444444444444444++*+:@++11+>>>>>:+.OOOOO$$$O$$$$$O44444444444",
"444444444444444444+*,,*+%*<1+>>>>>>>@.OOOOO$$$O$$$$$.44444444444",
"44444444444444444+*,**<<<<<%>>>>>>>>X.OOOOOO$$O$$$$O444444444444",
"44444444444444444+,*11111<*+>>>>>>>>X.OOOOOO$OO$$$$.444444444444",
"4444444444444444+*+1111111%@>>>>>>>>X.OOOOOO$OO$$O.4444444444444",
"4444444444444444++11111111+@>>>>>>>>X.OOOOOO$O$$$.44444444444444",
"4444444444444444+111111111,X>>>>>>>>X.OOOOOOOO$$.444444444444444",
"444444444444444+*111111111X;>>>>>>>;X*.OO.OOOO$.4444444444444444",
"4444444444444XXXX111111111X>>>>>>>>@*+.OO.OO.O.44444444444444444",
"444444444444X;>>;XX1111111X>>>>>>>>X*+;..#..4.444444444444444444",
"44444444444X@##>>>;X11111,X>>>>>>>>X*+;;;@4444444444444444444444",
"4444444444X;>>>>>>>>X,11,%@>>>>>>>;X*+;;#X4444444444444444444444",
"4444444444X;>>>>>>>>;@XXX@;>>>>>>>@*++;;@44444444444444444444444",
"4444444444X#@#>>>>>>>>>>>>>>>>>>>>X+XX;#X44444444444444444444444",
"4444444444X@>>>>>>>>>>>>>>>>>>>>>;X>>;XX444444444444444444444444",
"444444444X;>>>>>>>>>>>>>>>>>>>>>>@>>>>;X444444444444444444444444",
"444444444X;>@@;;>>>>>>>>>>>>>>>>;X>>>++++44444444444444444444444",
"4444444444X;#XXX;:>>>>>>>>>>>>>>++++%,<<,+4444444444444444444444",
"44444444444XXX44X#;;:>>>>>>>>>;X<1111111<,+444444444444444444444",
"44444444444444444XXX@#;;;;;;;@X111<,%++++++444444444444444444444",
"444444444444444444444XXXXXXXX11<,%++>>>>>>;X44444444444444444444",
"444444444444444444444X+,,,<<<<,%+>>>>>>>>>:X44444444444444444444",
"444444444444444444444X;+,,,<,%+>>>>>>>>>>>:X44444444444444444444",
"444444444444444444444@;;+++++>>>>>>>>>>>>>;X44444444444444444444",
"44444444444444444444X#;;;;X;>>>>>>>>>>>>>>#X44444444444444444444",
"44444444444444444444X;;;;;;@>>>>>>>>>>>>>:@444444444444444444444",
"44444444444444444444@;;;;;;X;>>>>>>>>>>>:;X444444444444444444444",
"4444444444444444444X#;;;;;;;@>>>>>>>>:;;;X4444444444444444444444",
"4444444444444444444X;;;;;;;;X;>>>>>>>>>>X44444444444444444444444",
"4444444444444444444@;;;;;;;;;@>>>>>>>>>>X44444444444444444444444",
"444444444444444444X#;;;;;;;;#X;>>>>>>>>>X4XXXX444444444444444444",
"444444444444444444X;;;;;;;;#X4@>>>>>>>>>X@#;;#@XX444444444444444",
"444444444444444444@;;;;;;;;@44X;>>>>>>>#;;;;;;;;#@XXXX4444444444",
"44444444444444444X#;;;;;;;#X444@:>>>>>:;;;;;;;;;;;;;;#X444444444",
"44444444444444444X;;;;;;;;@4444X;:::::;;;;;;;;;;;;;;;;X444444444",
"44444444444444444@;;;;;;;#X44444@;;;;;;;;;;;;;;;;;;;;;@444444444",
"4444444444444444X#;;;;;;;@444444X#;;;;;;;;;;;;;;;;;;;;#X44444444",
"4444444444444444X;;;;;;;;X4444444X;;;;;;;;;;;;;;;;;;;;;X44444444",
"4444444444444444@;;;;;;;;X44444444X;;;;;;;;;;;;;;;;;;;;X44444444",
"444444444444444X#;;;;;;;;X444444444X#;;;;;;;#@XXX@#;;;;X44444444",
"444444444444444X;;;;;;;;#X2222222222XXXXXXXXX44444X#;;#X44444444",
"444444444444444@;;;;;;;;@22222222222222222344444444X;;X444444444",
"44444444444444X#;;;;;;;#X222222222222222222223444444XX4444444444",
"44444444444444X;;;;;;;;X2222222222222222222222234444444444444444",
"44444444444444@;;;;;;#X22222222222222222222222222344444444444444",
"444444444444X@#;;;;;;@222222222222222222222222222223444444444444",
"44444444444X#;;;;;;;#X222222222222222222222222222222344444444444",
"4444444444X;;;;;;;;;@2222222222222222222222222222222234444444444",
"4444444444X;;;;;;;;#X2222222222222222222222222222222224444444444",
"44444444432X#;;;;;;@22222222222222222222222222222222223444444444",
"444444444222XX@#;;#X22222222222222222222222222222222222444444444",
"444444444222222XXXX222222222222222222222222222222222222444444444",
"4444444442222222222222222222222222222222222222222222222444444444",
"4444444442222222222222222222222222222222222222222222222444444444",
"4444444443222222222222222222222222222222222222222222223444444444",
"4444444444222222222222222222222222222222222222222222224444444444",
"4444444444322222222222222222222222222222222222222222234444444444",
"4444444444432222222222222222222222222222222222222222344444444444",
"4444444444443222222222222222222222222222222222222223444444444444",
"4444444444444432222222222222222222222222222222222344444444444444",
"4444444444444444222222222222222222222222222222223444444444444444",
"4444444444444444432222222222222222222222222222344444444444444444",
"4444444444444444444432222222222222222222222344444444444444444444",
"4444444444444444444444444322222222222234444444444444444444444444",
"4444444444444444444444444444444444444444444444444444444444444444",
"4444444444444444444444444444444444444444444444444444444444444444",
"4444444444444444444444444444444444444444444444444444444444444444",
"4444444444444444444444444444444444444444444444444444444444444444",
"4444444444444444444444444444444444444444444444444444444444444444",
"4444444444444444444444444444444444444444444444444444444444444444",
"4444444444444444444444444444444444444444444444444444444444444444",
"4444444444444444444444444444444444444444444444444444444444444444",
"4444444444444444444444444444444444444444444444444444444444444444",
"4444444444444444444444444444444444444444444444444444444444444444",
"4444444444444444444444444444444444444444444444444444444444444444",
"4444444444444444444444444444444444444444444444444444444444444444",
"4444444444444444444444444444444444444444444444444444444444444444",
"4444444444444444444444444444444444444444444444444444444444444444",
"4444444444444444444444444444444444444444444444444444444444444444",
"4444444444444444444444444444444444444444444444444444444444444444",
"4444444444444444444444444444444444444444444444444444444444444444",
"4444444444444444444444444444444444444444444444444444444444444444"
};
