/* XPM */
static char *output_1[] = {
/* columns rows colors chars-per-pixel */
"64 130 26 1 ",
"  c black",
". c #222034",
"X c #45212D",
"o c #333A6C",
"O c #3F3F74",
"+ c #3C447C",
"@ c #46426C",
"# c #954A51",
"$ c #CB7173",
"% c #4F5AA5",
"& c #6A78AC",
"* c #616FCB",
"= c #7C8DB5",
"- c #639BFF",
"; c #9C859F",
": c #F5A489",
"> c #F9BF99",
", c #FFF3AB",
"< c #FFE0B1",
"1 c #9CA2CC",
"2 c #A6AEE1",
"3 c #E1EAFD",
"4 c white",
"5 c #3F3F74",
"6 c #5C5CA9",
"7 c None",
/* pixels */
"7777777777777777777777777777777777777777777777777777777777777777",
"7777777777777777777777777777777777777777777777777777777777777777",
"7777777777777777777777777777777777777777777777777777777777777777",
"7777777777777777777777777777777777777777777777777777777777777777",
"7777777777777777777777777777777777777777777777777777777777777777",
"7777777777777777777777777777777777777777777777777777777777777777",
"7777777777777777777777777777777777777777777777777777777777777777",
"7777777777777777777777777777777777777777777777777777777777777777",
"7777777777777777777777777777777777777777777777777777777777777777",
"7777777777777777777777777777777777777777777777777777777777777777",
"7777777777777777777777777777777777777777777777777777777777777777",
"7777777777777777777777777777777777777777777777777777777777777777",
"7777777777777777777777777777777777777777777777777777777777777777",
"7777777777777777777777777777777777777777777777777777777777777777",
"7777777777777777777777777777777777777777777777777777777777777777",
"7777777777777777777777777777.........777777777777777777777777777",
"77777777777777777777777777.+%%%+.+%%%+.7777777777777777777777777",
"777777777777777777777777.+%****%+%****%+.77777777777777777777777",
"77777777777777777777777.********%********.7777777777777777777777",
"7777777777777777777777.******.o%%%o.******.777777777777777777777",
"777777777777777777777.****oooo%***%oooo****.77777777777777777777",
"77777777777777777777.+**oo%**o*****+%*%oo**+.7777777777777777777",
"77777777777777777777o%*o%****+*****%+***%o*%o7777777777777777777",
"7777777777777777777.+**o**%**%******+****o**+.777777777777777777",
"7777777777777777777o%*o%**%**%******+****%o*%o777777777777777777",
"7777777777777777777+*%o**%***%******+*****o%*+777777777777777777",
"777777777777777777.+*+o**%***%******o%****o+*+.77777777777777777",
"777777777777777777.+%o%**%***%******o+%***%o%+.77777777777777777",
"777777777777777777.++o***%***+%*****%.o****o++.77777777777777777",
"777777777777777777.+.%**%o***+o******.o%***%.+.77777777777777777",
"777777777777777777.oo***oo**%oo%*****o.o****%o.77777777777777777",
"7777777777777777...o%**%o.%*oo.o%****o.oo%****...777777777777777",
"7777777777777777.o%**%oo+.ooo.<.o%**%o.+oooooo*%.777777777777777",
"77777777777777777.o%%oo+...oo.>>.o++o.>.++++++o.7777777777777777",
"77777777777777777X.ooo+..::..>>>>....:::.......X7777777777777777",
"77777777777777777X:....$    $:>>>>>:$    $.++.:X7777777777777777",
"77777777777777777.X.++.      $>>>>>$      o%%oX.7777777777777777",
"77777777777777777.%o%%o$X;    ><<<>    ;X$+%%o%.7777777777777777",
"77777777777777777.%o**+>#4OO4O<<<<<O4OO4#>+**o%.7777777777777777",
"77777777777777777.%o**+<:4-OO-<<<<<-OO-4:<+**o%.7777777777777777",
"77777777777777777.%.%*+:<:4--<<<<<<<--4:<:+*%.%.7777777777777777",
"77777777777777777.%%o*+X:>:>><<<<<<<>>:>:X+*o%%.7777777777777777",
"77777777777777777.%%.%o%X:<<<<<<<<<<<<<:X%o%.%%.7777777777777777",
"77777777777777777+%%%..%..:<<<<<<<<<<<:X%%..%%%+7777777777777777",
"7777777777777777.+%%%%%%@1.#:<<$:$<<:#X..%%%%%%+.777777777777777",
"7777777777777777.%%%%%%X@2@$X#:<<<:#X$.1@#X%%%%%.777777777777777",
"7777777777777777.%%%%%X:@2@:$$XXXXX$$:@2@<:X%%%%.777777777777777",
"7777777777777777.%%%%X:>&4@:::$$$$$:::@2@<<<X%%%.777777777777777",
"7777777777777777.%%%%#>@44@##::$$$::##@4&<<<:X%%.777777777777777",
"7777777777777777.%%%X$>@33&<:$:::::$:<@44@<<<#%%.777777777777777",
"7777777777777777.%%%X:>@23@<<<<<<<<<<@&33@<<<:X%.777777777777777",
"7777777777777777.%%%#::&23&>>>$,$>>>>&232@<<<<#%.777777777777777",
"7777777777777777.%%X$:@2333@>>:#:>>>@2332&<<<<:X.777777777777777",
"7777777777777777.+%X$:&34444&@>#>>>@333332@<<<<#.777777777777777",
"77777777777777777+%X$@2444443@&22&@4444433&<<<<:X777777777777777",
"77777777777777777.%X$&344444423432344444432@<<>>#777777777777777",
"777777777777777777+X@1444444432423444444443@>>>>:X77777777777777",
"777777777777777777.#@3444444443&34444444443&>>>>>#77777777777777",
"777777777777777777X$@34444444444444444444442@>>>>:X7777777777777",
"777777777777777777#$@23444444443234444444443@><<<>X7777777777777",
"77777777777777777X$$@23444444442124444444443@<<<<<X7777777777777",
"7777777777777777X::@@=2344444433443444444313@<<<<<X7777777777777",
"777777777777777X:::@@&=23434432==2344443433=@<<<<:X7777777777777",
"7777777777777X#::::@&@&=2332222=&=234442331&><<<<#77777777777777",
"7777777777XX#::::::@&&@&2&2=2=@&@@&2333=32@X>><<<X77777777777777",
"77777777X#$::::::::@&2&@&==&=@232&@=2222=&X$$>>$#X77777777777777",
"7777777X$:::$>>::::#@@2&@@@@@233&&&@@@@@@X#<<$<<<<X7777777777777",
"777777X$:::$>>>>::X:<<@@@@@@@@@@@@@@<<<<:X#<<:<<:<:X777777777777",
"777777X#::#:>>>$>:X@@@@@@@<<<<<XX<<<<<<<X>#<<:<<:<$:X77777777777",
"777777X#::#:##$>>:@2334432&@@<<#:<<<<<<@X:#::#<<$<$:X77777777777",
"7777777X$:#:>#>>>X@3344444432&@@><<<@@&2X::XX:::#:#:X77777777777",
"77777777X:#:>XXXX7@2&&@@&23444432&@@23432X$$$X$X$$X:X77777777777",
"777777777XX:::X777@@<<<<<@&2344443444432@:XXXXXXXX$$X77777777777",
"77777777777XXX7777X:<<<<<<<@&234424432&@::::X77777XX777777777777",
"7777777777777777777#<<<<<<<<<@=22=22&@::::::X7777777777777777777",
"7777777777777777777X<<<<<<<<<<@==&=@::::::::X7777777777777777777",
"7777777777777777777X<<<<<<<<<<<@@@@::::::::$X7777777777777777777",
"7777777777777777777X:<<<<<<<<<<#X#:::::::::#77777777777777777777",
"77777777777777777777#<<<<<<<<<<:X$:::::::::X77777777777777777777",
"77777777777777777777X<<<<<<<<<<<#$:::::::::X77777777777777777777",
"77777777777777777777X:<<<<<<<<<<#$::::::::$X77777777777777777777",
"777777777777777777777#<<<<<<<<<<$#::::::::#777777777777777777777",
"777777777777777777777X:<<<<<<<<<:#::::::::X777777777777777777777",
"7777777777777777777777#<<<<<<<<<>$:::::::$X777777777777777777777",
"7777777777777777777777X><<<<<<<<:$:::::::#7777777777777777777777",
"7777777777777777777777X:<<<<<<<>:$:::::::X7777777777777777777777",
"77777777777777777777777#:><<<<>::$::::::$X7777777777777777777777",
"77777777777777777777777X::>>>>:::$::::::#77777777777777777777777",
"77777777777777777777777X:::::::::#$::::$X77777777777777777777777",
"77777777777777777777777X:::::::::#$$::$$X77777777777777777777777",
"77777777777777777777777X$:::::::$#$$$$$#777777777777777777777777",
"777777777777777777777655#:::::::#$$$$$$X556777777777777777777777",
"777777777777777777655555X:::::::X$$$$$$X555556777777777777777777",
"777777777777777765555555X$::::::X$$$$$#5555555567777777777777777",
"7777777777777765555555555#::::::X$$$$$X5555555555677777777777777",
"7777777777776555555555555X::::::X$::$#55555555555556777777777777",
"7777777777765555555555555X$><<<>X::::X55555555555555677777777777",
"77777777776555555555555555#<<<<<X::::X55555555555555567777777777",
"77777777775555555555555555X><<<<X::::X55555555555555557777777777",
"777777777655555555555555555X<<<>XXXXX555555555555555556777777777",
"7777777775555555555555555555XXXX55555555555555555555555777777777",
"7777777775555555555555555555555555555555555555555555555777777777",
"7777777775555555555555555555555555555555555555555555555777777777",
"7777777775555555555555555555555555555555555555555555555777777777",
"7777777776555555555555555555555555555555555555555555556777777777",
"7777777777555555555555555555555555555555555555555555557777777777",
"7777777777655555555555555555555555555555555555555555567777777777",
"7777777777765555555555555555555555555555555555555555677777777777",
"7777777777776555555555555555555555555555555555555556777777777777",
"7777777777777765555555555555555555555555555555555677777777777777",
"7777777777777777555555555555555555555555555555556777777777777777",
"7777777777777777765555555555555555555555555555677777777777777777",
"7777777777777777777765555555555555555555555677777777777777777777",
"7777777777777777777777777655555555555567777777777777777777777777",
"7777777777777777777777777777777777777777777777777777777777777777",
"7777777777777777777777777777777777777777777777777777777777777777",
"7777777777777777777777777777777777777777777777777777777777777777",
"7777777777777777777777777777777777777777777777777777777777777777",
"7777777777777777777777777777777777777777777777777777777777777777",
"7777777777777777777777777777777777777777777777777777777777777777",
"7777777777777777777777777777777777777777777777777777777777777777",
"7777777777777777777777777777777777777777777777777777777777777777",
"7777777777777777777777777777777777777777777777777777777777777777",
"7777777777777777777777777777777777777777777777777777777777777777",
"7777777777777777777777777777777777777777777777777777777777777777",
"7777777777777777777777777777777777777777777777777777777777777777",
"7777777777777777777777777777777777777777777777777777777777777777",
"7777777777777777777777777777777777777777777777777777777777777777",
"7777777777777777777777777777777777777777777777777777777777777777",
"7777777777777777777777777777777777777777777777777777777777777777"
};
