/* XPM */
static char *output_2[] = {
/* columns rows colors chars-per-pixel */
"64 130 24 1 ",
"  c black",
". c #222034",
"X c #45212D",
"o c #3F3F74",
"O c #3C447C",
"+ c #46426C",
"@ c #954A51",
"# c #CB7173",
"$ c #4F5AA5",
"% c #6A78AC",
"& c #616FCB",
"* c #7C8DB5",
"= c #639BFF",
"- c #9C859F",
"; c #F5A489",
": c #F9BF99",
"> c #FFF3AB",
", c #FFE0B1",
"< c #A6AEE1",
"1 c #E1EAFD",
"2 c white",
"3 c #3F3F74",
"4 c #5C5CA9",
"5 c None",
/* pixels */
"5555555555555555555555555555555555555555555555555555555555555555",
"5555555555555555555555555555555555555555555555555555555555555555",
"5555555555555555555555555555555555555555555555555555555555555555",
"5555555555555555555555555555555555555555555555555555555555555555",
"5555555555555555555555555555555555555555555555555555555555555555",
"5555555555555555555555555555555555555555555555555555555555555555",
"5555555555555555555555555555555555555555555555555555555555555555",
"5555555555555555555555555555555555555555555555555555555555555555",
"5555555555555555555555555555555555555555555555555555555555555555",
"5555555555555555555555555555555555555555555555555555555555555555",
"5555555555555555555555555555555555555555555555555555555555555555",
"5555555555555555555555555555555555555555555555555555555555555555",
"5555555555555555555555555555555555555555555555555555555555555555",
"555555555555555555555555555.........5555555555555555555555555555",
"5555555555555555555555555.O$&&&&&&&$O.55555555555555555555555555",
"55555555555555555555555.O$&&&&&&&&&&&$O.555555555555555555555555",
"5555555555555555555555.$&&&&&&&&&&&&&&&$.55555555555555555555555",
"555555555555555555555.&&&&&&&&&&&&&&&&&&&.5555555555555555555555",
"555555555555555555.....OO$&&&&&&&&&&&&&&&$.555555555555555555555",
"55555555555555555.OOOOO$$&$$&&&&&&&&&&&&&&O555555555555555555555",
"5555555555555555.O$$$$$&&$&&$&&&&&&&&&&&&&$.55555555555555555555",
"5555555555555555.$&&&&O$&&$&&$&&&&&&&&&&&&&O55555555555555555555",
"555555555555555.O$&&&&$O&&&$&&.&&&&&&&&&&&&$.5555555555555555555",
"555555555555555O$&&&&&&$&&&&O&O&&&&&&&&&&&&&.5555555555555555555",
"55555555555555.$$&&&&&&$&&&&$O$.&&&&&&&&&&&&O.555555555555555555",
"55555555555555.$$&&&&&&O&&&&&O&O&&&&&&&&&&&&$.555555555555555555",
"55555555555555.$$&&&&&&O&&&&&$O$.&&&&&&&&&&&$.555555555555555555",
"55555555555555.$$&&&&&&O&&&&&$.$O$&&&&&&&&&&$O.55555555555555555",
"55555555555555.$$$&&&&$.$&&&$$O$$.$&&&&&&&&$$$.55555555555555555",
"555555555555555O$$$&&&O.$$&$$$&.$.O$&&&&&&&$$$.55555555555555555",
"555555555555555.O$$&&$..O$$$$$O.$.OO$&&&&&$$$$O.5555555555555555",
"5555555555555555.$$$$O...O$$O..O$....O$$$$$$$$$.5555555555555555",
"55555555555555555....::;;....O$$$.@X@.$$$$$$$$$O.555555555555555",
"55555555555555555555X:#   #.$$$$$.,,:@O$$$$$$$$$.555555555555555",
"55555555555555555555X;     .$$$$$.#;,X.$$$$$$$$$O555555555555555",
"55555555555555555555@    -X.O$$$$.;:,X.$$$$$$$$$$.55555555555555",
"555555555555555555X@#:;2o2@;.$$$$.;:;@OO$$$$$$$$$O55555555555555",
"55555555555555555X#;:,:oo2;,.$$$$.#:X.OO$$$$$$$$$$.5555555555555",
"55555555555555555X;:,,:==;,,.$$$$.:;@OOOO$$$$$$$$$O5555555555555",
"555555555555555555@:,,,:;:,,.$$$O:;X.OOOO$$$$$$$$$$.555555555555",
"555555555555555555X;:,,,,,,,.$$$.XX.OOOOOO$$$$$$$$$O555555555555",
"5555555555555555555X;:,,,,,,.$$O##X.OOOOOO$$$$$$$$$$.55555555555",
"55555555555555555555X#@:::::.$$.##X..OOOOOO$$$$$$$$$O55555555555",
"555555555555555555555X;:::;#...####XX.OOOOO$$$$$$$$$$.5555555555",
"5555555555555555555555XXX@@@###;;+++++..OOOO$$$$$$$$$.5555555555",
"5555555555555555555555555++###;++<<<<*%+.OOO$$$$$$$$$.5555555555",
"55555555555555555555555+++###;+<21*%%%%++.OOO$$$$$$$$.5555555555",
"555555555555555555555+%<+:,,@+<2*%+,,,,:;XOOO$$$$$$$$.5555555555",
"5555555555555555555+%<1+::>,+<2<+:,,,,,,,@.OO$$$$$$$O55555555555",
"55555555555555555+%<122+#@++<21*::,,,,,,,;XOOO$$$$$$.55555555555",
"5555555555555555+12222<*++*1111+:#;,,,,,,,@.OO$$$$$O555555555555",
"5555555555XXXX5+12212<112222221+:@#,,,,,,,;XOO$$$$$.555555555555",
"555555555X;;;;X%222<22222222222*:#@,,,,,,,,@.O$$$O.5555555555555",
"55555555XX;@;;+*222*%<222222222<+:@;,,,,,,,;XO$$$.55555555555555",
"5555555X#X;X@X%<122+122222222222%,,@,,,,,,,,@.$$.555555555555555",
"5555555X;XX;;+*<<12+122222222222*+,X;,,,,,,,;XO.5555555555555555",
"5555555X;#X;;+*<<<<+222222222222<*++@,,,,,,,,@.55555555555555555",
"5555555X;;X;;X%<<<<+2221122222221*<<X;,,,,,,,;X55555555555555555",
"555555XX##X;;X+*<*<+1211221222221%<<<@,,,,,,,,X55555555555555555",
"555555X#XXX#X;X%*%<+<1<121<22221<+<<<X,,,,,,,,X55555555555555555",
"5555555X##XXX#;+*+*+*<*<21*221<1<%<<X@,,,,,,,;X55555555555555555",
"55555555XXX55X##%<%<+<%<121<<<<1<%<<X;,,,,,,,@555555555555555555",
"55555555555555XX+*+*<+*<222<<<*1*%<<@,,,,,,,;X555555555555555555",
"55555555555555555+*+<<+1222<<<%1%*<X;,,,,,,,@5555555555555555555",
"55555555555555555+++*1*12221<*XXXXX@;;,,,,,;X5555555555555555555",
"5555555555555555555++<*12221<X;,,,,X@;;,,,,@55555555555555555555",
"555555555555555555555+*12221X;,,,,,,,,,,,,,X55555555555555555555",
"5555555555555555555555+%%%%X;X,#,,,,,,,,,,X+55555555555555555555",
"5555555555555555555555+<%++X;X,#,,,,;#,,,X1+55555555555555555555",
"5555555555555555555555++,,,X#X:#,,,,#,,;X1<+55555555555555555555",
"5555555555555555555555X,,,,,XX;#,,,,#,,@+<%555555555555555555555",
"5555555555555555555555@,,,,,,X#@;;;;@,,X;++555555555555555555555",
"555555555555555555555X;,,,,,,XXX;;;;X;;X;X5555555555555555555555",
"555555555555555555555X,,,,,,,,,,XXXXXX#X@55555555555555555555555",
"555555555555555555555@,,,,,,,,,,,,,,;@XXX55555555555555555555555",
"55555555555555555555X;,,,,,,,,,,,,,;X;;;@5XXXX555555555555555555",
"55555555555555555555X,,,,,,,,,,,,;@X;;;;@X#;;#@XX555555555555555",
"55555555555555555555@,,,,,,,,,,,,X;;;;;#;;;;;;;;#@XXXX5555555555",
"5555555555555555555X;,,,,,,,,,,,X;;;;;;;;;;;;;;;;;;;;#X555555555",
"5555555555555555555X:,,,,,,,,,,X#;;;;;;;;;;;;;;;;;;;;;X555555555",
"5555555555555555555@,,,,,,,,,,X5@;;;;;;;;;;;;;;;;;;;;;@555555555",
"555555555555555555X#,,,,,,,,,X55X#;;;;;;;;;;;;;;;;;;;;#X55555555",
"555555555555555555X;:,,,,,,;X5555X;;;;;;;;;;;;;;;;;;;;;X55555555",
"555555555555555555@;;,,,,,,@555555X;;;;;;;;;;;;;;;;;;;;X55555555",
"55555555555555555X#;;;:,,:;X5555555X#;;;;;;;#@XXX@#;;;;X55555555",
"55555555555555555X;;;;;;;;@555555555XXXXXXXXX55555X#;;#X55555555",
"55555555555555555@;;;;;;;#X555555555555555555555555X;;X555555555",
"5555555555555555X#;;;;;;;@55555555555555555555555555XX5555555555",
"5555555555555555X;;;;;;;;X33333333333345555555555555555555555555",
"5555555555555555@;;;;;;;;X33333333333333334555555555555555555555",
"555555555555555X#;;;;;;;;X33333333333333333334555555555555555555",
"555555555555555X;;;;;;;;#X33333333333333333333345555555555555555",
"555555555555554@;;;;;;;;@333333333333333333333333455555555555555",
"55555555555543X#;;;;;;;#X333333333333333333333333334555555555555",
"55555555555433X;;;;;;;;X3333333333333333333333333333455555555555",
"55555555554333@;;;;;;#X33333333333333333333333333333345555555555",
"555555555533X@#;;;;;;@333333333333333333333333333333335555555555",
"55555555543X#;;;;;;;#X333333333333333333333333333333334555555555",
"5555555553X;;;;;;;;;@3333333333333333333333333333333333555555555",
"5555555553X;;;;;;;;#X3333333333333333333333333333333333555555555",
"55555555533X#;;;;;;@33333333333333333333333333333333333555555555",
"555555555333XX@#;;#X33333333333333333333333333333333333555555555",
"555555555433333XXXX333333333333333333333333333333333334555555555",
"5555555555333333333333333333333333333333333333333333335555555555",
"5555555555433333333333333333333333333333333333333333345555555555",
"5555555555543333333333333333333333333333333333333333455555555555",
"5555555555554333333333333333333333333333333333333334555555555555",
"5555555555555543333333333333333333333333333333333455555555555555",
"5555555555555555333333333333333333333333333333334555555555555555",
"5555555555555555543333333333333333333333333333455555555555555555",
"5555555555555555555543333333333333333333333455555555555555555555",
"5555555555555555555555555433333333333345555555555555555555555555",
"5555555555555555555555555555555555555555555555555555555555555555",
"5555555555555555555555555555555555555555555555555555555555555555",
"5555555555555555555555555555555555555555555555555555555555555555",
"5555555555555555555555555555555555555555555555555555555555555555",
"5555555555555555555555555555555555555555555555555555555555555555",
"5555555555555555555555555555555555555555555555555555555555555555",
"5555555555555555555555555555555555555555555555555555555555555555",
"5555555555555555555555555555555555555555555555555555555555555555",
"5555555555555555555555555555555555555555555555555555555555555555",
"5555555555555555555555555555555555555555555555555555555555555555",
"5555555555555555555555555555555555555555555555555555555555555555",
"5555555555555555555555555555555555555555555555555555555555555555",
"5555555555555555555555555555555555555555555555555555555555555555",
"5555555555555555555555555555555555555555555555555555555555555555",
"5555555555555555555555555555555555555555555555555555555555555555",
"5555555555555555555555555555555555555555555555555555555555555555",
"5555555555555555555555555555555555555555555555555555555555555555",
"5555555555555555555555555555555555555555555555555555555555555555"
};
