/* XPM */
static char *output_11[] = {
/* columns rows colors chars-per-pixel */
"64 130 24 1 ",
"  c black",
". c #222034",
"X c #45212D",
"o c #3F3F74",
"O c #3C447C",
"+ c #46426C",
"@ c #954A51",
"# c #CB7173",
"$ c #4F5AA5",
"% c #6A78AC",
"& c #616FCB",
"* c #7C8DB5",
"= c #639BFF",
"- c #9C859F",
"; c #F5A489",
": c #F9BF99",
"> c #FFF3AB",
", c #FFE0B1",
"< c #A6AEE1",
"1 c #E1EAFD",
"2 c white",
"3 c #3F3F74",
"4 c #5C5CA9",
"5 c None",
/* pixels */
"5555555555555555555555555555555555555555555555555555555555555555",
"5555555555555555555555555555555555555555555555555555555555555555",
"5555555555555555555555555555555555555555555555555555555555555555",
"5555555555555555555555555555555555555555555555555555555555555555",
"5555555555555555555555555555555555555555555555555555555555555555",
"5555555555555555555555555555555555555555555555555555555555555555",
"5555555555555555555555555555555555555555555555555555555555555555",
"5555555555555555555555555555555555555555555555555555555555555555",
"5555555555555555555555555555555555555555555555555555555555555555",
"5555555555555555555555555555555555555555555555555555555555555555",
"5555555555555555555555555555555555555555555555555555555555555555",
"5555555555555555555555555555555555555555555555555555555555555555",
"5555555555555555555555555555555555555555555555555555555555555555",
"5555555555555555555555555555.........555555555555555555555555555",
"55555555555555555555555555.O$&&&&&&&$O.5555555555555555555555555",
"555555555555555555555555.O$&&&&&&&&&&&$O.55555555555555555555555",
"55555555555555555555555.$&&&&&&&&&&&&&&&$.5555555555555555555555",
"5555555555555555555555.&&&&&&&&&&&&&&&&&&&.555555555555555555555",
"555555555555555555555.$&&&&&&&&&&&&&&&$OO.....555555555555555555",
"555555555555555555555O&&&&&&&&&&&&&&$$&$$OOOOO.55555555555555555",
"55555555555555555555.$&&&&&&&&&&&&&$&&$&&$$$$$O.5555555555555555",
"55555555555555555555O&&&&&&&&&&&&&$&&$&&$O&&&&$.5555555555555555",
"5555555555555555555.$&&&&&&&&&&&&.&&$&&&O$&&&&$O.555555555555555",
"5555555555555555555.&&&&&&&&&&&&&O&O&&&&$&&&&&&$O555555555555555",
"5555555555555555555.&&&&&&&&&&&&.$O$&&&&$&&&&&&$$.55555555555555",
"5555555555555555555.&&&&&&&&&&&&O&O&&&&&O&&&&&&$$.55555555555555",
"5555555555555555555O&&&&&&&&&&&.$O$&&&&&O&&&&&&$$.55555555555555",
"555555555555555555.$&&&&&&&&&&$O$.$&&&&&O&&&&&&$$.55555555555555",
"555555555555555555.$$&&&&&&&&$.$$O$$&&&$.$&&&&$$$.55555555555555",
"555555555555555555.$$&&&&&&&$O.$.&$$$&$$.O&&&$$$O555555555555555",
"555555555555555555.$$$&&&&&$OO.$.O$$$$$O..$&&$$O.555555555555555",
"555555555555555555.$$$$$$$O....$O..O$$O...O$$$$.5555555555555555",
"555555555555555555.$$$$$$$.@X@.$$$O....;;::....55555555555555555",
"555555555555555555.$$$$$$O@:,,.$$$$$.#   #:X55555555555555555555",
"555555555555555555.$$$$$$.X,;#.$$$$$.     ;X55555555555555555555",
"555555555555555555O$$$$$$.X,:;.$$$$O.X-    @55555555555555555555",
"55555555555555555.$$$$$$$O@;:;.$$$$.;@2o2;:#@X555555555555555555",
"55555555555555555.$$$$$$$O.X:#.$$$$.,;2oo:,:;#X55555555555555555",
"55555555555555555.$$$$$$OOO@;:.$$$$.,,;==:,,:;X55555555555555555",
"55555555555555555O$$$$$$OOO.X;:O$$$.,,:;:,,,:@555555555555555555",
"5555555555555555.$$$$$$OOOOO.XX.$$$.,,,,,,,:;X555555555555555555",
"5555555555555555.$$$$$$OOOOO.X##O$$.,,,,,,:;X5555555555555555555",
"5555555555555555.$$$$$$OOOO..@##.$$.:::::@#X55555555555555555555",
"5555555555555555.$$$$$OOOO.X@####...#;:::;X555555555555555555555",
"555555555555555.O$$$$$OOO.X++++;;###@@@XXX5555555555555555555555",
"555555555555555.$$$$$$OO.++<<<<%++###++5555555555555555555555555",
"555555555555555.$$$$$OOO+**%%%*12<+###+++55555555555555555555555",
"55555555555555.O$$$$$OOO+++,,,+%*2<+#,:+1%+555555555555555555555",
"55555555555555.$$$$$OOO.@,,,,,,,+*22+:@>+11%+5555555555555555555",
"5555555555555.O$$O$$OOOX;,,,,,,,:%111++@#+221+555555555555555555",
"555555555555.$$$$O$OOOOX,,,,,,,,;+2222*++*<211+55555555555555555",
"555555555...$$$$OO$OOO.@,,,,,,,,#%2222222222<2*%+555555555555555",
"555555555.O$$$$OOO$OOOX;,,,,,,,#+*222222221<*21<*+XXX55555555555",
"5555555555.O$OOOO$$.O.X,,,,,,,,+*22222222221<22<<+#;;X5555555555",
"55555555555...OO$$O.O.X,,,,,,,,*222222221<*2*22<*+#;;X5555555555",
"55555555555555.$$O..O.@,,,,,,,,<1222222212<%<*1<%XXX;XX555555555",
"55555555555555.OO.5..X;,,,,,,,;*12222222122%<*<*+#X;;@X555555555",
"55555555555555...5555X,,,,,,,,@%<122222222*%<%<%#;X#X#X555555555",
"555555555555555555555X,,,,,,,,X%<<222111221<<+<+#;XX@#@555555555",
"555555555555555555555X,,,,,,,,X*%1221<<222<<*+%+X;XX#X#X55555555",
"555555555555555555555X;,,,,,,,@<*111<<1221<**<+#X#XXX@#X55555555",
"5555555555555555555555@,,,,,,,;X1221**221*%%<<+XXXX####X55555555",
"5555555555555555555555X,,,,,,,,,X21<%1221+*+<*+555XXXXX555555555",
"555555555555555555555++X,,,,,,,,;X1*<1211<+**%+55555555555555555",
"55555555555555555555+*+;X,,,,,,,,;@X111*+++++5555555555555555555",
"55555555555555555555+<<+;X,,,,,,,,,;@XX+555555555555555555555555",
"55555555555555555555+<<<+,X;,,,,,,,,,,;X555555555555555555555555",
"55555555555555555555+<<<*%+@,,,,,,,,,,,;X55555555555555555555555",
"55555555555555555555+<<%<21X,,,,,#,,,,#:X55555555555555555555555",
"55555555555555555555+*<%21+,X@;,,#;,,,#:X55555555555555555555555",
"555555555555555555555%<+2%,,,,X;,;#:,,#;X55555555555555555555555",
"555555555555555555555+*+1+,,,,,X,,#;;;@#X55555555555555555555555",
"5555555555555555555555++%,,,,,XX,,@X##@XX55555555555555555555555",
"55555555555555555555555++;;,,,X;;;X,XXX,@55555555555555555555555",
"555555555555555555555555XX;;;,XXXX,,,,,,;X5555555555555555555555",
"555555555555555555555555X#X;,,,,,,,,,,,,,X5555555555555555555555",
"55555555555555555555555XX@#X,,,,,,,,,,,,,@5555555555555555555555",
"555555555555555555555X@#;;##X,,,,,,,,,,,,;X555555555555555555555",
"5555555555555555555X@#;;;;;#;X,,,,,,,,,,,,X555555555555555555555",
"55555555555555XXXX@#;;;;;;;;;;X,,,,,,,,,,,X555555555555555555555",
"5555555555555X#;;;;;;;;;;;;;;;;X,,,,,,,,,,@555555555555555555555",
"5555555555555X;;;;;;;;;;;;;;;;;;X;,,,,,,,,;X55555555555555555555",
"5555555555555@;;;;;;;;;;;;;;;;;;X@:,,,,,,,:X55555555555555555555",
"555555555555X#;;;;;;;;;;;;;;;;;#XX;,,,,,,,;X55555555555555555555",
"555555555555X;;;;;;;;;;;;;;;;;;X5X;::,,,::@555555555555555555555",
"555555555555X;;;;;;;;;;;;;;;;;#XX#;;;:::;;X555555555555555555555",
"555555555555X;;;;#@XXXXXXXXXXXXX;;;;;;;;;@5555555555555555555555",
"555555555555X#;;#X555433333333X#;;;;;;;;#X4555555555555555555555",
"5555555555555X;;X5433333333333X;;;;;;;;;@33334555555555555555555",
"55555555555555XX43333333333333X;;;;;;;;;X33333345555555555555555",
"555555555555554333333333333333X#;;;;;;;#X33333333455555555555555",
"5555555555554333333333333333333@;;;;;;;@333333333334555555555555",
"5555555555543333333333333333333X;;;;;;;X333333333333455555555555",
"5555555555433333333333333333333X;;;;;;#X333333333333345555555555",
"5555555555333333333333333333333X;;;;;;X3333333333333335555555555",
"5555555554333333333333333333333X;;;;;;@3333333333333334555555555",
"5555555553333333333333333333333X;;;;;;#X333333333333333555555555",
"5555555553333333333333333333333X;;;;;;;;X33333333333333555555555",
"5555555553333333333333333333333X;;;;;;;;;X3333333333333555555555",
"5555555553333333333333333333333X#;;;;;;;;X3333333333333555555555",
"55555555543333333333333333333333XX@#;;;#X33333333333334555555555",
"55555555553333333333333333333333333XXXXX333333333333335555555555",
"5555555555433333333333333333333333333333333333333333345555555555",
"5555555555543333333333333333333333333333333333333333455555555555",
"5555555555554333333333333333333333333333333333333334555555555555",
"5555555555555543333333333333333333333333333333333455555555555555",
"5555555555555554333333333333333333333333333333335555555555555555",
"5555555555555555543333333333333333333333333333455555555555555555",
"5555555555555555555543333333333333333333333455555555555555555555",
"5555555555555555555555555433333333333345555555555555555555555555",
"5555555555555555555555555555555555555555555555555555555555555555",
"5555555555555555555555555555555555555555555555555555555555555555",
"5555555555555555555555555555555555555555555555555555555555555555",
"5555555555555555555555555555555555555555555555555555555555555555",
"5555555555555555555555555555555555555555555555555555555555555555",
"5555555555555555555555555555555555555555555555555555555555555555",
"5555555555555555555555555555555555555555555555555555555555555555",
"5555555555555555555555555555555555555555555555555555555555555555",
"5555555555555555555555555555555555555555555555555555555555555555",
"5555555555555555555555555555555555555555555555555555555555555555",
"5555555555555555555555555555555555555555555555555555555555555555",
"5555555555555555555555555555555555555555555555555555555555555555",
"5555555555555555555555555555555555555555555555555555555555555555",
"5555555555555555555555555555555555555555555555555555555555555555",
"5555555555555555555555555555555555555555555555555555555555555555",
"5555555555555555555555555555555555555555555555555555555555555555",
"5555555555555555555555555555555555555555555555555555555555555555",
"5555555555555555555555555555555555555555555555555555555555555555",
"5555555555555555555555555555555555555555555555555555555555555555",
"5555555555555555555555555555555555555555555555555555555555555555"
};
