/* XPM */
static char *output_3[] = {
/* columns rows colors chars-per-pixel */
"64 130 24 1 ",
"  c black",
". c #222034",
"X c #45212D",
"o c #3F3F74",
"O c #3C447C",
"+ c #46426C",
"@ c #954A51",
"# c #CB7173",
"$ c #4F5AA5",
"% c #6A78AC",
"& c #616FCB",
"* c #7C8DB5",
"= c #639BFF",
"- c #9C859F",
"; c #F5A489",
": c #F9BF99",
"> c #FFF3AB",
", c #FFE0B1",
"< c #A6AEE1",
"1 c #E1EAFD",
"2 c white",
"3 c #3F3F74",
"4 c #5C5CA9",
"5 c None",
/* pixels */
"5555555555555555555555555555555555555555555555555555555555555555",
"5555555555555555555555555555555555555555555555555555555555555555",
"5555555555555555555555555555555555555555555555555555555555555555",
"5555555555555555555555555555555555555555555555555555555555555555",
"5555555555555555555555555555555555555555555555555555555555555555",
"5555555555555555555555555555555555555555555555555555555555555555",
"5555555555555555555555555555555555555555555555555555555555555555",
"5555555555555555555555555555555555555555555555555555555555555555",
"5555555555555555555555555555555555555555555555555555555555555555",
"5555555555555555555555555555555555555555555555555555555555555555",
"5555555555555555555555555555555555555555555555555555555555555555",
"5555555555555555555555555555555555555555555555555555555555555555",
"5555555555555555555555555555555555555555555555555555555555555555",
"5555555555555555555555555555555555555555555555555555555555555555",
"5555555555555555555555555555555555555555555555555555555555555555",
"555555555555555555555555555.........5555555555555555555555555555",
"5555555555555555555555555.O$&&&&&&&$O.55555555555555555555555555",
"55555555555555555555555.O$&&&&&&&&&&&$O.555555555555555555555555",
"5555555555555555555555.$&&&&&&&&&&&&&&&$.55555555555555555555555",
"555555555555555555555.&&&&&&&&&&&&&&&&&&&.5555555555555555555555",
"555555555555555555.....OO$&&&&&&&&&&&&&&&$.555555555555555555555",
"55555555555555555.OOOOO$$&$$&&&&&&&&&&&&&&O555555555555555555555",
"5555555555555555.O$$$$$&&$&&$&&&&&&&&&&&&&$.55555555555555555555",
"5555555555555555.$&&&&O$&&$&&$&&&&&&&&&&&&&O55555555555555555555",
"555555555555555.O$&&&&$O&&&$&&.&&&&&&&&&&&&$.5555555555555555555",
"555555555555555O$&&&&&&$&&&&O&O&&&&&&&&&&&&&.5555555555555555555",
"55555555555555.$$&&&&&&$&&&&$O$.&&&&&&&&&&&&.5555555555555555555",
"55555555555555.$$&&&&&&O&&&&&O&O&&&&&&&&&&&&.5555555555555555555",
"55555555555555.$$&&&&&&O&&&&&$O$.&&&&&&&&&&&O5555555555555555555",
"55555555555555.$$&&&&&&O&&&&&$.$O$&&&&&&&&&&$.555555555555555555",
"55555555555555.$$$&&&&$.$&&&$$O$$.$&&&&&&&&$$.555555555555555555",
"555555555555555O$$$&&&O.$$&$$$&.$.O$&&&&&&&$$.555555555555555555",
"555555555555555.O$$&&$..O$$$$$O.$.OO$&&&&&$$$.555555555555555555",
"5555555555555555.$$$$O...O$$O..O$....O$$$$$$$.555555555555555555",
"55555555555555555....::;;....O$$$.@X@.$$$$$$$.555555555555555555",
"55555555555555555555X:#   #.$$$$$.,,:@O$$$$$$.555555555555555555",
"55555555555555555555X;     .$$$$$.#;,X.$$$$$$.555555555555555555",
"55555555555555555555@    -X.O$$$$.;:,X.$$$$$$O555555555555555555",
"555555555555555555X@#:;2o2@;.$$$$.;:;@O$$$$$$$.55555555555555555",
"55555555555555555X#;:,:oo2;,.$$$$.#:X.O$$$$$$$.55555555555555555",
"55555555555555555X;:,,:==;,,.$$$$.:;@OOO$$$$$$.55555555555555555",
"555555555555555555@:,,,:;:,,.$$$O:;X.OOO$$$$$$O55555555555555555",
"555555555555555555X;:,,,,,,,.$$$.XX.OOOOO$$$$$$.5555555555555555",
"5555555555555555555X;:,,,,,,.$$O##X.OOOOO$$$$$$.5555555555555555",
"55555555555555555555X#@:::::.$$.##@..OOOO$$$$$$.5555555555555555",
"555555555555555555555X;:::;#...####@X.OOOO$$$$$.5555555555555555",
"5555555555555555555555XXX@@@###;;++++X.OOO$$$$$O.555555555555555",
"5555555555555555555555555++###++%<<<<++.OO$$$$$$.555555555555555",
"55555555555555555555555+++###+<21*%%%**+OOO$$$$$.555555555555555",
"555555555555555555555+%1+:,#+<2*%+,,,+++OOO$$$$$O.55555555555555",
"5555555555555555555+%11+>@:+22*+,,,,,,,@.OOO$$$$$.55555555555555",
"555555555555555555+122+#@++111%:,,,,,,,;XOOO$$O$$O.5555555555555",
"55555555555555555+112<*++*2222+;,,,,,,,,XOOOO$O$$$$.555555555555",
"555555555555555+%*2<2222222222%#,,,,,,,,@.OOO$OO$$$$...555555555",
"55555555555XXX+*<12*<122222222*+#,,,,,,,;XOOO$OOO$$$$O.555555555",
"5555555555X;;#+<<22<12222222222*+,,,,,,,,X.O.$$OOOO$O.5555555555",
"5555555555X;;#+*<22*2*<122222222*,,,,,,,,X.O.O$$OO...55555555555",
"555555555XX;XXX%<1*<%<2122222221<,,,,,,,,@.O..O$$.55555555555555",
"555555555X@;;X#+*<*<%22122222221*;,,,,,,,;X..5.OO.55555555555555",
"555555555X#X#X;#%<%<%*222222221<%@,,,,,,,,X5555...55555555555555",
"555555555@#@XX;#+<+<<122111222<<%X,,,,,,,,X555555555555555555555",
"55555555X#X#XX;X+%+*<<222<<1221%*X,,,,,,,,X555555555555555555555",
"55555555X#@XXX#X#+<**<1221<<111*<@,,,,,,,;X555555555555555555555",
"55555555X####XXXX+<<%%*122**1221X;,,,,,,,@5555555555555555555555",
"555555555XXXXX555+*<+*+1221%<12X,,,,,,,,,X5555555555555555555555",
"55555555555555555+%**+<1121<*1X;,,,,,,,,X++555555555555555555555",
"5555555555555555555+++++*111X@;,,,,,,,,X;+*+55555555555555555555",
"555555555555555555555555+XX@;,,,,,,,,,X;+<<+55555555555555555555",
"555555555555555555555555X;,,,,,,,,,,;X,+<<<+55555555555555555555",
"55555555555555555555555X;,,,,,,,,,,,@+%*<<<+55555555555555555555",
"55555555555555555555555X:#,,,,#,,,,,X12<%<<+55555555555555555555",
"55555555555555555555555X:#,,,;#,,;@X,+12%<*+55555555555555555555",
"55555555555555555555555X;#,,:#;,;X,,,,%2+<%555555555555555555555",
"55555555555555555555555X#@;;;#,,X,,,,,+1+*+555555555555555555555",
"55555555555555555555555XX@##X@,,XX,,,,,%++5555555555555555555555",
"55555555555555555555555@,XXX,X;;;X,,,;;++55555555555555555555555",
"5555555555555555555555X;,,,,,,XXXX,;;;XX555555555555555555555555",
"5555555555555555555555X,,,,,,,,,,,,,;X#X555555555555555555555555",
"5555555555555555555555@,,,,,,,,,,,,,X#@XX55555555555555555555555",
"555555555555555555555X;,,,,,,,,,,,,X##;;#@X555555555555555555555",
"555555555555555555555X,,,,,,,,,,,,X;#;;;;;#@X5555555555555555555",
"555555555555555555555X,,,,,,,,,,,X;;;;;;;;;;#@XXXX55555555555555",
"555555555555555555555@,,,,,,,,,,X;;;;;;;;;;;;;;;;#X5555555555555",
"55555555555555555555X;,,,,,,,,;X;;;;;;;;;;;;;;;;;;X5555555555555",
"55555555555555555555X:,,,,,,,:@X;;;;;;;;;;;;;;;;;;@5555555555555",
"55555555555555555555X;,,,,,,,;XX#;;;;;;;;;;;;;;;;;#X555555555555",
"555555555555555555555@::,,,::;X5X;;;;;;;;;;;;;;;;;;X555555555555",
"555555555555555555555X;;:::;;;#XX#;;;;;;;;;;;;;;;;;X555555555555",
"5555555555555555555555@;;;;;;;;;XXXXXXXXXXXXX@#;;;;X555555555555",
"5555555555555555555554X#;;;;;;;;#X333333334555X#;;#X555555555555",
"55555555555555555543333@;;;;;;;;;X3333333333345X;;X5555555555555",
"55555555555555554333333X;;;;;;;;;X33333333333334XX55555555555555",
"55555555555555433333333X#;;;;;;;#X333333333333333455555555555555",
"555555555555433333333333@;;;;;;;@3333333333333333334555555555555",
"555555555554333333333333X;;;;;;;X3333333333333333333455555555555",
"555555555543333333333333X#;;;;;;X3333333333333333333345555555555",
"5555555555333333333333333X;;;;;;X3333333333333333333335555555555",
"5555555554333333333333333@;;;;;;X3333333333333333333334555555555",
"555555555333333333333333X#;;;;;;X3333333333333333333333555555555",
"55555555533333333333333X;;;;;;;;X3333333333333333333333555555555",
"5555555553333333333333X;;;;;;;;;X3333333333333333333333555555555",
"5555555553333333333333X;;;;;;;;#X3333333333333333333333555555555",
"55555555543333333333333X#;;;#@XX33333333333333333333334555555555",
"555555555533333333333333XXXXX33333333333333333333333335555555555",
"5555555555433333333333333333333333333333333333333333345555555555",
"5555555555543333333333333333333333333333333333333333455555555555",
"5555555555554333333333333333333333333333333333333334555555555555",
"5555555555555543333333333333333333333333333333333455555555555555",
"5555555555555555333333333333333333333333333333334555555555555555",
"5555555555555555543333333333333333333333333333455555555555555555",
"5555555555555555555543333333333333333333333455555555555555555555",
"5555555555555555555555555433333333333345555555555555555555555555",
"5555555555555555555555555555555555555555555555555555555555555555",
"5555555555555555555555555555555555555555555555555555555555555555",
"5555555555555555555555555555555555555555555555555555555555555555",
"5555555555555555555555555555555555555555555555555555555555555555",
"5555555555555555555555555555555555555555555555555555555555555555",
"5555555555555555555555555555555555555555555555555555555555555555",
"5555555555555555555555555555555555555555555555555555555555555555",
"5555555555555555555555555555555555555555555555555555555555555555",
"5555555555555555555555555555555555555555555555555555555555555555",
"5555555555555555555555555555555555555555555555555555555555555555",
"5555555555555555555555555555555555555555555555555555555555555555",
"5555555555555555555555555555555555555555555555555555555555555555",
"5555555555555555555555555555555555555555555555555555555555555555",
"5555555555555555555555555555555555555555555555555555555555555555",
"5555555555555555555555555555555555555555555555555555555555555555",
"5555555555555555555555555555555555555555555555555555555555555555",
"5555555555555555555555555555555555555555555555555555555555555555",
"5555555555555555555555555555555555555555555555555555555555555555"
};
