/* XPM */
static char *output_23[] = {
/* columns rows colors chars-per-pixel */
"64 130 24 1 ",
"  c black",
". c #222034",
"X c #45212D",
"o c #333A6C",
"O c #3F3F74",
"+ c #3C447C",
"@ c #46426C",
"# c #954A51",
"$ c #CB7173",
"% c #4F5AA5",
"& c #6A78AC",
"* c #616FCB",
"= c #7C8DB5",
"- c #639BFF",
"; c #9C859F",
": c #F5A489",
"> c #F9BF99",
", c #FFE0B1",
"< c #A6AEE1",
"1 c #E1EAFD",
"2 c white",
"3 c #3F3F74",
"4 c #5C5CA9",
"5 c None",
/* pixels */
"5555555555555555555555555555555555555555555555555555555555555555",
"5555555555555555555555555555555555555555555555555555555555555555",
"5555555555555555555555555555555555555555555555555555555555555555",
"5555555555555555555555555555555555555555555555555555555555555555",
"5555555555555555555555555555555555555555555555555555555555555555",
"5555555555555555555555555555555555555555555555555555555555555555",
"5555555555555555555555555555555555555555555555555555555555555555",
"5555555555555555555555555555555555555555555555555555555555555555",
"5555555555555555555555555555555555555555555555555555555555555555",
"5555555555555555555555555555555555555555555555555555555555555555",
"5555555555555555555555555555555555555555555555555555555555555555",
"5555555555555555555555555555555555555555555555555555555555555555",
"5555555555555555555555555555555555555555555555555555555555555555",
"5555555555555555555555555555555555555555555555555555555555555555",
"5555555555555555555555555555555555555555555555555555555555555555",
"5555555555555555555555555555555555555555555555555555555555555555",
"5555555555555555555555555555.........555555555555555555555555555",
"55555555555555555555555555.+%%%+.+%%%+.5555555555555555555555555",
"555555555555555555555555.+%****%+%****%+.55555555555555555555555",
"55555555555555555555555.********%********.5555555555555555555555",
"5555555555555555555555.******.o%%%o.******.555555555555555555555",
"555555555555555555555.****oooo%***%oooo****.55555555555555555555",
"55555555555555555555.+**oo%**o*****+%*%oo**+.5555555555555555555",
"55555555555555555555o%*o%****+*****%+***%o*%o5555555555555555555",
"5555555555555555555.+**o**%**%******+****o**+.555555555555555555",
"5555555555555555555o%*o%**%**%******+****%o*%o555555555555555555",
"5555555555555555555+*%o**%***%******+*****o%*+555555555555555555",
"555555555555555555.+*+o**%***%******o%****o+*+.55555555555555555",
"555555555555555555.+%o%**%***%******o+%***%o%+.55555555555555555",
"555555555555555555.++o***%***+%*****%.o****o++.55555555555555555",
"555555555555555555.+.%**%o***+o******.o%***%.+.55555555555555555",
"5555555555555555...o%***oo**%oo%*****.oo****%o...555555555555555",
"5555555555555555.o%%***%..%*oo.o%****+.oo%***%%o.555555555555555",
"5555555555555555.%%**%oo.ooo..,..o%*%+.+ooo%**%%.555555555555555",
"55555555555555555.o%%oo+....>>>>>.......++oo%%o.5555555555555555",
"55555555555555555X.ooo+.:::::>>>>>>>::::..+ooo.X5555555555555555",
"5555555555555555.X:....$    $:>>>>>:$    $....:X.555555555555555",
"5555555555555555.+X.++.      $>>>>>$      .++.X+.555555555555555",
"5555555555555555.+.o%%o$X;    >,,,>    ;X$o%%o.+.555555555555555",
"5555555555555555.+o%*%.>#2OO2O,,,,,O2OO2#>.%*%o+.555555555555555",
"5555555555555555o%o**+#,:2-OO-,,,,,-OO-2:,#+**o%o555555555555555",
"555555555555555.+%.%*+X:,:2--,,,,,,,--2:,:X+*%.%+.55555555555555",
"555555555555555.%%%o*+%X:>:>>,,,,,,,>>:>:X%+*o%%%.55555555555555",
"555555555555555o%%%.%o%%X:,,,,,,,,,,,,,:X%%o%.%%%o55555555555555",
"55555555555555.+%%%%..%%%X:,,,,,,,,,,,:X%%%..%%%%+.5555555555555",
"55555555555555.%%%%%%%%X..X#:,,$:$,,:#X..X%%%%%%%%.5555555555555",
"55555555555555o%%%%%%X#:@<.$X#:,,,:#X$.<@:#X%%%%%%o5555555555555",
"5555555555555.+%%%%%X:,:@<@:$$XXXXX$$:@<@:,:X%%%%%+.555555555555",
"5555555555555.%%%%%X,,,,@1@#::$$$$$::#@1@,,,,X%%%%%.555555555555",
"5555555555555.%%%%X:,,,,@2@:#$:$$$:$#:@2@,,,,:X%%%%.555555555555",
"5555555555555.%%%%#,,,,,@2@>,,,,,,,,,>@2@,,,,,#%%%%.555555555555",
"5555555555555.%%%X:,,,,$&1&>>,,,,,,,>>&1&$,,,,:X%%%.555555555555",
"5555555555555.%%%X,,,,,@<11@>>>$#$>>>@11<@,,,,,X%%%.555555555555",
"55555555555555+%%#,,,,@<1111&@>>#>>@&1111<@,,,,#%%+5555555555555",
"55555555555555.%X:,,,@11122222&&@&&22222111@,,,:X%.5555555555555",
"555555555555555+X,,,@12222222221212222222221@,,,X+55555555555555",
"555555555555555.#,,,&22222222222122222222222&,,,#.55555555555555",
"555555555555555X:,,@=22222222222222222222222=@,,:X55555555555555",
"555555555555555X,,,@<22222222222122222222222<@,,,X55555555555555",
"555555555555555#,,,@122222222222<222222222221@,,,#55555555555555",
"55555555555555X:,,,@12221112221<=<12221112221@,,,:X5555555555555",
"55555555555555X,,,,@<12<2221222<=<2221222<21<@,,,,X5555555555555",
"55555555555555#,,,,,=<1<1221222<=<2221221<1<=,,,,,#5555555555555",
"5555555555555X:,,,,,&<<=111<111222111<111=<<&,,,,,:X555555555555",
"5555555555555X,,,,,,@<<=<&<=<<<111<<<=<&<=<<@,,,,,,X555555555555",
"5555555555555#,,,,,,@=<=<=<=<11<<<11<=<=<=<=@,,,,,,#555555555555",
"555555555555X:,,,,,:@&=<=&=12212121221=&=<=&@:,,,,,:X55555555555",
"555555555555#,,,,,,#5X@&12112212<21221121&@X5#,,,,,,#55555555555",
"55555555555X:,,,,,:X5@,,@@&12212&21221&@@,,@5X:,,,,,:X5555555555",
"55555555555#,,,,,,#5@<&@@,,@@@@@&@@@@@,,@@&<@5#,,,,,,#5555555555",
"5555555555X:,,,,,:X5@121<&@,,,,,#,,,,,@&<121@5X:,,,,,:X555555555",
"555555555X:,,,,,,#55@&<221<&@@,,$,,@@&<122<&@55#,,,,,,:X55555555",
"55555555X:::,,,,:X5X:@@&<1221<&@@@&<1221<&@@:X5X:,,,,:::X5555555",
"5555555X::::::::#55X,,,,@&<12222222221<&@,,,,X55#::::::::X555555",
"555555X$::$::$::X55X,,,,,,@&122212221&@,,,,,,X55X::$::$::$X55555",
"555555X$:#:::#::X55X,,,,,,,,@<11<11<@,,,,,,,,X55X::#:::#:$X55555",
"555555X$#:::#::$X55X,,,,,,,,,@<<=<<@,,,,,,,,,X55X$::#:::#$X55555",
"5555555X$$X#:::X555X,,,,,,,,,,@=&=@,,,,,,,,,,X555X:::#X$$X555555",
"5555555XXX5X$$X5555X,,,,,,,,,,,@@@,,,,,,,,,,,X5555X$$X5XXX555555",
"555555555555XX55555X:,,,,,,,,,,,#,,,,,,,,,,,:X55555XX55555555555",
"55555555555555555555#,,,,,,,,,,,$,,,,,,,,,,,#5555555555555555555",
"55555555555555555555X,,,,,,,,,,,$,,,,,,,,,,,X5555555555555555555",
"55555555555555555555X:,,,,,,,,,,:,,,,,,,,,,:X5555555555555555555",
"555555555555555555555#,,,,,,,,,,:,,,,,,,,,,#55555555555555555555",
"555555555555555555555X,,,,,,,,,,:,,,,,,,,,,X55555555555555555555",
"555555555555555555555X,,,,,,,,,,$,,,,,,,,,,X55555555555555555555",
"555555555555555555555X,,,,,,,,,,$,,,,,,,,,,X55555555555555555555",
"555555555555555555555X:,,,,,,,,,#,,,,,,,,,:X55555555555555555555",
"5555555555555555555555#,,,,,,,,>X>,,,,,,,,#555555555555555555555",
"5555555555555555555555X>,,,,,,,:X:,,,,,,,>X555555555555555555555",
"5555555555555555555555X:,,,,,,>:X:>,,,,,,:X555555555555555555555",
"55555555555555555555543#:>,,,>::X::>,,,>:#4555555555555555555555",
"55555555555555555543333X::>>>:::X:::>>>::X3334555555555555555555",
"55555555555555554333333X::::::::X::::::::X3333345555555555555555",
"555555555555554333333333#:::::::X:::::::#33333333455555555555555",
"555555555555433333333333X:::::::X:::::::X33333333334555555555555",
"555555555554333333333333X:::::::X:::::::X33333333333455555555555",
"555555555543333333333333X:::::::X:::::::X33333333333345555555555",
"555555555533333333333333X:::::::X:::::::X33333333333335555555555",
"5555555554333333333333333#::::::X::::::#333333333333334555555555",
"5555555553333333333333333X:>>>>:X:>>>>:X333333333333333555555555",
"5555555553333333333333333X>>>>>>X>>>>>>X333333333333333555555555",
"5555555553333333333333333X>>,,>>X>>,,>>X333333333333333555555555",
"5555555553333333333333333X:,,,,:X:,,,,:X333333333333333555555555",
"55555555543333333333333333X:>>:X3X:>>:X3333333333333334555555555",
"555555555533333333333333333XXXX333XXXX33333333333333335555555555",
"5555555555433333333333333333333333333333333333333333345555555555",
"5555555555543333333333333333333333333333333333333333455555555555",
"5555555555554333333333333333333333333333333333333334555555555555",
"5555555555555543333333333333333333333333333333333455555555555555",
"5555555555555555333333333333333333333333333333334555555555555555",
"5555555555555555543333333333333333333333333333455555555555555555",
"5555555555555555555543333333333333333333333455555555555555555555",
"5555555555555555555555555433333333333345555555555555555555555555",
"5555555555555555555555555555555555555555555555555555555555555555",
"5555555555555555555555555555555555555555555555555555555555555555",
"5555555555555555555555555555555555555555555555555555555555555555",
"5555555555555555555555555555555555555555555555555555555555555555",
"5555555555555555555555555555555555555555555555555555555555555555",
"5555555555555555555555555555555555555555555555555555555555555555",
"5555555555555555555555555555555555555555555555555555555555555555",
"5555555555555555555555555555555555555555555555555555555555555555",
"5555555555555555555555555555555555555555555555555555555555555555",
"5555555555555555555555555555555555555555555555555555555555555555",
"5555555555555555555555555555555555555555555555555555555555555555",
"5555555555555555555555555555555555555555555555555555555555555555",
"5555555555555555555555555555555555555555555555555555555555555555",
"5555555555555555555555555555555555555555555555555555555555555555",
"5555555555555555555555555555555555555555555555555555555555555555",
"5555555555555555555555555555555555555555555555555555555555555555"
};
