/* XPM */
static char *output_27[] = {
/* columns rows colors chars-per-pixel */
"64 130 24 1 ",
"  c black",
". c #222034",
"X c #45212D",
"o c #333A6C",
"O c #3F3F74",
"+ c #3C447C",
"@ c #46426C",
"# c #954A51",
"$ c #CB7173",
"% c #4F5AA5",
"& c #6A78AC",
"* c #616FCB",
"= c #7C8DB5",
"- c #639BFF",
"; c #9C859F",
": c #F5A489",
"> c #F9BF99",
", c #FFE0B1",
"< c #A6AEE1",
"1 c #E1EAFD",
"2 c white",
"3 c #3F3F74",
"4 c #5C5CA9",
"5 c None",
/* pixels */
"5555555555555555555555555555555555555555555555555555555555555555",
"5555555555555555555555555555555555555555555555555555555555555555",
"5555555555555555555555555555555555555555555555555555555555555555",
"5555555555555555555555555555555555555555555555555555555555555555",
"5555555555555555555555555555555555555555555555555555555555555555",
"5555555555555555555555555555555555555555555555555555555555555555",
"5555555555555555555555555555555555555555555555555555555555555555",
"5555555555555555555555555555555555555555555555555555555555555555",
"5555555555555555555555555555555555555555555555555555555555555555",
"5555555555555555555555555555555555555555555555555555555555555555",
"5555555555555555555555555555555555555555555555555555555555555555",
"5555555555555555555555555555555555555555555555555555555555555555",
"5555555555555555555555555555555555555555555555555555555555555555",
"5555555555555555555555555555555555555555555555555555555555555555",
"5555555555555555555555555555555555555555555555555555555555555555",
"5555555555555555555555555555555555555555555555555555555555555555",
"5555555555555555555555555555555555555555555555555555555555555555",
"5555555555555555555555555555555555555555555555555555555555555555",
"5555555555555555555555555555.........555555555555555555555555555",
"55555555555555555555555555.+%%%+.+%%%+.5555555555555555555555555",
"555555555555555555555555.+%****%+%****%+.55555555555555555555555",
"55555555555555555555555.********%********.5555555555555555555555",
"5555555555555555555555.******.o%%%o.******.555555555555555555555",
"555555555555555555555.****oooo%***%oooo****.55555555555555555555",
"55555555555555555555.+**oo%**o*****+%*%oo**+.5555555555555555555",
"55555555555555555555o%*o%****+*****%+***%o*%o5555555555555555555",
"5555555555555555555.+**o**%**%******+****o**+.555555555555555555",
"5555555555555555555o%*o%**%**%******+%***%o*%o555555555555555555",
"5555555555555555555+*%o**%***%******+o****o%*+555555555555555555",
"555555555555555555.+*+o**%***+******%o****o+*+.55555555555555555",
"555555555555555555.+%o%**%***+%******o%***%o%+.55555555555555555",
"555555555555555555.++o***%***.+******.o****o++.55555555555555555",
"5555555555555555.....%**%o***.+%*****+.%***%.....555555555555555",
"5555555555555555.o%*****oo**%.oo******+.******%o.555555555555555",
"5555555555555555.o*****%o.%*o..o%*****%.o%*****o.555555555555555",
"5555555555555555.%%**%oo.oo..>,...o%%%+.ooo%**%%.555555555555555",
"55555555555555555.o%%oo+...>>>>>>>......++oo%%o.5555555555555555",
"55555555555555555X.ooo+.:::::>>>>>>>::::..+ooo.X5555555555555555",
"5555555555555555.X:....$    $:>>>>>:$    $....:X.555555555555555",
"5555555555555555o+X.++.      $>>>>>$      .++.X+o555555555555555",
"555555555555555.++.o%%o$X;    >,,,>    ;X$o%%o.++.55555555555555",
"555555555555555o++o%*%.>#2OO2O,,,,,O2OO2#>.%*%o++o55555555555555",
"55555555555555.+++o**+#,:2-OO-,,,,,-OO-2:,#+**o+++.5555555555555",
"55555555555555o++%o**.X:,:2--,,,,,,,--2:,:X.**o%++o5555555555555",
"5555555555555.++%%o*%%%X:>:>>,,,,,,,>>:>:X%%%*o%%++.555555555555",
"5555555555555.%%%%.%o%%%X:,,,,,,,,,,,,,:X%%%o%.%%%%.555555555555",
"5555555555555o%%%%%..%%%%X:,,,,,,,,,,,:X%%%%..%%%%%o555555555555",
"555555555555.+%%%%%%%XXX..X#:,,$:$,,:#X..XXX%%%%%%%+.55555555555",
"555555555555o%%%%%%%X#::@<@$X#:,,,:#X$@<@::#X%%%%%%%o55555555555",
"55555555555.+%%%%%%X:,,:@<@:$$XXXXX$$:@<@:,,:X%%%%%%+.5555555555",
"55555555555.%%%%%%%#,,,,@2@#::$$$$$::#@2@,,,,#%%%%%%%.5555555555",
"55555555555.%%%%%%X:,,,,&2&:#$:$$$:$#:&2&,,,,:X%%%%%%.5555555555",
"55555555555.+%%%%+#,,,,@<11@,,,,,,,,,@11<@,,,,#+%%%%+.5555555555",
"555555555555o%%%%X:,,,@<1111&@>:$:>@&1111<@,,,:X%%%%o55555555555",
"555555555555+%%%%X,,@&12222222&$#$&22222221&@,,X%%%%+55555555555",
"555555555555.%%*+#,@12222222221&@&12222222221@,#+*%%.55555555555",
"5555555555555+%*X:@122222222222121222222222221@:X*%+555555555555",
"5555555555555.+*X@<122222222222212222222222221<@X*+.555555555555",
"55555555555555.%#@12221112222222222222221112221@#%.5555555555555",
"555555555555555X:@122=1=21<22222<22222<12=1=221@:X55555555555555",
"555555555555555#,@<12=<&=<=2221<=<1222=<=&<=21<@,#55555555555555",
"55555555555555X:,,&<11=&&=<22222222222<=&&=11<&,,:X5555555555555",
"55555555555555#,,,@=<111111111<111<111111111<=@,,,#5555555555555",
"5555555555555X:,,,,&<<<<<<<<<<<121<<<<<<<<<<<&,,,,:X555555555555",
"5555555555555#,,,,,@&=<<<<<<1<12221<1<<<<<<=&@,,,,,#555555555555",
"555555555555X:,,,,,,@&==<<<1<1221221<1<<<==&@,,,,,,:X55555555555",
"555555555555#,,,,,,:X5@&121<122111221<121&@5X:,,,,,,#55555555555",
"55555555555X:,,,,,,#5@@:@@&12211111221&@@:@@5#,,,,,,:X5555555555",
"55555555555#,,,,,,:X@=<@@,,@@@@@&@@@@@,,@@<=@X:,,,,,,#5555555555",
"5555555555X:,,,,,,#5@<21<&@,,,,,$,,,,,@&<12<@5#,,,,,,:X555555555",
"555555555X:,,,,,,:X@&<2221<&@,,:#:,,@&<1222<&@X:,,,,,,:X55555555",
"55555555X:,,,,,,,#5@@&<12221<&@$X$@&<12221<&@@5#,,,,,,,:X5555555",
"5555555X::,,,,,,:X5X,,@@&<1221<&@&<1221<&@@,,X5X:,,,,,,::X555555",
"555555X::::,,,,,#55#,,,,,@&<222222222<&@,,,,,#55#,,,,,::::X55555",
"55555X$:::::::::X5X:,,,,,,,&122212221&,,,,,,,:X5X:::::::::$X5555",
"5555X$::$::$:::#55X,,,,,,,,@&122<221&@,,,,,,,,X55#:::$::$::$X555",
"5555X$:#:::#::$X55X,,,,,,,,,@<<<=<<<@,,,,,,,,,X55X$::#:::#:$X555",
"5555X$#:::#:::X555X,,,,,,,,,,@&=&=&@,,,,,,,,,,X555X:::#:::#$X555",
"55555X$$X#:::X5555X,,,,,,,,,,,,@@@,,,,,,,,,,,,X5555X:::#X$$X5555",
"55555XXX5X$$X55555X:,,,,,,,,,,,,#,,,,,,,,,,,,:X55555X$$X5XXX5555",
"5555555555XX5555555#,,,,,,,,,,,,$,,,,,,,,,,,,#5555555XX555555555",
"5555555555555555555X,,,,,,,,,,,,:,,,,,,,,,,,,X555555555555555555",
"5555555555555555555X:,,,,,,,,,,,:,,,,,,,,,,,:X555555555555555555",
"55555555555555555555#,,,,,,,,,,,:,,,,,,,,,,,#5555555555555555555",
"55555555555555555555X:,,,,,,,,,,:,,,,,,,,,,:X5555555555555555555",
"555555555555555555555#,,,,,,,,,,$,,,,,,,,,,#55555555555555555555",
"555555555555555555555X,,,,,,,,,,#,,,,,,,,,,X55555555555555555555",
"555555555555555555555X:,,,,,,,,,#,,,,,,,,,:X55555555555555555555",
"5555555555555555555555#,,,,,,,,>X>,,,,,,,,#555555555555555555555",
"5555555555555555555555X>,,,,,,,:X:,,,,,,,>X555555555555555555555",
"5555555555555555555555X:>,,,,,>:X:>,,,,,>:X555555555555555555555",
"55555555555555555555543#:>>>>>::X::>>>>>:#4555555555555555555555",
"55555555555555555543333X::::::::X::::::::X3334555555555555555555",
"55555555555555554333333X::::::::X::::::::X3333345555555555555555",
"555555555555554333333333#:::::::X:::::::#33333333455555555555555",
"555555555555433333333333X:::::::X:::::::X33333333334555555555555",
"555555555554333333333333X:::::::X:::::::X33333333333455555555555",
"555555555543333333333333X:::::::X:::::::X33333333333345555555555",
"555555555533333333333333X:::::::X:::::::X33333333333335555555555",
"5555555554333333333333333#::::::X::::::#333333333333334555555555",
"5555555553333333333333333X:>>>>:X:>>>>:X333333333333333555555555",
"5555555553333333333333333X>>>>>>X>>>>>>X333333333333333555555555",
"5555555553333333333333333X>>,,>>X>>,,>>X333333333333333555555555",
"5555555553333333333333333X:,,,,:X:,,,,:X333333333333333555555555",
"55555555543333333333333333X:>>:X3X:>>:X3333333333333334555555555",
"555555555533333333333333333XXXX333XXXX33333333333333335555555555",
"5555555555433333333333333333333333333333333333333333345555555555",
"5555555555543333333333333333333333333333333333333333455555555555",
"5555555555554333333333333333333333333333333333333334555555555555",
"5555555555555543333333333333333333333333333333333455555555555555",
"5555555555555555333333333333333333333333333333334555555555555555",
"5555555555555555543333333333333333333333333333455555555555555555",
"5555555555555555555543333333333333333333333455555555555555555555",
"5555555555555555555555555433333333333345555555555555555555555555",
"5555555555555555555555555555555555555555555555555555555555555555",
"5555555555555555555555555555555555555555555555555555555555555555",
"5555555555555555555555555555555555555555555555555555555555555555",
"5555555555555555555555555555555555555555555555555555555555555555",
"5555555555555555555555555555555555555555555555555555555555555555",
"5555555555555555555555555555555555555555555555555555555555555555",
"5555555555555555555555555555555555555555555555555555555555555555",
"5555555555555555555555555555555555555555555555555555555555555555",
"5555555555555555555555555555555555555555555555555555555555555555",
"5555555555555555555555555555555555555555555555555555555555555555",
"5555555555555555555555555555555555555555555555555555555555555555",
"5555555555555555555555555555555555555555555555555555555555555555",
"5555555555555555555555555555555555555555555555555555555555555555",
"5555555555555555555555555555555555555555555555555555555555555555",
"5555555555555555555555555555555555555555555555555555555555555555",
"5555555555555555555555555555555555555555555555555555555555555555"
};
