/* XPM */
static char *output_12[] = {
/* columns rows colors chars-per-pixel */
"64 130 27 1 ",
"  c black",
". c #222034",
"X c #45212D",
"o c #333A6C",
"O c #3F3F74",
"+ c #3C447C",
"@ c #46426C",
"# c #8F563B",
"$ c #954A51",
"% c #CB7173",
"& c #4F5AA5",
"* c #6A78AC",
"= c #616FCB",
"- c #7C8DB5",
"; c #639BFF",
": c #9C859F",
"> c #F5A489",
", c #F9BF99",
"< c #FFF3AB",
"1 c #FFE0B1",
"2 c #9CA2CC",
"3 c #A6AEE1",
"4 c #E1EAFD",
"5 c white",
"6 c #3F3F74",
"7 c #5C5CA9",
"8 c None",
/* pixels */
"8888888888888888888888888888888888888888888888888888888888888888",
"8888888888888888888888888888888888888888888888888888888888888888",
"8888888888888888888888888888888888888888888888888888888888888888",
"8888888888888888888888888888888888888888888888888888888888888888",
"8888888888888888888888888888888888888888888888888888888888888888",
"8888888888888888888888888888888888888888888888888888888888888888",
"8888888888888888888888888888888888888888888888888888888888888888",
"8888888888888888888888888888888888888888888888888888888888888888",
"8888888888888888888888888888888888888888888888888888888888888888",
"8888888888888888888888888888888888888888888888888888888888888888",
"8888888888888888888888888888888888888888888888888888888888888888",
"8888888888888888888888888888888888888888888888888888888888888888",
"8888888888888888888888888888888888888888888888888888888888888888",
"8888888888888888888888888888888888888888888888888888888888888888",
"8888888888888888888888888888888888888888888888888888888888888888",
"8888888888888888888888888888.........888888888888888888888888888",
"88888888888888888888888888.+&&&+.+&&&+.8888888888888888888888888",
"888888888888888888888888.+&====&+&====&+.88888888888888888888888",
"88888888888888888888888.========&========.8888888888888888888888",
"8888888888888888888888.======.o&&&o.======.888888888888888888888",
"888888888888888888888.====oooo&===&oooo====.88888888888888888888",
"88888888888888888888.+==oo&==o=====+&=&oo==+.8888888888888888888",
"88888888888888888888o&=o&====+=====&+===&o=&o8888888888888888888",
"8888888888888888888.+==o==&==&======+====o==+.888888888888888888",
"8888888888888888888o&=o&==&==&======+====&o=&o888888888888888888",
"8888888888888888888+=&o==&===&======+=====o&=+888888888888888888",
"888888888888888888.+=+o==&===&======o&====o+=+.88888888888888888",
"888888888888888888.+&o&==&===&======o+&===&o&+.88888888888888888",
"888888888888888888.++o===&===+&=====&.o====o++.88888888888888888",
"888888888888888888.+.&==&o===+o&=====.o&===&.+.88888888888888888",
"888888888888888888.o&===oo==&o.o=====o.o====&o.88888888888888888",
"8888888888888888...====&o.&=oo1o&====o.oo&====...888888888888888",
"8888888888888888.o&&=&oo+.oo+.1.o&==&o#.oooooo=&.888888888888888",
"88888888888888888.ooooo+..o+.,,,.o++oo,,.+++++o.8888888888888888",
"88888888888888888X...o+.>>..>,,,,,....>>>......X8888888888888888",
"88888888888888888X>.+..%    %>,,,,,>%    %.++.>X8888888888888888",
"88888888888888888.Xo++.      %,,,,,%      o&&oX.8888888888888888",
"88888888888888888.&o&&o%X:    ,111,    :X%+&&o&.8888888888888888",
"88888888888888888.&o==+,$5OO5O11111O5OO5$,+==o&.8888888888888888",
"88888888888888888.&o==+1>5;OO;11111;OO;5>1+==o&.8888888888888888",
"88888888888888888.&.&=+>1>5;;1111111;;5>1>+=&.&.8888888888888888",
"88888888888888888.&&o=+X>,>,,1111111,,>,>X+=o&&.8888888888888888",
"88888888888888888.&&.&o&X>1111111111111>X&o&.&&.8888888888888888",
"88888888888888888+&&&..&&X>11111111111>X&&..&&&+8888888888888888",
"8888888888888888.+&&&&&X..X$>11%>%11>$X..X&&&&&+.888888888888888",
"8888888888888888.&&&&X$>@2.%X$>111>$X%.2@>$X&&&&.888888888888888",
"8888888888888888.&&&X>1>@2@>%%XXXXX%%>@2@>1>X&&&.888888888888888",
"8888888888888888.&&X1111@3@$>>%%%%%>>$@3@1111X&&.888888888888888",
"8888888888888888.&&$1111@3@>$%>%%%>%$>@3@1111$&&.888888888888888",
"8888888888888888.&X>1111*5@11111111111@5*1111>X&.888888888888888",
"8888888888888888.&$1111@55@11111111111@55@1111$&.888888888888888",
"8888888888888888.X>1111@44*,,,,%<%,,,,*44@1111>X.888888888888888",
"8888888888888888.$11111@344@,,,>$>,,,@443@11111$.888888888888888",
"8888888888888888X>11111*344*,,,,$,,,,*443*11111>X888888888888888",
"8888888888888888X11111@34444@1,,%,,1@44443@11111X888888888888888",
"8888888888888888$11111*455555*@,%,@*555554*11111$888888888888888",
"888888888888888X>1111@35555554@*3*@45555553@1111>X88888888888888",
"888888888888888X11111*455555553454355555554*11111X88888888888888",
"888888888888888$1111@25555555543534555555552@1111$88888888888888",
"88888888888888X>1111@45555555554*45555555554@1111>X8888888888888",
"88888888888888X11111@45555555555355555555554@11111X8888888888888",
"88888888888888$11111@34555555554345555555543@11111$8888888888888",
"8888888888888X>11111@34554455554245555445543@11111>X888888888888",
"8888888888888X111111@33445544434543444554433@111111X888888888888",
"8888888888888$111111@-334554333454333455433-@111111$888888888888",
"888888888888X>11111>X@-3-443333-2-333344-3-@X>11111>X88888888888",
"888888888888X111111$8X@3*--333-*@*-333--*3@X8$111111X88888888888",
"888888888888X111111X8X>@-333-*@>>>@*-333-@>X8X111111$88888888888",
"88888888888X>11111>X8$11@@@@@111%111@@@@@11$8X>11111>X8888888888",
"88888888888$111111$8X@1111111111$1111111111@X8$111111$8888888888",
"8888888888X>111111X8@3*@@@@11111X11111@@@@*3@8X111111>X888888888",
"8888888888$1111111X8@455543*@@11%11@@*345554@8X1111111$888888888",
"888888888X%111111>X8@555555543*@@@*345555555@8X>111111%X88888888",
"888888888$>>11111$88$@@*34555555555555543*@@$88$11111>>$88888888",
"88888888X%>>>>>>>X8X>111@@*34555455543*@@111>X8X>>>>>>>%X8888888",
"8888888X%>>%>>%>>X8X1111111@*3453543*@1111111X8X>>%>>%>>%X888888",
"8888888X%>$>>>$>>X8X111111111@33-33@111111111X8X>>$>>>$>%X888888",
"8888888X%$>>>$>>%X8X1111111111@-*-@1111111111X8X%>>$>>>$%X888888",
"88888888X%%X$>>>X88X11111111111@@@11111111111X88X>>>$X%%X8888888",
"88888888XXX8X%%X888X>11111111111$11111111111>X888X%%X8XXX8888888",
"8888888888888XX88888$11111111111$11111111111$88888XX888888888888",
"88888888888888888888X11111111111%11111111111X8888888888888888888",
"88888888888888888888X11111111111>11111111111X8888888888888888888",
"88888888888888888888X>1111111111>1111111111>X8888888888888888888",
"888888888888888888888$1111111111>1111111111$88888888888888888888",
"888888888888888888888X1111111111>1111111111X88888888888888888888",
"888888888888888888888X1111111111>1111111111X88888888888888888888",
"888888888888888888888X>111111111%111111111>X88888888888888888888",
"8888888888888888888888$11111111,$,11111111$888888888888888888888",
"8888888888888888888888X,1111111>X>1111111,X888888888888888888888",
"8888888888888888888888X>111111,>X>,111111>X888888888888888888888",
"88888888888888888888876$,11111,>X>,11111,$7888888888888888888888",
"88888888888888888876666X>,,,,,>>X>>,,,,,>X6667888888888888888888",
"88888888888888887666666X>>>>>>>>X>>>>>>>>X6666678888888888888888",
"888888888888887666666666$>>>>>>>X>>>>>>>$66666666788888888888888",
"888888888888766666666666X>>>>>>>X>>>>>>>X66666666667888888888888",
"888888888887666666666666X>>>>>>>X>>>>>>>X66666666666788888888888",
"888888888876666666666666X>>>>>>>X>>>>>>>X66666666666678888888888",
"888888888866666666666666X>>>>>>>X>>>>>>>X66666666666668888888888",
"8888888887666666666666666$>>>>>>X>>>>>>$666666666666667888888888",
"8888888886666666666666666X>,,,,>X>,,,,>X666666666666666888888888",
"8888888886666666666666666X,,,,,,X,,,,,,X666666666666666888888888",
"8888888886666666666666666X,,11,,X,,11,,X666666666666666888888888",
"8888888886666666666666666X>1111>X>1111>X666666666666666888888888",
"88888888876666666666666666X>,,>X6X>,,>X6666666666666667888888888",
"888888888866666666666666666XXXX666XXXX66666666666666668888888888",
"8888888888766666666666666666666666666666666666666666678888888888",
"8888888888876666666666666666666666666666666666666666788888888888",
"8888888888887666666666666666666666666666666666666667888888888888",
"8888888888888876666666666666666666666666666666666788888888888888",
"8888888888888888666666666666666666666666666666667888888888888888",
"8888888888888888876666666666666666666666666666788888888888888888",
"8888888888888888888876666666666666666666666788888888888888888888",
"8888888888888888888888888766666666666678888888888888888888888888",
"8888888888888888888888888888888888888888888888888888888888888888",
"8888888888888888888888888888888888888888888888888888888888888888",
"8888888888888888888888888888888888888888888888888888888888888888",
"8888888888888888888888888888888888888888888888888888888888888888",
"8888888888888888888888888888888888888888888888888888888888888888",
"8888888888888888888888888888888888888888888888888888888888888888",
"8888888888888888888888888888888888888888888888888888888888888888",
"8888888888888888888888888888888888888888888888888888888888888888",
"8888888888888888888888888888888888888888888888888888888888888888",
"8888888888888888888888888888888888888888888888888888888888888888",
"8888888888888888888888888888888888888888888888888888888888888888",
"8888888888888888888888888888888888888888888888888888888888888888",
"8888888888888888888888888888888888888888888888888888888888888888",
"8888888888888888888888888888888888888888888888888888888888888888",
"8888888888888888888888888888888888888888888888888888888888888888",
"8888888888888888888888888888888888888888888888888888888888888888"
};
