/* XPM */
static char *output_29[] = {
/* columns rows colors chars-per-pixel */
"64 130 26 1 ",
"  c black",
". c #222034",
"X c #45212D",
"o c #333A6C",
"O c #3F3F74",
"+ c #3C447C",
"@ c #46426C",
"# c #8F563B",
"$ c #954A51",
"% c #CB7173",
"& c #4F5AA5",
"* c #6A78AC",
"= c #616FCB",
"- c #7C8DB5",
"; c #639BFF",
": c #9C859F",
"> c #F5A489",
", c #F9BF99",
"< c #FFF3AB",
"1 c #FFE0B1",
"2 c #A6AEE1",
"3 c #E1EAFD",
"4 c white",
"5 c #3F3F74",
"6 c #5C5CA9",
"7 c None",
/* pixels */
"7777777777777777777777777777777777777777777777777777777777777777",
"7777777777777777777777777777777777777777777777777777777777777777",
"7777777777777777777777777777777777777777777777777777777777777777",
"7777777777777777777777777777777777777777777777777777777777777777",
"7777777777777777777777777777777777777777777777777777777777777777",
"7777777777777777777777777777777777777777777777777777777777777777",
"7777777777777777777777777777777777777777777777777777777777777777",
"7777777777777777777777777777777777777777777777777777777777777777",
"7777777777777777777777777777777777777777777777777777777777777777",
"7777777777777777777777777777777777777777777777777777777777777777",
"7777777777777777777777777777777777777777777777777777777777777777",
"7777777777777777777777777777777777777777777777777777777777777777",
"7777777777777777777777777777777777777777777777777777777777777777",
"7777777777777777777777777777777777777777777777777777777777777777",
"7777777777777777777777777777777777777777777777777777777777777777",
"7777777777777777777777777777777777777777777777777777777777777777",
"7777777777777777777777777777777777777777777777777777777777777777",
"7777777777777777777777777777777777777777777777777777777777777777",
"7777777777777777777777777777.........777777777777777777777777777",
"77777777777777777777777777.+&&&+.+&&&+.7777777777777777777777777",
"777777777777777777777777.+&====&+&====&+.77777777777777777777777",
"77777777777777777777777.========&========.7777777777777777777777",
"7777777777777777777777.======.o&&&o.======.777777777777777777777",
"777777777777777777777.====oooo&===&oooo====.77777777777777777777",
"77777777777777777777.+==oo&==o=====+&=&oo==+.7777777777777777777",
"77777777777777777777o&=o&====+=====&+===&o=&o7777777777777777777",
"7777777777777777777.+==o==&==&======+====o==+.777777777777777777",
"7777777777777777777o&=o&==&==&======+====&o=&o777777777777777777",
"7777777777777777777+=&o==&===&======+=====o&=+777777777777777777",
"777777777777777777.+=+o==&===&======o&====o+=+.77777777777777777",
"777777777777777777.+&o&==&===&======o+&===&o&+.77777777777777777",
"777777777777777777.++o===&===+&=====&.o====o++.77777777777777777",
"777777777777777777.+.&==&o===+o&=====.o&===&.+.77777777777777777",
"7777777777777777...o&===oo==&o.o=====o.o====&o...777777777777777",
"7777777777777777.o&====&o.&=oo1o&====o.oo&=====&.777777777777777",
"77777777777777777.o&=&oo+.oo+.1.o&==&o#.ooooooo.7777777777777777",
"77777777777777777X.oooo+..o+.,,,.o++oo,,.+++++.X7777777777777777",
"77777777777777777X,..o+.>>..>,,,,,....>>>.....,X7777777777777777",
"77777777777777777X>.+..%    %>,,,,,>%    %.++.>X7777777777777777",
"77777777777777777.Xo++.      %,,,,,%      o&&oX.7777777777777777",
"77777777777777777.&o&&o%X:    ,111,    :X%+&&o&.7777777777777777",
"77777777777777777.&o==+,$4OO4O11111O4OO4$,+==o&.7777777777777777",
"77777777777777777.&o==+1>4;OO;11111;OO;4>1+==o&.7777777777777777",
"77777777777777777.&.&=+>1>4;;1111111;;4>1>+=&.&.7777777777777777",
"77777777777777777o&&o=+X>,>,,1111111,,>,>X+=o&&o7777777777777777",
"7777777777777777.+&&.&o&X>1111111111111>X&o&.&&+.777777777777777",
"7777777777777777.&&&&..&&X>11111111111>X&&..&&&&.777777777777777",
"7777777777777777.&&&&&&..$X$>11%>%11>$..XX&&&&&&.777777777777777",
"7777777777777777.&&&&X$@2@%%X$>111>$X@2@>>$X&&&&.777777777777777",
"7777777777777777.&&&X>1@2@>>%%XXXXX%%@2@>>1>X&&&.777777777777777",
"7777777777777777.&&X111@2@$$>>%%%%%>>@2@>1111X&&.777777777777777",
"7777777777777777.&X>111@4@1>$%>%%%>%$@4@11111>X&.777777777777777",
"7777777777777777.&$1111@4@,,111111111@4@>11111$&.777777777777777",
"7777777777777777.X>1111*3*,,,,,><>,,,*3*$%1111>X.777777777777777",
"7777777777777777.X1111@233@,,,,%<%,,@332@$11111X.777777777777777",
"7777777777777777.$111@23333@,,,>$>,@33332@X1111$.777777777777777",
"7777777777777777X>111*333332@1,,%,@233333*$1111>X777777777777777",
"7777777777777777X111@23344444**@**44444332@X1111X777777777777777",
"777777777777777.$111*344444443343344444443*$1111$.77777777777777",
"77777777777777.X>11@34444444443434444444443@X111>X.7777777777777",
"77777777777777.X111*44444444444344444444444*$1111X.7777777777777",
"777777777777777$11@2433334444444444444333342@X111$77777777777777",
"77777777777777X>11@3244443444443444443444423@X111>X7777777777777",
"77777777777777X111@3232443444442444443442323@X1111X7777777777777",
"77777777777777$111@3-3-23244432-23444232-3-3@X1111$7777777777777",
"7777777777777X>111@2-2*-2-33442-24433-2-*2-2@X1111>X777777777777",
"7777777777777X1111@22-**-2223344433222-**-22@111111X777777777777",
"7777777777777$11111@*--22233434343433222--*@$111111$777777777777",
"777777777777X>11111>X@*34334434243443343*@>@X>11111>X77777777777",
"777777777777$111111$@2*@@*34434*43443*@@@@*2@$111111$77777777777",
"77777777777X>11111>X@3432*@@@@@*@@@@@1@*2343@X>11111>X7777777777",
"77777777777$111111$7@*24432*@@1>$>1@@*23442*@7$111111$7777777777",
"7777777777X>11111>XX1@@*234432*@@@*234432*@@>XX>11111>X777777777",
"7777777777$111111$7X1111@*2344444444432*@1111X7$111111$777777777",
"777777777X>11111>X7X111111@*344434443*@111111X7X>11111>X77777777",
"77777777X>>>1111$77X11111111@2332332@11111111X77$1111>>>X7777777",
"7777777X%>>>>>>>X77X111111111@22-22@111111111X77X>>>>>>>%X777777",
"777777X%>>%>>%>>X77X1111111111@-*-@1111111111X77X>>%>>%>>%X77777",
"777777X%>$>>>$>>X77X11111111111@@@11111111111X77X>>$>>>$>%X77777",
"777777X%$>>>$>>%X77X111111111111$111111111111X77X%>>$>>>$%X77777",
"7777777X%%X$>>>X777X111111111111%111111111111X777X>>>$X%%X777777",
"7777777XXX7X%%X7777X>11111111111>11111111111>X7777X%%X7XXX777777",
"777777777777XX777777$11111111111>11111111111$777777XX77777777777",
"77777777777777777777X11111111111>11111111111X7777777777777777777",
"77777777777777777777X>1111111111>1111111111>X7777777777777777777",
"777777777777777777777$1111111111%1111111111$77777777777777777777",
"777777777777777777777X1111111111$1111111111X77777777777777777777",
"777777777777777777777X>111111111$111111111>X77777777777777777777",
"7777777777777777777777$11111111,X,11111111$777777777777777777777",
"7777777777777777777777X,1111111>X>1111111,X777777777777777777777",
"7777777777777777777777X>111111,>X>,111111>X777777777777777777777",
"77777777777777777777765$>,111,>>X>>,111,>$6777777777777777777777",
"77777777777777777765555X>>>>>>>>X>>>>>>>>X5556777777777777777777",
"77777777777777776555555X>>>>>>>>X>>>>>>>>X5555567777777777777777",
"777777777777776555555555$>>>>>>>X>>>>>>>$55555555677777777777777",
"777777777777655555555555X>>>>>>>X>>>>>>>X55555555556777777777777",
"777777777776555555555555X>>>>>>>X>>>>>>>X55555555555677777777777",
"777777777765555555555555X>>>>>>>X>>>>>>>X55555555555567777777777",
"777777777755555555555555X>>>>>>>X>>>>>>>X55555555555557777777777",
"7777777776555555555555555$>>>>>>X>>>>>>$555555555555556777777777",
"7777777775555555555555555X>,,,,>X>,,,,>X555555555555555777777777",
"7777777775555555555555555X,,,,,,X,,,,,,X555555555555555777777777",
"7777777775555555555555555X,,11,,X,,11,,X555555555555555777777777",
"7777777775555555555555555X>1111>X>1111>X555555555555555777777777",
"77777777765555555555555555X>,,>X5X>,,>X5555555555555556777777777",
"777777777755555555555555555XXXX555XXXX55555555555555557777777777",
"7777777777655555555555555555555555555555555555555555567777777777",
"7777777777765555555555555555555555555555555555555555677777777777",
"7777777777776555555555555555555555555555555555555556777777777777",
"7777777777777765555555555555555555555555555555555677777777777777",
"7777777777777777555555555555555555555555555555556777777777777777",
"7777777777777777765555555555555555555555555555677777777777777777",
"7777777777777777777765555555555555555555555677777777777777777777",
"7777777777777777777777777655555555555567777777777777777777777777",
"7777777777777777777777777777777777777777777777777777777777777777",
"7777777777777777777777777777777777777777777777777777777777777777",
"7777777777777777777777777777777777777777777777777777777777777777",
"7777777777777777777777777777777777777777777777777777777777777777",
"7777777777777777777777777777777777777777777777777777777777777777",
"7777777777777777777777777777777777777777777777777777777777777777",
"7777777777777777777777777777777777777777777777777777777777777777",
"7777777777777777777777777777777777777777777777777777777777777777",
"7777777777777777777777777777777777777777777777777777777777777777",
"7777777777777777777777777777777777777777777777777777777777777777",
"7777777777777777777777777777777777777777777777777777777777777777",
"7777777777777777777777777777777777777777777777777777777777777777",
"7777777777777777777777777777777777777777777777777777777777777777",
"7777777777777777777777777777777777777777777777777777777777777777",
"7777777777777777777777777777777777777777777777777777777777777777",
"7777777777777777777777777777777777777777777777777777777777777777"
};
