/* XPM */
static char *output_18[] = {
/* columns rows colors chars-per-pixel */
"64 122 20 1 ",
"  c #222034",
". c #45212D",
"X c #333A6C",
"o c #3C447C",
"O c #46426C",
"+ c #954A51",
"@ c #CB7173",
"# c #4F5AA5",
"$ c #6A78AC",
"% c #616FCB",
"& c #7C8DB5",
"* c #F5A489",
"= c #F9BF99",
"- c #FFE0B1",
"; c #A6AEE1",
": c #E1EAFD",
"> c white",
", c #3F3F74",
"< c #5C5CA9",
"1 c None",
/* pixels */
"1111111111111111111111111111111111111111111111111111111111111111",
"1111111111111111111111111111111111111111111111111111111111111111",
"1111111111111111111111111111111111111111111111111111111111111111",
"1111111111111111111111111111111111111111111111111111111111111111",
"1111111111111111111111111111111111111111111111111111111111111111",
"1111111111111111111111111111111111111111111111111111111111111111",
"1111111111111111111111111111111111111111111111111111111111111111",
"1111111111111111111111111111111111111111111111111111111111111111",
"1111111111111111111111111111111111111111111111111111111111111111",
"1111111111111111111111111111         111111111111111111111111111",
"11111111111111111111111111 Xo%%%%%%%oX 1111111111111111111111111",
"111111111111111111111111 Xo%%%%%%%%%%%oX 11111111111111111111111",
"11111111111111111111111 %%%%%%%%%%%%%%%%% 1111111111111111111111",
"1111111111111111111111 %%%%%%%%%%%%%%%%%%% 111111111111111111111",
"111111111111111111111 %%%%%%%%%%%%%%%%%%%%% 11111111111111111111",
"111111111111111111111X%%%%%%%%%%%%%%%%%%%%%X11111111111111111111",
"11111111111111111111 o%%%%%%%%%%%%%%%%%%%%%o 1111111111111111111",
"11111111111111111111X%%%%%%%%%%%%%%%%%%%%%%%X1111111111111111111",
"1111111111111111111 o%%%%%%%%%%%%%%%%%%%%%%%o 111111111111111111",
"1111111111111111111 %%%%%%%%%%%%%%%%%%%%%%%%% 111111111111111111",
"1111111111111111111 %%%%%%%%%%%%%%%%%%%%%%%%% 111111111111111111",
"1111111111111111    %%%%%%%%%%%%%%%%%%%%%%%%%    111111111111111",
"1111111111111111 X# %%%%%%%%%%%%%%%%%%%%%%%%% %# 111111111111111",
"11111111111111111 XX%%%%%%%%%%%%%%%%%%%%%%%%%XX 1111111111111111",
"111111111111111111 o%%%%%%%%%%%%%%%%%%%%%%%%%o 11111111111111111",
"111111111111111111 ##%%%%%%%%%%%%%%%%%%%%%%%## 11111111111111111",
"11111111111111111. ##%%%%%%%%%%%%%%%%%%%%%%%## .1111111111111111",
"11111111111111111. ###%%%%%%%%%%%%%%%%%%%%%### .1111111111111111",
"11111111111111111. ###%%%%%%%%%%%%%%%%%%%%%### .1111111111111111",
"11111111111111111.X####%%%%%%%%%%%%%%%%%%%####X.1111111111111111",
"11111111111111111 #######%%%%%%%%%%%%%%%######o 1111111111111111",
"11111111111111111 ###########%%%%%%%########### 1111111111111111",
"11111111111111111 ############################# 1111111111111111",
"11111111111111111 ############################# 1111111111111111",
"11111111111111111 ############################# 1111111111111111",
"11111111111111111 ############################# 1111111111111111",
"11111111111111111 ############################# 1111111111111111",
"11111111111111111o#############################o1111111111111111",
"1111111111111111 o#############################o 111111111111111",
"1111111111111111 ############################### 111111111111111",
"1111111111111111 ############################### 111111111111111",
"1111111111111111 ############################### 111111111111111",
"1111111111111111 ############################### 111111111111111",
"1111111111111111 ####o#####o#########o#####o#### 111111111111111",
"1111111111111111 ####o#####o#########o#####o#### 111111111111111",
"1111111111111111 ####o#####o#########o#####o#### 111111111111111",
"1111111111111111 ####o#####o#########o#####o#### 111111111111111",
"1111111111111111 o###X#####X####%####X#####X###o 111111111111111",
"11111111111111111o#%#X#%%##X###%%%###X##%%#X#%#o1111111111111111",
"111111111111....1 #%oX#%%%#X##%%%%%##X#%%%#Xo%# 1111111111111111",
"1111111111..**+@..o%o o%%%#Xo#%%%%%#oX#%%%o X%o.1111111111111111",
"111111111.@@+@*+@. #X  #%%#Xo#%%%%%#oX#%%#   # @.111111111111111",
"11111111.@@**+*+@+-  -- #%oXX##%%%##XXo%# **  +@@.11111111111111",
"11111111.@+**+**.*------ #X  ###%### XX# *****@.@.11111111111111",
"11111111.@+*****+*-----*.   > ##### ;   O******.@.11111111111111",
"111111111..********----.;;:>>: ### O;>>:;O*****+@.11111111111111",
"1111111111.@*******---*.O$&;:;O   ;O$>>::O*****@@.11111111111111",
"11111111111.+@********@.===&&$O$:>;O$::;O-.@****+111111111111111",
"1111111111111.+@******.==----=O$&;;OO&&$--OO***@.111111111111111",
"111111111111111.+@***@+=------@+*&$O--OOO$;O@@@.1111111111111111",
"11111111111111111.....@=------@+---OO$;>>>>:O..11111111111111111",
"111111111111111111111O==------@*-O$;>>>>>>>>O1111111111111111111",
"11111111111111111111O$OO------@O$;>>>>>>>>>>;O111111111111111111",
"11111111111111111111O;;$OOOOOO$;>>>>>>>;$OOOOO111111111111111111",
"11111111111111111111O;:>>>>>>:;:>>>>;$OO----*.111111111111111111",
"1111111111111111111O$;;>>>>>>&;>>>>$O-------*.111111111111111111",
"1111111111111111111.O;;:>>>>:$;:>>O--------=*.111111111111111111",
"1111111111111111111.@O;;:>>>;$;;:O********=**.111111111111111111",
"1111111111111111111.@@O;;;;;;$;;O************.111111111111111111",
"1111111111111111111.@.@O;;;;;$;$**+++++@@***@.111111111111111111",
"1111111111111111111.@@.+O$;;;;$O.+*=========+1111111111111111111",
"1111111111111111111.@@@@..OOOOO.@*==========.1111111111111111111",
"1111111111111111111.@@@@@@@@+++.*===========.1111111111111111111",
"1111111111111111111.@@@@@@@@@++.============.1111111111111111111",
"11111111111111111111+@@@@@@@@@+.===========+11111111111111111111",
"11111111111111111111.@@@@@@@@@@+===========.11111111111111111111",
"11111111111111111111.@@@@@@@@@@+===========.11111111111111111111",
"111111111111111111111+@@@@@@@@@+===========.11111111111111111111",
"111111111111111111111.@@@@@@@@@+==========+111111111111111111111",
"1111111111111111111111+@@@@@@@@+==========.111111111111111111111",
"1111111111111111111111.@@@@@@@@+==========.111111111111111111111",
"11111111111111111111111+++@@@++.==========.111111111111111111111",
"11111111111111111111111.+@@@@@+.=========+1111111111111111111111",
"111111111111111111111111+@@@@@@+=========.1111111111111111111111",
"111111111111111111111111.@@@@@+==========.1111111111111111111111",
"111111111111111111111<,,.@@@@@.==========.<111111111111111111111",
"111111111111111111<,,,,,.@@@@@.=========+,,,,<111111111111111111",
"1111111111111111<,,,,,,,,+@@@@.=========.,,,,,,<1111111111111111",
"11111111111111<,,,,,,,,,,.@@@@.==-----==.,,,,,,,,<11111111111111",
"111111111111<,,,,,,,,,,,,.@@@@.=-------*.,,,,,,,,,,<111111111111",
"11111111111<,,,,,,,,,,,,,,+@@@.--------+,,,,,,,,,,,,<11111111111",
"1111111111<,,,,,,,,,,,,,,,.@@@.--------.,,,,,,,,,,,,,<1111111111",
"1111111111,,,,,,,,,,,,,,,,.@@@.-------=.,,,,,,,,,,,,,,1111111111",
"111111111<,,,,,,,,,,,,,,,,,....=------*.,,,,,,,,,,,,,,<111111111",
"111111111,,,,,,,,,,,,,,,,,,,,,.*------*.,,,,,,,,,,,,,,,111111111",
"111111111,,,,,,,,,,,,,,,,,,,,,,+*====*+,,,,,,,,,,,,,,,,111111111",
"111111111,,,,,,,,,,,,,,,,,,,,,,.=@@@@=.,,,,,,,,,,,,,,,,111111111",
"111111111,,,,,,,,,,,,,,,,,,,,,,.@@@@@@.,,,,,,,,,,,,,,,,111111111",
"111111111<,,,,,,,,,,,,,,,,,,,,,.@@@@@@.,,,,,,,,,,,,,,,<111111111",
"1111111111,,,,,,,,,,,,,,,,,,,,,,......,,,,,,,,,,,,,,,,1111111111",
"1111111111<,,,,,,,,,,,,,,,,,,,,,,,,,,,,,,,,,,,,,,,,,,<1111111111",
"11111111111<,,,,,,,,,,,,,,,,,,,,,,,,,,,,,,,,,,,,,,,,<11111111111",
"111111111111<,,,,,,,,,,,,,,,,,,,,,,,,,,,,,,,,,,,,,,<111111111111",
"11111111111111<,,,,,,,,,,,,,,,,,,,,,,,,,,,,,,,,,,<11111111111111",
"1111111111111111,,,,,,,,,,,,,,,,,,,,,,,,,,,,,,,,<111111111111111",
"11111111111111111<,,,,,,,,,,,,,,,,,,,,,,,,,,,,<11111111111111111",
"11111111111111111111<,,,,,,,,,,,,,,,,,,,,,,<11111111111111111111",
"1111111111111111111111111<,,,,,,,,,,,,<1111111111111111111111111",
"1111111111111111111111111111111111111111111111111111111111111111",
"1111111111111111111111111111111111111111111111111111111111111111",
"1111111111111111111111111111111111111111111111111111111111111111",
"1111111111111111111111111111111111111111111111111111111111111111",
"1111111111111111111111111111111111111111111111111111111111111111",
"1111111111111111111111111111111111111111111111111111111111111111",
"1111111111111111111111111111111111111111111111111111111111111111",
"1111111111111111111111111111111111111111111111111111111111111111",
"1111111111111111111111111111111111111111111111111111111111111111",
"1111111111111111111111111111111111111111111111111111111111111111",
"1111111111111111111111111111111111111111111111111111111111111111",
"1111111111111111111111111111111111111111111111111111111111111111",
"1111111111111111111111111111111111111111111111111111111111111111",
"1111111111111111111111111111111111111111111111111111111111111111"
};
