/* XPM */
static char *output_19[] = {
/* columns rows colors chars-per-pixel */
"64 122 20 1 ",
"  c #222034",
". c #45212D",
"X c #333A6C",
"o c #3C447C",
"O c #46426C",
"+ c #954A51",
"@ c #CB7173",
"# c #4F5AA5",
"$ c #6A78AC",
"% c #616FCB",
"& c #7C8DB5",
"* c #F5A489",
"= c #F9BF99",
"- c #FFE0B1",
"; c #A6AEE1",
": c #E1EAFD",
"> c white",
", c #3F3F74",
"< c #5C5CA9",
"1 c None",
/* pixels */
"1111111111111111111111111111111111111111111111111111111111111111",
"1111111111111111111111111111111111111111111111111111111111111111",
"1111111111111111111111111111111111111111111111111111111111111111",
"1111111111111111111111111111111111111111111111111111111111111111",
"1111111111111111111111111111111111111111111111111111111111111111",
"1111111111111111111111111111111111111111111111111111111111111111",
"1111111111111111111111111111111111111111111111111111111111111111",
"1111111111111111111111111111111111111111111111111111111111111111",
"1111111111111111111111111111111111111111111111111111111111111111",
"1111111111111111111111111111111111111111111111111111111111111111",
"11111111111111111111111111111         11111111111111111111111111",
"111111111111111111111111111 Xo%%%%%%%oX 111111111111111111111111",
"1111111111111111111111111 Xo%%%%%%%%%%%oX 1111111111111111111111",
"111111111111111111111111 %%%%%%%%%%%%%%%%% 111111111111111111111",
"11111111111111111111111 %%%%%%%%%%%%%%%%%%% 11111111111111111111",
"1111111111111111111111 %%%%%%%%%%%%%%%%%%%%% 1111111111111111111",
"1111111111111111111111X%%%%%%%%%%%%%%%%%%%%%X1111111111111111111",
"111111111111111111111 o%%%%%%%%%%%%%%%%%%%%%o 111111111111111111",
"111111111111111111111X%%%%%%%%%%%%%%%%%%%%%%%X111111111111111111",
"11111111111111111111 o%%%%%%%%%%%%%%%%%%%%%%%o 11111111111111111",
"11111111111111111111 %%%%%%%%%%%%%%%%%%%%%%%%% 11111111111111111",
"11111111111111111111 %%%%%%%%%%%%%%%%%%%%%%%%% 11111111111111111",
"11111111111111111    %%%%%%%%%%%%%%%%%%%%%%%%% 11111111111111111",
"11111111111111111 X#X%%%%%%%%%%%%%%%%%%%%%%%%% 11111111111111111",
"11111111111111111 # o%%%%%%%%%%%%%%%%%%%%%%%%% X 111111111111111",
"111111111111111111  #%%%%%%%%%%%%%%%%%%%%%%%%%X%# 11111111111111",
"1111111111111111111X##%%%%%%%%%%%%%%%%%%%%%%%#o   11111111111111",
"111111111111111111 o##%%%%%%%%%%%%%%%%%%%%%%%## .111111111111111",
"111111111111111111 o###%%%%%%%%%%%%%%%%%%%%%### .111111111111111",
"111111111111111111Xo###%%%%%%%%%%%%%%%%%%%%%### .111111111111111",
"11111111111111111 oo####%%%%%%%%%%%%%%%%%%%#### .111111111111111",
"11111111111111111Xoo######%%%%%%%%%%%%%%%###### 1111111111111111",
"1111111111111111 ooo##########%%%%%%%########## 1111111111111111",
"1111111111111111Xooo########################### 1111111111111111",
"111111111111111 ooo############################ 1111111111111111",
"111111111111111Xoo############################# 1111111111111111",
"11111111111111 oo############################## 1111111111111111",
"11111111111111 ################################ 1111111111111111",
"11111111111111X################################ 1111111111111111",
"1111111111111 o################################ 1111111111111111",
"1111111111111X#######o######################### 1111111111111111",
"111111111111 o######oX########################o 1111111111111111",
"111111111111 #######Xo########################X11111111111111111",
"111111111111 ######oX######################### 11111111111111111",
"111111111111 o####oXo######o########o######### 11111111111111111",
"1111111111111X####oX######Xo#######Xo####o#### 11111111111111111",
"1111111111111o####XX######oX#######oX####o#### 11111111111111111",
"1111111111111 ##%oXX######oo##%####oo####X###o 11111111111111111",
"11111111111111o#%o X##%%##X##%%%###o##%%#X#%#X111111111111111111",
"11111111111111 o%o Xo#%%%oX#%%%%%##X#%%%#Xo%# 111111111111111111",
"111111111111111 #X& X#%%%Xo#%%%%%#oX#%%%X o%o@.11111111111111111",
"1111111111111111  $& #%%%Xo#%%%%%#oX#%%#   # *.11111111111111111",
"111111111111111111O.* #%oXX##%%%##XXX%# O*  **.11111111111111111",
"111111111111111111O+=- #XX ###%###X XX ;;O****.11111111111111111",
"111111111111111111.*---   . X#####    ::;O****.11111111111111111",
"1111111111111111.+*------.;: X##X >:;$:;&O***@.11111111111111111",
"11111111111....+*=------*.;>>>   >>>;O:&O.@**@.11111111111111111",
"1111111111.******=------.$;>>:;O;>>>;O&$=+.@@@.11111111111111111",
"111111111.********=----*.$;>:$OO:>>>$OOOOOO@@.111111111111111111",
"111111111.*.+@******==*.OO&&$*+O&&&$$&:>>:;O.1111111111111111111",
"111111111.+***********.@*=----@+*O$&:>>>>>>;O1111111111111111111",
"111111111..*@*******+.@*=-----+O$&:>>>>>>>>:O1111111111111111111",
"1111111111.*++@***+..O@*=-----O:>>>>:;$OOOOOO1111111111111111111",
"1111111111.***....1O&&OOOOOOO$&>>>>;&O------+1111111111111111111",
"11111111111....1111O&;;;;:>>>;&>>>;O--------@.111111111111111111",
"1111111111111111111O&;;;;:>>:;&>>;O---------*.111111111111111111",
"1111111111111111111.O;;;;;::;;&:>$---------=*.111111111111111111",
"1111111111111111111.@O&;;;;;;;$&;O-=*********.111111111111111111",
"1111111111111111111.@@OO&;;;;&$$$***@@@@*===@.111111111111111111",
"1111111111111111111.@@@@O$&;;&&$O*+@*=======+1111111111111111111",
"11111111111111111111+@@@@@OOOOOO.+*=========.1111111111111111111",
"11111111111111111111.@.+@@@@@+.+.===========.1111111111111111111",
"11111111111111111111.@@@+++...++.==========*.1111111111111111111",
"11111111111111111111.@@@@@@@@@++.==========+11111111111111111111",
"111111111111111111111+@@@@@@@@@+.==========.11111111111111111111",
"111111111111111111111.@@@@@@@@@+.==========.11111111111111111111",
"111111111111111111111.@@@@@@@@@@.*=========.11111111111111111111",
"1111111111111111111111+@@@@@@@@@.+*=======*.11111111111111111111",
"1111111111111111111111.@@@@@@@@@.+++++*===+111111111111111111111",
"1111111111111111111111.@@@@@@@@@+-------==.111111111111111111111",
"11111111111111111111111+@@@@@@@.*--------=.111111111111111111111",
"11111111111111111111111.@@@@@@@.---------*.111111111111111111111",
"11111111111111111111111.@@@@@@@.--------*+1111111111111111111111",
"11111111111111111111111.@@@@@@@.--------+.1111111111111111111111",
"111111111111111111111111+@@@@@@+====---*+11111111111111111111111",
"111111111111111111111<,,.@@@@@.*=====-=*.,<111111111111111111111",
"111111111111111111<,,,,,.+@@@@.=======*.,,,,,<111111111111111111",
"1111111111111111<,,,,,,,.+++++.======*.,,,,,,,,<1111111111111111",
"11111111111111<,,,,,,,,,,+++++.======+,,,,,,,,,,,<11111111111111",
"111111111111<,,,,,,,,,,,,.++++.======.,,,,,,,,,,,,,<111111111111",
"11111111111<,,,,,,,,,,,,,.++++.*====*.,,,,,,,,,,,,,,<11111111111",
"1111111111<,,,,,,,,,,,,,,.+++++.====.,,,,,,,,,,,,,,,,<1111111111",
"1111111111,,,,,,,,,,,,,,,.++++++....,,,,,,,,,,,,,,,,,,1111111111",
"111111111<,,,,,,,,,,,,,,,,.+++++.,,,,,,,,,,,,,,,,,,,,,<111111111",
"111111111,,,,,,,,,,,,,,,,,.+++++.,,,,,,,,,,,,,,,,,,,,,,111111111",
"111111111,,,,,,,,,,,,,,,,,,.....,,,,,,,,,,,,,,,,,,,,,,,111111111",
"111111111,,,,,,,,,,,,,,,,,,,,,,,,,,,,,,,,,,,,,,,,,,,,,,111111111",
"111111111,,,,,,,,,,,,,,,,,,,,,,,,,,,,,,,,,,,,,,,,,,,,,,111111111",
"111111111<,,,,,,,,,,,,,,,,,,,,,,,,,,,,,,,,,,,,,,,,,,,,<111111111",
"1111111111,,,,,,,,,,,,,,,,,,,,,,,,,,,,,,,,,,,,,,,,,,,,1111111111",
"1111111111<,,,,,,,,,,,,,,,,,,,,,,,,,,,,,,,,,,,,,,,,,,<1111111111",
"11111111111<,,,,,,,,,,,,,,,,,,,,,,,,,,,,,,,,,,,,,,,,<11111111111",
"111111111111<,,,,,,,,,,,,,,,,,,,,,,,,,,,,,,,,,,,,,,<111111111111",
"11111111111111<,,,,,,,,,,,,,,,,,,,,,,,,,,,,,,,,,,<11111111111111",
"1111111111111111,,,,,,,,,,,,,,,,,,,,,,,,,,,,,,,,<111111111111111",
"11111111111111111<,,,,,,,,,,,,,,,,,,,,,,,,,,,,<11111111111111111",
"11111111111111111111<,,,,,,,,,,,,,,,,,,,,,,<11111111111111111111",
"1111111111111111111111111<,,,,,,,,,,,,<1111111111111111111111111",
"1111111111111111111111111111111111111111111111111111111111111111",
"1111111111111111111111111111111111111111111111111111111111111111",
"1111111111111111111111111111111111111111111111111111111111111111",
"1111111111111111111111111111111111111111111111111111111111111111",
"1111111111111111111111111111111111111111111111111111111111111111",
"1111111111111111111111111111111111111111111111111111111111111111",
"1111111111111111111111111111111111111111111111111111111111111111",
"1111111111111111111111111111111111111111111111111111111111111111",
"1111111111111111111111111111111111111111111111111111111111111111",
"1111111111111111111111111111111111111111111111111111111111111111",
"1111111111111111111111111111111111111111111111111111111111111111",
"1111111111111111111111111111111111111111111111111111111111111111",
"1111111111111111111111111111111111111111111111111111111111111111",
"1111111111111111111111111111111111111111111111111111111111111111"
};
