/* XPM */
static char *output_20[] = {
/* columns rows colors chars-per-pixel */
"64 122 21 1 ",
"  c #222034",
". c #45212D",
"X c #333A6C",
"o c #3C447C",
"O c #46426C",
"+ c #954A51",
"@ c #CB7173",
"# c #4F5AA5",
"$ c #6A78AC",
"% c #616FCB",
"& c #7C8DB5",
"* c #F5A489",
"= c #F9BF99",
"- c #FFE0B1",
"; c #9CA2CC",
": c #A6AEE1",
"> c #E1EAFD",
", c white",
"< c #3F3F74",
"1 c #5C5CA9",
"2 c None",
/* pixels */
"2222222222222222222222222222222222222222222222222222222222222222",
"2222222222222222222222222222222222222222222222222222222222222222",
"2222222222222222222222222222222222222222222222222222222222222222",
"2222222222222222222222222222222222222222222222222222222222222222",
"2222222222222222222222222222222222222222222222222222222222222222",
"2222222222222222222222222222222222222222222222222222222222222222",
"2222222222222222222222222222222222222222222222222222222222222222",
"2222222222222222222222222222222222222222222222222222222222222222",
"2222222222222222222222222222222222222222222222222222222222222222",
"2222222222222222222222222222222222222222222222222222222222222222",
"2222222222222222222222222222222222222222222222222222222222222222",
"2222222222222222222222222222222222222222222222222222222222222222",
"2222222222222222222222222222         222222222222222222222222222",
"22222222222222222222222222 Xo%%%%%%%oX 2222222222222222222222222",
"222222222222222222222222 Xo%%%%%%%%%%%oX 22222222222222222222222",
"22222222222222222222222 %%%%%%%%%%%%%%%%% 2222222222222222222222",
"2222222222222222222222 %%%%%%%%%%%%%%%%%%% 222222222222222222222",
"222222222222222222222 %%%%%%%%%%%%%%%%%%%%% 22222222222222222222",
"222222222222222222222X%%%%%%%%%%%%%%%%%%%%%X22222222222222222222",
"22222222222222222222 o%%%%%%%%%%%%%%%%%%%%%o 2222222222222222222",
"22222222222222222222X%%%%%%%%%%%%%%%%%%%%%%%X2222222222222222222",
"2222222222222222222 o%%%%%%%%%%%%%%%%%%%%%%%o 222222222222222222",
"2222222222222222222X%%%%%%%%%%%%%%%%%%%%%%%%% 222222222222222222",
"2222222222222222   o%%%%%%%%%%%%%%%%%%%%%%%%%X   222222222222222",
"2222222222222222 X #%%%%%%%%%%%%%%%%%%%%%%%%%o # 222222222222222",
"22222222222222222  #%%%%%%%%%%%%%%%%%%%%%%%%%#  2222222222222222",
"222222222222222222X#%%%%%%%%%%%%%%%%%%%%%%%%%# 22222222222222222",
"22222222222222222 o#%%%%%%%%%%%%%%%%%%%%%%%%%# 22222222222222222",
"22222222222222222 ###%%%%%%%%%%%%%%%%%%%%%%%##X22222222222222222",
"22222222222222222 ###%%%%%%%%%%%%%%%%%%%%%%%##o 2222222222222222",
"22222222222222222 ####%%%%%%%%%%%%%%%%%%%%%#### 2222222222222222",
"22222222222222222X####%%%%%%%%%%%%%%%%%%%%%#### 2222222222222222",
"2222222222222222 o#####%%%%%%%%%%%%%%%%%%%##### 2222222222222222",
"2222222222222222 o#######%%%%%%%%%%%%%%%####### 2222222222222222",
"2222222222222222 o###########%%%%%%%########### 2222222222222222",
"2222222222222222 o############################# 2222222222222222",
"2222222222222222 o############################# 2222222222222222",
"2222222222222222 o############################# 2222222222222222",
"2222222222222222Xoo############################ 2222222222222222",
"222222222222222 ooo############################ 2222222222222222",
"222222222222222 ooo############################ 2222222222222222",
"222222222222222 oo############################# 2222222222222222",
"222222222222222 o############################## 2222222222222222",
"222222222222222X############################### 2222222222222222",
"22222222222222 o############################### 2222222222222222",
"22222222222222 ################################ 2222222222222222",
"22222222222222 ######o#####o#######o#####o##### 2222222222222222",
"22222222222222 ######o#####o#######o#####o##### 2222222222222222",
"22222222222222 ######X#####o#######X#####o####o 2222222222222222",
"22222222222222 #####oX#####X#######X#####X#%%#X.2222222222222222",
"22222222222222X#%%%#XX#####X##%%###X#####X#%%# +2222222222222222",
"2222222222222 o%%%%#XX#%%#XX#%%%%#Xo#%%#XX#%%# @.222222222222222",
"222222222222 #%%%%%#  #%%#XX#%%%%#XX#%%#XX#%#o *.222222222222222",
"222222222... o####o - #%%#X #%%%%#XX#%%#X ###X *+222222222222222",
"22222222.@@@*      - o#%%#  #%%%%o X#%%#  o## **@.22222222222222",
"22222222.@+****@*=-- o##o   #%%%#  X%%#o  Xo ****.22222222222222",
"22222222.@+***@***==*    ,, #%%#o  o##o ,:  *****.22222222222222",
"222222222+@***@*****@.;O:,, o##o ,:    $&O.******.22222222222222",
"222222222.@*********+$O::>,,    ,,:O$&O==*.@****@.22222222222222",
"2222222222.********@.2.OO$&&$O:>,>:O-----=+.@**@.222222222222222",
"22222222222.+@****@.22+=-----*O$&$O-------OO....2222222222222222",
"2222222222222......22.*-------*+*-----OOO$&O.2222222222222222222",
"222222222222222222222+=--------+---OO$&>,,,:O2222222222222222222",
"22222222222222222222OOO--------@-O$&>,,,,,,>O2222222222222222222",
"22222222222222222222O>&$OO-----O$&>,,,,,,,,,>O222222222222222222",
"22222222222222222222O>,,>&$OOO$&,,,,,,>:$OOOOO222222222222222222",
"2222222222222222222.O&,,,,,,,,>&,,,>:$OO---=*.222222222222222222",
"2222222222222222222.@$,,,,,,,,:&>>:$O------**.222222222222222222",
"2222222222222222222.@O>,,,,,,>:$:>O------=***.222222222222222222",
"2222222222222222222.@*O:>,,,,::$:O***********.222222222222222222",
"2222222222222222222.@@*O:::::::&O********@+@*.222222222222222222",
"2222222222222222222.@++@O$&::::$..+++@@@@@*=*.222222222222222222",
"2222222222222222222.@@@++@O$&:&O.*==========*.222222222222222222",
"2222222222222222222.@@@@@+++OOO+.===========@.222222222222222222",
"2222222222222222222.@@@@@@@@@+++.===========+2222222222222222222",
"2222222222222222222.@@@@@@@@@@++.==========*.2222222222222222222",
"22222222222222222222+@@@@@@@@@@+.==========@.2222222222222222222",
"22222222222222222222.@@@@@@@@@@+.*=========+22222222222222222222",
"222222222222222222222+@@@@@@@@@@.@*=****==*.22222222222222222222",
"222222222222222222222.@@@@@@@@@@.@@*----**@.22222222222222222222",
"222222222222222222222.@@@@@@@@@@.*-------@+222222222222222222222",
"222222222222222222222.+@@@@@@@@@.---------.222222222222222222222",
"2222222222222222222222.@@@@@@@@@.---------.222222222222222222222",
"2222222222222222222222.@@@@@@@@@.---------.222222222222222222222",
"22222222222222222222222+@*****@@.-=====--+2222222222222222222222",
"2222222222222222222221<.*******+.=======-.1222222222222222222222",
"2222222222222222221<<<<+*******+.=======+<<<<1222222222222222222",
"22222222222222221<<<<<.@*******+.=======.<<<<<<12222222222222222",
"222222222222221<<<<<<<.********+.======+<<<<<<<<<122222222222222",
"2222222222221<<<<<<<<<.@*******+.======.<<<<<<<<<<<1222222222222",
"222222222221<<<<<<<<<<<+*******+.======.<<<<<<<<<<<<122222222222",
"22222222221<<<<<<<<<<<<.*******.<.====.<<<<<<<<<<<<<<12222222222",
"2222222222<<<<<<<<<<<<<.@******.<<....<<<<<<<<<<<<<<<<2222222222",
"2222222221<<<<<<<<<<<<<<+******.<<<<<<<<<<<<<<<<<<<<<<1222222222",
"222222222<<<<<<<<<<<<<<<.*====*.<<<<<<<<<<<<<<<<<<<<<<<222222222",
"222222222<<<<<<<<<<<<<<<.@=====.<<<<<<<<<<<<<<<<<<<<<<<222222222",
"222222222<<<<<<<<<<<<<<<<+=====.<<<<<<<<<<<<<<<<<<<<<<<222222222",
"222222222<<<<<<<<<<<<<<<<.=====.<<<<<<<<<<<<<<<<<<<<<<<222222222",
"2222222221<<<<<<<<<<<<<<<<.....<<<<<<<<<<<<<<<<<<<<<<<1222222222",
"2222222222<<<<<<<<<<<<<<<<<<<<<<<<<<<<<<<<<<<<<<<<<<<<2222222222",
"22222222221<<<<<<<<<<<<<<<<<<<<<<<<<<<<<<<<<<<<<<<<<<12222222222",
"222222222221<<<<<<<<<<<<<<<<<<<<<<<<<<<<<<<<<<<<<<<<122222222222",
"2222222222221<<<<<<<<<<<<<<<<<<<<<<<<<<<<<<<<<<<<<<1222222222222",
"222222222222221<<<<<<<<<<<<<<<<<<<<<<<<<<<<<<<<<<122222222222222",
"2222222222222222<<<<<<<<<<<<<<<<<<<<<<<<<<<<<<<<1222222222222222",
"222222222222222221<<<<<<<<<<<<<<<<<<<<<<<<<<<<122222222222222222",
"222222222222222222221<<<<<<<<<<<<<<<<<<<<<<122222222222222222222",
"22222222222222222222222221<<<<<<<<<<<<12222222222222222222222222",
"2222222222222222222222222222222222222222222222222222222222222222",
"2222222222222222222222222222222222222222222222222222222222222222",
"2222222222222222222222222222222222222222222222222222222222222222",
"2222222222222222222222222222222222222222222222222222222222222222",
"2222222222222222222222222222222222222222222222222222222222222222",
"2222222222222222222222222222222222222222222222222222222222222222",
"2222222222222222222222222222222222222222222222222222222222222222",
"2222222222222222222222222222222222222222222222222222222222222222",
"2222222222222222222222222222222222222222222222222222222222222222",
"2222222222222222222222222222222222222222222222222222222222222222",
"2222222222222222222222222222222222222222222222222222222222222222",
"2222222222222222222222222222222222222222222222222222222222222222",
"2222222222222222222222222222222222222222222222222222222222222222",
"2222222222222222222222222222222222222222222222222222222222222222"
};
