/* XPM */
static char *output_22[] = {
/* columns rows colors chars-per-pixel */
"64 122 20 1 ",
"  c #222034",
". c #45212D",
"X c #333A6C",
"o c #3C447C",
"O c #46426C",
"+ c #954A51",
"@ c #CB7173",
"# c #4F5AA5",
"$ c #6A78AC",
"% c #616FCB",
"& c #7C8DB5",
"* c #F5A489",
"= c #F9BF99",
"- c #FFE0B1",
"; c #A6AEE1",
": c #E1EAFD",
"> c white",
", c #3F3F74",
"< c #5C5CA9",
"1 c None",
/* pixels */
"1111111111111111111111111111111111111111111111111111111111111111",
"1111111111111111111111111111111111111111111111111111111111111111",
"1111111111111111111111111111111111111111111111111111111111111111",
"1111111111111111111111111111111111111111111111111111111111111111",
"1111111111111111111111111111111111111111111111111111111111111111",
"1111111111111111111111111111111111111111111111111111111111111111",
"1111111111111111111111111111111111111111111111111111111111111111",
"1111111111111111111111111111111111111111111111111111111111111111",
"1111111111111111111111111111111111111111111111111111111111111111",
"111111111111111111111111111         1111111111111111111111111111",
"1111111111111111111111111 Xo%%%%%%%oX 11111111111111111111111111",
"11111111111111111111111 Xo%%%%%%%%%%%oX 111111111111111111111111",
"1111111111111111111111 %%%%%%%%%%%%%%%%% 11111111111111111111111",
"111111111111111111111 %%%%%%%%%%%%%%%%%%% 1111111111111111111111",
"11111111111111111111 %%%%%%%%%%%%%%%%%%%%% 111111111111111111111",
"11111111111111111111X%%%%%%%%%%%%%%%%%%%%%X111111111111111111111",
"1111111111111111111 o%%%%%%%%%%%%%%%%%%%%%o 11111111111111111111",
"1111111111111111111X%%%%%%%%%%%%%%%%%%%%%%%X11111111111111111111",
"111111111111111111 o%%%%%%%%%%%%%%%%%%%%%%%o 1111111111111111111",
"111111111111111111 %%%%%%%%%%%%%%%%%%%%%%%%% 1111111111111111111",
"111111111111111111 %%%%%%%%%%%%%%%%%%%%%%%%% 1111111111111111111",
"111111111111111    %%%%%%%%%%%%%%%%%%%%%%%%%    1111111111111111",
"111111111111111 X# %%%%%%%%%%%%%%%%%%%%%%%%% %# 1111111111111111",
"1111111111111111 XX%%%%%%%%%%%%%%%%%%%%%%%%%XX 11111111111111111",
"11111111111111111 o%%%%%%%%%%%%%%%%%%%%%%%%%o 111111111111111111",
"11111111111111111 ##%%%%%%%%%%%%%%%%%%%%%%%## 111111111111111111",
"1111111111111111. ##%%%%%%%%%%%%%%%%%%%%%%%## .11111111111111111",
"1111111111111111. ###%%%%%%%%%%%%%%%%%%%%%### .11111111111111111",
"1111111111111111. ###%%%%%%%%%%%%%%%%%%%%%### .11111111111111111",
"1111111111111111.X####%%%%%%%%%%%%%%%%%%%####X.11111111111111111",
"1111111111111111 o######%%%%%%%%%%%%%%%####### 11111111111111111",
"1111111111111111 ###########%%%%%%%########### 11111111111111111",
"1111111111111111 ############################# 11111111111111111",
"1111111111111111 ############################# 11111111111111111",
"1111111111111111 ############################# 11111111111111111",
"1111111111111111 ############################# 11111111111111111",
"1111111111111111 ############################# 11111111111111111",
"1111111111111111o#############################o11111111111111111",
"111111111111111 o#############################o 1111111111111111",
"111111111111111 ############################### 1111111111111111",
"111111111111111 ############################### 1111111111111111",
"111111111111111 ############################### 1111111111111111",
"111111111111111 ############################### 1111111111111111",
"111111111111111 ####o#####o#########o#####o#### 1111111111111111",
"111111111111111 ####o#####o#########o#####o#### 1111111111111111",
"111111111111111 ####o#####o#########o#####o#### 1111111111111111",
"111111111111111 ####o#####o#########o#####o#### 1111111111111111",
"111111111111111 o###X#####X####%####X#####X###o 1111111111111111",
"1111111111111111o#%#X#%%##X###%%%###X##%%#X#%#o11111111111111111",
"1111111111111111 #%oX#%%%#X##%%%%%##X#%%%#Xo%# 1....111111111111",
"1111111111111111.o%X o%%%#Xo#%%%%%#oX#%%%o o%o..@+**..1111111111",
"111111111111111.@ #   #%%#Xo#%%%%%#oX#%%#  X# .@+*@+@@.111111111",
"11111111111111.@@+  ** #%oXX##%%%##XXo%# --  -+@+*+**@@.11111111",
"11111111111111.@.@***** #XX ###%###  X# ------*.**+**+@.11111111",
"11111111111111.@.******O   ; ##### >   .*-----*+*****+@.11111111",
"11111111111111.@+*****O;:>>;O ### :>>:;;.----********..111111111",
"11111111111111.@@*****O::>>$O;   O;:;&$O.*---*******@.1111111111",
"111111111111111+****@.-O;::$O;>:$O$&&===.@********@+.11111111111",
"111111111111111.@***OO--$&&OO;;&$O=----==.******@+.1111111111111",
"1111111111111111.@@@O;$OOO--O$&*+@------=+@***@+.111111111111111",
"11111111111111111..O:>>>>;$OO---+@------=@.....11111111111111111",
"1111111111111111111O>>>>>>>>;$O-*@------==O111111111111111111111",
"111111111111111111O;>>>>>>>>>>;$O@------OO$O11111111111111111111",
"111111111111111111OOOOO$;>>>>>>>;$OOOOOO$;;O11111111111111111111",
"111111111111111111.*----OO$;>>>>:;:>>>>>>:;O11111111111111111111",
"111111111111111111.*-------O$>>>>;&>>>>>>;;$O1111111111111111111",
"111111111111111111.*=--------O>>:;$:>>>>:;;O.1111111111111111111",
"111111111111111111.**=********O:;;$;>>>:;;O@.1111111111111111111",
"111111111111111111.************O;;$;;;;;;O@@.1111111111111111111",
"111111111111111111.@***@@+++++**$;$;;;;;O@.@.1111111111111111111",
"1111111111111111111+=========*+.O$;;;;$O+.@@.1111111111111111111",
"1111111111111111111.==========*@.OOOOO..@@@@.1111111111111111111",
"1111111111111111111.===========*.+++@@@@@@@@.1111111111111111111",
"1111111111111111111.============.++@@@@@@@@@.1111111111111111111",
"11111111111111111111+===========.+@@@@@@@@@+11111111111111111111",
"11111111111111111111.===========+@@@@@@@@@@.11111111111111111111",
"11111111111111111111.===========+@@@@@@@@@@.11111111111111111111",
"11111111111111111111.===========+@@@@@@@@@+111111111111111111111",
"111111111111111111111+==========+@@@@@@@@@.111111111111111111111",
"111111111111111111111.==========+@@@@@@@@+1111111111111111111111",
"111111111111111111111.==========+@@@@@@@@.1111111111111111111111",
"111111111111111111111.==========.++@@@+++11111111111111111111111",
"1111111111111111111111+=========.+@@@@@+.11111111111111111111111",
"1111111111111111111111.=========+@@@@@@+111111111111111111111111",
"1111111111111111111111.==========+@@@@@.111111111111111111111111",
"111111111111111111111<.==========.@@@@@.,,<111111111111111111111",
"111111111111111111<,,,,+=========.@@@@@.,,,,,<111111111111111111",
"1111111111111111<,,,,,,.=========.@@@@+,,,,,,,,<1111111111111111",
"11111111111111<,,,,,,,,.==-----==.@@@@.,,,,,,,,,,<11111111111111",
"111111111111<,,,,,,,,,,.*-------=.@@@@.,,,,,,,,,,,,<111111111111",
"11111111111<,,,,,,,,,,,,+--------.@@@+,,,,,,,,,,,,,,<11111111111",
"1111111111<,,,,,,,,,,,,,.--------.@@@.,,,,,,,,,,,,,,,<1111111111",
"1111111111,,,,,,,,,,,,,,.=-------.@@@.,,,,,,,,,,,,,,,,1111111111",
"111111111<,,,,,,,,,,,,,,.*------=....,,,,,,,,,,,,,,,,,<111111111",
"111111111,,,,,,,,,,,,,,,.*------*.,,,,,,,,,,,,,,,,,,,,,111111111",
"111111111,,,,,,,,,,,,,,,,+*====*+,,,,,,,,,,,,,,,,,,,,,,111111111",
"111111111,,,,,,,,,,,,,,,,.=@@@@=.,,,,,,,,,,,,,,,,,,,,,,111111111",
"111111111,,,,,,,,,,,,,,,,.@@@@@@.,,,,,,,,,,,,,,,,,,,,,,111111111",
"111111111<,,,,,,,,,,,,,,,.@@@@@@.,,,,,,,,,,,,,,,,,,,,,<111111111",
"1111111111,,,,,,,,,,,,,,,,......,,,,,,,,,,,,,,,,,,,,,,1111111111",
"1111111111<,,,,,,,,,,,,,,,,,,,,,,,,,,,,,,,,,,,,,,,,,,<1111111111",
"11111111111<,,,,,,,,,,,,,,,,,,,,,,,,,,,,,,,,,,,,,,,,<11111111111",
"111111111111<,,,,,,,,,,,,,,,,,,,,,,,,,,,,,,,,,,,,,,<111111111111",
"11111111111111<,,,,,,,,,,,,,,,,,,,,,,,,,,,,,,,,,,<11111111111111",
"1111111111111111,,,,,,,,,,,,,,,,,,,,,,,,,,,,,,,,<111111111111111",
"11111111111111111<,,,,,,,,,,,,,,,,,,,,,,,,,,,,<11111111111111111",
"11111111111111111111<,,,,,,,,,,,,,,,,,,,,,,<11111111111111111111",
"1111111111111111111111111<,,,,,,,,,,,,<1111111111111111111111111",
"1111111111111111111111111111111111111111111111111111111111111111",
"1111111111111111111111111111111111111111111111111111111111111111",
"1111111111111111111111111111111111111111111111111111111111111111",
"1111111111111111111111111111111111111111111111111111111111111111",
"1111111111111111111111111111111111111111111111111111111111111111",
"1111111111111111111111111111111111111111111111111111111111111111",
"1111111111111111111111111111111111111111111111111111111111111111",
"1111111111111111111111111111111111111111111111111111111111111111",
"1111111111111111111111111111111111111111111111111111111111111111",
"1111111111111111111111111111111111111111111111111111111111111111",
"1111111111111111111111111111111111111111111111111111111111111111",
"1111111111111111111111111111111111111111111111111111111111111111",
"1111111111111111111111111111111111111111111111111111111111111111",
"1111111111111111111111111111111111111111111111111111111111111111"
};
