/* XPM */
static char *output_25[] = {
/* columns rows colors chars-per-pixel */
"64 122 21 1 ",
"  c #222034",
". c #45212D",
"X c #333A6C",
"o c #3C447C",
"O c #46426C",
"+ c #954A51",
"@ c #CB7173",
"# c #4F5AA5",
"$ c #6A78AC",
"% c #616FCB",
"& c #7C8DB5",
"* c #F5A489",
"= c #F9BF99",
"- c #FFE0B1",
"; c #9CA2CC",
": c #A6AEE1",
"> c #E1EAFD",
", c white",
"< c #3F3F74",
"1 c #5C5CA9",
"2 c None",
/* pixels */
"2222222222222222222222222222222222222222222222222222222222222222",
"2222222222222222222222222222222222222222222222222222222222222222",
"2222222222222222222222222222222222222222222222222222222222222222",
"2222222222222222222222222222222222222222222222222222222222222222",
"2222222222222222222222222222222222222222222222222222222222222222",
"2222222222222222222222222222222222222222222222222222222222222222",
"2222222222222222222222222222222222222222222222222222222222222222",
"2222222222222222222222222222222222222222222222222222222222222222",
"2222222222222222222222222222222222222222222222222222222222222222",
"2222222222222222222222222222222222222222222222222222222222222222",
"2222222222222222222222222222222222222222222222222222222222222222",
"2222222222222222222222222222222222222222222222222222222222222222",
"222222222222222222222222222         2222222222222222222222222222",
"2222222222222222222222222 Xo%%%%%%%oX 22222222222222222222222222",
"22222222222222222222222 Xo%%%%%%%%%%%oX 222222222222222222222222",
"2222222222222222222222 %%%%%%%%%%%%%%%%% 22222222222222222222222",
"222222222222222222222 %%%%%%%%%%%%%%%%%%% 2222222222222222222222",
"22222222222222222222 %%%%%%%%%%%%%%%%%%%%% 222222222222222222222",
"22222222222222222222X%%%%%%%%%%%%%%%%%%%%%X222222222222222222222",
"2222222222222222222 o%%%%%%%%%%%%%%%%%%%%%o 22222222222222222222",
"2222222222222222222X%%%%%%%%%%%%%%%%%%%%%%%X22222222222222222222",
"222222222222222222 o%%%%%%%%%%%%%%%%%%%%%%%o 2222222222222222222",
"222222222222222222 %%%%%%%%%%%%%%%%%%%%%%%%%X2222222222222222222",
"222222222222222   X%%%%%%%%%%%%%%%%%%%%%%%%%o   2222222222222222",
"222222222222222 X o%%%%%%%%%%%%%%%%%%%%%%%%%# # 2222222222222222",
"2222222222222222  #%%%%%%%%%%%%%%%%%%%%%%%%%#  22222222222222222",
"22222222222222222 #%%%%%%%%%%%%%%%%%%%%%%%%%#X222222222222222222",
"22222222222222222 #%%%%%%%%%%%%%%%%%%%%%%%%%#o 22222222222222222",
"22222222222222222X##%%%%%%%%%%%%%%%%%%%%%%%### 22222222222222222",
"2222222222222222 o##%%%%%%%%%%%%%%%%%%%%%%%### 22222222222222222",
"2222222222222222 ####%%%%%%%%%%%%%%%%%%%%%#### 22222222222222222",
"2222222222222222 ####%%%%%%%%%%%%%%%%%%%%%####X22222222222222222",
"2222222222222222 #####%%%%%%%%%%%%%%%%%%%#####o 2222222222222222",
"2222222222222222 #######%%%%%%%%%%%%%%%#######o 2222222222222222",
"2222222222222222 ###########%%%%%%%###########o 2222222222222222",
"2222222222222222 #############################o 2222222222222222",
"2222222222222222 #############################o 2222222222222222",
"2222222222222222 #############################o 2222222222222222",
"2222222222222222 ############################ooX2222222222222222",
"2222222222222222 ############################ooo 222222222222222",
"2222222222222222 ############################ooo 222222222222222",
"2222222222222222 #############################oo 222222222222222",
"2222222222222222 ##############################o 222222222222222",
"2222222222222222 ###############################X222222222222222",
"2222222222222222 ###############################o 22222222222222",
"2222222222222222 ################################ 22222222222222",
"2222222222222222 #####o#####o#######o#####o###### 22222222222222",
"2222222222222222 #####o#####o#######o#####o###### 22222222222222",
"2222222222222222 o####o#####X#######o#####X###### 22222222222222",
"2222222222222222.X#%%#X#####X#######X#####Xo##### 22222222222222",
"2222222222222222+ #%%#X#####X###%%##X#####XX#%%%#X22222222222222",
"222222222222222.@ #%%#XX#%%#oX#%%%%#XX#%%#XX#%%%%o 2222222222222",
"222222222222222.* o#%#XX#%%#XX#%%%%#XX#%%#  #%%%%%# 222222222222",
"222222222222222+* X### X#%%#XX#%%%%# X#%%# - o####o ...222222222",
"22222222222222.@** ##o  #%%#X o%%%%#  #%%#o -      *@@@.22222222",
"22222222222222.**** oX  o#%%X  #%%%#   o##o --=*@****+@.22222222",
"22222222222222.*****  :, o##o  o#%%# ,,    *==***@***+@.22222222",
"22222222222222.******.O&$    :, o##o ,,:O;.@*****@***@+222222222",
"22222222222222.@****@.*==O&$O:,,    ,,>::O$+*********@.222222222",
"222222222222222.@**@.+=-----O:>,>:O$&&$OO.2.@********.2222222222",
"2222222222222222....OO-------O$&$O*-----=+22.@****@+.22222222222",
"2222222222222222222.O&$OOO-----*+*-------*.22......2222222222222",
"2222222222222222222O:,,,>&$OO---+--------=+222222222222222222222",
"2222222222222222222O>,,,,,,>&$O-@--------OOO22222222222222222222",
"222222222222222222O>,,,,,,,,,>&$O-----OO$&>O22222222222222222222",
"222222222222222222OOOOO$:>,,,,,,&$OOO$&>,,>O22222222222222222222",
"222222222222222222.*=---OO$:>,,,&>,,,,,,,,&O.2222222222222222222",
"222222222222222222.**------O$:>>&:,,,,,,,,$@.2222222222222222222",
"222222222222222222.***=------O>:$:>,,,,,,>O@.2222222222222222222",
"222222222222222222.***********O:$::,,,,>:O*@.2222222222222222222",
"222222222222222222.*@+@********O&:::::::O*@@.2222222222222222222",
"222222222222222222.*=*@@@@@+++..$::::&$O@++@.2222222222222222222",
"222222222222222222.*==========*.O&:&$O@++@@@.2222222222222222222",
"222222222222222222.@===========.+OOO+++@@@@@.2222222222222222222",
"2222222222222222222+===========.+++@@@@@@@@@.2222222222222222222",
"2222222222222222222.*==========.++@@@@@@@@@@.2222222222222222222",
"2222222222222222222.@==========.+@@@@@@@@@@+22222222222222222222",
"22222222222222222222+=========*.+@@@@@@@@@@.22222222222222222222",
"22222222222222222222.*==****=*@.@@@@@@@@@@+222222222222222222222",
"22222222222222222222.@**----*@@.@@@@@@@@@@.222222222222222222222",
"222222222222222222222+@-------*.@@@@@@@@@@.222222222222222222222",
"222222222222222222222.---------.@@@@@@@@@+.222222222222222222222",
"222222222222222222222.---------.@@@@@@@@@.2222222222222222222222",
"222222222222222222222.---------.@@@@@@@@@.2222222222222222222222",
"2222222222222222222222+--=====-.@@*****@+22222222222222222222222",
"2222222222222222222221.-=======.+*******.<1222222222222222222222",
"2222222222222222221<<<<+=======.+*******+<<<<1222222222222222222",
"22222222222222221<<<<<<.=======.+*******@.<<<<<12222222222222222",
"222222222222221<<<<<<<<<+======.+********.<<<<<<<122222222222222",
"2222222222221<<<<<<<<<<<.======.+*******@.<<<<<<<<<1222222222222",
"222222222221<<<<<<<<<<<<.======.+*******+<<<<<<<<<<<122222222222",
"22222222221<<<<<<<<<<<<<<.====.<.*******.<<<<<<<<<<<<12222222222",
"2222222222<<<<<<<<<<<<<<<<....<<.******@.<<<<<<<<<<<<<2222222222",
"2222222221<<<<<<<<<<<<<<<<<<<<<<.******+<<<<<<<<<<<<<<1222222222",
"222222222<<<<<<<<<<<<<<<<<<<<<<<.*====*.<<<<<<<<<<<<<<<222222222",
"222222222<<<<<<<<<<<<<<<<<<<<<<<.=====@.<<<<<<<<<<<<<<<222222222",
"222222222<<<<<<<<<<<<<<<<<<<<<<<.=====+<<<<<<<<<<<<<<<<222222222",
"222222222<<<<<<<<<<<<<<<<<<<<<<<.=====.<<<<<<<<<<<<<<<<222222222",
"2222222221<<<<<<<<<<<<<<<<<<<<<<<.....<<<<<<<<<<<<<<<<1222222222",
"2222222222<<<<<<<<<<<<<<<<<<<<<<<<<<<<<<<<<<<<<<<<<<<<2222222222",
"22222222221<<<<<<<<<<<<<<<<<<<<<<<<<<<<<<<<<<<<<<<<<<12222222222",
"222222222221<<<<<<<<<<<<<<<<<<<<<<<<<<<<<<<<<<<<<<<<122222222222",
"2222222222221<<<<<<<<<<<<<<<<<<<<<<<<<<<<<<<<<<<<<<1222222222222",
"222222222222221<<<<<<<<<<<<<<<<<<<<<<<<<<<<<<<<<<122222222222222",
"2222222222222222<<<<<<<<<<<<<<<<<<<<<<<<<<<<<<<<1222222222222222",
"222222222222222221<<<<<<<<<<<<<<<<<<<<<<<<<<<<122222222222222222",
"222222222222222222221<<<<<<<<<<<<<<<<<<<<<<122222222222222222222",
"22222222222222222222222221<<<<<<<<<<<<12222222222222222222222222",
"2222222222222222222222222222222222222222222222222222222222222222",
"2222222222222222222222222222222222222222222222222222222222222222",
"2222222222222222222222222222222222222222222222222222222222222222",
"2222222222222222222222222222222222222222222222222222222222222222",
"2222222222222222222222222222222222222222222222222222222222222222",
"2222222222222222222222222222222222222222222222222222222222222222",
"2222222222222222222222222222222222222222222222222222222222222222",
"2222222222222222222222222222222222222222222222222222222222222222",
"2222222222222222222222222222222222222222222222222222222222222222",
"2222222222222222222222222222222222222222222222222222222222222222",
"2222222222222222222222222222222222222222222222222222222222222222",
"2222222222222222222222222222222222222222222222222222222222222222",
"2222222222222222222222222222222222222222222222222222222222222222",
"2222222222222222222222222222222222222222222222222222222222222222"
};
