/* XPM */
static char *output_10[] = {
/* columns rows colors chars-per-pixel */
"64 130 24 1 ",
"  c black",
". c #222034",
"X c #45212D",
"o c #3F3F74",
"O c #3C447C",
"+ c #46426C",
"@ c #954A51",
"# c #CB7173",
"$ c #4F5AA5",
"% c #6A78AC",
"& c #616FCB",
"* c #7C8DB5",
"= c #639BFF",
"- c #9C859F",
"; c #F5A489",
": c #F9BF99",
"> c #FFF3AB",
", c #FFE0B1",
"< c #A6AEE1",
"1 c #E1EAFD",
"2 c white",
"3 c #3F3F74",
"4 c #5C5CA9",
"5 c None",
/* pixels */
"5555555555555555555555555555555555555555555555555555555555555555",
"5555555555555555555555555555555555555555555555555555555555555555",
"5555555555555555555555555555555555555555555555555555555555555555",
"5555555555555555555555555555555555555555555555555555555555555555",
"5555555555555555555555555555555555555555555555555555555555555555",
"5555555555555555555555555555555555555555555555555555555555555555",
"5555555555555555555555555555555555555555555555555555555555555555",
"5555555555555555555555555555555555555555555555555555555555555555",
"5555555555555555555555555555555555555555555555555555555555555555",
"5555555555555555555555555555555555555555555555555555555555555555",
"5555555555555555555555555555555555555555555555555555555555555555",
"5555555555555555555555555555.........555555555555555555555555555",
"55555555555555555555555555.O$&&&&&&&$O.5555555555555555555555555",
"555555555555555555555555.O$&&&&&&&&&&&$O.55555555555555555555555",
"55555555555555555555555.$&&&&&&&&&&&&&&&$.5555555555555555555555",
"5555555555555555555555.&&&&&&&&&&&&&&&&&&&.555555555555555555555",
"555555555555555555555.$&&&&&&&&&&&&&&&$OO.....555555555555555555",
"555555555555555555555O&&&&&&&&&&&&&&$$&$$OOOOO.55555555555555555",
"55555555555555555555.$&&&&&&&&&&&&&$&&$&&$$$$$O.5555555555555555",
"55555555555555555555O&&&&&&&&&&&&&$&&$&&$O&&&&$.5555555555555555",
"5555555555555555555.$&&&&&&&&&&&&.&&$&&&O$&&&&$O.555555555555555",
"5555555555555555555.&&&&&&&&&&&&&O&O&&&&$&&&&&&$O555555555555555",
"555555555555555555.O&&&&&&&&&&&&.$O$&&&&$&&&&&&$$.55555555555555",
"555555555555555555.$&&&&&&&&&&&&O&O&&&&&O&&&&&&$$.55555555555555",
"555555555555555555.$&&&&&&&&&&&.$O$&&&&&O&&&&&&$$.55555555555555",
"55555555555555555.O$&&&&&&&&&&$O$.$&&&&&O&&&&&&$$.55555555555555",
"55555555555555555.$$$&&&&&&&&$.$$O$$&&&$.$&&&&$$$.55555555555555",
"55555555555555555.$$$&&&&&&&$O.$.&$$$&$$.O&&&$$$O555555555555555",
"5555555555555555.O$$$$&&&&&$OO.$.O$$$$$O..$&&$$O.555555555555555",
"5555555555555555.$$$$$$$$$O....$O..O$$O...O$$$$.5555555555555555",
"555555555555555.O$$$$$$$$$.@X@.$$$O....;;::....55555555555555555",
"555555555555555.$$$$$$$$$O@:,,.$$$$$.#   #:X55555555555555555555",
"555555555555555O$$$$$$$$$.X,;#.$$$$$.     ;X55555555555555555555",
"55555555555555.$$$$$$$$$$.X,:;.$$$$O.X-    @55555555555555555555",
"55555555555555O$$$$$$$$$OO@;:;.$$$$.;@2o2;:#@X555555555555555555",
"5555555555555.$$$$$$$$$$OO.X:#.$$$$.,;2oo:,:;#X55555555555555555",
"5555555555555O$$$$$$$$$OOOO@;:.$$$$.,,;==:,,:;X55555555555555555",
"555555555555.$$$$$$$$$$OOOO.X;:O$$$.,,:;:,,,:@555555555555555555",
"555555555555O$$$$$$$$$OOOOOO.XX.$$$.,,,,,,,:;X555555555555555555",
"55555555555.$$$$$$$$$$OOOOOO.X##O$$.,,,,,,:;X5555555555555555555",
"55555555555O$$$$$$$$$OOOOOO..X##.$$.:::::@#X55555555555555555555",
"5555555555.$$$$$$$$$$OOOOO.XX####...#;:::;X555555555555555555555",
"5555555555.$$$$$$$$$OOOO..+++++;;###@@@XXX5555555555555555555555",
"5555555555.$$$$$$$$$OOO.+%*<<<<++;###++5555555555555555555555555",
"5555555555.$$$$$$$$OOO.++%%%%*12<+;###+++55555555555555555555555",
"5555555555.$$$$$$$$OOOX;:,,,,+%*2<+@,,:+<%+555555555555555555555",
"55555555555O$$$$$$$OO.@,,,,,,,:+<2<+,>::+1<%+5555555555555555555",
"55555555555.$$$$$$OOOX;,,,,,,,::*12<++@#+221<%+55555555555555555",
"555555555555O$$$$$OO.@,,,,,,,;#:+1111*++*<22221+5555555555555555",
"555555555555.$$$$$OOX;,,,,,,,#@:+122222211<21221+5XXXX5555555555",
"5555555555555.O$$$O.@,,,,,,,,@#:*22222222222<222%X;;;;X555555555",
"55555555555555.$$$OX;,,,,,,,;@:+<222222222<%*222*+;;@;XX55555555",
"555555555555555.$$.@,,,,,,,,@,,%222222222221+221<%X@X;X#X5555555",
"5555555555555555.OX;,,,,,,,;X,+*222222222221+21<<*+;;XX;X5555555",
"55555555555555555.@,,,,,,,,@++*<222222222222+<<<<*+;;X#;X5555555",
"55555555555555555X;,,,,,,,;X<<*1222222211222+<<<<%X;;X;;X5555555",
"55555555555555555X,,,,,,,,@<<<%1222221221121+<*<*+X;;X##XX555555",
"55555555555555555X,,,,,,,,X<<<+<12222<121<1<+<%*%X;X#XXX#X555555",
"55555555555555555X;,,,,,,,@X<<%<1<122*12<*<*+*+*+;#XXX##X5555555",
"555555555555555555@,,,,,,,;X<<%<1<<<<121<%<+<%<%##X55XXX55555555",
"555555555555555555X;,,,,,,,@<<%*1*<<<222<*+<*+*+XX55555555555555",
"5555555555555555555@,,,,,,,;X<*%1%<<<2221+<<+*+55555555555555555",
"5555555555555555555X;,,,,,;;@XXXXX*<12221*1*+++55555555555555555",
"55555555555555555555@,,,,;;@X,,,,;X<12221*<++5555555555555555555",
"55555555555555555555X,,,,,,,,,,,,,;X12221*+555555555555555555555",
"55555555555555555555+X,,,,,,,,,,#,X;X%%%%+5555555555555555555555",
"55555555555555555555+1X,,,#;,,,,#,X;X++%<+5555555555555555555555",
"55555555555555555555+<1X;,,#,,,,#:X#X,,,++5555555555555555555555",
"555555555555555555555%<+@,,#,,,,#;XX,,,,,X5555555555555555555555",
"555555555555555555555++;X,,@;;;;@#X,,,,,,@5555555555555555555555",
"5555555555555555555555X;X;;X;;;;XXX,,,,,,;X555555555555555555555",
"55555555555555555555555@X#XXXXXX,,,,,,,,,,X555555555555555555555",
"55555555555555555555555XXX@;,,,,,,,,,,,,,,@555555555555555555555",
"555555555555555555XXXX5@;;;X;,,,,,,,,,,,,,;X55555555555555555555",
"555555555555555XX@#;;#X@;;;;X@;,,,,,,,,,,,,X55555555555555555555",
"5555555555XXXX@#;;;;;;;;#;;;;;X,,,,,,,,,,,,@55555555555555555555",
"555555555X#;;;;;;;;;;;;;;;;;;;;X,,,,,,,,,,,;X5555555555555555555",
"555555555X;;;;;;;;;;;;;;;;;;;;;#X,,,,,,,,,,:X5555555555555555555",
"555555555@;;;;;;;;;;;;;;;;;;;;;@5X,,,,,,,,,,@5555555555555555555",
"55555555X#;;;;;;;;;;;;;;;;;;;;#X55X,,,,,,,,,#X555555555555555555",
"55555555X;;;;;;;;;;;;;;;;;;;;;X5555X;,,,,,,:;X555555555555555555",
"55555555X;;;;;;;;;;;;;;;;;;;;X555555@,,,,,,;;@555555555555555555",
"55555555X;;;;#@XXX@#;;;;;;;#X5555555X;:,,:;;;#X55555555555555555",
"55555555X#;;#X55555XXXXXXXXX555555555@;;;;;;;;X55555555555555555",
"555555555X;;X555555555555555555555555X#;;;;;;;@55555555555555555",
"5555555555XX55555555555555555555555555@;;;;;;;#X5555555555555555",
"55555555555555555555555554333333333333X;;;;;;;;X5555555555555555",
"55555555555555555555543333333333333333X;;;;;;;;@5555555555555555",
"55555555555555555543333333333333333333X;;;;;;;;#X555555555555555",
"55555555555555554333333333333333333333X#;;;;;;;;X555555555555555",
"555555555555554333333333333333333333333@;;;;;;;;@455555555555555",
"555555555555433333333333333333333333333X#;;;;;;;#X34555555555555",
"5555555555543333333333333333333333333333X;;;;;;;;X33455555555555",
"55555555554333333333333333333333333333333X#;;;;;;@33345555555555",
"555555555533333333333333333333333333333333@;;;;;;#@X335555555555",
"555555555433333333333333333333333333333333X#;;;;;;;#X34555555555",
"5555555553333333333333333333333333333333333@;;;;;;;;;X3555555555",
"5555555553333333333333333333333333333333333X#;;;;;;;;X3555555555",
"55555555533333333333333333333333333333333333@;;;;;;#X33555555555",
"55555555533333333333333333333333333333333333X#;;#@XX333555555555",
"555555555433333333333333333333333333333333333XXXX333334555555555",
"5555555555333333333333333333333333333333333333333333335555555555",
"5555555555433333333333333333333333333333333333333333345555555555",
"5555555555543333333333333333333333333333333333333333455555555555",
"5555555555554333333333333333333333333333333333333334555555555555",
"5555555555555543333333333333333333333333333333333455555555555555",
"5555555555555554333333333333333333333333333333335555555555555555",
"5555555555555555543333333333333333333333333333455555555555555555",
"5555555555555555555543333333333333333333333455555555555555555555",
"5555555555555555555555555433333333333345555555555555555555555555",
"5555555555555555555555555555555555555555555555555555555555555555",
"5555555555555555555555555555555555555555555555555555555555555555",
"5555555555555555555555555555555555555555555555555555555555555555",
"5555555555555555555555555555555555555555555555555555555555555555",
"5555555555555555555555555555555555555555555555555555555555555555",
"5555555555555555555555555555555555555555555555555555555555555555",
"5555555555555555555555555555555555555555555555555555555555555555",
"5555555555555555555555555555555555555555555555555555555555555555",
"5555555555555555555555555555555555555555555555555555555555555555",
"5555555555555555555555555555555555555555555555555555555555555555",
"5555555555555555555555555555555555555555555555555555555555555555",
"5555555555555555555555555555555555555555555555555555555555555555",
"5555555555555555555555555555555555555555555555555555555555555555",
"5555555555555555555555555555555555555555555555555555555555555555",
"5555555555555555555555555555555555555555555555555555555555555555",
"5555555555555555555555555555555555555555555555555555555555555555",
"5555555555555555555555555555555555555555555555555555555555555555",
"5555555555555555555555555555555555555555555555555555555555555555",
"5555555555555555555555555555555555555555555555555555555555555555",
"5555555555555555555555555555555555555555555555555555555555555555"
};
