/* XPM */
static char *output_9[] = {
/* columns rows colors chars-per-pixel */
"64 130 23 1 ",
"  c black",
". c #222034",
"X c #45212D",
"o c #3F3F74",
"O c #3C447C",
"+ c #46426C",
"@ c #954A51",
"# c #CB7173",
"$ c #4F5AA5",
"% c #6A78AC",
"& c #616FCB",
"* c #7C8DB5",
"= c #639BFF",
"- c #9C859F",
"; c #F5A489",
": c #F9BF99",
"> c #FFE0B1",
", c #A6AEE1",
"< c #E1EAFD",
"1 c white",
"2 c #3F3F74",
"3 c #5C5CA9",
"4 c None",
/* pixels */
"4444444444444444444444444444444444444444444444444444444444444444",
"4444444444444444444444444444444444444444444444444444444444444444",
"4444444444444444444444444444444444444444444444444444444444444444",
"4444444444444444444444444444444444444444444444444444444444444444",
"4444444444444444444444444444444444444444444444444444444444444444",
"4444444444444444444444444444444444444444444444444444444444444444",
"4444444444444444444444444444444444444444444444444444444444444444",
"4444444444444444444444444444444444444444444444444444444444444444",
"4444444444444444444444444444444444444444444444444444444444444444",
"4444444444444444444444444444444444444444444444444444444444444444",
"4444444444444444444444444444.........444444444444444444444444444",
"44444444444444444444444444.O$&&&&&&&$O.4444444444444444444444444",
"444444444444444444444444.O$&&&&&&&&&&&$O.44444444444444444444444",
"44444444444444444444444.$&&&&&&&&&&&&&&&$.4444444444444444444444",
"4444444444444444444444.&&&&&&&&&&&&&&&$OO...44444444444444444444",
"444444444444444444444.$&&&&&&&&&&&&&$$&$$OOO.4444444444444444444",
"444444444444444444444O&&&&&&&&&&&&&$&&$&&$$$$.444444444444444444",
"44444444444444444444.$&&&&&&&&&&&&$&&$&&$O&&&&.44444444444444444",
"44444444444444444444O&&&&&&&&&&&&.&&$&&&O$&&&&O44444444444444444",
"4444444444444444444.$&&&&&&&&&&&&O&$&&&&$&&&&&$.4444444444444444",
"4444444444444444444.&&&&&&&&&&&&&$&O&&&&$&&&&&&O4444444444444444",
"4444444444444444444.&&&&&&&&&&&&.&$O&&&&O&&&&&&$4444444444444444",
"4444444444444444444.&&&&&&&&&&&&.&O$&&&&O&&&&&&$.444444444444444",
"4444444444444444444O&&&&&&&&&&&$O&.&&&&&O&&&&&&$.444444444444444",
"444444444444444444.$&&&&&&&&&&$.$&.$&&&$.$&&&&$$.444444444444444",
"444444444444444444.$$&&&&&&&&$O.$$.$$&$$.O&&&$$$.444444444444444",
"444444444444444444.$$&&&&&&&$OO.$$O$$$$$..$&&$$O.444444444444444",
"444444444444444444.$$$&&&&&$OOO.$.$&$$$$..O$$$$O4444444444444444",
"444444444444444444.$$$$$$$O...O.$.$$$OO.:.O$$O..4444444444444444",
"444444444444444444.$$$$$$$.@X@..$......;;:... 444444444444444444",
"444444444444444444.$$$$$$O@:>>@.$$$$.#   #:X44444444444444444444",
"444444444444444444.$$$$$$.X>;#;.$$$$.     ;X44444444444444444444",
"444444444444444444.$$$$$$.X>:;>.$$$$.X-    @44444444444444444444",
"444444444444444444.$$$$$$O@;:;>.$$$$.@1o1;:#@X444444444444444444",
"444444444444444444.$$$$$$O.X:#;.$$$$.;1oo:>:;#X44444444444444444",
"444444444444444444.$$$$$$OO@;:>.$$$$.>;==:>>:;X44444444444444444",
"444444444444444444O$$$$$$OO.X;:@O$$$.>:;:>>>:@444444444444444444",
"44444444444444444.$$$$$$OOOO.XXX.$$$.>>>>>>:;X444444444444444444",
"44444444444444444.$$$$$$OOOO.X##XO$$.>>>>>:;X4444444444444444444",
"44444444444444444.$$$$$$OOO..@###.$$.::::@#X44444444444444444444",
"44444444444444444.$$$$$$OO.X@#####...;:::;X444444444444444444444",
"44444444444444444.$$$$$OO.X+++;;;###@@@XXX4444444444444444444444",
"44444444444444444O$$$$$O.++,,,++;;###+++444444444444444444444444",
"4444444444444444.$$$$$$.+**%%%*,++;###+*+44444444444444444444444",
"4444444444444444.$$$$$O+++%:::+1<,+@#>>+%+4444444444444444444444",
"4444444444444444.$$$$$.@:>>>>>:+1<,+>@@+<,+444444444444444444444",
"4444444444444444.$$$$OX;>>>>>>>:%11<+::@+<++44444444444444444444",
"4444444444444444O$$O$.@>>>>>>>>#+*<<,+++<,+<+4444444444444444444",
"444444444444444.$$$OOX;>>>>>>>;@:%<11111,*%1<+444444444444444444",
"444444444444444.$$$O.@>>>>>>>>@#:+1111111,*11%444444444444444444",
"444444444444444.$$$OX;>>>>>>>;@;:%1111111<,1<<+44444444444444444",
"444444444444444.$$$.@>>>>>>>>@;;+<1111111111,1%44444444444444444",
"444444444444444.O$$X;>>>>>>>;X+%,<11111111<,%1<+XXXX444444444444",
"4444444444444444.O$X>>>>>>>>@,,,,<111111111<*11%;;;;X44444444444",
"44444444444444444..X>>>>>>>>X,,,,<1111111111%11*+X;;;X4444444444",
"4444444444444444444X>>>>>>>>@,,,*<1111111111<*<,+;X;;X4444444444",
"4444444444444444444X;>>>>>>>;X,,%<<1111111111*,,+X@;;X4444444444",
"44444444444444444444@>>>>>>>>@,,%<<1111111111%,,+X;;#X4444444444",
"44444444444444444444X;>>>>>>>;X,*<<<11111111<+,*+@XXXX4444444444",
"444444444444444444444X>>>>>>>>;X*<<,<111111<,+*+#X;X;X4444444444",
"4444444444444444444444X>>>>>>>>>X<<,,,<111<**++##XXXXX4444444444",
"4444444444444444444444+X>>>>>>>>;@XXXXXX,*<,*+#XXX#;#X4444444444",
"444444444444444444444+%,X>>>>>>>>>>>>>>:X*,,%+X44XXXX44444444444",
"444444444444444444444%,,,X>>>>>>>>>>>>#:#X%++4444444444444444444",
"44444444444444444444+*,,,+X>>>>>>>>>>>;#;X*+44444444444444444444",
"44444444444444444444+,,,,*1X>>>>>>>#>>:#;X+444444444444444444444",
"44444444444444444444+*,*<<11X>>>>>>#>>:@;X4444444444444444444444",
"44444444444444444444+%,,**<11X;;@>>#@;;@#X4444444444444444444444",
"444444444444444444444+%*%<11<+XXX@>;@##XXX4444444444444444444444",
"4444444444444444444444+++<1<+>>>>X:;@XX>>;X444444444444444444444",
"44444444444444444444444X+,<+>>>>X;;#X>>>>>@444444444444444444444",
"44444444444444444444444X;++:>>>>X##X>>>>>>;X44444444444444444444",
"44444444444444444444444@;;X#;;;;XXX>>>>>>>>@44444444444444444444",
"4444444444444444444444X#;;;X@#;:>>>>>>>>>>>;X4444444444444444444",
"4444444444444444444444X;;;;;;X@;>>>>>>>>>>>>@4444444444444444444",
"4444444444444444444444@;;;;;;;;X;>>>>>>>>>>>;X444444444444444444",
"444444444444444444444X#;;;;;;;;#X@;>>>>>>>>>>X444444444444444444",
"44444444444444444444X#;;;;;;;;;@44X;>>>>>>>>>X444444444444444444",
"44444444444444444444@;;;;;;;;;#X444X>>>>>>>>>X444444444444444444",
"4444444444444444444X#;;;;;;;;;@444X:>>>>>>>>;X444444444444444444",
"4444444444444444444@;;;;;;;;;#X444@;:>>>>>>:@4444444444444444444",
"444444444444444444X#;;;;;;;;;@444X#;;:>>>>:;X4444444444444444444",
"444444444444444444X;;;;;;;;;#X444X;;;;::::;@44444444444444444444",
"444444444444444444X;;;;;;;;;@4444X;;;;;;;;#X44444444444444444444",
"444444444444444444X;;;;;;;;#X4444X#;;;;;;;@444444444444444444444",
"444444444444444444X;;;;;;;;@444444@;;;;;;#X444444444444444444444",
"444444444444444444X;;;;;;;#X222222X;;;;;;@4444444444444444444444",
"444444444444444444X;;;;;;;@2222222@;;;;;#X3444444444444444444444",
"444444444444444444X;;;;;;#X222222X#;;;;;@22223444444444444444444",
"444444444444444432X;;;;;;@222222X#;;;;;;X22222234444444444444444",
"444444444444443222X;;;;;;X222222X;;;;;;#X22222222344444444444444",
"444444444444322222X;;;;;;X222222X;;;;;;@222222222223444444444444",
"444444444443222222X;;;;;;@222222X;;;;;;X222222222222344444444444",
"444444444432222222X;;;;;;#X22222X;;;;;;X222222222222234444444444",
"444444444422222222X#;;;;;;;X2222X;;;;;#X222222222222224444444444",
"4444444443222222222X#;;;;;;;X222X#;;;;@2222222222222223444444444",
"44444444422222222222X@#;;;;;X2222X#;;#X2222222222222222444444444",
"4444444442222222222222X@#;#X222222XXXX22222222222222222444444444",
"444444444222222222222222XXX2222222222222222222222222222444444444",
"4444444442222222222222222222222222222222222222222222222444444444",
"4444444443222222222222222222222222222222222222222222223444444444",
"4444444444222222222222222222222222222222222222222222224444444444",
"4444444444322222222222222222222222222222222222222222234444444444",
"4444444444432222222222222222222222222222222222222222344444444444",
"4444444444443222222222222222222222222222222222222223444444444444",
"4444444444444432222222222222222222222222222222222344444444444444",
"4444444444444443222222222222222222222222222222224444444444444444",
"4444444444444444432222222222222222222222222222344444444444444444",
"4444444444444444444432222222222222222222222344444444444444444444",
"4444444444444444444444444322222222222234444444444444444444444444",
"4444444444444444444444444444444444444444444444444444444444444444",
"4444444444444444444444444444444444444444444444444444444444444444",
"4444444444444444444444444444444444444444444444444444444444444444",
"4444444444444444444444444444444444444444444444444444444444444444",
"4444444444444444444444444444444444444444444444444444444444444444",
"4444444444444444444444444444444444444444444444444444444444444444",
"4444444444444444444444444444444444444444444444444444444444444444",
"4444444444444444444444444444444444444444444444444444444444444444",
"4444444444444444444444444444444444444444444444444444444444444444",
"4444444444444444444444444444444444444444444444444444444444444444",
"4444444444444444444444444444444444444444444444444444444444444444",
"4444444444444444444444444444444444444444444444444444444444444444",
"4444444444444444444444444444444444444444444444444444444444444444",
"4444444444444444444444444444444444444444444444444444444444444444",
"4444444444444444444444444444444444444444444444444444444444444444",
"4444444444444444444444444444444444444444444444444444444444444444",
"4444444444444444444444444444444444444444444444444444444444444444",
"4444444444444444444444444444444444444444444444444444444444444444",
"4444444444444444444444444444444444444444444444444444444444444444",
"4444444444444444444444444444444444444444444444444444444444444444"
};
