/* XPM */
static char *output_28[] = {
/* columns rows colors chars-per-pixel */
"64 130 24 1 ",
"  c black",
". c #222034",
"X c #45212D",
"o c #333A6C",
"O c #3F3F74",
"+ c #3C447C",
"@ c #46426C",
"# c #954A51",
"$ c #CB7173",
"% c #4F5AA5",
"& c #6A78AC",
"* c #616FCB",
"= c #7C8DB5",
"- c #639BFF",
"; c #9C859F",
": c #F5A489",
"> c #F9BF99",
", c #FFE0B1",
"< c #A6AEE1",
"1 c #E1EAFD",
"2 c white",
"3 c #3F3F74",
"4 c #5C5CA9",
"5 c None",
/* pixels */
"5555555555555555555555555555555555555555555555555555555555555555",
"5555555555555555555555555555555555555555555555555555555555555555",
"5555555555555555555555555555555555555555555555555555555555555555",
"5555555555555555555555555555555555555555555555555555555555555555",
"5555555555555555555555555555555555555555555555555555555555555555",
"5555555555555555555555555555555555555555555555555555555555555555",
"5555555555555555555555555555555555555555555555555555555555555555",
"5555555555555555555555555555555555555555555555555555555555555555",
"5555555555555555555555555555555555555555555555555555555555555555",
"5555555555555555555555555555555555555555555555555555555555555555",
"5555555555555555555555555555555555555555555555555555555555555555",
"5555555555555555555555555555555555555555555555555555555555555555",
"5555555555555555555555555555555555555555555555555555555555555555",
"5555555555555555555555555555555555555555555555555555555555555555",
"5555555555555555555555555555555555555555555555555555555555555555",
"5555555555555555555555555555555555555555555555555555555555555555",
"5555555555555555555555555555555555555555555555555555555555555555",
"5555555555555555555555555555555555555555555555555555555555555555",
"5555555555555555555555555555555555555555555555555555555555555555",
"5555555555555555555555555555.........555555555555555555555555555",
"55555555555555555555555555.+%%%+.+%%%+.5555555555555555555555555",
"555555555555555555555555.+%****%+%****%+.55555555555555555555555",
"55555555555555555555555.********%********.5555555555555555555555",
"5555555555555555555555.******.o%%%o.******.555555555555555555555",
"555555555555555555555.****oooo%***%oooo****.55555555555555555555",
"55555555555555555555.+**oo%**o*****+%*%oo**+.5555555555555555555",
"55555555555555555555o%*o%****+*****%+***%o*%o5555555555555555555",
"5555555555555555555.+**o**%**%******+****o**+.555555555555555555",
"5555555555555555555o%*o%**%**%******+****%o*%o555555555555555555",
"5555555555555555555+*%o**%***%******+*****o%*+555555555555555555",
"555555555555555555.+*+o**%***%******o%****o+*+.55555555555555555",
"555555555555555555.+%o%**%***%******o+%***%o%+.55555555555555555",
"555555555555555555.++o***%***+%*****%.o****o++.55555555555555555",
"555555555555555555.+.%**%o***+o******.o%***%.+.55555555555555555",
"5555555555555555...o%***oo**%oo%*****.oo****%o...555555555555555",
"5555555555555555.o%%***%..%*oo.o%****+.oo%***%%o.555555555555555",
"5555555555555555.%%**%oo.ooo..,..o%*%+.+ooo%**%%.555555555555555",
"55555555555555555.o%%oo+....>>>>>.......++oo%%o.5555555555555555",
"55555555555555555X.ooo+.:::::>>>>>>>::::..+ooo.X5555555555555555",
"5555555555555555.X:....$    $:>>>>>:$    $....:X.555555555555555",
"5555555555555555.+X.++.      $>>>>>$      .++.X+.555555555555555",
"5555555555555555.+.o%%o$X;    >,,,>    ;X$o%%o.+.555555555555555",
"5555555555555555.+o%*%.>#2OO2O,,,,,O2OO2#>.%*%o+.555555555555555",
"5555555555555555.+o**+#,:2-OO-,,,,,-OO-2:,#+**o+.555555555555555",
"5555555555555555.+.%*+X:,:2--,,,,,,,--2:,:X+*%.+.555555555555555",
"5555555555555555o++o*+%X:>:>>,,,,,,,>>:>:X%+*o++o555555555555555",
"555555555555555.+++.%o%%X:,,,,,,,,,,,,,:X%%o%.+++.55555555555555",
"555555555555555.+++%..%X.X:,,,,,,,,,,,:X.X%..%+++.55555555555555",
"555555555555555.++%%%X#:@.X#:,,$:$,,:#X.@:#X%%%++.55555555555555",
"555555555555555.+%%%X:,:@<@$X#:,,,:#X$@<@:,:X%%%+.55555555555555",
"555555555555555o%%%X,,,,@<@#$$XXXXX$$#@<@,,,,X%%%o55555555555555",
"55555555555555.+%%X:,,,,@2@:#$$$$$$$#:@2@,,,,:X%%+.5555555555555",
"55555555555555.%%%#,,,,,&2&>,,,,,,,,,>&2&,,,,,#%%%.5555555555555",
"55555555555555.%%X:,,,,@<11@>>,,,,,>>@11<@,,,,:X%%.5555555555555",
"55555555555555.%%X,,,,@<1111&@>$#$>@&1111<@,,,,X%%.5555555555555",
"55555555555555.%%#,,,@11122222&>$>&22222111@,,,#%%.5555555555555",
"55555555555555.%X:,,@1122222221&@&1222222211@,,:X%.5555555555555",
"55555555555555o%X,,@1122222222212122222222211@,,X%o5555555555555",
"5555555555555.+*#,,&1222222222221222222222221&,,#*+.555555555555",
"555555555555.%*X:,@<2<111222222222222222111<2<@,:X*%.55555555555",
"555555555555.+%X,,@1<12221222222122222212221<1@,,X%+.55555555555",
"5555555555555..#,,@1<11221222222<22222212211<1@,,#..555555555555",
"55555555555555X:,,@<=1=21<22221<=<12222<12=1=<@,,:X5555555555555",
"55555555555555#,,,@==<&=<=1112222222111=<=&<==@,,,#5555555555555",
"5555555555555X:,,,,&=<<<<=<<<11<1<11<<<=<<<<=&,,,,:X555555555555",
"5555555555555#,,,,,@&=&&=<<<11<222<11<<<=&&=&@,,,,:#555555555555",
"555555555555X:,,,,,:@&==<<<111<212<111<<<==&@:,,,,,:X55555555555",
"555555555555#,,,,,,#5X@&12111<12121<11121&@X5#,,,,,,#55555555555",
"55555555555X:,,,,,:X5#::@@&1<122&221<1&@@::#5X:,,,,,:X5555555555",
"55555555555#,,,,,,#5X@,,,,,@@@@@&@@@@@,,,,,@X5#,,,,,,#5555555555",
"5555555555X:,,,,,:X5@<&@@@@,,,,,$,,,,,@@@@&<@5X:,,,,,:X555555555",
"5555555555#,,,,,,#55@12221<&@@,:#:,@@&<12221@55#,,,,,,#555555555",
"555555555X:,,,,,:X5X@22222221<&@@@&<12222222@X5X:,,,,,:X55555555",
"55555555X:,,,,,,#55X,@@&<122222222222221<&@@,X55#,,,,,,:X5555555",
"5555555X:::,,,,:X55#,,,,@@&<122212221<&@@,,,,#55X:,,,,:::X555555",
"555555X$:::::::#55X:,,,,,,,@&<12<21<&@,,,,,,,:X55#:::::::$X55555",
"55555X$::$::$::X55X,,,,,,,,,@&<<=<<&@,,,,,,,,,X55X::$::$::$X5555",
"55555X$:#:::#::X55X,,,,,,,,,,,@=&=@,,,,,,,,,,,X55X::#:::#:$X5555",
"55555X$#:::#::$X55X,,,,,,,,,,,,@@@,,,,,,,,,,,,X55X$::#:::#$X5555",
"555555X$$X#:::X555X,,,,,,,,,,,,,#,,,,,,,,,,,,,X555X:::#X$$X55555",
"555555XXX5X$$X5555X:,,,,,,,,,,,,$,,,,,,,,,,,,:X5555X$$X5XXX55555",
"55555555555XX555555#,,,,,,,,,,,,:,,,,,,,,,,,,#555555XX5555555555",
"5555555555555555555X:,,,,,,,,,,,:,,,,,,,,,,,:X555555555555555555",
"55555555555555555555#,,,,,,,,,,,:,,,,,,,,,,,#5555555555555555555",
"55555555555555555555X:,,,,,,,,,,$,,,,,,,,,,:X5555555555555555555",
"555555555555555555555#,,,,,,,,,,#,,,,,,,,,,#55555555555555555555",
"555555555555555555555X,,,,,,,,,,#,,,,,,,,,,X55555555555555555555",
"555555555555555555555X:,,,,,,,,,#,,,,,,,,,:X55555555555555555555",
"5555555555555555555555#>,,,,,,,>X>,,,,,,,>#555555555555555555555",
"5555555555555555555555X>,,,,,,,:X:,,,,,,,>X555555555555555555555",
"5555555555555555555555X:>,,,,,>:X:>,,,,,>:X555555555555555555555",
"55555555555555555555543#:>>>>>::X::>>>>>:#4555555555555555555555",
"55555555555555555543333X::::::::X::::::::X3334555555555555555555",
"55555555555555554333333X::::::::X::::::::X3333345555555555555555",
"555555555555554333333333#:::::::X:::::::#33333333455555555555555",
"555555555555433333333333X:::::::X:::::::X33333333334555555555555",
"555555555554333333333333X:::::::X:::::::X33333333333455555555555",
"555555555543333333333333X:::::::X:::::::X33333333333345555555555",
"555555555533333333333333X:::::::X:::::::X33333333333335555555555",
"5555555554333333333333333#::::::X::::::#333333333333334555555555",
"5555555553333333333333333X:>>>>:X:>>>>:X333333333333333555555555",
"5555555553333333333333333X>>>>>>X>>>>>>X333333333333333555555555",
"5555555553333333333333333X>>,,>>X>>,,>>X333333333333333555555555",
"5555555553333333333333333X:,,,,:X:,,,,:X333333333333333555555555",
"55555555543333333333333333X:>>:X3X:>>:X3333333333333334555555555",
"555555555533333333333333333XXXX333XXXX33333333333333335555555555",
"5555555555433333333333333333333333333333333333333333345555555555",
"5555555555543333333333333333333333333333333333333333455555555555",
"5555555555554333333333333333333333333333333333333334555555555555",
"5555555555555543333333333333333333333333333333333455555555555555",
"5555555555555555333333333333333333333333333333334555555555555555",
"5555555555555555543333333333333333333333333333455555555555555555",
"5555555555555555555543333333333333333333333455555555555555555555",
"5555555555555555555555555433333333333345555555555555555555555555",
"5555555555555555555555555555555555555555555555555555555555555555",
"5555555555555555555555555555555555555555555555555555555555555555",
"5555555555555555555555555555555555555555555555555555555555555555",
"5555555555555555555555555555555555555555555555555555555555555555",
"5555555555555555555555555555555555555555555555555555555555555555",
"5555555555555555555555555555555555555555555555555555555555555555",
"5555555555555555555555555555555555555555555555555555555555555555",
"5555555555555555555555555555555555555555555555555555555555555555",
"5555555555555555555555555555555555555555555555555555555555555555",
"5555555555555555555555555555555555555555555555555555555555555555",
"5555555555555555555555555555555555555555555555555555555555555555",
"5555555555555555555555555555555555555555555555555555555555555555",
"5555555555555555555555555555555555555555555555555555555555555555",
"5555555555555555555555555555555555555555555555555555555555555555",
"5555555555555555555555555555555555555555555555555555555555555555",
"5555555555555555555555555555555555555555555555555555555555555555"
};
