/* XPM */
static char *output_9[] = {
/* columns rows colors chars-per-pixel */
"64 130 23 1 ",
"  c black",
". c #222034",
"X c #45212D",
"o c #3F3F74",
"O c #3C447C",
"+ c #46426C",
"@ c #954A51",
"# c #CB7173",
"$ c #4F5AA5",
"% c #6A78AC",
"& c #616FCB",
"* c #7C8DB5",
"= c #639BFF",
"- c #9C859F",
"; c #F5A489",
": c #F9BF99",
"> c #FFE0B1",
", c #A6AEE1",
"< c #E1EAFD",
"1 c white",
"2 c #3F3F74",
"3 c #5C5CA9",
"4 c None",
/* pixels */
"4444444444444444444444444444444444444444444444444444444444444444",
"4444444444444444444444444444444444444444444444444444444444444444",
"4444444444444444444444444444444444444444444444444444444444444444",
"4444444444444444444444444444444444444444444444444444444444444444",
"4444444444444444444444444444444444444444444444444444444444444444",
"4444444444444444444444444444444444444444444444444444444444444444",
"4444444444444444444444444444444444444444444444444444444444444444",
"4444444444444444444444444444444444444444444444444444444444444444",
"4444444444444444444444444444444444444444444444444444444444444444",
"4444444444444444444444444444444444444444444444444444444444444444",
"4444444444444444444444444444444444444444444444444444444444444444",
"4444444444444444444444444444.........444444444444444444444444444",
"44444444444444444444444444.O$&&&&&&&$O.4444444444444444444444444",
"444444444444444444444444.O$&&&&&&&&&&&$O.44444444444444444444444",
"44444444444444444444444.$&&&&&&&&&&&&&&&$.4444444444444444444444",
"4444444444444444444444.&&&&&&&&&&&&&&&$OO...44444444444444444444",
"444444444444444444444.$&&&&&&&&&&&&&$$&$$OOO.4444444444444444444",
"444444444444444444444O&&&&&&&&&&&&&$&&$&&$$$$.444444444444444444",
"44444444444444444444.$&&&&&&&&&&&&$&&$&&$O&&&&.44444444444444444",
"44444444444444444444O&&&&&&&&&&&&.&&$&&&O$&&&&O44444444444444444",
"4444444444444444444.$&&&&&&&&&&&&O&$&&&&$&&&&&$.4444444444444444",
"4444444444444444444.&&&&&&&&&&&&&$&O&&&&$&&&&&&O4444444444444444",
"4444444444444444444.&&&&&&&&&&&&.&$O&&&&O&&&&&&$4444444444444444",
"4444444444444444444.&&&&&&&&&&&&.&O$&&&&O&&&&&&$.444444444444444",
"4444444444444444444O&&&&&&&&&&&$O&.&&&&&O&&&&&&$.444444444444444",
"444444444444444444.$&&&&&&&&&&$.$&.$&&&$.$&&&&$$.444444444444444",
"444444444444444444.$$&&&&&&&&$O.$$.$$&$$.O&&&$$$.444444444444444",
"444444444444444444.$$&&&&&&&$OO.$$O$$$$$..$&&$$O.444444444444444",
"444444444444444444.$$$&&&&&$OOO.$.$&$$$$..O$$$$O4444444444444444",
"444444444444444444.$$$$$$$O...O.$.$$$OO.:.O$$O..4444444444444444",
"444444444444444444.$$$$$$$.@X@..$......;;:... 444444444444444444",
"444444444444444444.$$$$$$O@:>>@.$$$$.#   #:X44444444444444444444",
"444444444444444444.$$$$$$.X>;#;.$$$$.     ;X44444444444444444444",
"444444444444444444.$$$$$$.X>:;>.$$$$.X-    @44444444444444444444",
"444444444444444444.$$$$$$O@;:;>.$$$$.@1o1;:#@X444444444444444444",
"444444444444444444.$$$$$$O.X:#;.$$$$.;1oo:>:;#X44444444444444444",
"444444444444444444.$$$$$$OO@;:>.$$$$.>;==:>>:;X44444444444444444",
"444444444444444444O$$$$$$OO.X;:@O$$$.>:;:>>>:@444444444444444444",
"44444444444444444.$$$$$$OOOO.XXX.$$$.>>>>>>:;X444444444444444444",
"44444444444444444.$$$$$$OOOO.X##XO$$.>>>>>:;X4444444444444444444",
"44444444444444444.$$$$$$OOOO.@###.$$.::::@#X44444444444444444444",
"44444444444444444.$$$$$$OOO.X#####...;:::;X444444444444444444444",
"44444444444444444.$$$$$OOO.X+++;####@@@XXX4444444444444444444444",
"44444444444444444.$$$$$OO.++,,,++####+%+444444444444444444444444",
"44444444444444444.$$$$$O..**%%%*,+####+*+44444444444444444444444",
"44444444444444444.$$$$OO.*%+;;;+1,+@#;:+*+4444444444444444444444",
"44444444444444444.$$$$O..+;:>>:;+1,+>:#:%<*+44444444444444444444",
"44444444444444444.$$$$O.+;>>>>>>:%1,+::#+111+4444444444444444444",
"44444444444444444.$O$OO.X:>>>>>>:+*<*%+%*1111+444444444444444444",
"44444444444444444.$O$OO.X>>>>>>>:;%<<111<,<111+44444444444444444",
"44444444444444444.$OOOO.X>>>>>>>#;+<11111111<11+4444444444444444",
"444444444444444444OOOOO.X>>>>>>>#:+1111111<,,11%4444444444444444",
"444444444444444444.OOOO.X>>>>>>>#:%111111111*11*+444444444444444",
"444444444444444444.OO.O.X>>>>>>>#+*111111111,11,*444444444444444",
"444444444444444444.O..O.X>>>>>>>#%,1111111111*<,,+44444444444444",
"444444444444444444..4...X>>>>>>>#*<1111111111*,,,+44444444444444",
"444444444444444444444444X>>>>>>>@,111111111111%**+44444444444444",
"444444444444444444444444X>>>>>>>@<111111111111+++444444444444444",
"444444444444444444444444X>>>>>>>@<111111111111*+4444444444444444",
"444444444444444444444444X>>>>>>>X<11<111111111,+4444444444444444",
"444444444444444444444444X>>>>>>>X<11,,<1111<,**+4444444444444444",
"44444444444444444444444+X>>>>>>>X<1<,,,,<<,<1,*+4444444444444444",
"44444444444444444444444+X>>>>>>>X<1<,,,,,,*<<,*+4444444444444444",
"4444444444444444444444+,X>>>>>>>X11<*%,,,,*<,*+44444444444444444",
"4444444444444444444444+,X>>>>>>>X111,*+*,%,,*+444444444444444444",
"4444444444444444444444++X>>>>>>>X<11<,%+++%%+4444444444444444444",
"4444444444444444444444+*X>>>>>>;X%*11<,,*+++44444444444444444444",
"4444444444444444444444+,X>>>>>:;X%****%++44444444444444444444444",
"4444444444444444444444+,X>>>:;;;@111<,+4444444444444444444444444",
"4444444444444444444444+,X>>>>>>:#X++++X4444444444444444444444444",
"4444444444444444444444++X>>>>>>>;;X>>>X4444444444444444444444444",
"4444444444444444444444X;X>>>>>>>#;@>>>X4444444444444444444444444",
"44444444444444444444444@X>>>>>>:>#;X>;X4444444444444444444444444",
"44444444444444444444444XX>:>>>>;>#;X>@44444444444444444444444444",
"444444444444444444444444X>;>>>>#>#;X>X44444444444444444444444444",
"444444444444444444444444X:#:>>:#:#X>>X44444444444444444444444444",
"444444444444444444444444X;@;;;;@;@>>;X44444444444444444444444444",
"444444444444444444444444X;@;;;;@;@>>@444444444444444444444444444",
"444444444444444444444444XX@;;;;@;@>>X444444444444444444444444444",
"44444444444444444444444444XXXXXXXX>:X444444444444444444444444444",
"44444444444444444444444444@;>>>>>>>;X444444444444444444444444444",
"4444444444444444444444444X#X:>>>>>:@4444444444444444444444444444",
"4444444444444444444444444@;@;:>>>:;X4444444444444444444444444444",
"444444444444444444444444X#X#;;:::;;X4444444444444444444444444444",
"444444444444444444444444X;@;;;;;;;;X4444444444444444444444444444",
"444444444444444444444444XX#;;;;;;;;X4444444444444444444444444444",
"4444444444444444444444444@;;;;;;;;#X2222344444444444444444444444",
"444444444444444444444443X#;;;;;;;;@22222222234444444444444444444",
"444444444444444444443222X;;;;;;;;;X22222222222234444444444444444",
"444444444444444444322222X#;;;;;;;;X22222222222222344444444444444",
"4444444444444444322222222@;;;;;;;#X22222222222222223444444444444",
"4444444444444432222222222X;;;;;;;@222222222222222222234444444444",
"4444444444444322222222222X;;;;;;;X222222222222222222223444444444",
"4444444444443222222222222X#;;;;;;XX22222222222222222222344444444",
"44444444444422222222222222@;;;;;;X;X2222222222222222222244444444",
"44444444444322222222222222X;;;;;;@;;X222222222222222222234444444",
"44444444444222222222222222X;;;;;;#X;X222222222222222222224444444",
"44444444444222222222222222X;;;;;;;;X2222222222222222222224444444",
"44444444444222222222222222X;;;;;;;;;X222222222222222222224444444",
"44444444444222222222222222X;;;;;;;;;X222222222222222222224444444",
"444444444443222222222222222XX@#;;;;X2222222222222222222234444444",
"444444444444222222222222222222XXXXX22222222222222222222244444444",
"4444444444443222222222222222222222222222222222222222222344444444",
"4444444444444322222222222222222222222222222222222222223444444444",
"4444444444444432222222222222222222222222222222222222234444444444",
"4444444444444444322222222222222222222222222222222223444444444444",
"4444444444444444432222222222222222222222222222222244444444444444",
"4444444444444444444322222222222222222222222222223444444444444444",
"4444444444444444444444322222222222222222222223444444444444444444",
"4444444444444444444444444443222222222222344444444444444444444444",
"4444444444444444444444444444444444444444444444444444444444444444",
"4444444444444444444444444444444444444444444444444444444444444444",
"4444444444444444444444444444444444444444444444444444444444444444",
"4444444444444444444444444444444444444444444444444444444444444444",
"4444444444444444444444444444444444444444444444444444444444444444",
"4444444444444444444444444444444444444444444444444444444444444444",
"4444444444444444444444444444444444444444444444444444444444444444",
"4444444444444444444444444444444444444444444444444444444444444444",
"4444444444444444444444444444444444444444444444444444444444444444",
"4444444444444444444444444444444444444444444444444444444444444444",
"4444444444444444444444444444444444444444444444444444444444444444",
"4444444444444444444444444444444444444444444444444444444444444444",
"4444444444444444444444444444444444444444444444444444444444444444",
"4444444444444444444444444444444444444444444444444444444444444444",
"4444444444444444444444444444444444444444444444444444444444444444",
"4444444444444444444444444444444444444444444444444444444444444444",
"4444444444444444444444444444444444444444444444444444444444444444",
"4444444444444444444444444444444444444444444444444444444444444444",
"4444444444444444444444444444444444444444444444444444444444444444",
"4444444444444444444444444444444444444444444444444444444444444444"
};
