/* XPM */
static char *output_16[] = {
/* columns rows colors chars-per-pixel */
"64 130 24 1 ",
"  c black",
". c #222034",
"X c #45212D",
"o c #3F3F74",
"O c #3C447C",
"+ c #46426C",
"@ c #8F563B",
"# c #954A51",
"$ c #CB7173",
"% c #4F5AA5",
"& c #6A78AC",
"* c #616FCB",
"= c #7C8DB5",
"- c #639BFF",
"; c #9C859F",
": c #F5A489",
"> c #F9BF99",
", c #FFE0B1",
"< c #A6AEE1",
"1 c #E1EAFD",
"2 c white",
"3 c #3F3F74",
"4 c #5C5CA9",
"5 c None",
/* pixels */
"5555555555555555555555555555555555555555555555555555555555555555",
"5555555555555555555555555555555555555555555555555555555555555555",
"5555555555555555555555555555555555555555555555555555555555555555",
"5555555555555555555555555555555555555555555555555555555555555555",
"5555555555555555555555555555555555555555555555555555555555555555",
"5555555555555555555555555555555555555555555555555555555555555555",
"5555555555555555555555555555555555555555555555555555555555555555",
"5555555555555555555555555555555555555555555555555555555555555555",
"5555555555555555555555555555555555555555555555555555555555555555",
"5555555555555555555555555555555555555555555555555555555555555555",
"5555555555555555555555555555555555555555555555555555555555555555",
"5555555555555555555555555555555555555555555555555555555555555555",
"5555555555555555555555555555555555555555555555555555555555555555",
"5555555555555555555555555555.........555555555555555555555555555",
"55555555555555555555555555.O%*******%O.5555555555555555555555555",
"555555555555555555555555.O%***********%O.55555555555555555555555",
"55555555555555555555555.%***************%.5555555555555555555555",
"5555555555555555555555.***************%OO...55555555555555555555",
"555555555555555555555.%*************%%*%%OOO..555555555555555555",
"555555555555555555555O*************%**%**%%%%O.55555555555555555",
"55555555555555555555.%************%**%**%O****O.5555555555555555",
"55555555555555555555O************.**%***O%****%.5555555555555555",
"5555555555555555555.%************O*%****%******O5555555555555555",
"5555555555555555555.************.%*O****%******%.555555555555555",
"5555555555555555555.************O*%O****O******%.555555555555555",
"5555555555555555555.***********.%*O%****O******%.555555555555555",
"5555555555555555555O***********.%*.*****O******%.555555555555555",
"555555555555555555.%**********%.%*.%***%.%****%%.555555555555555",
"555555555555555555.%%********%O.%%.%%*%%.O***%%%.555555555555555",
"555555555555555555.%%*******%OO.%%O%%%%%..%**%%O5555555555555555",
"555555555555555555.%%%*****%OOO.%.**%%%%.@O%%%%.5555555555555555",
"555555555555555555.%%%%%%%O...O.%.O%%%O.>>.%%O.55555555555555555",
"555555555555555555.%%%%%%%.#X#..%O.....::>>.. 555555555555555555",
"555555555555555555.%%%%%%O#>,,#.%%%%.$   $>X55555555555555555555",
"555555555555555555.%%%%%%.X,:$:.%%%%.     :X55555555555555555555",
"555555555555555555O%%%%%%.X,>:,.%%%%.X;    #55555555555555555555",
"55555555555555555.%%%%%%%O#:>:,>O%%%.#2o2:>$#X555555555555555555",
"55555555555555555.%%%%%%%O.X>$:>.%%%.:2oo>,>:$X55555555555555555",
"55555555555555555.%%%%%%%OO#:>,,.%%%.,:-->,,>:X55555555555555555",
"55555555555555555O%%%%%%%OO.X:>#.%%%.,>:>,,,>#555555555555555555",
"5555555555555555.%%%%%%%%OOO.XXX$O%%.,,,,,,>:X555555555555555555",
"5555555555555555.%%%%%%%OOOO.X$$X.%%.,,,,,>:X5555555555555555555",
"5555555555555555.%%%%%%%OOOO.#$$$.%%.>>>>#$X55555555555555555555",
"5555555555555555.%%%%%%%OOO.X$$$$$...:>>>:X555555555555555555555",
"5555555555555555O%%%%%%%OO.X+++:$$$$###XXX5555555555555555555555",
"555555555555555.%%%%%%%OO.++<<<++$$$$+&+555555555555555555555555",
"555555555555555.%%%%%%%OO+==&&&=<+$$$$+=+55555555555555555555555",
"555555555555555.%%%%%%OO.=&+,,>+2<+#$:>+=&+555555555555555555555",
"555555555555555.%%%%%%OO++,,,,,>+2<+,,$>&1=&+5555555555555555555",
"555555555555555.%%%%%OO.+,,,,,,,:&2<+>>$+2222+555555555555555555",
"555555555555555.%%%O%OO.X,,,,,,,:+=1=&+&=22222+55555555555555555",
"555555555555555.%%%O%OO.X,,,,,,,$>&112221<12122+5555555555555555",
"555555555555555.%%%OOOO.X,,,,,,,$>+122222222<22&5555555555555555",
"5555555555555555O%%OOOO.X,,,,,,,#>+22222221<=22=+555555555555555",
"5555555555555555.%%OOOO.X,,,,,,,#,&222222222<22<&555555555555555",
"5555555555555555.%%OOOO.X,,,,,,,#+=2222222222=1<=555555555555555",
"55555555555555555.%..OO.X,,,,,,:#&12222222222=<<=+55555555555555",
"555555555555555555..5.O.#,,,,,,$#=122222222222&=<+55555555555555",
"5555555555555555555555.X:,,,,,,#=<222222222222++=+55555555555555",
"55555555555555555555555X,,,,,,,X=1222222222222=++555555555555555",
"55555555555555555555555X,,,,,,,X&22<1122222222=+5555555555555555",
"55555555555555555555555X,,,,,,,X=22<<<1122211<=+5555555555555555",
"55555555555555555555555X,,,,,,,X<21<<<<<<1122<=+5555555555555555",
"5555555555555555555555+X,,,,,,,X121<<<<<<<=22<+55555555555555555",
"5555555555555555555555+X,,,,,,,X1211+=<<<<&11=+55555555555555555",
"5555555555555555555555+X,,,,,,,X<221=+&===<<&+555555555555555555",
"5555555555555555555555+X,,,,,,,X&121<<=&+&==+5555555555555555555",
"5555555555555555555555+X,,,,,,,X&&=21<<<=+++55555555555555555555",
"5555555555555555555555+X,,,,,,>X122===&++55555555555555555555555",
"5555555555555555555555+X,,,,,>:X++++++X5555555555555555555555555",
"5555555555555555555555+X,,,,>::#,,,,,,X5555555555555555555555555",
"5555555555555555555555XX,,,,,,>$X,,,,,X5555555555555555555555555",
"5555555555555555555555XX,,,,,,,::X,,,>X5555555555555555555555555",
"55555555555555555555555X,,,,,,,$:#,,,:X5555555555555555555555555",
"55555555555555555555555X,>,,,,>,$:X,,#55555555555555555555555555",
"55555555555555555555555X>:,,,,:,$:X,,X55555555555555555555555555",
"55555555555555555555555X:$>>>>$,$:X,>X55555555555555555555555555",
"55555555555555555555555X:#::::#>#X,,:X55555555555555555555555555",
"55555555555555555555555X:#::::#:#,,,#555555555555555555555555555",
"555555555555555555555555XXXXXX#:#,,,X555555555555555555555555555",
"55555555555555555555555555#$,,XXX,,>X555555555555555555555555555",
"5555555555555555555555555X$#>,,,,,,:X555555555555555555555555555",
"5555555555555555555555555X:X:>,,,,>#5555555555555555555555555555",
"5555555555555555555555555#:#:::::::X5555555555555555555555555555",
"555555555555555555555555X$X$:::::::X5555555555555555555555555555",
"555555555555555555555555XX:::::::::X5555555555555555555555555555",
"555555555555555555555555X#::::::::$X3333455555555555555555555555",
"555555555555555555555554X$::::::::#33333333345555555555555555555",
"555555555555555555554333X:::::::::X33333333333345555555555555555",
"555555555555555555433333X$::::::::X33333333333333455555555555555",
"5555555555555555433333333#:::::::$X33333333333333334555555555555",
"5555555555555543333333333X:::::::#333333333333333333345555555555",
"5555555555555433333333333X:::::::X333333333333333333334555555555",
"5555555555554333333333333X$::::::XX33333333333333333333455555555",
"55555555555533333333333333#::::::X:X3333333333333333333355555555",
"55555555555433333333333333X::::::#::X333333333333333333345555555",
"55555555555333333333333333X::::::$X:X333333333333333333335555555",
"55555555555333333333333333X::::::::X3333333333333333333335555555",
"55555555555333333333333333X:::::::::X333333333333333333335555555",
"55555555555333333333333333X:::::::::X333333333333333333335555555",
"555555555554333333333333333XX#$::::X3333333333333333333345555555",
"555555555555333333333333333333XXXXX33333333333333333333355555555",
"5555555555554333333333333333333333333333333333333333333455555555",
"5555555555555433333333333333333333333333333333333333334555555555",
"5555555555555543333333333333333333333333333333333333345555555555",
"5555555555555555433333333333333333333333333333333334555555555555",
"5555555555555555543333333333333333333333333333333355555555555555",
"5555555555555555555433333333333333333333333333334555555555555555",
"5555555555555555555555433333333333333333333334555555555555555555",
"5555555555555555555555555554333333333333455555555555555555555555",
"5555555555555555555555555555555555555555555555555555555555555555",
"5555555555555555555555555555555555555555555555555555555555555555",
"5555555555555555555555555555555555555555555555555555555555555555",
"5555555555555555555555555555555555555555555555555555555555555555",
"5555555555555555555555555555555555555555555555555555555555555555",
"5555555555555555555555555555555555555555555555555555555555555555",
"5555555555555555555555555555555555555555555555555555555555555555",
"5555555555555555555555555555555555555555555555555555555555555555",
"5555555555555555555555555555555555555555555555555555555555555555",
"5555555555555555555555555555555555555555555555555555555555555555",
"5555555555555555555555555555555555555555555555555555555555555555",
"5555555555555555555555555555555555555555555555555555555555555555",
"5555555555555555555555555555555555555555555555555555555555555555",
"5555555555555555555555555555555555555555555555555555555555555555",
"5555555555555555555555555555555555555555555555555555555555555555",
"5555555555555555555555555555555555555555555555555555555555555555",
"5555555555555555555555555555555555555555555555555555555555555555",
"5555555555555555555555555555555555555555555555555555555555555555",
"5555555555555555555555555555555555555555555555555555555555555555",
"5555555555555555555555555555555555555555555555555555555555555555"
};
