/* XPM */
static char *output_27[] = {
/* columns rows colors chars-per-pixel */
"64 130 26 1 ",
"  c black",
". c #222034",
"X c #45212D",
"o c #333A6C",
"O c #3F3F74",
"+ c #3C447C",
"@ c #46426C",
"# c #954A51",
"$ c #CB7173",
"% c #4F5AA5",
"& c #6A78AC",
"* c #616FCB",
"= c #7C8DB5",
"- c #639BFF",
"; c #9C859F",
": c #F5A489",
"> c #F9BF99",
", c #FFF3AB",
"< c #FFE0B1",
"1 c #9CA2CC",
"2 c #A6AEE1",
"3 c #E1EAFD",
"4 c white",
"5 c #3F3F74",
"6 c #5C5CA9",
"7 c None",
/* pixels */
"7777777777777777777777777777777777777777777777777777777777777777",
"7777777777777777777777777777777777777777777777777777777777777777",
"7777777777777777777777777777777777777777777777777777777777777777",
"7777777777777777777777777777777777777777777777777777777777777777",
"7777777777777777777777777777777777777777777777777777777777777777",
"7777777777777777777777777777777777777777777777777777777777777777",
"7777777777777777777777777777777777777777777777777777777777777777",
"7777777777777777777777777777777777777777777777777777777777777777",
"7777777777777777777777777777777777777777777777777777777777777777",
"7777777777777777777777777777777777777777777777777777777777777777",
"7777777777777777777777777777777777777777777777777777777777777777",
"7777777777777777777777777777777777777777777777777777777777777777",
"7777777777777777777777777777777777777777777777777777777777777777",
"7777777777777777777777777777777777777777777777777777777777777777",
"7777777777777777777777777777777777777777777777777777777777777777",
"777777777777777777777777777.........7777777777777777777777777777",
"7777777777777777777777777.+%%%+.+%%%+.77777777777777777777777777",
"77777777777777777777777.+%****%+%****%+.777777777777777777777777",
"7777777777777777777777.********%********.77777777777777777777777",
"777777777777777777777.******.o%%%o.******.7777777777777777777777",
"77777777777777777777.****oooo%***%oooo****.777777777777777777777",
"7777777777777777777.+**oo%**o*****+%*%oo**+.77777777777777777777",
"7777777777777777777o%*o%****+*****%+***%o*%o77777777777777777777",
"777777777777777777.+**o**%**%******+****o**+.7777777777777777777",
"777777777777777777o%*o%**%**%******+****%o*%o7777777777777777777",
"777777777777777777+*%o**%***%******+*****o%*+7777777777777777777",
"77777777777777777.+*+o**%***%******o%****o+*+.777777777777777777",
"77777777777777777.+%o%**%***%******o+%***%o%+.777777777777777777",
"77777777777777777.++o***%***+%*****%.o****o++.777777777777777777",
"77777777777777777.+.%**%o***+o******.o%***%.+.777777777777777777",
"77777777777777777.oo***oo**%oo%*****o.o****%o.777777777777777777",
"777777777777777...o%**%o.%*oo.o%****o.oo%****...7777777777777777",
"777777777777777.o%**%oo+.ooo.<.o%**%o.+oooooo*%.7777777777777777",
"7777777777777777.o%%oo+...oo.>>.o++o.>.++++++o.77777777777777777",
"7777777777777777X.ooo+..::..>>>>....:::.......X77777777777777777",
"7777777777777777X:....$    $:>>>>>:$    $.++.:X77777777777777777",
"7777777777777777.X.++.      $>>>>>$      o%%oX.77777777777777777",
"7777777777777777.%o%%o$X;    ><<<>    ;X$+%%o%.77777777777777777",
"7777777777777777.%o**+>#4OO4O<<<<<O4OO4#>+**o%.77777777777777777",
"7777777777777777.%o**+<:4-OO-<<<<<-OO-4:<+**o%.77777777777777777",
"7777777777777777.%.%*+:<:4--<<<<<<<--4:<:+*%.%.77777777777777777",
"7777777777777777.%%o*+X:>:>><<<<<<<>>:>:X+*o%%.77777777777777777",
"7777777777777777.%%.%o%X:<<<<<<<<<<<<<:X%o%.%%.77777777777777777",
"7777777777777777+%%%..%%X:<<<<<<<<<<<:..%..%%%+77777777777777777",
"777777777777777.+%%%%%%..X#:<<$:$<<:#.1@%%%%%%+.7777777777777777",
"777777777777777.%%%%%X#@1.$X#:<<<:#X$@2@X%%%%%%.7777777777777777",
"777777777777777.%%%%X:<@2@:$$XXXXX$$:@2@:X%%%%%.7777777777777777",
"777777777777777.%%%X<<<@2@:::$$$$$:::@4&>:X%%%%.7777777777777777",
"777777777777777.%%X:<<<&4@##::$$$::##@44@>#%%%%.7777777777777777",
"777777777777777.%%#<<<@44@<:$:::::$:<&33@>$X%%%.7777777777777777",
"777777777777777.%X:<<<@33&@<<<<<<<<<<@32@>:X%%%.7777777777777777",
"777777777777777.%#<<<<@232&>>>>$,$>>>&32&::#%%%.7777777777777777",
"777777777777777.X:<<<<&2332@>>>:#:>>@3332@:$X%%.7777777777777777",
"777777777777777.#<<<<@233333@>>>#>@&44443&:$X%+.7777777777777777",
"777777777777777X:<<<<&3344444@&22&@3444442@$X%+77777777777777777",
"777777777777777#>><<@234444443234324444443&$X%.77777777777777777",
"77777777777777X:>>>>@3444444443242344444441@X+777777777777777777",
"77777777777777#>>>>>&34444444443&3444444443@#.777777777777777777",
"7777777777777X:>>>>@24444444444444444444443@$X777777777777777777",
"7777777777777X><<<>@34444444443234444444432@$#777777777777777777",
"7777777777777X<<<<<@34444444442124444444432@$$X77777777777777777",
"7777777777777X<<<<<@3134444443443344444432=@@::X7777777777777777",
"7777777777777X:<<<<@=3343444432==23443432=&@@:::X777777777777777",
"77777777777777#<<<<>&133244432=&=2222332=&@&@::::#X7777777777777",
"77777777777777X<<<>>X@23=3332&@@&@=2=2&2&@&&@::::::#XX7777777777",
"77777777777777X#$>>$$X&=2222=@&232@=&==&@&2&@::::::::$#X77777777",
"7777777777777X<<<<$<<#X@@@@@@&&&332@@@@@&2@@#::::>>$:::$X7777777",
"777777777777X:<:<<:<<#X:<<<<@@@@@@@@@@@@@@<<:X::>>>>$:::$X777777",
"77777777777X:$<:<<:<<#>X<<<<<<<XX<<<<<@@@@@@@X:>$>>>:#::#X777777",
"77777777777X:$<$<<#::#:X@<<<<<<:#<<@@&2344332@:>>$##:#::#X777777",
"77777777777X:#:#:::XX::X2&@@<<<>@@&2344444433@X>>>#>:#:$X7777777",
"77777777777X:X$$X$X$$$X23432@@&23444432&@@&&2@7XXXX>:#:X77777777",
"77777777777X$$XXXXXXXX:@2344443444432&@<<<<<@@777X:::XX777777777",
"777777777777XX77777X::::@&234424432&@<<<<<<<:X7777XXX77777777777",
"7777777777777777777X::::::@&22=22=@<<<<<<<<<#7777777777777777777",
"7777777777777777777X::::::::@=&==@<<<<<<<<<<X7777777777777777777",
"7777777777777777777X$::::::::@@@@<<<<<<<<<<<X7777777777777777777",
"77777777777777777777#:::::::::#X#<<<<<<<<<<:X7777777777777777777",
"77777777777777777777X:::::::::$X:<<<<<<<<<<#77777777777777777777",
"77777777777777777777X:::::::::$#<<<<<<<<<<<X77777777777777777777",
"77777777777777777777X$::::::::$#<<<<<<<<<<:X77777777777777777777",
"777777777777777777777#::::::::#$<<<<<<<<<<#777777777777777777777",
"777777777777777777777X::::::::#:<<<<<<<<<:X777777777777777777777",
"777777777777777777777X$:::::::$><<<<<<<<<#7777777777777777777777",
"7777777777777777777777#:::::::$:<<<<<<<<>X7777777777777777777777",
"7777777777777777777777X:::::::$:><<<<<<<:X7777777777777777777777",
"7777777777777777777777X$::::::$::><<<<>:#77777777777777777777777",
"77777777777777777777777#::::::$:::>>>>::X77777777777777777777777",
"77777777777777777777777X$::::$#:::::::::X77777777777777777777777",
"77777777777777777777777X$$::$$#:::::::::X77777777777777777777777",
"777777777777777777777777#$$$$$#$:::::::$X77777777777777777777777",
"777777777777777777777655X$$$$$$#:::::::#556777777777777777777777",
"777777777777777777655555X$$$$$$X:::::::X555556777777777777777777",
"7777777777777777655555555#$$$$$X::::::$X555555567777777777777777",
"7777777777777765555555555X$$$$$X::::::#5555555555677777777777777",
"77777777777765555555555555#$::$X::::::X5555555555556777777777777",
"77777777777655555555555555X::::X><<<>$X5555555555555677777777777",
"77777777776555555555555555X::::X<<<<<#55555555555555567777777777",
"77777777775555555555555555X::::X<<<<>X55555555555555557777777777",
"777777777655555555555555555XXXXX><<<X555555555555555556777777777",
"77777777755555555555555555555555XXXX5555555555555555555777777777",
"7777777775555555555555555555555555555555555555555555555777777777",
"7777777775555555555555555555555555555555555555555555555777777777",
"7777777775555555555555555555555555555555555555555555555777777777",
"7777777776555555555555555555555555555555555555555555556777777777",
"7777777777555555555555555555555555555555555555555555557777777777",
"7777777777655555555555555555555555555555555555555555567777777777",
"7777777777765555555555555555555555555555555555555555677777777777",
"7777777777776555555555555555555555555555555555555556777777777777",
"7777777777777765555555555555555555555555555555555677777777777777",
"7777777777777777555555555555555555555555555555556777777777777777",
"7777777777777777765555555555555555555555555555677777777777777777",
"7777777777777777777765555555555555555555555677777777777777777777",
"7777777777777777777777777655555555555567777777777777777777777777",
"7777777777777777777777777777777777777777777777777777777777777777",
"7777777777777777777777777777777777777777777777777777777777777777",
"7777777777777777777777777777777777777777777777777777777777777777",
"7777777777777777777777777777777777777777777777777777777777777777",
"7777777777777777777777777777777777777777777777777777777777777777",
"7777777777777777777777777777777777777777777777777777777777777777",
"7777777777777777777777777777777777777777777777777777777777777777",
"7777777777777777777777777777777777777777777777777777777777777777",
"7777777777777777777777777777777777777777777777777777777777777777",
"7777777777777777777777777777777777777777777777777777777777777777",
"7777777777777777777777777777777777777777777777777777777777777777",
"7777777777777777777777777777777777777777777777777777777777777777",
"7777777777777777777777777777777777777777777777777777777777777777",
"7777777777777777777777777777777777777777777777777777777777777777",
"7777777777777777777777777777777777777777777777777777777777777777",
"7777777777777777777777777777777777777777777777777777777777777777"
};
