/* XPM */
static char *output_29[] = {
/* columns rows colors chars-per-pixel */
"64 130 25 1 ",
"  c black",
". c #222034",
"X c #45212D",
"o c #333A6C",
"O c #3F3F74",
"+ c #3C447C",
"@ c #46426C",
"# c #954A51",
"$ c #CB7173",
"% c #4F5AA5",
"& c #6A78AC",
"* c #616FCB",
"= c #7C8DB5",
"- c #639BFF",
"; c #9C859F",
": c #F5A489",
"> c #F9BF99",
", c #FFF3AB",
"< c #FFE0B1",
"1 c #A6AEE1",
"2 c #E1EAFD",
"3 c white",
"4 c #3F3F74",
"5 c #5C5CA9",
"6 c None",
/* pixels */
"6666666666666666666666666666666666666666666666666666666666666666",
"6666666666666666666666666666666666666666666666666666666666666666",
"6666666666666666666666666666666666666666666666666666666666666666",
"6666666666666666666666666666666666666666666666666666666666666666",
"6666666666666666666666666666666666666666666666666666666666666666",
"6666666666666666666666666666666666666666666666666666666666666666",
"6666666666666666666666666666666666666666666666666666666666666666",
"6666666666666666666666666666666666666666666666666666666666666666",
"6666666666666666666666666666666666666666666666666666666666666666",
"6666666666666666666666666666666666666666666666666666666666666666",
"6666666666666666666666666666666666666666666666666666666666666666",
"6666666666666666666666666666666666666666666666666666666666666666",
"6666666666666666666666666666666666666666666666666666666666666666",
"6666666666666666666666666666666666666666666666666666666666666666",
"6666666666666666666666666666666666666666666666666666666666666666",
"6666666666666666666666666666666666666666666666666666666666666666",
"6666666666666666666666666666666666666666666666666666666666666666",
"6666666666666666666666666666666666666666666666666666666666666666",
"666666666666666666666666666.........6666666666666666666666666666",
"6666666666666666666666666.+%%%+.+%%%+.66666666666666666666666666",
"66666666666666666666666.+%****%+%****%+.666666666666666666666666",
"6666666666666666666666.********%********.66666666666666666666666",
"666666666666666666666.******.o%%%o.******.6666666666666666666666",
"66666666666666666666.****oooo%***%oooo****.666666666666666666666",
"6666666666666666666.+**oo%**o*****+%*%oo**+.66666666666666666666",
"6666666666666666666o%*o%****+*****%+***%o*%o66666666666666666666",
"666666666666666666.+**o**%**%******+****o**+.6666666666666666666",
"666666666666666666o%*o%**%**%******+****%o*%o6666666666666666666",
"666666666666666666+*%o**%***%******+*****o%*+6666666666666666666",
"66666666666666666.+*+o**%***%******o%****o+*+.666666666666666666",
"66666666666666666.+%o%**%***%******o+%***%o%+.666666666666666666",
"66666666666666666.++o***%***+%*****%.o****o++.666666666666666666",
"66666666666666666.+.%**%o***+o******.o%***%.+.666666666666666666",
"66666666666666666.oo***oo**%oo%*****o.o****%o..66666666666666666",
"666666666666666...o%**%o.%*oo.o%****o.oo%****...6666666666666666",
"666666666666666.o%**%oo+.ooo.<.o%**%o.+oooooo*%.6666666666666666",
"6666666666666666.o%%oo+...oo.>>.o++o.>.++++++o.66666666666666666",
"6666666666666666X.ooo+..::..>>>>....:::.......X66666666666666666",
"6666666666666666X:....$    $:>>>>>:$    $.++.:X.6666666666666666",
"6666666666666666.X.++.      $>>>>>$      o%%oX+.6666666666666666",
"6666666666666666.%o%%o$X;    ><<<>    ;X$+%%o%+.6666666666666666",
"6666666666666666.%o%*+.#3OO3O<<<<<O3OO3#>+%*o.+.6666666666666666",
"6666666666666666.%.o*%+:3-OO-<<<<<-OO-3:<.+*%o+.6666666666666666",
"6666666666666666.%%.%*+<:3--<<<<<<<--3:<:X+*%.+.6666666666666666",
"6666666666666666.%%%o*+:>:>><<<<<<<>>:>:X%+*o++o6666666666666666",
"6666666666666666.%%%.%oX:<<<<<<<<<<<<<:X%%o%.+++.666666666666666",
"6666666666666666.%%%%..%X:<<<<<<<<<<<:X%%%..%+++.666666666666666",
"6666666666666666.%%%%%%X.X#:<<$:$<<:#X#X%%%%%%++.666666666666666",
"6666666666666666.%%%%##:.1@X#:<<<:#..@::#X%%%%%+.666666666666666",
"6666666666666666.%%X#:<<@1@$$XXXXX$@11@<>:X%%%%%o666666666666666",
"6666666666666666.%X:<<<<@1&::$$$$$::&33@<>:X%%%%+.66666666666666",
"6666666666666666.X<<<<<<@33@::$$$:$#@33&<>:X%%%%%.66666666666666",
"6666666666666666.#<<<<<<&33@#$::<<<<<@21$:#X%%%%%.66666666666666",
"6666666666666666X:<<<<:$122&<<<<<<<<>&221&@X%%%%%.66666666666666",
"6666666666666666#<<<<<$#2222&@>>:,>>@233332@%%%%%.66666666666666",
"666666666666666X:<<<<<#&222222&@$:@&33333332@%%%%.66666666666666",
"666666666666666X<<<<<<X133333322@@21333333221@**%o66666666666666",
"666666666666666X<<<<<<X33333333312313333323321@**+.6666666666666",
"666666666666666#<<<<<#&333333333321&3333323311@***%.666666666666",
"66666666666666X:<<<<<X1333333333331=3333323221@%%%+.666666666666",
"66666666666666X<<<<<<X3333332223333=133232221=@....6666666666666",
"66666666666666X<<<<<<X33333212321331&332332=&=@66666666666666666",
"66666666666666X<<<<<<X3$$33133=21321=2321321=&666666666666666666",
"66666666666666X<<<<>:$#<<$21321=321122321211=@666666666666666666",
"66666666666666X:<:$#$:$<<:2133=211112332111=&$#XXX66666666666666",
"66666666666666X$$#<$<<:<<:1233=1111233321==&@$$$$#XX666666666666",
"66666666666666X#<$<:<<:<<$12231=11=23332&&&@$$#$$#X$X66666666666",
"66666666666666X#<:<:<<#::#&2222=&&123321@@@X$#X$$X$XX66666666666",
"666666666666666#:#>$<>XXX:$22221==1121&@<<<#$$#$#$$XX66666666666",
"666666666666666XX#:#::X$::X@@@@&><@&@<<<<<<:X$$#X$$XX66666666666",
"666666666666666X$XXX::XXXX<<<<##$<<<<<<<<<<>X$$X$$#$X66666666666",
"6666666666666666X$$$XXXX<<<<<<#X#<<<<<<<<<<<@XXX$$XX666666666666",
"66666666666666666XXX@&1&@<<<<<$##<<<<<<<<@@&1@XXXX66666666666666",
"666666666666666666X:<@331&@<<<<:><<<<<@&13222@666666666666666666",
"666666666666666666X:<<@3331&@<<<@@@@@&123332@X666666666666666666",
"666666666666666666X:<<<@33321@&1233333331&@@<X666666666666666666",
"666666666666666666X:><<<@23333233333321&@<<<<X666666666666666666",
"666666666666666666X::><<<@&1331333321&@<<<<<<X666666666666666666",
"666666666666666666X$::><<<<&11=1111&@<<<<<<<<X666666666666666666",
"6666666666666666666#:::>>>>:@@&==@@<<<<<<<<<:X666666666666666666",
"6666666666666666666X:::::::::$@@@<<<<<<<<<<<#6666666666666666666",
"6666666666666666666X::::::::::#X#<<<<<<<<<<<X6666666666666666666",
"6666666666666666666X$:::::::::$X$<<<<<<<<<<:X6666666666666666666",
"66666666666666666666#::::::::::#:<<<<<<<<<<#66666666666666666666",
"66666666666666666666X::::::::::#<<<<<<<<<<<X66666666666666666666",
"66666666666666666666X$:::::::::$<<<<<<<<<<:X66666666666666666666",
"666666666666666666666#:::::::::$<<<<<<<<<<#666666666666666666666",
"666666666666666666666X$::::::::$<<<<<<<<<:X666666666666666666666",
"6666666666666666666666#::::::::$<<<<<<<<<#6666666666666666666666",
"6666666666666666666666X$::::::$:<<<<<<<<<X6666666666666666666666",
"66666666666666666666666X:::::$#><<<<<<<<:X6666666666666666666666",
"666666666666666666666544X$$$$X#<<<<<<<<<#45666666666666666666666",
"6666666666666666665444444XXXX4X<<<<<<<<<X44445666666666666666666",
"666666666666666654444444444444X<<<<<<<<<X44444456666666666666666",
"666666666666665444444444444444X><<<<<<<<X44444444566666666666666",
"666666666666544444444444444444X:<<<<<<<<X44444444445666666666666",
"6666666666654444444444444444444#<<<<<<<:X44444444444566666666666",
"6666666666544444444444444444444X<<<<<<<#444444444444456666666666",
"6666666666444444444444444444444X><<<<<>X444444444444446666666666",
"6666666665444444444444444444444X:<<<<<:X444444444444445666666666",
"6666666664444444444444444444444X:<<<>:$X444444444444444666666666",
"6666666664444444444444444444444X::::::#4444444444444444666666666",
"6666666664444444444444444444444X::::::X4444444444444444666666666",
"6666666664444444444444444444444X><<<>$X4444444444444444666666666",
"6666666665444444444444444444444X<<<<<#44444444444444445666666666",
"6666666666444444444444444444444X<<<<<X44444444444444446666666666",
"6666666666544444444444444444444X><<<>X44444444444444456666666666",
"66666666666544444444444444444444XXXXX444444444444444566666666666",
"6666666666665444444444444444444444444444444444444445666666666666",
"6666666666666654444444444444444444444444444444444566666666666666",
"6666666666666666444444444444444444444444444444445666666666666666",
"6666666666666666654444444444444444444444444444566666666666666666",
"6666666666666666666654444444444444444444444566666666666666666666",
"6666666666666666666666666544444444444456666666666666666666666666",
"6666666666666666666666666666666666666666666666666666666666666666",
"6666666666666666666666666666666666666666666666666666666666666666",
"6666666666666666666666666666666666666666666666666666666666666666",
"6666666666666666666666666666666666666666666666666666666666666666",
"6666666666666666666666666666666666666666666666666666666666666666",
"6666666666666666666666666666666666666666666666666666666666666666",
"6666666666666666666666666666666666666666666666666666666666666666",
"6666666666666666666666666666666666666666666666666666666666666666",
"6666666666666666666666666666666666666666666666666666666666666666",
"6666666666666666666666666666666666666666666666666666666666666666",
"6666666666666666666666666666666666666666666666666666666666666666",
"6666666666666666666666666666666666666666666666666666666666666666",
"6666666666666666666666666666666666666666666666666666666666666666",
"6666666666666666666666666666666666666666666666666666666666666666",
"6666666666666666666666666666666666666666666666666666666666666666",
"6666666666666666666666666666666666666666666666666666666666666666"
};
