/* XPM */
static char *output_23[] = {
/* columns rows colors chars-per-pixel */
"64 130 25 1 ",
"  c black",
". c #222034",
"X c #45212D",
"o c #333A6C",
"O c #3F3F74",
"+ c #3C447C",
"@ c #46426C",
"# c #954A51",
"$ c #CB7173",
"% c #4F5AA5",
"& c #6A78AC",
"* c #616FCB",
"= c #7C8DB5",
"- c #639BFF",
"; c #9C859F",
": c #F5A489",
"> c #F9BF99",
", c #FFF3AB",
"< c #FFE0B1",
"1 c #A6AEE1",
"2 c #E1EAFD",
"3 c white",
"4 c #3F3F74",
"5 c #5C5CA9",
"6 c None",
/* pixels */
"6666666666666666666666666666666666666666666666666666666666666666",
"6666666666666666666666666666666666666666666666666666666666666666",
"6666666666666666666666666666666666666666666666666666666666666666",
"6666666666666666666666666666666666666666666666666666666666666666",
"6666666666666666666666666666666666666666666666666666666666666666",
"6666666666666666666666666666666666666666666666666666666666666666",
"6666666666666666666666666666666666666666666666666666666666666666",
"6666666666666666666666666666666666666666666666666666666666666666",
"6666666666666666666666666666666666666666666666666666666666666666",
"6666666666666666666666666666666666666666666666666666666666666666",
"6666666666666666666666666666666666666666666666666666666666666666",
"6666666666666666666666666666666666666666666666666666666666666666",
"6666666666666666666666666666666666666666666666666666666666666666",
"6666666666666666666666666666666666666666666666666666666666666666",
"6666666666666666666666666666666666666666666666666666666666666666",
"6666666666666666666666666666666666666666666666666666666666666666",
"6666666666666666666666666666666666666666666666666666666666666666",
"6666666666666666666666666666666666666666666666666666666666666666",
"6666666666666666666666666666.........666666666666666666666666666",
"66666666666666666666666666.+%%%+.+%%%+.6666666666666666666666666",
"666666666666666666666666.+%****%+%****%+.66666666666666666666666",
"66666666666666666666666.********%********.6666666666666666666666",
"6666666666666666666666.******.o%%%o.******.666666666666666666666",
"666666666666666666666.****oooo%***%oooo****.66666666666666666666",
"66666666666666666666.+**oo%**o*****+%*%oo**+.6666666666666666666",
"66666666666666666666o%*o%****+*****%+***%o*%o6666666666666666666",
"6666666666666666666.+**o**%**%******+****o**+.666666666666666666",
"6666666666666666666o%*o%**%**%******+****%o*%o666666666666666666",
"6666666666666666666+*%o**%***%******+*****o%*+666666666666666666",
"666666666666666666.+*+o**%***%******o%****o+*+.66666666666666666",
"666666666666666666.+%o%**%***%******o+%***%o%+.66666666666666666",
"666666666666666666.++o***%***+%*****%.o****o++.66666666666666666",
"666666666666666666.+.%**%o***+o******.o%***%.+.66666666666666666",
"66666666666666666..oo***oo**%oo%*****o.o****%o.66666666666666666",
"6666666666666666...o%**%o.%*oo.o%****o.oo%****...666666666666666",
"6666666666666666.o%**%oo+.ooo.<.o%**%o.+oooooo*%.666666666666666",
"66666666666666666.o%%oo+...oo.>>.o++o.>.++++++o.6666666666666666",
"66666666666666666X.ooo+..::..>>>>....:::.......X6666666666666666",
"6666666666666666.X:....$    $:>>>>>:$    $.++.:X6666666666666666",
"6666666666666666.+X.++.      $>>>>>$      o%%oX.6666666666666666",
"6666666666666666.+%o%%o$X;    ><<<>    ;X$+%%o%.6666666666666666",
"6666666666666666.+.o**+>#3OO3O<<<<<O3OO3#.+*%o%.6666666666666666",
"6666666666666666.+o%*+.<:3-OO-<<<<<-OO-3:+%*o%%.6666666666666666",
"6666666666666666.+.%*+X:<:3--<<<<<<<--3:<+*%.%%.6666666666666666",
"6666666666666666o++o*+%X:>:>><<<<<<<>>:>:+*o%%%.6666666666666666",
"666666666666666.+++.%o%%X:<<<<<<<<<<<<<:Xo%.%%%.6666666666666666",
"666666666666666.+++%..%%%X:<<<<<<<<<<<:X%..%%%%.6666666666666666",
"666666666666666.++%%%%%%X#X#:<<$:$<<:#X.X%%%%%%.6666666666666666",
"666666666666666.+%%%%%X#::@..#:<<<:#X@1.:##%%%%.6666666666666666",
"666666666666666o%%%%%X:><@11@$XXXXX$$@1@<<:#X%%.6666666666666666",
"66666666666666.+%%%%X:><@33&::$$$$$::&1@<<<<:X%.6666666666666666",
"66666666666666.%%%%%X:><&33@#$:$$$::@33@<<<<<<X.6666666666666666",
"66666666666666.%%%%%X#:$12@<<<<<::$#@33&<<<<<<#.6666666666666666",
"66666666666666.%%%%%X@&122&><<<<<<<<&221$:<<<<:X6666666666666666",
"66666666666666.%%%%%@233332@>>,:>>@&2222#$<<<<<#6666666666666666",
"66666666666666.%%%%@23333333&@:$@&222222&#<<<<<:X666666666666666",
"66666666666666o%**@12233333312@@223333331X<<<<<<X666666666666666",
"6666666666666.+**@12332333331321333333333X<<<<<<X666666666666666",
"666666666666.%***@1133233333&123333333333&#<<<<<#666666666666666",
"666666666666.+%%%@1223233333=1333333333331X<<<<<:X66666666666666",
"6666666666666....@=122232331=3333222333333X<<<<<<X66666666666666",
"66666666666666666@=&=233233&13312321233333X<<<<<<X66666666666666",
"666666666666666666&=1231232=12312=33133$$3X<<<<<<X66666666666666",
"666666666666666666@=112123221123=12312$<<#$:><<<<X66666666666666",
"66666666666666XXX#$&=111233211112=3312:<<$:$#$:<:X66666666666666",
"666666666666XX#$$$$@&==1233321111=3321:<<:<<$<#$$X66666666666666",
"66666666666X$X#$$#$$@&&&23332=11=13221$<<:<<:<$<#X66666666666666",
"66666666666XX$X$$X#$X@@@123321&&=2222&#::#<<:<:<#X66666666666666",
"66666666666XX$$#$#$$#<<<@&1211==12222$:XXX><$>#:#666666666666666",
"66666666666XX$$X#$$X:<<<<<<@&@<>&@@@@X::$X::#:#XX666666666666666",
"66666666666X$#$$X$$X><<<<<<<<<<$##<<<<XXXX::XXX$X666666666666666",
"666666666666XX$$XXX@<<<<<<<<<<<#X#<<<<<<XXXX$$$X6666666666666666",
"66666666666666XXXX@1&@@<<<<<<<<##$<<<<<@&1&@XXX66666666666666666",
"666666666666666666@22231&@<<<<<>:<<<<@&133@<:X666666666666666666",
"666666666666666666X@233321&@@@@@<<<@&1333@<<:X666666666666666666",
"666666666666666666X<@@&1333333321&@12333@<<<:X666666666666666666",
"666666666666666666X<<<<@&12333333233332@<<<>:X666666666666666666",
"666666666666666666X<<<<<<@&1233331331&@<<<>::X666666666666666666",
"666666666666666666X<<<<<<<<@&1111=11&<<<<>::$X666666666666666666",
"666666666666666666X:<<<<<<<<<@@==&@@:>>>>:::#6666666666666666666",
"6666666666666666666#<<<<<<<<<<<@@@$:::::::::X6666666666666666666",
"6666666666666666666X<<<<<<<<<<<#X#::::::::::X6666666666666666666",
"6666666666666666666X:<<<<<<<<<<$X$:::::::::$X6666666666666666666",
"66666666666666666666#<<<<<<<<<<:#::::::::::#66666666666666666666",
"66666666666666666666X<<<<<<<<<<<#::::::::::X66666666666666666666",
"66666666666666666666X:<<<<<<<<<<$:::::::::$X66666666666666666666",
"666666666666666666666#<<<<<<<<<<$:::::::::#666666666666666666666",
"666666666666666666666X:<<<<<<<<<$::::::::$X666666666666666666666",
"6666666666666666666666#<<<<<<<<<$::::::::#6666666666666666666666",
"6666666666666666666666X<<<<<<<<<:$::::::$X6666666666666666666666",
"6666666666666666666666X:<<<<<<<<>#$:::::X66666666666666666666666",
"66666666666666666666654#<<<<<<<<<#X$$$$X445666666666666666666666",
"66666666666666666654444X<<<<<<<<<X4XXXX4444445666666666666666666",
"66666666666666665444444X<<<<<<<<<X444444444444456666666666666666",
"66666666666666544444444X<<<<<<<<>X444444444444444566666666666666",
"66666666666654444444444X<<<<<<<<:X444444444444444445666666666666",
"66666666666544444444444X:<<<<<<<#4444444444444444444566666666666",
"666666666654444444444444#<<<<<<<X4444444444444444444456666666666",
"666666666644444444444444X><<<<<>X4444444444444444444446666666666",
"666666666544444444444444X:<<<<<:X4444444444444444444445666666666",
"666666666444444444444444X$:><<<:X4444444444444444444444666666666",
"6666666664444444444444444#::::::X4444444444444444444444666666666",
"6666666664444444444444444X::::::X4444444444444444444444666666666",
"6666666664444444444444444X$><<<>X4444444444444444444444666666666",
"66666666654444444444444444#<<<<<X4444444444444444444445666666666",
"66666666664444444444444444X<<<<<X4444444444444444444446666666666",
"66666666665444444444444444X><<<>X4444444444444444444456666666666",
"666666666665444444444444444XXXXX44444444444444444444566666666666",
"6666666666665444444444444444444444444444444444444445666666666666",
"6666666666666654444444444444444444444444444444444566666666666666",
"6666666666666666444444444444444444444444444444445666666666666666",
"6666666666666666654444444444444444444444444444566666666666666666",
"6666666666666666666654444444444444444444444566666666666666666666",
"6666666666666666666666666544444444444456666666666666666666666666",
"6666666666666666666666666666666666666666666666666666666666666666",
"6666666666666666666666666666666666666666666666666666666666666666",
"6666666666666666666666666666666666666666666666666666666666666666",
"6666666666666666666666666666666666666666666666666666666666666666",
"6666666666666666666666666666666666666666666666666666666666666666",
"6666666666666666666666666666666666666666666666666666666666666666",
"6666666666666666666666666666666666666666666666666666666666666666",
"6666666666666666666666666666666666666666666666666666666666666666",
"6666666666666666666666666666666666666666666666666666666666666666",
"6666666666666666666666666666666666666666666666666666666666666666",
"6666666666666666666666666666666666666666666666666666666666666666",
"6666666666666666666666666666666666666666666666666666666666666666",
"6666666666666666666666666666666666666666666666666666666666666666",
"6666666666666666666666666666666666666666666666666666666666666666",
"6666666666666666666666666666666666666666666666666666666666666666",
"6666666666666666666666666666666666666666666666666666666666666666"
};
