/* XPM */
static char *output_26[] = {
/* columns rows colors chars-per-pixel */
"64 130 26 1 ",
"  c black",
". c #222034",
"X c #45212D",
"o c #333A6C",
"O c #3F3F74",
"+ c #3C447C",
"@ c #46426C",
"# c #8F563B",
"$ c #954A51",
"% c #CB7173",
"& c #4F5AA5",
"* c #6A78AC",
"= c #616FCB",
"- c #7C8DB5",
"; c #639BFF",
": c #9C859F",
"> c #F5A489",
", c #F9BF99",
"< c #FFF3AB",
"1 c #FFE0B1",
"2 c #A6AEE1",
"3 c #E1EAFD",
"4 c white",
"5 c #3F3F74",
"6 c #5C5CA9",
"7 c None",
/* pixels */
"7777777777777777777777777777777777777777777777777777777777777777",
"7777777777777777777777777777777777777777777777777777777777777777",
"7777777777777777777777777777777777777777777777777777777777777777",
"7777777777777777777777777777777777777777777777777777777777777777",
"7777777777777777777777777777777777777777777777777777777777777777",
"7777777777777777777777777777777777777777777777777777777777777777",
"7777777777777777777777777777777777777777777777777777777777777777",
"7777777777777777777777777777777777777777777777777777777777777777",
"7777777777777777777777777777777777777777777777777777777777777777",
"7777777777777777777777777777777777777777777777777777777777777777",
"7777777777777777777777777777777777777777777777777777777777777777",
"7777777777777777777777777777777777777777777777777777777777777777",
"7777777777777777777777777777777777777777777777777777777777777777",
"7777777777777777777777777777777777777777777777777777777777777777",
"7777777777777777777777777777777777777777777777777777777777777777",
"7777777777777777777777777777777777777777777777777777777777777777",
"7777777777777777777777777777777777777777777777777777777777777777",
"777777777777777777777777777.........7777777777777777777777777777",
"7777777777777777777777777.+&&&+.+&&&+.77777777777777777777777777",
"77777777777777777777777.+&====&+&====&+.777777777777777777777777",
"7777777777777777777777.========&========.77777777777777777777777",
"777777777777777777777.======.o&&&o.======.7777777777777777777777",
"77777777777777777777.====oooo&===&oooo====.777777777777777777777",
"7777777777777777777.+==oo&==o=====+&=&oo==+.77777777777777777777",
"7777777777777777777o&=o&====+=====&+===&o=&o77777777777777777777",
"777777777777777777.+==o==&==&======+====o==+.7777777777777777777",
"777777777777777777o&=o&==&==&======+====&o=&o7777777777777777777",
"777777777777777777+=&o==&===&======+=====o&=+7777777777777777777",
"77777777777777777.+=+o==&===&======o&====o+=+.777777777777777777",
"77777777777777777.+&o&==&===&======o+&===&o&+.777777777777777777",
"77777777777777777.++o===&===+&=====&.o====o++.777777777777777777",
"77777777777777777.+.&==&o===+o&=====.o&===&.+.777777777777777777",
"777777777777777...o&===oo==&o.o=====o.o====&o...7777777777777777",
"777777777777777.o&====&o.&=oo1o&====o.oo&=====&.7777777777777777",
"7777777777777777.o&=&oo+.oo+.1.o&==&o#.ooooooo.77777777777777777",
"7777777777777777X.oooo+..o+.,,,.o++oo,,.+++++.X77777777777777777",
"7777777777777777X,..o+.>>..>,,,,,....>>>.....,X77777777777777777",
"7777777777777777X>.+..%    %>,,,,,>%    %.++.>X77777777777777777",
"7777777777777777.X.++.      %,,,,,%      o&&oX.77777777777777777",
"7777777777777777.&o&&o%X:    ,111,    :X%+&&o&.77777777777777777",
"7777777777777777.&o==+,$4OO4O11111O4OO4$,+==o&.77777777777777777",
"7777777777777777.&.&=+.>4;OO;11111;OO;4>1+==o&.77777777777777777",
"7777777777777777.&&+=&+1>4;;1111111;;4>1>+=&.&.77777777777777777",
"7777777777777777o&&.==+>,>,,1111111,,>,>X+=&.&o77777777777777777",
"777777777777777.+&&&o&+X>1111111111111>X&.oo.&+.7777777777777777",
"777777777777777.&&&&&..&X>11111111111>X&&&..&&&.7777777777777777",
"777777777777777.&&&&&&&..X$>11%>%11>$X..X&&&&&&.7777777777777777",
"777777777777777.&&&&&X$@2@%X$>111>$X%@2@%$X&&&&.7777777777777777",
"777777777777777.&&&&X>1@2@>%%XXXXX%%>@2@11>X&&&.7777777777777777",
"777777777777777.&&&X111@4@$>>%%%%%>>$@4@111>X&&.7777777777777777",
"777777777777777.&&X>111@4@>$%>%%%>%$>@4@1111$&&.7777777777777777",
"777777777777777.&&$111>@4@11111111111@4@>111%X&.7777777777777777",
"777777777777777.&X%,11%*3*11111111111*3*%111>X&.7777777777777777",
"777777777777777.&X>>,,@233@,,,%<%,,,@332@11,>$&.7777777777777777",
"777777777777777.&$>>>@23333*@,,$,,@*33332>>>>%X.7777777777777777",
"777777777777777.X%>>@33344444*,%,*4444433@>>>>X.7777777777777777",
"777777777777777oX>>>*344444443*@*344444442>>>>X.7777777777777777",
"77777777777777.&$>>@3444444443432444444444@>>>$.7777777777777777",
"7777777777777.&X%>>*4444444443423444444444*>>>%X7777777777777777",
"7777777777777.+X>>@-33344444423244444444442@>>>X7777777777777777",
"77777777777777.X>>@244434444442444444333344*>>>X7777777777777777",
"777777777777777$,,@2244344444424444434444243@>>$7777777777777777",
"77777777777777X>11@--232444442-2344434423243@,,>X777777777777777",
"77777777777777X,11@-*-2-333443-34443-23*2-32@11,$777777777777777",
"77777777777777$11,@-**-22224432344322-3*-222@111>X77777777777777",
"7777777777777X>,,,@--222222443*344322332222-@1111$77777777777777",
"777777777777X$%,%%@*-222223442*44422332222-*,,,,,>X7777777777777",
"77777777777X,,11>11@*-222344322443222222--*@>%%%,%$X777777777777",
"7777777777X>1>11>11%,@*34344323443243343*@X,%11>111,X77777777777",
"777777777X1>1%11%11$,X1@@*343@3443443*@@@*X,%11>11>1>X7777777777",
"777777777X1%1$>1$>>$>X@@@@@@@1@*@@@@@@*234X,$11$11%1>,X777777777",
"777777777X>$>X>>XXX>>X4432*@@11$%1@@*23442X>$>>$1>$1%,X777777777",
"777777777X>X%%X%X%>>X44444432*@@@*234432*@X>>XXX>>X>$>X777777777",
"777777777X%%XXXXXXXX@@*234444444444432*@111X>>%X%X%%X>X777777777",
"7777777777XX777777X1111@@*2344434443*@111111XXXXXXXX%%X777777777",
"777777777777777777X1111111@*2342332@%11111111X777777XX7777777777",
"777777777777777777X111111111@22-22@$111111111X777777777777777777",
"777777777777777777X1111111111@-*-@$1111111111X777777777777777777",
"777777777777777777X,1111111111@@@111111111111X777777777777777777",
"777777777777777777X>1111111111>XX11111111111>X777777777777777777",
"7777777777777777777$11111111111X$11111111111$7777777777777777777",
"7777777777777777777X,1111111111$>11111111111X7777777777777777777",
"7777777777777777777X>1111111111$11111111111>X7777777777777777777",
"77777777777777777777$1111111111%11111111111$77777777777777777777",
"77777777777777777777X1111111111%11111111111X77777777777777777777",
"77777777777777777777X1111111111%1111111111>X77777777777777777777",
"77777777777777777777X,111111111%111111111,$777777777777777777777",
"77777777777777777777X>111111111%,1111111,>X777777777777777777777",
"777777777777777777777$,11111111$>1111111>$7777777777777777777777",
"777777777777777777777X>1111111,X%>,111,>%X7777777777777777777777",
"777777777777777777777X%,11111,>XX>>>>>>%X77777777777777777777777",
"7777777777777777777776$>,,,,,>>X5X%>>%$X556777777777777777777777",
"7777777777777777776555X>>>>>>>>X55XXXX55555556777777777777777777",
"7777777777777777655555X%>>>>>>>X55555555555555567777777777777777",
"77777777777777655555555$>>>>>>>X55555555555555555677777777777777",
"77777777777765555555555X>>>>>>>X55555555555555555556777777777777",
"77777777777655555555555X>>>>>>>X55555555555555555555677777777777",
"77777777776555555555555X>>>>>>>X55555555555555555555567777777777",
"77777777775555555555555X%>>>>>>X55555555555555555555557777777777",
"777777777655555555555555$>>>>>>X55555555555555555555556777777777",
"777777777555555555555555X>>>>>>X55555555555555555555555777777777",
"777777777555555555555555X,1111,X55555555555555555555555777777777",
"777777777555555555555555X111111X55555555555555555555555777777777",
"777777777555555555555555X,1111,X55555555555555555555555777777777",
"7777777776555555555555555X,11,X555555555555555555555556777777777",
"77777777775555555555555555XXXX5555555555555555555555557777777777",
"7777777777655555555555555555555555555555555555555555567777777777",
"7777777777765555555555555555555555555555555555555555677777777777",
"7777777777776555555555555555555555555555555555555556777777777777",
"7777777777777765555555555555555555555555555555555677777777777777",
"7777777777777777555555555555555555555555555555556777777777777777",
"7777777777777777765555555555555555555555555555677777777777777777",
"7777777777777777777765555555555555555555555677777777777777777777",
"7777777777777777777777777655555555555567777777777777777777777777",
"7777777777777777777777777777777777777777777777777777777777777777",
"7777777777777777777777777777777777777777777777777777777777777777",
"7777777777777777777777777777777777777777777777777777777777777777",
"7777777777777777777777777777777777777777777777777777777777777777",
"7777777777777777777777777777777777777777777777777777777777777777",
"7777777777777777777777777777777777777777777777777777777777777777",
"7777777777777777777777777777777777777777777777777777777777777777",
"7777777777777777777777777777777777777777777777777777777777777777",
"7777777777777777777777777777777777777777777777777777777777777777",
"7777777777777777777777777777777777777777777777777777777777777777",
"7777777777777777777777777777777777777777777777777777777777777777",
"7777777777777777777777777777777777777777777777777777777777777777",
"7777777777777777777777777777777777777777777777777777777777777777",
"7777777777777777777777777777777777777777777777777777777777777777",
"7777777777777777777777777777777777777777777777777777777777777777",
"7777777777777777777777777777777777777777777777777777777777777777"
};
