/* XPM */
static char *output_31[] = {
/* columns rows colors chars-per-pixel */
"64 130 23 1 ",
"  c black",
". c #222034",
"X c #45212D",
"o c #3F3F74",
"O c #3C447C",
"+ c #46426C",
"@ c #954A51",
"# c #CB7173",
"$ c #4F5AA5",
"% c #6A78AC",
"& c #616FCB",
"* c #7C8DB5",
"= c #639BFF",
"- c #9C859F",
"; c #F5A489",
": c #F9BF99",
"> c #FFE0B1",
", c #A6AEE1",
"< c #E1EAFD",
"1 c white",
"2 c #3F3F74",
"3 c #5C5CA9",
"4 c None",
/* pixels */
"4444444444444444444444444444444444444444444444444444444444444444",
"4444444444444444444444444444444444444444444444444444444444444444",
"4444444444444444444444444444444444444444444444444444444444444444",
"4444444444444444444444444444444444444444444444444444444444444444",
"4444444444444444444444444444444444444444444444444444444444444444",
"4444444444444444444444444444444444444444444444444444444444444444",
"4444444444444444444444444444444444444444444444444444444444444444",
"4444444444444444444444444444444444444444444444444444444444444444",
"4444444444444444444444444444444444444444444444444444444444444444",
"4444444444444444444444444444444444444444444444444444444444444444",
"4444444444444444444444444444444444444444444444444444444444444444",
"4444444444444444444444444444444444444444444444444444444444444444",
"444444444444444444444444444.........4444444444444444444444444444",
"4444444444444444444444444.O$&&&&&&&$O.44444444444444444444444444",
"44444444444444444444444.O$&&&&&&&&&&&$O.444444444444444444444444",
"4444444444444444444444.$&&&&&&&&&&&&&&&$.44444444444444444444444",
"44444444444444444444...OO$&&&&&&&&&&&&&&&.4444444444444444444444",
"4444444444444444444.OOO$$&$$&&&&&&&&&&&&&$.444444444444444444444",
"444444444444444444.$$$$&&$&&$&&&&&&&&&&&&&O444444444444444444444",
"44444444444444444.&&&&O$&&$&&$&&&&&&&&&&&&$.44444444444444444444",
"44444444444444444O&&&&$O&&&$&&.&&&&&&&&&&&&O44444444444444444444",
"4444444444444444.$&&&&&$&&&&$&O&&&&&&&&&&&&$.4444444444444444444",
"4444444444444444O&&&&&&$&&&&O&$&&&&&&&&&&&&&.4444444444444444444",
"4444444444444444$&&&&&&O&&&&O$&.&&&&&&&&&&&&.4444444444444444444",
"444444444444444.$&&&&&&O&&&&$O&.&&&&&&&&&&&&.4444444444444444444",
"444444444444444.$&&&&&&O&&&&&.&O$&&&&&&&&&&&O4444444444444444444",
"444444444444444.$$&&&&$.$&&&$.&$.$&&&&&&&&&&$.444444444444444444",
"444444444444444.$$$&&&O.$$&$$.$$.O$&&&&&&&&$$.444444444444444444",
"444444444444444.O$$&&$..$$$$$O$$.OO$&&&&&&&$$.444444444444444444",
"4444444444444444O$$$$O..$$$$&$.$.OOO$&&&&&$$$.444444444444444444",
"4444444444444444..O$$O.:.OO$$$.$.O...O$$$$$$$.444444444444444444",
"444444444444444444 ...:;;......$..@X@.$$$$$$$.444444444444444444",
"44444444444444444444X:#   #.$$$$.@>>:@O$$$$$$.444444444444444444",
"44444444444444444444X;     .$$$$.;#;>X.$$$$$$.444444444444444444",
"44444444444444444444@    -X.$$$$.>;:>X.$$$$$$.444444444444444444",
"444444444444444444X@#:;1o1@.$$$$.>;:;@O$$$$$$.444444444444444444",
"44444444444444444X#;:>:oo1;.$$$$.;#:X.O$$$$$$.444444444444444444",
"44444444444444444X;:>>:==;>.$$$$.>:;@OO$$$$$$.444444444444444444",
"444444444444444444@:>>>:;:>.$$$O@:;X.OO$$$$$$O444444444444444444",
"444444444444444444X;:>>>>>>.$$$.XXX.OOOO$$$$$$.44444444444444444",
"4444444444444444444X;:>>>>>.$$OX##X.OOOO$$$$$$.44444444444444444",
"44444444444444444444X#@::::.$$.###@..OOO$$$$$$.44444444444444444",
"444444444444444444444X;:::;...#####@X.OO$$$$$$.44444444444444444",
"4444444444444444444444XXX@@@###;;;+++X.OO$$$$$.44444444444444444",
"444444444444444444444444+++###;;++,,,++.O$$$$$O44444444444444444",
"44444444444444444444444+*+###;++,*%%%**+.$$$$$$.4444444444444444",
"4444444444444444444444+%+>>#@+,<1+:::%+++O$$$$$.4444444444444444",
"444444444444444444444+,<+@@>+,<1+:>>>>>:@.$$$$$.4444444444444444",
"44444444444444444444++<+@::+<11%:>>>>>>>;XO$$$$.4444444444444444",
"4444444444444444444+<+,<+++,<<*+#>>>>>>>>@.$O$$O4444444444444444",
"444444444444444444+<1%*,11111<%:@;>>>>>>>;XOO$$$.444444444444444",
"444444444444444444%11*,1111111+:#@>>>>>>>>@.O$$$.444444444444444",
"44444444444444444+<<1,<1111111%:;@;>>>>>>>;XO$$$.444444444444444",
"44444444444444444%1,1111111111<+;;@>>>>>>>>@.$$$.444444444444444",
"444444444444XXXX+<1%,<11111111<,%+X;>>>>>>>;X$$O.444444444444444",
"44444444444X;;;;%11*<111111111<,,,,@>>>>>>>>X$O.4444444444444444",
"4444444444X;;;X+*11%1111111111<,,,,X>>>>>>>>X..44444444444444444",
"4444444444X;;X;+,<*<1111111111<*,,,@>>>>>>>>X4444444444444444444",
"4444444444X;;@X+,,*1111111111<<%,,X;>>>>>>>;X4444444444444444444",
"4444444444X#;;X+,,%1111111111<<%,,@>>>>>>>>@44444444444444444444",
"4444444444XXXX@+*,+<11111111<<<*,X;>>>>>>>;X44444444444444444444",
"4444444444X;X;X#+*+,<111111<,<<*X;>>>>>>>>X444444444444444444444",
"4444444444XXXXX##++**<111<,,,<<X>>>>>>>>>X4444444444444444444444",
"4444444444X#;#XXX#+*,<*,XXXXXX@;>>>>>>>>X+4444444444444444444444",
"44444444444XXXX44X+%,,*X:>>>>>>>>>>>>>>X,%+444444444444444444444",
"4444444444444444444++%X#:#>>>>>>>>>>>>X,,,%444444444444444444444",
"44444444444444444444+*X;#;>>>>>>>>>>>X+,,,*+44444444444444444444",
"444444444444444444444+X;#:>>#>>>>>>>X1*,,,,+44444444444444444444",
"4444444444444444444444X;@:>>#>>>>>>X11<<*,*+44444444444444444444",
"4444444444444444444444X#@;;@#>>@;;X11<**,,%+44444444444444444444",
"4444444444444444444444XXX##@;>@XXX+<11<%*%+444444444444444444444",
"444444444444444444444X;>>XX@;:X>>>>+<1<+++4444444444444444444444",
"444444444444444444444@>>>>>X#;;X>>>>+<,+X44444444444444444444444",
"44444444444444444444X;>>>>>>X##X>>>>:++;X44444444444444444444444",
"44444444444444444444@>>>>>>>>XXX;;;;#X;;@44444444444444444444444",
"4444444444444444444X;>>>>>>>>>>>:;#@X;;;#X4444444444444444444444",
"4444444444444444444@>>>>>>>>>>>>;@X;;;;;;X4444444444444444444444",
"444444444444444444X;>>>>>>>>>>>;X;;;;;;;;@4444444444444444444444",
"444444444444444444X>>>>>>>>>>;@X#;;;;;;;;#X444444444444444444444",
"444444444444444444X>>>>>>>>>;X44@;;;;;;;;;#X44444444444444444444",
"444444444444444444X>>>>>>>>>X444X#;;;;;;;;;@44444444444444444444",
"444444444444444444X;>>>>>>>>:X444@;;;;;;;;;#X4444444444444444444",
"4444444444444444444@:>>>>>>:;@444X#;;;;;;;;;@4444444444444444444",
"4444444444444444444X;:>>>>:;;#X444@;;;;;;;;;#X444444444444444444",
"44444444444444444444@;::::;;;;X444X#;;;;;;;;;X444444444444444444",
"44444444444444444444X#;;;;;;;;X4444@;;;;;;;;;X444444444444444444",
"444444444444444444444@;;;;;;;#X4444X#;;;;;;;;X444444444444444444",
"444444444444444444444X#;;;;;;@444444@;;;;;;;;X444444444444444444",
"4444444444444444444444@;;;;;;X222222X#;;;;;;;X444444444444444444",
"4444444444444444444443X#;;;;;@2222222@;;;;;;;X444444444444444444",
"44444444444444444432222@;;;;;#X222222X#;;;;;;X444444444444444444",
"44444444444444443222222X;;;;;;#X222222@;;;;;;X234444444444444444",
"44444444444444322222222X#;;;;;;X222222X;;;;;;X222344444444444444",
"444444444444322222222222@;;;;;;X222222X;;;;;;X222223444444444444",
"444444444443222222222222X;;;;;;X222222@;;;;;;X222222344444444444",
"444444444432222222222222X;;;;;;X22222X#;;;;;;X222222234444444444",
"444444444422222222222222X#;;;;;X2222X;;;;;;;#X222222224444444444",
"4444444443222222222222222@;;;;#X222X;;;;;;;#X2222222223444444444",
"4444444442222222222222222X#;;#X2222X;;;;;#@X22222222222444444444",
"44444444422222222222222222XXXX222222X#;#@X2222222222222444444444",
"4444444442222222222222222222222222222XXX222222222222222444444444",
"4444444442222222222222222222222222222222222222222222222444444444",
"4444444443222222222222222222222222222222222222222222223444444444",
"4444444444222222222222222222222222222222222222222222224444444444",
"4444444444322222222222222222222222222222222222222222234444444444",
"4444444444432222222222222222222222222222222222222222344444444444",
"4444444444443222222222222222222222222222222222222223444444444444",
"4444444444444432222222222222222222222222222222222344444444444444",
"4444444444444444222222222222222222222222222222223444444444444444",
"4444444444444444432222222222222222222222222222344444444444444444",
"4444444444444444444432222222222222222222222344444444444444444444",
"4444444444444444444444444322222222222234444444444444444444444444",
"4444444444444444444444444444444444444444444444444444444444444444",
"4444444444444444444444444444444444444444444444444444444444444444",
"4444444444444444444444444444444444444444444444444444444444444444",
"4444444444444444444444444444444444444444444444444444444444444444",
"4444444444444444444444444444444444444444444444444444444444444444",
"4444444444444444444444444444444444444444444444444444444444444444",
"4444444444444444444444444444444444444444444444444444444444444444",
"4444444444444444444444444444444444444444444444444444444444444444",
"4444444444444444444444444444444444444444444444444444444444444444",
"4444444444444444444444444444444444444444444444444444444444444444",
"4444444444444444444444444444444444444444444444444444444444444444",
"4444444444444444444444444444444444444444444444444444444444444444",
"4444444444444444444444444444444444444444444444444444444444444444",
"4444444444444444444444444444444444444444444444444444444444444444",
"4444444444444444444444444444444444444444444444444444444444444444",
"4444444444444444444444444444444444444444444444444444444444444444",
"4444444444444444444444444444444444444444444444444444444444444444",
"4444444444444444444444444444444444444444444444444444444444444444"
};
