/* XPM */
static char *output_5[] = {
/* columns rows colors chars-per-pixel */
"64 130 24 1 ",
"  c black",
". c #222034",
"X c #45212D",
"o c #3F3F74",
"O c #3C447C",
"+ c #46426C",
"@ c #954A51",
"# c #CB7173",
"$ c #4F5AA5",
"% c #6A78AC",
"& c #616FCB",
"* c #7C8DB5",
"= c #639BFF",
"- c #9C859F",
"; c #F5A489",
": c #F9BF99",
"> c #FFF3AB",
", c #FFE0B1",
"< c #A6AEE1",
"1 c #E1EAFD",
"2 c white",
"3 c #3F3F74",
"4 c #5C5CA9",
"5 c None",
/* pixels */
"5555555555555555555555555555555555555555555555555555555555555555",
"5555555555555555555555555555555555555555555555555555555555555555",
"5555555555555555555555555555555555555555555555555555555555555555",
"5555555555555555555555555555555555555555555555555555555555555555",
"5555555555555555555555555555555555555555555555555555555555555555",
"5555555555555555555555555555555555555555555555555555555555555555",
"5555555555555555555555555555555555555555555555555555555555555555",
"5555555555555555555555555555555555555555555555555555555555555555",
"5555555555555555555555555555555555555555555555555555555555555555",
"5555555555555555555555555555555555555555555555555555555555555555",
"5555555555555555555555555555555555555555555555555555555555555555",
"5555555555555555555555555555555555555555555555555555555555555555",
"555555555555555555555555555.........5555555555555555555555555555",
"5555555555555555555555555.O$&&&&&&&$O.55555555555555555555555555",
"55555555555555555555555.O$&&&&&&&&&&&$O.555555555555555555555555",
"5555555555555555555555.$&&&&&&&&&&&&&&&$.55555555555555555555555",
"55555555555555555555...OO$&&&&&&&&&&&&&&&.5555555555555555555555",
"5555555555555555555.OOO$$&$$&&&&&&&&&&&&&$.555555555555555555555",
"555555555555555555.$$$$&&$&&$&&&&&&&&&&&&&O555555555555555555555",
"55555555555555555.&&&&O$&&$&&$&&&&&&&&&&&&$.55555555555555555555",
"55555555555555555O&&&&$O&&&$&&.&&&&&&&&&&&&O55555555555555555555",
"5555555555555555.$&&&&&$&&&&$&O&&&&&&&&&&&&$.5555555555555555555",
"5555555555555555O&&&&&&$&&&&O&$&&&&&&&&&&&&&.5555555555555555555",
"5555555555555555$&&&&&&O&&&&O$&.&&&&&&&&&&&&.5555555555555555555",
"555555555555555.$&&&&&&O&&&&$O&.&&&&&&&&&&&&.5555555555555555555",
"555555555555555.$&&&&&&O&&&&&.&O$&&&&&&&&&&&O5555555555555555555",
"555555555555555.$$&&&&$.$&&&$.&$.$&&&&&&&&&&$.555555555555555555",
"555555555555555.$$$&&&O.$$&$$.$$.O$&&&&&&&&$$.555555555555555555",
"555555555555555.O$$&&$..$$$$$O$$.OO$&&&&&&&$$.555555555555555555",
"5555555555555555O$$$$O..$$$$&$.$.OOO$&&&&&$$$.555555555555555555",
"5555555555555555..O$$O.:.OO$$$.$.O...O$$$$$$$.555555555555555555",
"555555555555555555 ...:;;......$..@X@.$$$$$$$.555555555555555555",
"55555555555555555555X:#   #.$$$$.@,,:@O$$$$$$.555555555555555555",
"55555555555555555555X;     .$$$$.;#;,X.$$$$$$.555555555555555555",
"55555555555555555555@    -X.$$$$.,;:,X.$$$$$$.555555555555555555",
"555555555555555555X@#:;2o2@.$$$$.,;:;@O$$$$$$.555555555555555555",
"55555555555555555X#;:,:oo2;.$$$$.;#:X.O$$$$$$.555555555555555555",
"55555555555555555X;:,,:==;,.$$$$.,:;@OO$$$$$$.555555555555555555",
"555555555555555555@:,,,:;:,.$$$O@:;X.OO$$$$$$O555555555555555555",
"555555555555555555X;:,,,,,,.$$$.XXX.OOOO$$$$$$.55555555555555555",
"5555555555555555555X;:,,,,,.$$OX##X.OOOO$$$$$$.55555555555555555",
"55555555555555555555X#@::::.$$.###@..OOO$$$$$$.55555555555555555",
"555555555555555555555X;:::;...#####@X.OOO$$$$$.55555555555555555",
"5555555555555555555555XXX@@@###++++++X.OO$$$$$.55555555555555555",
"55555555555555555555555555+###+<<<<<*+X.O$$$$$O55555555555555555",
"555555555555555555555555++;##+<*%%%%**#.O$$$$$$.5555555555555555",
"5555555555555555555555+++:,@+<2+,,,,+*+.O$$$$$$.5555555555555555",
"555555555555555555555+1+>##+<2+,,,,,,++.O$$$$$$.5555555555555555",
"55555555555555555555+11+#+%22%,,,,,,,,@.O$$$$$$.5555555555555555",
"5555555555555555555+122*+111*+,,,,,,,,@.O$O$O$$O5555555555555555",
"555555555555555555+<12<11111%#,,,,,,,,@.OOO$O$$$.555555555555555",
"555555555555555555%<<2222221+#,,,,,,,,@.OOO$O$$$.555555555555555",
"55555555555555555+<<*<122222+#,,,,,,,,@.$OO$O$$$.555555555555555",
"55555555555555555%<*22222222+@,,,,,,,,@.$OO$O$$$.555555555555555",
"5555555555555555+<+<22222222+@,,,,,,,,X.$.O$O$$O.555555555555555",
"5555555555555555+<%222222222%X,,,,,,,,X.$.O.O$O.5555555555555555",
"5555555555555555%+1222222222*X,,,,,,,,X..5.5...55555555555555555",
"5555555555555555+%22222222221X,,,,,,,,X5555555555555555555555555",
"5555555555555555+*2222222222<X,,,,,,,,X5555555555555555555555555",
"555555555555555XXXX222222221X;,,,,,,,,X5555555555555555555555555",
"55555555555555X;,,;@XX2222XX;,,,,,,,,,X5555555555555555555555555",
"55555555555555X#@#,,,;@XX@;,,,,,,,,,,;X+555555555555555555555555",
"55555555555555X@,,,,,,,,,,,,,,,,,,,,;XX+555555555555555555555555",
"55555555555555X;,,,,,,,,,,,,,,,,,,,,X++X555555555555555555555555",
"55555555555555X@##,,,,,,,,,,,,,,,,;X,,,,X55555555555555555555555",
"5555555555555X#,,,,,,,,,,,,,,,,,,;X+++++++5555555555555555555555",
"5555555555555X;,,,,,,,,,,,,,,,,;@X2222221<+555555555555555555555",
"5555555555555X;;@X;;,,,,,,,,,;@X2222222221%555555555555555555555",
"5555555555555X#;#XX@;;;@XXXXXX111<%+++++%<<+55555555555555555555",
"55555555555555XXXX55XXX<<<<111<%++,,,,,,,+++55555555555555555555",
"55555555555555555555X;+%<<<<<%+,,,,,,,,,,,:+55555555555555555555",
"55555555555555555555@;;;+<<%+,,,,,,,,,,,,,:X55555555555555555555",
"5555555555555555555X#;;;;++@,,,,,,,,,,,,,,;X55555555555555555555",
"5555555555555555555@;;;;;;;X;,,,,,,,,,,,,:;X55555555555555555555",
"555555555555555555X#;;;;;;;;@,,,,,,,,,,,:;X555555555555555555555",
"555555555555555555X;;;;;;;;;X;,,,,,,,:;;@X5555555555555555555555",
"555555555555555555X;;;;;;;;;#@,,,,,,,,,,X55555555555555555555555",
"555555555555555555X;;;;;;;;#@X;,,,,,,,,,@55555555555555555555555",
"555555555555555555X#;;;;;;;;#X@,,,,,,,,,;X5555555555555555555555",
"5555555555555555555@;;;;;;;;;@X;,,,,,,,,,X5555555555555555555555",
"5555555555555555555X#;;;;;;;;#X@,,,,,,,,,@5555555555555555555555",
"55555555555555555555@;;;;;;;;;XX;,,,,,,,,#X555555555555555555555",
"55555555555555555555X#;;;;;;;;X5@,,,,,,,,;#X55555555555555555555",
"555555555555555555555@;;;;;;;#X5X;,,,,,,,;;@55555555555555555555",
"555555555555555555555X#;;;;;;X555@;:,,,,:;;#X5555555555555555555",
"5555555555555555555555@;;;;;;X555X#;:,,:;;;;@5555555555555555555",
"5555555555555555555555X#;;;;;X5555@;;;;;;;;;#X555555555555555555",
"55555555555555555555555@;;;;;#X555X#;;;;;;;;;X555555555555555555",
"55555555555555555555555X;;;;;;#X333@;;;;;;;;;X555555555555555555",
"55555555555555555555543X#;;;;;;X333X#;;;;;;;;X555555555555555555",
"555555555555555555433333@;;;;;;X3333@;;;;;;;;X555555555555555555",
"555555555555555543333333X;;;;;;X3333X#;;;;;;;X345555555555555555",
"555555555555554333333333X;;;;;;X33333@;;;;;;;X333455555555555555",
"555555555555433333333333X#;;;;#X33333X#;;;;;;X333334555555555555",
"5555555555543333333333333@;;;;#X333333@;;;;;;X333333455555555555",
"5555555555433333333333333X;;;;X3333333X;;;;;;X333333345555555555",
"55555555553333333333333333XXXX33333333X;;;;;;X333333335555555555",
"55555555543333333333333333333333333333@;;;;;;X333333334555555555",
"5555555553333333333333333333333333333X#;;;;;#X333333333555555555",
"555555555333333333333333333333333333X#;;;;;;#X333333333555555555",
"55555555533333333333333333333333333X;;;;;;;#X3333333333555555555",
"55555555533333333333333333333333333X;;;;;#@X33333333333555555555",
"555555555433333333333333333333333333X#;#@X3333333333334555555555",
"5555555555333333333333333333333333333XXX333333333333335555555555",
"5555555555433333333333333333333333333333333333333333345555555555",
"5555555555543333333333333333333333333333333333333333455555555555",
"5555555555554333333333333333333333333333333333333334555555555555",
"5555555555555543333333333333333333333333333333333455555555555555",
"5555555555555555333333333333333333333333333333334555555555555555",
"5555555555555555543333333333333333333333333333455555555555555555",
"5555555555555555555543333333333333333333333455555555555555555555",
"5555555555555555555555555433333333333345555555555555555555555555",
"5555555555555555555555555555555555555555555555555555555555555555",
"5555555555555555555555555555555555555555555555555555555555555555",
"5555555555555555555555555555555555555555555555555555555555555555",
"5555555555555555555555555555555555555555555555555555555555555555",
"5555555555555555555555555555555555555555555555555555555555555555",
"5555555555555555555555555555555555555555555555555555555555555555",
"5555555555555555555555555555555555555555555555555555555555555555",
"5555555555555555555555555555555555555555555555555555555555555555",
"5555555555555555555555555555555555555555555555555555555555555555",
"5555555555555555555555555555555555555555555555555555555555555555",
"5555555555555555555555555555555555555555555555555555555555555555",
"5555555555555555555555555555555555555555555555555555555555555555",
"5555555555555555555555555555555555555555555555555555555555555555",
"5555555555555555555555555555555555555555555555555555555555555555",
"5555555555555555555555555555555555555555555555555555555555555555",
"5555555555555555555555555555555555555555555555555555555555555555",
"5555555555555555555555555555555555555555555555555555555555555555",
"5555555555555555555555555555555555555555555555555555555555555555"
};
