/* XPM */
static char *output_5[] = {
/* columns rows colors chars-per-pixel */
"64 130 23 1 ",
"  c black",
". c #222034",
"X c #45212D",
"o c #3F3F74",
"O c #3C447C",
"+ c #46426C",
"@ c #954A51",
"# c #CB7173",
"$ c #4F5AA5",
"% c #6A78AC",
"& c #616FCB",
"* c #7C8DB5",
"= c #639BFF",
"- c #9C859F",
"; c #F5A489",
": c #F9BF99",
"> c #FFE0B1",
", c #A6AEE1",
"< c #E1EAFD",
"1 c white",
"2 c #3F3F74",
"3 c #5C5CA9",
"4 c None",
/* pixels */
"4444444444444444444444444444444444444444444444444444444444444444",
"4444444444444444444444444444444444444444444444444444444444444444",
"4444444444444444444444444444444444444444444444444444444444444444",
"4444444444444444444444444444444444444444444444444444444444444444",
"4444444444444444444444444444444444444444444444444444444444444444",
"4444444444444444444444444444444444444444444444444444444444444444",
"4444444444444444444444444444444444444444444444444444444444444444",
"4444444444444444444444444444444444444444444444444444444444444444",
"4444444444444444444444444444444444444444444444444444444444444444",
"4444444444444444444444444444444444444444444444444444444444444444",
"4444444444444444444444444444444444444444444444444444444444444444",
"4444444444444444444444444444444444444444444444444444444444444444",
"4444444444444444444444444444444444444444444444444444444444444444",
"4444444444444444444444444444444444444444444444444444444444444444",
"4444444444444444444444444444444444444444444444444444444444444444",
"444444444444444444444444444.........4444444444444444444444444444",
"4444444444444444444444444.O$&&&&&&&$O.44444444444444444444444444",
"44444444444444444444444.O$&&&&&&&&&&&$O.444444444444444444444444",
"4444444444444444444444.$&&&&&&&&&&&&&&&$.44444444444444444444444",
"444444444444444444444.&&&&&&&&&&&&&&&&&&&.4444444444444444444444",
"444444444444444444.....OO$&&&&&&&&&&&&&&&$.444444444444444444444",
"44444444444444444.OOOOO$$&$$&&&&&&&&&&&&&&O444444444444444444444",
"4444444444444444.O$$$$$&&$&&$&&&&&&&&&&&&&$.44444444444444444444",
"4444444444444444.$&&&&O$&&$&&$&&&&&&&&&&&&&O44444444444444444444",
"444444444444444.O$&&&&$O&&&$&&.&&&&&&&&&&&&$.4444444444444444444",
"444444444444444O$&&&&&&$&&&&O&O&&&&&&&&&&&&&.4444444444444444444",
"44444444444444.$$&&&&&&$&&&&$O$.&&&&&&&&&&&&.4444444444444444444",
"44444444444444.$$&&&&&&O&&&&&O&O&&&&&&&&&&&&.4444444444444444444",
"44444444444444.$$&&&&&&O&&&&&$O$.&&&&&&&&&&&O4444444444444444444",
"44444444444444.$$&&&&&&O&&&&&$.$O$&&&&&&&&&&$.444444444444444444",
"44444444444444.$$$&&&&$.$&&&$$O$$.$&&&&&&&&$$.444444444444444444",
"444444444444444O$$$&&&O.$$&$$$&.$.O$&&&&&&&$$.444444444444444444",
"444444444444444.O$$&&$..O$$$$$O.$.OO$&&&&&$$$.444444444444444444",
"4444444444444444.$$$$O...O$$O..O$....O$$$$$$$O444444444444444444",
"44444444444444444....::;;....O$$$.@X@.$$$$$$$$.44444444444444444",
"44444444444444444444X:#   #.$$$$$.>>:@O$$$$$$$.44444444444444444",
"44444444444444444444X;     .$$$$$.#;>X.$$$$$$$O44444444444444444",
"44444444444444444444@    -X.O$$$$.;:>X.$$$$$$$$.4444444444444444",
"444444444444444444X@#:;1o1@;.$$$$.;:;@OO$$$$$$$.4444444444444444",
"44444444444444444X#;:>:oo1;>.$$$$.#:X.OO$$$$$$$O4444444444444444",
"44444444444444444X;:>>:==;>>.$$$$.:;@OOOO$$$$$$$.444444444444444",
"444444444444444444@:>>>:;:>>.$$$O:;X.OOOO$$$$$$$.444444444444444",
"444444444444444444X;:>>>>>>>.$$$.XX.OOOOOO$$$$$$O444444444444444",
"4444444444444444444X;:>>>>>>.$$O##X.OOOOOO$$$$$$$.44444444444444",
"44444444444444444444X#@:::::.$$.##@..OOOOOO$$$$$$.44444444444444",
"444444444444444444444X;:::;#...##+++X.OOOOO$$$$$$O44444444444444",
"4444444444444444444444XXX@@@###++,,,++.OOOOO$$$$$$.4444444444444",
"44444444444444444444444+*+X###+,*%%%**+OOOOO$$$$$$.4444444444444",
"444444444444444444444+%*+@###+,1+:::+%*.OOOOO$$$$$.4444444444444",
"4444444444444444444+%*<%::>#+,1+:>>>>>++.OOOO$$$$$.4444444444444",
"444444444444444444+,<11+##;+,1%;>>>>>>>+.OOOO$$$$O44444444444444",
"44444444444444444+11111*%+%*<*+;>>>>>>>X.OOOOO$$$.44444444444444",
"4444444444444444+,1<1<,<111<<%:#>>>>>>>X.OOOOO$$$.44444444444444",
"44444444444444++%<1,11111111<+:@>>>>>>>X.OOOOO$$O444444444444444",
"44444444444444+**1**,<1111111+:@>>>>>>>X.O.OOO$$.444444444444444",
"44444444444444+,,<*,111111111%>@>>>>>>>X.O.OOO$O4444444444444444",
"44444444444444+*,*,%<11111111*+@>>>>>>>@.O.OOO$.4444444444444444",
"444444444444444+,*%<111111111<%@>>>>>>>;X.O.OOO.4444444444444444",
"444444444444444+*%%<11<1111111*+;>>>>>>>X...OO.44444444444444444",
"4444444444444444%+%<1<<1111111,*#>>>>>>>X.4...444444444444444444",
"4444444444444444+++,1<,1111111<,@>>>>>>>X44444444444444444444444",
"44444444444444444+%,1<,1111<<11,@>>>>>>>@44444444444444444444444",
"44444444444444444+%,1<,<<<<,,11<@>>>>>>>;X4444444444444444444444",
"44444444444444444+%,<<*,,,,,,11<X;>>>>>>>X4444444444444444444444",
"444444444444444444+,<<*,,,,,*11<,@>>>>>>>X4444444444444444444444",
"4444444444444444444%<<%,,,*+<11<,X>>>>>>>X4444444444444444444444",
"4444444444444444444+<<<+%*,<11<*%X:>>>>>>X4444444444444444444444",
"4444444444444444444+<<<*,,<11*%>>X;>>>>>>X4444444444444444444444",
"44444444444444444444+++++%***>>>>@;;:>>>;X4444444444444444444444",
"444444444444444444444444+*%*,*%%X;;:>>>>@X4444444444444444444444",
"4444444444444444444444444+,<111<@;>>>>>>X+4444444444444444444444",
"4444444444444444444444444X+++++X;:>>>>>>X+4444444444444444444444",
"4444444444444444444444444X>>>>X;;>>>>>>>X+4444444444444444444444",
"4444444444444444444444444X>>>>@;#>>>>>>>XX4444444444444444444444",
"4444444444444444444444444X>>>X;#>>>>>>;:XX4444444444444444444444",
"4444444444444444444444444X>>>X;#>#>>>>#;X44444444444444444444444",
"4444444444444444444444444X;>>X;#:#>>:;@;X44444444444444444444444",
"44444444444444444444444444@>>>X@;@::;;@X444444444444444444444444",
"44444444444444444444444444X>>>>@;@;;;;X4444444444444444444444444",
"44444444444444444444444444X>>>>@;@XXXX44444444444444444444444444",
"44444444444444444444444444X>>>>>XX>>>X44444444444444444444444444",
"44444444444444444444444444X>>>>>>>>>>X44444444444444444444444444",
"44444444444444444444444444X:>>>>>>>>:X44444444444444444444444444",
"44444444444444444444444444X;:>>>>>>:#@X4444444444444444444444444",
"444444444444444444444444444@;:>>>>:;@#@4444444444444444444444444",
"444444444444444444444444444X;;;;;;;;X;#X444444444444444444444444",
"444444444444444444444444444X;;;;;;;;@;;X444444444444444444444444",
"444444444444444444444444444X#;;;;;;;#X;X444444444444444444444444",
"4444444444444444444444432222@;;;;;;;;;X4444444444444444444444444",
"4444444444444444444322222222X;;;;;;;;;@2344444444444444444444444",
"4444444444444444322222222222X#;;;;;;;;#X222344444444444444444444",
"44444444444444322222222222222@;;;;;;;;#X222223444444444444444444",
"44444444444432222222222222222X;;;;;;;;@2222222234444444444444444",
"44444444443222222222222222222X#;;;;;;;X2222222222344444444444444",
"444444444322222222222222222222@;;;;;;;X2222222222234444444444444",
"44444444322222222222222222222XX;;;;;;#X2222222222223444444444444",
"4444444422222222222222222222X;X;;;;;;@22222222222222444444444444",
"444444432222222222222222222X;;@;;;;;;X22222222222222344444444444",
"444444422222222222222222222X;X#;;;;;;X22222222222222244444444444",
"4444444222222222222222222222X;;;;;;;;X22222222222222244444444444",
"444444422222222222222222222X;;;;;;;;;X22222222222222244444444444",
"444444422222222222222222222X;;;;;;;;;X22222222222222244444444444",
"4444444322222222222222222222X;;;;#@XX222222222222222344444444444",
"44444444222222222222222222222XXXXX222222222222222222444444444444",
"4444444432222222222222222222222222222222222222222223444444444444",
"4444444443222222222222222222222222222222222222222234444444444444",
"4444444444322222222222222222222222222222222222222344444444444444",
"4444444444443222222222222222222222222222222222234444444444444444",
"4444444444444422222222222222222222222222222222344444444444444444",
"4444444444444443222222222222222222222222222234444444444444444444",
"4444444444444444443222222222222222222222234444444444444444444444",
"4444444444444444444444432222222222223444444444444444444444444444",
"4444444444444444444444444444444444444444444444444444444444444444",
"4444444444444444444444444444444444444444444444444444444444444444",
"4444444444444444444444444444444444444444444444444444444444444444",
"4444444444444444444444444444444444444444444444444444444444444444",
"4444444444444444444444444444444444444444444444444444444444444444",
"4444444444444444444444444444444444444444444444444444444444444444",
"4444444444444444444444444444444444444444444444444444444444444444",
"4444444444444444444444444444444444444444444444444444444444444444",
"4444444444444444444444444444444444444444444444444444444444444444",
"4444444444444444444444444444444444444444444444444444444444444444",
"4444444444444444444444444444444444444444444444444444444444444444",
"4444444444444444444444444444444444444444444444444444444444444444",
"4444444444444444444444444444444444444444444444444444444444444444",
"4444444444444444444444444444444444444444444444444444444444444444",
"4444444444444444444444444444444444444444444444444444444444444444",
"4444444444444444444444444444444444444444444444444444444444444444",
"4444444444444444444444444444444444444444444444444444444444444444",
"4444444444444444444444444444444444444444444444444444444444444444"
};
