/* XPM */
static char *output_6[] = {
/* columns rows colors chars-per-pixel */
"64 130 24 1 ",
"  c black",
". c #222034",
"X c #45212D",
"o c #3F3F74",
"O c #3C447C",
"+ c #46426C",
"@ c #8F563B",
"# c #954A51",
"$ c #CB7173",
"% c #4F5AA5",
"& c #6A78AC",
"* c #616FCB",
"= c #7C8DB5",
"- c #639BFF",
"; c #9C859F",
": c #F5A489",
"> c #F9BF99",
", c #FFE0B1",
"< c #A6AEE1",
"1 c #E1EAFD",
"2 c white",
"3 c #3F3F74",
"4 c #5C5CA9",
"5 c None",
/* pixels */
"5555555555555555555555555555555555555555555555555555555555555555",
"5555555555555555555555555555555555555555555555555555555555555555",
"5555555555555555555555555555555555555555555555555555555555555555",
"5555555555555555555555555555555555555555555555555555555555555555",
"5555555555555555555555555555555555555555555555555555555555555555",
"5555555555555555555555555555555555555555555555555555555555555555",
"5555555555555555555555555555555555555555555555555555555555555555",
"5555555555555555555555555555555555555555555555555555555555555555",
"5555555555555555555555555555555555555555555555555555555555555555",
"5555555555555555555555555555555555555555555555555555555555555555",
"5555555555555555555555555555555555555555555555555555555555555555",
"5555555555555555555555555555555555555555555555555555555555555555",
"5555555555555555555555555555555555555555555555555555555555555555",
"5555555555555555555555555555555555555555555555555555555555555555",
"5555555555555555555555555555555555555555555555555555555555555555",
"5555555555555555555555555555555555555555555555555555555555555555",
"555555555555555555555555555.........5555555555555555555555555555",
"5555555555555555555555555.O%*******%O.55555555555555555555555555",
"55555555555555555555555.O%***********%O.555555555555555555555555",
"5555555555555555555555.%***************%.55555555555555555555555",
"55555555555555555555...OO%***************.5555555555555555555555",
"555555555555555555..OOO%%*%%*************%.555555555555555555555",
"55555555555555555.O%%%%**%**%*************O555555555555555555555",
"5555555555555555.O****O%**%**%************%.55555555555555555555",
"5555555555555555.%****%O***%**.************O55555555555555555555",
"5555555555555555O******%****%*O************%.5555555555555555555",
"555555555555555.%******%****O*%.************.5555555555555555555",
"555555555555555.%******O****O%*O************.5555555555555555555",
"555555555555555.%******O****%O*%.***********.5555555555555555555",
"555555555555555.%******O*****.*%.***********O5555555555555555555",
"555555555555555.%%****%.%***%.*%.%**********%.555555555555555555",
"555555555555555.%%%***O.%%*%%.%%.O%********%%.555555555555555555",
"5555555555555555O%%**%..%%%%%O%%.OO%*******%%.555555555555555555",
"5555555555555555.%%%%O@.%%%%**.%.OOO%*****%%%.555555555555555555",
"55555555555555555.O%%.>>.O%%%O.%.O...O%%%%%%%.555555555555555555",
"555555555555555555 ..>>::.....O%..#X#.%%%%%%%O.55555555555555555",
"55555555555555555555X>$   $.%%%%.#,,>#O%%%%%%%.55555555555555555",
"55555555555555555555X:     .%%%%.:$:,X.%%%%%%%.55555555555555555",
"55555555555555555555#    ;X.%%%%.,:>,X.%%%%%%%.55555555555555555",
"555555555555555555X#$>:2o2#.%%%O>,:>:#O%%%%%%%O.5555555555555555",
"55555555555555555X$:>,>oo2:.%%%.>:$>X.O%%%%%%%%.5555555555555555",
"55555555555555555X:>,,>--:,.%%%.,,>:#OOO%%%%%%%.5555555555555555",
"555555555555555555#>,,,>:>,.%%%.#>:X.OOO%%%%%%%O.555555555555555",
"555555555555555555X:>,,,,,,.%%O$XXX.OOOOO%%%%%%%.555555555555555",
"5555555555555555555X:>,,,,,.%%.X$$X.OOOOO%%%%%%%.555555555555555",
"55555555555555555555X$#>>>>.%%.$$$#.OOOOOO%%%%%%O555555555555555",
"555555555555555555555X:>>>:...$$$+++..OOOO%%%%%%%.55555555555555",
"5555555555555555555555XXX###$$$++<<<++.OOOO%%%%%%.55555555555555",
"55555555555555555555555+=+#$$$+<=&&&==+.OOO%%%%%%.55555555555555",
"55555555555555555555+&<=+::$$+<2+>,,+&=.OOOO%%%%%.55555555555555",
"555555555555555555+&<11&>$,$+<2+>,,,,,++OOOO%%%%%.55555555555555",
"55555555555555555+<1222+$>>+<2&:,,,,,,,+.OOOO%%%%.55555555555555",
"5555555555555555+<22222=&+&=1=+:,,,,,,,X.OOOO%%%%.55555555555555",
"5555555555555555&12121<122211&>$,,,,,,,X.OOOOO%%%.55555555555555",
"555555555555555+&22<222222221+>#,,,,,,,X.OOOOO%%O555555555555555",
"55555555555555+==22=<12222222+>#,,,,,,,X.OOOOOO%.555555555555555",
"55555555555555+<<1=<222222222&,#,,,,,,,X.OO.OOOO.555555555555555",
"55555555555555+=<<=&222222222=+#,,,,,,,X.OO.OOOO.555555555555555",
"555555555555555+=&<22222222221&#:,,,,,,X.OO..OOO5555555555555555",
"5555555555555555&+111122222222=+$,,,,,,#.OO..OO.5555555555555555",
"5555555555555555++<12122222221<=#,,,,,,:X..55..55555555555555555",
"5555555555555555++<222122222221<X,,,,,,,X55555555555555555555555",
"55555555555555555+&122122221122<X,,,,,,,X55555555555555555555555",
"55555555555555555+&<21111111<221X,,,,,,,X55555555555555555555555",
"55555555555555555+&<<<<<<<<<<221X,,,,,,,X55555555555555555555555",
"555555555555555555+<<<<<<<<<=221X,,,,,,,X+5555555555555555555555",
"5555555555555555555&1<<<<<=+<12<X,,,,,,,X+5555555555555555555555",
"5555555555555555555+<21===<<121=X,,,,,,,X+5555555555555555555555",
"5555555555555555555+<1211<<12=&,X,,,,,,,X+5555555555555555555555",
"55555555555555555555+++++&====&&X>,,,,,,X+5555555555555555555555",
"5555555555555555555555555+<12221X::,,,,,X+5555555555555555555555",
"5555555555555555555555555X++++++#:>,,,,,X+5555555555555555555555",
"5555555555555555555555555X,,,,,X$>,,,,,,X+5555555555555555555555",
"5555555555555555555555555X,,,,X::,,,,,,,XX5555555555555555555555",
"5555555555555555555555555X,,,,#:$,,,,,,,XX5555555555555555555555",
"5555555555555555555555555X,,,X:$,>,,,,>,X55555555555555555555555",
"5555555555555555555555555X>,,X:$,:,,,,:>X55555555555555555555555",
"5555555555555555555555555X:,,X:$,$>>>>$:X55555555555555555555555",
"55555555555555555555555555#,,,X$>$::::#:X55555555555555555555555",
"55555555555555555555555555X,,,,#:#::::#X555555555555555555555555",
"55555555555555555555555555X,,,,#:#XXXXX5555555555555555555555555",
"55555555555555555555555555X>,,,XXX,,>X55555555555555555555555555",
"55555555555555555555555555X:,,,,,,,,>X55555555555555555555555555",
"555555555555555555555555555#>,,,,,,>$#55555555555555555555555555",
"555555555555555555555555555X:,,,,,>:#$X5555555555555555555555555",
"555555555555555555555555555X:>>>>>::X:#5555555555555555555555555",
"555555555555555555555555555X$:::::::#:$X555555555555555555555555",
"5555555555555555555555555555#:::::::$X:X555555555555555555555555",
"5555555555555555555555543333X:::::::::XX555555555555555555555555",
"5555555555555555555433333333X:::::::::#3455555555555555555555555",
"5555555555555555433333333333X$::::::::$X333455555555555555555555",
"55555555555555433333333333333#::::::::$X333334555555555555555555",
"55555555555543333333333333333X$:::::::#3333333345555555555555555",
"555555555543333333333333333333#:::::::X3333333333455555555555555",
"555555555433333333333333333333X:::::::X3333333333345555555555555",
"55555555433333333333333333333XX::::::$X3333333333334555555555555",
"5555555533333333333333333333X:X::::::#33333333333333555555555555",
"555555543333333333333333333X::#::::::X33333333333333455555555555",
"555555533333333333333333333X:X$::::::X33333333333333355555555555",
"5555555333333333333333333333X::::::::X33333333333333355555555555",
"555555533333333333333333333X:::::::::X33333333333333355555555555",
"555555533333333333333333333X:::::::::X33333333333333355555555555",
"5555555433333333333333333333X:::::XXX333333333333333455555555555",
"55555555333333333333333333333XXXXX333333333333333333555555555555",
"5555555543333333333333333333333333333333333333333334555555555555",
"5555555554333333333333333333333333333333333333333345555555555555",
"5555555555433333333333333333333333333333333333333455555555555555",
"5555555555554333333333333333333333333333333333345555555555555555",
"5555555555555533333333333333333333333333333333455555555555555555",
"5555555555555554333333333333333333333333333345555555555555555555",
"5555555555555555554333333333333333333333345555555555555555555555",
"5555555555555555555555543333333333334555555555555555555555555555",
"5555555555555555555555555555555555555555555555555555555555555555",
"5555555555555555555555555555555555555555555555555555555555555555",
"5555555555555555555555555555555555555555555555555555555555555555",
"5555555555555555555555555555555555555555555555555555555555555555",
"5555555555555555555555555555555555555555555555555555555555555555",
"5555555555555555555555555555555555555555555555555555555555555555",
"5555555555555555555555555555555555555555555555555555555555555555",
"5555555555555555555555555555555555555555555555555555555555555555",
"5555555555555555555555555555555555555555555555555555555555555555",
"5555555555555555555555555555555555555555555555555555555555555555",
"5555555555555555555555555555555555555555555555555555555555555555",
"5555555555555555555555555555555555555555555555555555555555555555",
"5555555555555555555555555555555555555555555555555555555555555555",
"5555555555555555555555555555555555555555555555555555555555555555",
"5555555555555555555555555555555555555555555555555555555555555555",
"5555555555555555555555555555555555555555555555555555555555555555",
"5555555555555555555555555555555555555555555555555555555555555555",
"5555555555555555555555555555555555555555555555555555555555555555"
};
