/* XPM */
static char *output_15[] = {
/* columns rows colors chars-per-pixel */
"64 130 24 1 ",
"  c black",
". c #222034",
"X c #45212D",
"o c #3F3F74",
"O c #3C447C",
"+ c #46426C",
"@ c #8F563B",
"# c #954A51",
"$ c #CB7173",
"% c #4F5AA5",
"& c #6A78AC",
"* c #616FCB",
"= c #7C8DB5",
"- c #639BFF",
"; c #9C859F",
": c #F5A489",
"> c #F9BF99",
", c #FFE0B1",
"< c #A6AEE1",
"1 c #E1EAFD",
"2 c white",
"3 c #3F3F74",
"4 c #5C5CA9",
"5 c None",
/* pixels */
"5555555555555555555555555555555555555555555555555555555555555555",
"5555555555555555555555555555555555555555555555555555555555555555",
"5555555555555555555555555555555555555555555555555555555555555555",
"5555555555555555555555555555555555555555555555555555555555555555",
"5555555555555555555555555555555555555555555555555555555555555555",
"5555555555555555555555555555555555555555555555555555555555555555",
"5555555555555555555555555555555555555555555555555555555555555555",
"5555555555555555555555555555555555555555555555555555555555555555",
"5555555555555555555555555555555555555555555555555555555555555555",
"5555555555555555555555555555555555555555555555555555555555555555",
"5555555555555555555555555555555555555555555555555555555555555555",
"5555555555555555555555555555555555555555555555555555555555555555",
"5555555555555555555555555555555555555555555555555555555555555555",
"5555555555555555555555555555555555555555555555555555555555555555",
"5555555555555555555555555555.........555555555555555555555555555",
"55555555555555555555555555.O%*******%O.5555555555555555555555555",
"555555555555555555555555.O%***********%O.55555555555555555555555",
"55555555555555555555555.%***************%.5555555555555555555555",
"5555555555555555555555.***************%OO...55555555555555555555",
"555555555555555555555.%*************%%*%%OOO..555555555555555555",
"555555555555555555555O*************%**%**%%%%O.55555555555555555",
"55555555555555555555.%************%**%**%O****O.5555555555555555",
"55555555555555555555O************.**%***O%****%.5555555555555555",
"5555555555555555555.%************O*%****%******O5555555555555555",
"5555555555555555555.************.%*O****%******%.555555555555555",
"5555555555555555555.************O*%O****O******%.555555555555555",
"5555555555555555555.***********.%*O%****O******%.555555555555555",
"5555555555555555555O***********.%*.*****O******%.555555555555555",
"555555555555555555.%**********%.%*.%***%.%****%%.555555555555555",
"555555555555555555.%%********%O.%%.%%*%%.O***%%%.555555555555555",
"555555555555555555.%%*******%OO.%%O%%%%%..%**%%O5555555555555555",
"555555555555555555.%%%*****%OOO.%.**%%%%.@O%%%%.5555555555555555",
"555555555555555555.%%%%%%%O...O.%.O%%%O.>>.%%O.55555555555555555",
"55555555555555555.O%%%%%%%.#X#..%O.....::>>.. 555555555555555555",
"55555555555555555.%%%%%%%O#>,,#.%%%%.$   $>X55555555555555555555",
"55555555555555555.%%%%%%%.X,:$:.%%%%.     :X55555555555555555555",
"55555555555555555.%%%%%%%.X,>:,.%%%%.X;    #55555555555555555555",
"5555555555555555.O%%%%%%%O#:>:,>O%%%.#2o2:>$#X555555555555555555",
"5555555555555555.%%%%%%%%O.X>$:>.%%%.:2oo>,>:$X55555555555555555",
"5555555555555555.%%%%%%%OOO#:>,,.%%%.,:-->,,>:X55555555555555555",
"555555555555555.O%%%%%%%OOO.X:>#.%%%.,>:>,,,>#555555555555555555",
"555555555555555.%%%%%%%OOOOO.XXX$O%%.,,,,,,>:X555555555555555555",
"555555555555555.%%%%%%%OOOOO.X$$X.%%.,,,,,>:X5555555555555555555",
"555555555555555O%%%%%%OOOOOO.#$$$.%%.>>>>#$X55555555555555555555",
"55555555555555.%%%%%%%OOOO..+++$$$...:>>>:X555555555555555555555",
"55555555555555.%%%%%%OOOO.++<<<++$$$###XXX5555555555555555555555",
"55555555555555.%%%%%%OOO.+==&&&=<+$$$#+=+55555555555555555555555",
"55555555555555.%%%%%OOOO.=&+,,>+2<+$$::+=<&+55555555555555555555",
"55555555555555.%%%%%OOOO++,,,,,>+2<+$,$>&11<&+555555555555555555",
"55555555555555.%%%%OOOO.+,,,,,,,:&2<+>>$+2221<+55555555555555555",
"55555555555555.%%%%OOOO.X,,,,,,,:+=1=&+&=22222<+5555555555555555",
"55555555555555.%%%OOOOO.X,,,,,,,$>&112221<12121&5555555555555555",
"555555555555555O%%OOOOO.X,,,,,,,#>+122222222<22&+555555555555555",
"555555555555555.%OOOOOO.X,,,,,,,#>+22222221<=22==+55555555555555",
"555555555555555.OOOO.OO.X,,,,,,,#,&222222222<=1<<+55555555555555",
"555555555555555.OOOO.OO.X,,,,,,,#+=222222222&=<<=+55555555555555",
"5555555555555555OOO..OO.X,,,,,,:#&12222222222<&=+555555555555555",
"5555555555555555.OO..OO.#,,,,,,$+=222222221111+&5555555555555555",
"55555555555555555..55..X:,,,,,,#=<12222222121<++5555555555555555",
"55555555555555555555555X,,,,,,,X<122222221222<++5555555555555555",
"55555555555555555555555X,,,,,,,X<221122221221&+55555555555555555",
"55555555555555555555555X,,,,,,,X122<11111112<&+55555555555555555",
"55555555555555555555555X,,,,,,,X122<<<<<<<<<<&+55555555555555555",
"5555555555555555555555+X,,,,,,,X122=<<<<<<<<<+555555555555555555",
"5555555555555555555555+X,,,,,,,X<21<+=<<<<<1&5555555555555555555",
"5555555555555555555555+X,,,,,,,X=121<<===12<+5555555555555555555",
"5555555555555555555555+X,,,,,,,X,&=21<<1121<+5555555555555555555",
"5555555555555555555555+X,,,,,,>X&&====&+++++55555555555555555555",
"5555555555555555555555+X,,,,,::X12221<+5555555555555555555555555",
"5555555555555555555555+X,,,,,>:#++++++X5555555555555555555555555",
"5555555555555555555555+X,,,,,,>$X,,,,,X5555555555555555555555555",
"5555555555555555555555XX,,,,,,,::X,,,,X5555555555555555555555555",
"5555555555555555555555XX,,,,,,,$:#,,,,X5555555555555555555555555",
"55555555555555555555555X,>,,,,>,$:X,,,X5555555555555555555555555",
"55555555555555555555555X>:,,,,:,$:X,,>X5555555555555555555555555",
"55555555555555555555555X:$>>>>$,$:X,,:X5555555555555555555555555",
"55555555555555555555555X:#::::$>$X,,,#55555555555555555555555555",
"555555555555555555555555X#::::#:#,,,,X55555555555555555555555555",
"5555555555555555555555555XXXXX#:#,,,,X55555555555555555555555555",
"55555555555555555555555555X>,,XXX,,,>X55555555555555555555555555",
"55555555555555555555555555X>,,,,,,,,:X55555555555555555555555555",
"55555555555555555555555555#$>,,,,,,>#555555555555555555555555555",
"5555555555555555555555555X$#:>,,,,,:X555555555555555555555555555",
"5555555555555555555555555#:X::>>>>>:X555555555555555555555555555",
"555555555555555555555555X$:#:::::::$X555555555555555555555555555",
"555555555555555555555555X:X$:::::::#5555555555555555555555555555",
"555555555555555555555555XX:::::::::X3333455555555555555555555555",
"5555555555555555555555543#:::::::::X3333333345555555555555555555",
"555555555555555555554333X$::::::::$X3333333333345555555555555555",
"555555555555555555433333X$::::::::#33333333333333455555555555555",
"5555555555555555433333333#:::::::$X33333333333333334555555555555",
"5555555555555543333333333X:::::::#333333333333333333345555555555",
"5555555555555433333333333X:::::::X333333333333333333334555555555",
"5555555555554333333333333X$::::::XX33333333333333333333455555555",
"55555555555533333333333333#::::::X:X3333333333333333333355555555",
"55555555555433333333333333X::::::#::X333333333333333333345555555",
"55555555555333333333333333X::::::$X:X333333333333333333335555555",
"55555555555333333333333333X::::::::X3333333333333333333335555555",
"55555555555333333333333333X:::::::::X333333333333333333335555555",
"55555555555333333333333333X:::::::::X333333333333333333335555555",
"555555555554333333333333333XXX:::::X3333333333333333333345555555",
"555555555555333333333333333333XXXXX33333333333333333333355555555",
"5555555555554333333333333333333333333333333333333333333455555555",
"5555555555555433333333333333333333333333333333333333334555555555",
"5555555555555543333333333333333333333333333333333333345555555555",
"5555555555555555433333333333333333333333333333333334555555555555",
"5555555555555555543333333333333333333333333333333355555555555555",
"5555555555555555555433333333333333333333333333334555555555555555",
"5555555555555555555555433333333333333333333334555555555555555555",
"5555555555555555555555555554333333333333455555555555555555555555",
"5555555555555555555555555555555555555555555555555555555555555555",
"5555555555555555555555555555555555555555555555555555555555555555",
"5555555555555555555555555555555555555555555555555555555555555555",
"5555555555555555555555555555555555555555555555555555555555555555",
"5555555555555555555555555555555555555555555555555555555555555555",
"5555555555555555555555555555555555555555555555555555555555555555",
"5555555555555555555555555555555555555555555555555555555555555555",
"5555555555555555555555555555555555555555555555555555555555555555",
"5555555555555555555555555555555555555555555555555555555555555555",
"5555555555555555555555555555555555555555555555555555555555555555",
"5555555555555555555555555555555555555555555555555555555555555555",
"5555555555555555555555555555555555555555555555555555555555555555",
"5555555555555555555555555555555555555555555555555555555555555555",
"5555555555555555555555555555555555555555555555555555555555555555",
"5555555555555555555555555555555555555555555555555555555555555555",
"5555555555555555555555555555555555555555555555555555555555555555",
"5555555555555555555555555555555555555555555555555555555555555555",
"5555555555555555555555555555555555555555555555555555555555555555",
"5555555555555555555555555555555555555555555555555555555555555555",
"5555555555555555555555555555555555555555555555555555555555555555"
};
