/* XPM */
static char *output_14[] = {
/* columns rows colors chars-per-pixel */
"64 130 23 1 ",
"  c black",
". c #222034",
"X c #45212D",
"o c #3F3F74",
"O c #3C447C",
"+ c #46426C",
"@ c #954A51",
"# c #CB7173",
"$ c #4F5AA5",
"% c #6A78AC",
"& c #616FCB",
"* c #7C8DB5",
"= c #639BFF",
"- c #9C859F",
"; c #F5A489",
": c #F9BF99",
"> c #FFE0B1",
", c #A6AEE1",
"< c #E1EAFD",
"1 c white",
"2 c #3F3F74",
"3 c #5C5CA9",
"4 c None",
/* pixels */
"4444444444444444444444444444444444444444444444444444444444444444",
"4444444444444444444444444444444444444444444444444444444444444444",
"4444444444444444444444444444444444444444444444444444444444444444",
"4444444444444444444444444444444444444444444444444444444444444444",
"4444444444444444444444444444444444444444444444444444444444444444",
"4444444444444444444444444444444444444444444444444444444444444444",
"4444444444444444444444444444444444444444444444444444444444444444",
"4444444444444444444444444444444444444444444444444444444444444444",
"4444444444444444444444444444444444444444444444444444444444444444",
"4444444444444444444444444444444444444444444444444444444444444444",
"4444444444444444444444444444444444444444444444444444444444444444",
"4444444444444444444444444444444444444444444444444444444444444444",
"4444444444444444444444444444444444444444444444444444444444444444",
"4444444444444444444444444444.........444444444444444444444444444",
"44444444444444444444444444.O$&&&&&&&$O.4444444444444444444444444",
"444444444444444444444444.O$&&&&&&&&&&&$O.44444444444444444444444",
"44444444444444444444444.$&&&&&&&&&&&&&&&$.4444444444444444444444",
"4444444444444444444444.&&&&&&&&&&&&&&&&&&&.444444444444444444444",
"444444444444444444444.$&&&&&&&&&&&&&&&$OO.....444444444444444444",
"444444444444444444444O&&&&&&&&&&&&&&$$&$$OOOOO.44444444444444444",
"44444444444444444444.$&&&&&&&&&&&&&$&&$&&$$$$$O.4444444444444444",
"44444444444444444444O&&&&&&&&&&&&&$&&$&&$O&&&&$.4444444444444444",
"4444444444444444444.$&&&&&&&&&&&&.&&$&&&O$&&&&$O.444444444444444",
"4444444444444444444.&&&&&&&&&&&&&O&O&&&&$&&&&&&$O444444444444444",
"4444444444444444444.&&&&&&&&&&&&.$O$&&&&$&&&&&&$$.44444444444444",
"4444444444444444444.&&&&&&&&&&&&O&O&&&&&O&&&&&&$$.44444444444444",
"4444444444444444444O&&&&&&&&&&&.$O$&&&&&O&&&&&&$$.44444444444444",
"444444444444444444.$&&&&&&&&&&$O$.$&&&&&O&&&&&&$$.44444444444444",
"444444444444444444.$$&&&&&&&&$.$$O$$&&&$.$&&&&$$$.44444444444444",
"444444444444444444.$$&&&&&&&$O.$.&$$$&$$.O&&&$$$O444444444444444",
"444444444444444444.$$$&&&&&$OO.$.O$$$$$O..$&&$$O.444444444444444",
"444444444444444444O$$$$$$$O....$O..O$$O...O$$$$.4444444444444444",
"44444444444444444.$$$$$$$$.@X@.$$$O....;;::....44444444444444444",
"44444444444444444.$$$$$$$O@:>>.$$$$$.#   #:X44444444444444444444",
"44444444444444444O$$$$$$$.X>;#.$$$$$.     ;X44444444444444444444",
"4444444444444444.$$$$$$$$.X>:;.$$$$O.X-    @44444444444444444444",
"4444444444444444.$$$$$$$OO@;:;.$$$$.;@1o1;:#@X444444444444444444",
"4444444444444444O$$$$$$$OO.X:#.$$$$.>;1oo:>:;#X44444444444444444",
"444444444444444.$$$$$$$OOOO@;:.$$$$.>>;==:>>:;X44444444444444444",
"444444444444444.$$$$$$$OOOO.X;:O$$$.>>:;:>>>:@444444444444444444",
"444444444444444O$$$$$$OOOOOO.XX.$$$.>>>>>>>:;X444444444444444444",
"44444444444444.$$$$$$$OOOOOO.X##O$$.>>>>>>:;X4444444444444444444",
"44444444444444.$$$$$$OOOOOO..@##.$$.:::::@#X44444444444444444444",
"44444444444444O$$$$$$OOOOO.X+++##...#;:::;X444444444444444444444",
"4444444444444.$$$$$$OOOOO.++,,,++###@@@XXX4444444444444444444444",
"4444444444444.$$$$$$OOOOO+**%%%*,+###X+*+44444444444444444444444",
"4444444444444.$$$$$OOOOO.*%+:::+1,+###@+*%+444444444444444444444",
"4444444444444.$$$$$OOOO.++>>>>>:+1,+#>::%<*%+4444444444444444444",
"44444444444444O$$$$OOOO.+>>>>>>>;%1,+;##+11<,+444444444444444444",
"44444444444444.$$$OOOOO.X>>>>>>>;+*<*%+%*11111+44444444444444444",
"44444444444444.$$$OOOOO.X>>>>>>>#:%<<111<,<1<1,+4444444444444444",
"444444444444444O$$OOOOO.X>>>>>>>@:+<11111111,1<%++44444444444444",
"444444444444444.$$OOO.O.X>>>>>>>@:+1111111<,**1**+44444444444444",
"4444444444444444O$OOO.O.X>>>>>>>@>%111111111,*<,,+44444444444444",
"4444444444444444.$OOO.O.@>>>>>>>@+*11111111<%,*,*+44444444444444",
"4444444444444444.OOO.O.X;>>>>>>>@%<111111111<%*,+444444444444444",
"44444444444444444.OO...X>>>>>>>;+*1111111<11<%%*+444444444444444",
"444444444444444444...4.X>>>>>>>#*,1111111<<1<%+%4444444444444444",
"44444444444444444444444X>>>>>>>@,<1111111,<1,+++4444444444444444",
"44444444444444444444444@>>>>>>>@,11<<1111,<1,%+44444444444444444",
"4444444444444444444444X;>>>>>>>@<11,,<<<<,<1,%+44444444444444444",
"4444444444444444444444X>>>>>>>;X<11,,,,,,*<<,%+44444444444444444",
"4444444444444444444444X>>>>>>>@,<11*,,,,,*<<,+444444444444444444",
"4444444444444444444444X>>>>>>>X,<11<+*,,,%<<%4444444444444444444",
"4444444444444444444444X>>>>>>:X%*<11<,*%+<<<+4444444444444444444",
"4444444444444444444444X>>>>>>;X>>%*11<,,*<<<+4444444444444444444",
"4444444444444444444444X;>>>:;;@>>>>***%+++++44444444444444444444",
"4444444444444444444444X@>>>>:;;X%%*,*%*+444444444444444444444444",
"4444444444444444444444+X>>>>>>;@<111<,+4444444444444444444444444",
"4444444444444444444444+X>>>>>>:;X+++++X4444444444444444444444444",
"4444444444444444444444+X>>>>>>>;;X>>>>X4444444444444444444444444",
"4444444444444444444444XX>>>>>>>#;@>>>>X4444444444444444444444444",
"4444444444444444444444XX:;>>>>>>#;X>>>X4444444444444444444444444",
"44444444444444444444444X;#>>>>#>#;X>>>X4444444444444444444444444",
"44444444444444444444444X;@;:>>#:#;X>>;X4444444444444444444444444",
"444444444444444444444444X@;;::@;@X>>>@44444444444444444444444444",
"4444444444444444444444444X;;;;@;@>>>>X44444444444444444444444444",
"44444444444444444444444444XXXX@;@>>>>X44444444444444444444444444",
"44444444444444444444444444X>>>XX>>>>>X44444444444444444444444444",
"44444444444444444444444444X>>>>>>>>>>X44444444444444444444444444",
"44444444444444444444444444X:>>>>>>>>:X44444444444444444444444444",
"4444444444444444444444444X@#:>>>>>>:;X44444444444444444444444444",
"4444444444444444444444444@#@;:>>>>:;@444444444444444444444444444",
"444444444444444444444444X#;X;;;;;;;;X444444444444444444444444444",
"444444444444444444444444X;;@;;;;;;;;X444444444444444444444444444",
"444444444444444444444444X;X#;;;;;;;#X444444444444444444444444444",
"4444444444444444444444444X;;;;;;;;;@2222344444444444444444444444",
"4444444444444444444444432@;;;;;;;;;X2222222234444444444444444444",
"444444444444444444443222X#;;;;;;;;#X2222222222234444444444444444",
"444444444444444444322222X#;;;;;;;;@22222222222222344444444444444",
"4444444444444444322222222@;;;;;;;;X22222222222222223444444444444",
"4444444444444432222222222X;;;;;;;#X22222222222222222234444444444",
"4444444444444322222222222X;;;;;;;@222222222222222222223444444444",
"4444444444443222222222222X#;;;;;;XX22222222222222222222344444444",
"44444444444422222222222222@;;;;;;X;X2222222222222222222244444444",
"44444444444322222222222222X;;;;;;@;;X222222222222222222234444444",
"44444444444222222222222222X;;;;;;#X;X222222222222222222224444444",
"44444444444222222222222222X;;;;;;;;X2222222222222222222224444444",
"44444444444222222222222222X;;;;;;;;;X222222222222222222224444444",
"44444444444222222222222222X;;;;;;;;;X222222222222222222224444444",
"444444444443222222222222222XX@#;;;;X2222222222222222222234444444",
"444444444444222222222222222222XXXXX22222222222222222222244444444",
"4444444444443222222222222222222222222222222222222222222344444444",
"4444444444444322222222222222222222222222222222222222223444444444",
"4444444444444432222222222222222222222222222222222222234444444444",
"4444444444444444322222222222222222222222222222222223444444444444",
"4444444444444444432222222222222222222222222222222244444444444444",
"4444444444444444444322222222222222222222222222223444444444444444",
"4444444444444444444444322222222222222222222223444444444444444444",
"4444444444444444444444444443222222222222344444444444444444444444",
"4444444444444444444444444444444444444444444444444444444444444444",
"4444444444444444444444444444444444444444444444444444444444444444",
"4444444444444444444444444444444444444444444444444444444444444444",
"4444444444444444444444444444444444444444444444444444444444444444",
"4444444444444444444444444444444444444444444444444444444444444444",
"4444444444444444444444444444444444444444444444444444444444444444",
"4444444444444444444444444444444444444444444444444444444444444444",
"4444444444444444444444444444444444444444444444444444444444444444",
"4444444444444444444444444444444444444444444444444444444444444444",
"4444444444444444444444444444444444444444444444444444444444444444",
"4444444444444444444444444444444444444444444444444444444444444444",
"4444444444444444444444444444444444444444444444444444444444444444",
"4444444444444444444444444444444444444444444444444444444444444444",
"4444444444444444444444444444444444444444444444444444444444444444",
"4444444444444444444444444444444444444444444444444444444444444444",
"4444444444444444444444444444444444444444444444444444444444444444",
"4444444444444444444444444444444444444444444444444444444444444444",
"4444444444444444444444444444444444444444444444444444444444444444",
"4444444444444444444444444444444444444444444444444444444444444444",
"4444444444444444444444444444444444444444444444444444444444444444"
};
