/* XPM */
static char *output_17[] = {
/* columns rows colors chars-per-pixel */
"64 122 21 1 ",
"  c #222034",
". c #45212D",
"X c #333A6C",
"o c #3C447C",
"O c #46426C",
"+ c #954A51",
"@ c #CB7173",
"# c #4F5AA5",
"$ c #6A78AC",
"% c #616FCB",
"& c #7C8DB5",
"* c #F5A489",
"= c #F9BF99",
"- c #FFE0B1",
"; c #9CA2CC",
": c #A6AEE1",
"> c #E1EAFD",
", c white",
"< c #3F3F74",
"1 c #5C5CA9",
"2 c None",
/* pixels */
"2222222222222222222222222222222222222222222222222222222222222222",
"2222222222222222222222222222222222222222222222222222222222222222",
"2222222222222222222222222222222222222222222222222222222222222222",
"2222222222222222222222222222222222222222222222222222222222222222",
"2222222222222222222222222222222222222222222222222222222222222222",
"2222222222222222222222222222222222222222222222222222222222222222",
"2222222222222222222222222222222222222222222222222222222222222222",
"2222222222222222222222222222222222222222222222222222222222222222",
"2222222222222222222222222222222222222222222222222222222222222222",
"2222222222222222222222222222222222222222222222222222222222222222",
"2222222222222222222222222222222222222222222222222222222222222222",
"2222222222222222222222222222         222222222222222222222222222",
"22222222222222222222222222 Xo%%%%%%%oX 2222222222222222222222222",
"222222222222222222222222 Xo%%%%%%%%%%%oX 22222222222222222222222",
"22222222222222222222222 o%%%%%%%%%%%%%%%o 2222222222222222222222",
"2222222222222222222222 %%%%%%%%%%%%%%%%%%% 222222222222222222222",
"222222222222222222222 o%%%%%%%%%%%%%%%%%%%o 22222222222222222222",
"222222222222222222222X%%%%%%%%%%%%%%%%%%%%%X22222222222222222222",
"22222222222222222222 o%%%%%%%%%%%%%%%%%%%%%o 2222222222222222222",
"22222222222222222222X%%%%%%%%%%%%%%%%%%%%%%%X2222222222222222222",
"2222222222222222222 o%%%%%%%%%%%%%%%%%%%%%%%o 222222222222222222",
"2222222222222222222 %%%%%%%%%%%%%%%%%%%%%%%%% 222222222222222222",
"2222222222222222222 %%%%%%%%%%%%%%%%%%%%%%%%% 222222222222222222",
"2222222222222222   X%%%%%%%%%%%%%%%%%%%%%%%%%X   222222222222222",
"2222222222222222 X #%%%%%%%%%%%%%%%%%%%%%%%%%# # 222222222222222",
"22222222222222222  #%%%%%%%%%%%%%%%%%%%%%%%%%#  2222222222222222",
"222222222222222222 #%%%%%%%%%%%%%%%%%%%%%%%%%# 22222222222222222",
"222222222222222222X##%%%%%%%%%%%%%%%%%%%%%%%##X22222222222222222",
"22222222222222222 o##%%%%%%%%%%%%%%%%%%%%%%%##o 2222222222222222",
"22222222222222222 ####%%%%%%%%%%%%%%%%%%%%%#### 2222222222222222",
"22222222222222222 ####%%%%%%%%%%%%%%%%%%%%%#### 2222222222222222",
"22222222222222222 #####%%%%%%%%%%%%%%%%%%%##### 2222222222222222",
"22222222222222222 #######%%%%%%%%%%%%%%%####### 2222222222222222",
"22222222222222222 ###########%%%%%%%########### 2222222222222222",
"22222222222222222 ############################# 2222222222222222",
"22222222222222222 ############################# 2222222222222222",
"22222222222222222 ############################# 2222222222222222",
"22222222222222222X#############################X2222222222222222",
"2222222222222222 o#############################o 222222222222222",
"2222222222222222 ############################### 222222222222222",
"2222222222222222 ############################### 222222222222222",
"2222222222222222 ############################### 222222222222222",
"2222222222222222 ############################### 222222222222222",
"2222222222222222 ############################### 222222222222222",
"2222222222222222 ####o#####o#########o#####o#### 222222222222222",
"2222222222222222 ####o#####o#########o#####o#### 222222222222222",
"2222222222222222 ####o#####X#########X#####o#### 222222222222222",
"2222222222222222 ####X####oX#########Xo####X#### 222222222222222",
"2222222222222222 ###oX####XX#########XX####Xo### 222222222222222",
"2222222222222222 ###XX#### X#########X ####XX### 222222222222222",
"2222222222222222X%%# X#%%# X###%%%###X #%%#X #%%X222222222222222",
"222222222222222 #%%# X%%%%  ##%%%%%##  %%%%X #%%# 22222222222222",
"22222222222222 #%%#o X%%%#  ##%%%%%##  #%%%X o#%%# 2222222222222",
"22222222222222 o##o - %%%X  o#%%%%%#o  X%%% - o##o 2222222222222",
"222222222222222    -- #%% ,, #%%%%%# >, %%# --    22222222222222",
"222222222222222.*---- X# O,, o#%%%#o ,,, #X ----*.22222222222222",
"222222222222222+-----   $O,,& o###o >,,,,   -----+22222222222222",
"22222222222222.*-----*.@+O&&$&     O$>>$O@.*-----*.2222222222222",
"22222222222222+==---=+2.*---=OO$&&$==OO-*.;+=---==+2222222222222",
"2222222222222.*=====*.2+-----*@*-*@*-----+2.*=====*.222222222222",
"2222222222222+======+2.*------*+.+*------*.2+======+222222222222",
"222222222222.*=====*.OO-------=@+@=-------OO.*=====*.22222222222",
"222222222222+======+2$&$O-------+-------O$&$2+======+22222222222",
"22222222222.*=====*.O&,>&$OOO---@---OOO$&>,&O.*=====*.2222222222",
"22222222222+======+2O:,,,,,>&$OOOOO$&>,,,,,:O2+======+2222222222",
"2222222222.*=====*.2O:>,,,,,,,,>:>,,,,,,,,>:O2.*=====*.222222222",
"2222222222+======+2.*O:,,,,,,,,,:,,,,,,,,,:O*.2+======+222222222",
"222222222.*=====*.2.*-O$:,,,,,,>:>,,,,,,:$O-*.2.*=====*.22222222",
"22222222.=======+22.*---O$:>,,>:&:>,,>:$O---*.22+=======.2222222",
"2222222.*======*.22.**=---O$&>::&::>&$O---=**.22.*======*.222222",
"222222.***@====+222.*@******O$&:$:&$O******@*.222+====@***.22222",
"22222.***@***+..222.*+@*******O&$&O*******@+*.222..+***@***.2222",
"22222.**+**+.@@.222.*@+.......+OOO+.......+@*.222.@@.+**+**.2222",
"22222.*.*...@@.2222.*=========*@.@*=========*.2222.@@...*.*.2222",
"222222...22.@.222222+==========*.*==========+222222.@.22...22222",
"22222222222..2222222.==========*+*==========.2222222..2222222222",
"22222222222222222222.*==========@==========*.2222222222222222222",
"222222222222222222222+==========@==========+22222222222222222222",
"222222222222222222222.==========@==========.22222222222222222222",
"222222222222222222222.==========@==========.22222222222222222222",
"222222222222222222222.==========+==========.22222222222222222222",
"222222222222222222222.*=========+=========*.22222222222222222222",
"2222222222222222222222+=========+=========+222222222222222222222",
"2222222222222222222222.=========+=========.222222222222222222222",
"2222222222222222222222.*========+========*.222222222222222222222",
"2222222222222222222221<+========.========+1222222222222222222222",
"2222222222222222221<<<<.========.========.<<<1222222222222222222",
"22222222222222221<<<<<<.*=======.=======*.<<<<<12222222222222222",
"222222222222221<<<<<<<<<+=======.=======+<<<<<<<<122222222222222",
"2222222222221<<<<<<<<<<<.=======.=======.<<<<<<<<<<1222222222222",
"222222222221<<<<<<<<<<<<.=======.=======.<<<<<<<<<<<122222222222",
"22222222221<<<<<<<<<<<<<.=======.=======.<<<<<<<<<<<<12222222222",
"2222222222<<<<<<<<<<<<<<.*======.======*.<<<<<<<<<<<<<2222222222",
"2222222221<<<<<<<<<<<<<<<+======.======+<<<<<<<<<<<<<<1222222222",
"222222222<<<<<<<<<<<<<<<<.======.======.<<<<<<<<<<<<<<<222222222",
"222222222<<<<<<<<<<<<<<<<.======.======.<<<<<<<<<<<<<<<222222222",
"222222222<<<<<<<<<<<<<<<<.*====*.*====*.<<<<<<<<<<<<<<<222222222",
"222222222<<<<<<<<<<<<<<<<.+====+.+====+.<<<<<<<<<<<<<<<222222222",
"2222222221<<<<<<<<<<<<<<<<.====.<.====.<<<<<<<<<<<<<<<1222222222",
"2222222222<<<<<<<<<<<<<<<<<....<<<....<<<<<<<<<<<<<<<<2222222222",
"22222222221<<<<<<<<<<<<<<<<<<<<<<<<<<<<<<<<<<<<<<<<<<12222222222",
"222222222221<<<<<<<<<<<<<<<<<<<<<<<<<<<<<<<<<<<<<<<<122222222222",
"2222222222221<<<<<<<<<<<<<<<<<<<<<<<<<<<<<<<<<<<<<<1222222222222",
"222222222222221<<<<<<<<<<<<<<<<<<<<<<<<<<<<<<<<<<122222222222222",
"2222222222222222<<<<<<<<<<<<<<<<<<<<<<<<<<<<<<<<1222222222222222",
"222222222222222221<<<<<<<<<<<<<<<<<<<<<<<<<<<<122222222222222222",
"222222222222222222221<<<<<<<<<<<<<<<<<<<<<<122222222222222222222",
"22222222222222222222222221<<<<<<<<<<<<12222222222222222222222222",
"2222222222222222222222222222222222222222222222222222222222222222",
"2222222222222222222222222222222222222222222222222222222222222222",
"2222222222222222222222222222222222222222222222222222222222222222",
"2222222222222222222222222222222222222222222222222222222222222222",
"2222222222222222222222222222222222222222222222222222222222222222",
"2222222222222222222222222222222222222222222222222222222222222222",
"2222222222222222222222222222222222222222222222222222222222222222",
"2222222222222222222222222222222222222222222222222222222222222222",
"2222222222222222222222222222222222222222222222222222222222222222",
"2222222222222222222222222222222222222222222222222222222222222222",
"2222222222222222222222222222222222222222222222222222222222222222",
"2222222222222222222222222222222222222222222222222222222222222222",
"2222222222222222222222222222222222222222222222222222222222222222",
"2222222222222222222222222222222222222222222222222222222222222222"
};
