/* XPM */
static char *output_21[] = {
/* columns rows colors chars-per-pixel */
"64 122 20 1 ",
"  c #222034",
". c #45212D",
"X c #333A6C",
"o c #3C447C",
"O c #46426C",
"+ c #954A51",
"@ c #CB7173",
"# c #4F5AA5",
"$ c #6A78AC",
"% c #616FCB",
"& c #7C8DB5",
"* c #F5A489",
"= c #F9BF99",
"- c #FFE0B1",
"; c #A6AEE1",
": c #E1EAFD",
"> c white",
", c #3F3F74",
"< c #5C5CA9",
"1 c None",
/* pixels */
"1111111111111111111111111111111111111111111111111111111111111111",
"1111111111111111111111111111111111111111111111111111111111111111",
"1111111111111111111111111111111111111111111111111111111111111111",
"1111111111111111111111111111111111111111111111111111111111111111",
"1111111111111111111111111111111111111111111111111111111111111111",
"1111111111111111111111111111111111111111111111111111111111111111",
"1111111111111111111111111111111111111111111111111111111111111111",
"1111111111111111111111111111111111111111111111111111111111111111",
"1111111111111111111111111111111111111111111111111111111111111111",
"1111111111111111111111111111111111111111111111111111111111111111",
"1111111111111111111111111111111111111111111111111111111111111111",
"1111111111111111111111111111         111111111111111111111111111",
"11111111111111111111111111 Xo%%%%%%%oX 1111111111111111111111111",
"111111111111111111111111 Xo%%%%%%%%%%%oX 11111111111111111111111",
"11111111111111111111111 %%%%%%%%%%%%%%%%% 1111111111111111111111",
"1111111111111111111111 %%%%%%%%%%%%%%%%%%% 111111111111111111111",
"111111111111111111111 %%%%%%%%%%%%%%%%%%%%% 11111111111111111111",
"111111111111111111111X%%%%%%%%%%%%%%%%%%%%%X11111111111111111111",
"11111111111111111111 o%%%%%%%%%%%%%%%%%%%%%o 1111111111111111111",
"11111111111111111111X%%%%%%%%%%%%%%%%%%%%%%%X1111111111111111111",
"1111111111111111111 o%%%%%%%%%%%%%%%%%%%%%%%o 111111111111111111",
"1111111111111111111 %%%%%%%%%%%%%%%%%%%%%%%%% 111111111111111111",
"1111111111111111  1 %%%%%%%%%%%%%%%%%%%%%%%%%    111111111111111",
"1111111111111111 X# %%%%%%%%%%%%%%%%%%%%%%%%% #X 111111111111111",
"1111111111111111 X%X%%%%%%%%%%%%%%%%%%%%%%%%%X%X 111111111111111",
"1111111111111111 # o%%%%%%%%%%%%%%%%%%%%%%%%%o # 111111111111111",
"11111111111111111  #%%%%%%%%%%%%%%%%%%%%%%%%%#  1111111111111111",
"111111111111111111X##%%%%%%%%%%%%%%%%%%%%%%%##X11111111111111111",
"11111111111111111 o##%%%%%%%%%%%%%%%%%%%%%%%##o 1111111111111111",
"11111111111111111 o###%%%%%%%%%%%%%%%%%%%%%###o 1111111111111111",
"11111111111111111Xo###%%%%%%%%%%%%%%%%%%%%%###oX1111111111111111",
"1111111111111111 oo####%%%%%%%%%%%%%%%%%%%####oo 111111111111111",
"1111111111111111Xoo######%%%%%%%%%%%%%%%######ooX111111111111111",
"111111111111111 ooo##########%%%%%%%##########ooo 11111111111111",
"111111111111111Xooo###########################oooX11111111111111",
"11111111111111 ooo#############################ooo 1111111111111",
"11111111111111Xoo###############################ooX1111111111111",
"1111111111111 oo#################################oo 111111111111",
"1111111111111 ##################################### 111111111111",
"1111111111111X#####################################X111111111111",
"111111111111 o#####################################o 11111111111",
"111111111111X#######o#######################o#######X11111111111",
"11111111111 o######oX#######################Xo######o 1111111111",
"11111111111 #######Xo#######################oX####### 1111111111",
"11111111111 ######oX#########################Xo###### 1111111111",
"11111111111 o####oXo######o###########o######oXo####o 1111111111",
"111111111111X####oX######Xo###########oX######Xo####X11111111111",
"111111111111o####XX######oX###%%%%%###Xo######XX####o11111111111",
"111111111111 ##%oXX######oo##%%%%%%%##oo######XXo%## 11111111111",
"1111111111111o#%o X##%%##X##%%%%%%%%%##X##%%##X o%#o111111111111",
"1111111111111 o%o Xo#%%%oX#%%%%%%%%%%%#Xo%%%#oX o%o 111111111111",
"11111111111111 #X+ X#%%%Xo#%%%%%%%%%%%#oX%%%#X +X# 1111111111111",
"111111111111111  *- #%%%Xo#%%%%%%%%%%%#oX%%%# -*  11111111111111",
"1111111111111111.--- #%oXX##%%%%%%%%%##XXo%# ---.111111111111111",
"1111111111111111+---- #XX ###%%%%%%%### XX# ----+111111111111111",
"111111111111111.*----=   O X##%%%%%##X >   =----*.11111111111111",
"111111111111111+-----*O$$O> X#######X >>>>O*-----+11111111111111",
"11111111111111.*-----+1.*O&&$       $:::$O1+-----*.1111111111111",
"11111111111111+==---=.1+=---=OO$&&$==OOO=+1.=---==+1111111111111",
"1111111111111.*=====+1.*-----**===**-----*.1+=====*.111111111111",
"1111111111111+======.1+------=@+-+@=------+1.======+111111111111",
"111111111111.*=====+1.*-------=*.*=-------*.1+=====*.11111111111",
"111111111111+======.1OO---------+---------OO1.======+11111111111",
"11111111111.*=====+1O$&$O-------+-------O$&$O1+=====*.1111111111",
"11111111111+======.1O&>:&$OOO---@---OOO$&:>&O1.======+1111111111",
"1111111111.*=====+11O;>>>>>:&$OOOOO$&:>>>>>;O11+=====*.111111111",
"111111111.*======.1.*O:>>>>>>>>:;:>>>>>>>>:O*.1.======*.11111111",
"11111111.*======+11.*O;>>>>>>>>>;>>>>>>>>>;O*.11+======*.1111111",
"1111111.=======*.11.*=O$;>>>>>>:;:>>>>>>;$O=*.11.*=======.111111",
"111111.*=======+111.**==O$;:>>:;&;:>>:;$O==**.111+=======*.11111",
"11111.***@====*.111.*@****O$&:;;&;;:&$O****@*.111.*====@***.1111",
"1111.***@***+..1111.*+++@@@@O$&;$;&$O@@@@+++*.1111..+***@***.111",
"1111.**+**+.@@.1111.**@@+.....+OOO+.....+@@**.1111.@@.+**+**.111",
"1111.*.*...@@.11111.*=========*@.@*=========*.11111.@@...*.*.111",
"11111...11.@.1111111+==========*+*==========+1111111.@.11...1111",
"1111111111..11111111.==========*@*==========.11111111..111111111",
"11111111111111111111.*==========@==========*.1111111111111111111",
"111111111111111111111+==========@==========+11111111111111111111",
"111111111111111111111.==========@==========.11111111111111111111",
"111111111111111111111.==========+==========.11111111111111111111",
"111111111111111111111.==========+==========.11111111111111111111",
"111111111111111111111.*=========+=========*.11111111111111111111",
"1111111111111111111111+=========+=========+111111111111111111111",
"1111111111111111111111.=========+=========.111111111111111111111",
"1111111111111111111111.*========+========*.111111111111111111111",
"111111111111111111111<,+========.========+<111111111111111111111",
"111111111111111111<,,,,.========.========.,,,<111111111111111111",
"1111111111111111<,,,,,,.*=======.=======*.,,,,,<1111111111111111",
"11111111111111<,,,,,,,,,+=======.=======+,,,,,,,,<11111111111111",
"111111111111<,,,,,,,,,,,.=======.=======.,,,,,,,,,,<111111111111",
"11111111111<,,,,,,,,,,,,.=======.=======.,,,,,,,,,,,<11111111111",
"1111111111<,,,,,,,,,,,,,.=======.=======.,,,,,,,,,,,,<1111111111",
"1111111111,,,,,,,,,,,,,,.*======.======*.,,,,,,,,,,,,,1111111111",
"111111111<,,,,,,,,,,,,,,,+======.======+,,,,,,,,,,,,,,<111111111",
"111111111,,,,,,,,,,,,,,,,.======.======.,,,,,,,,,,,,,,,111111111",
"111111111,,,,,,,,,,,,,,,,.======.======.,,,,,,,,,,,,,,,111111111",
"111111111,,,,,,,,,,,,,,,,.*====*.*====*.,,,,,,,,,,,,,,,111111111",
"111111111,,,,,,,,,,,,,,,,.+====+.+====+.,,,,,,,,,,,,,,,111111111",
"111111111<,,,,,,,,,,,,,,,,.====.,.====.,,,,,,,,,,,,,,,<111111111",
"1111111111,,,,,,,,,,,,,,,,,....,,,....,,,,,,,,,,,,,,,,1111111111",
"1111111111<,,,,,,,,,,,,,,,,,,,,,,,,,,,,,,,,,,,,,,,,,,<1111111111",
"11111111111<,,,,,,,,,,,,,,,,,,,,,,,,,,,,,,,,,,,,,,,,<11111111111",
"111111111111<,,,,,,,,,,,,,,,,,,,,,,,,,,,,,,,,,,,,,,<111111111111",
"11111111111111<,,,,,,,,,,,,,,,,,,,,,,,,,,,,,,,,,,<11111111111111",
"1111111111111111,,,,,,,,,,,,,,,,,,,,,,,,,,,,,,,,<111111111111111",
"11111111111111111<,,,,,,,,,,,,,,,,,,,,,,,,,,,,<11111111111111111",
"11111111111111111111<,,,,,,,,,,,,,,,,,,,,,,<11111111111111111111",
"1111111111111111111111111<,,,,,,,,,,,,<1111111111111111111111111",
"1111111111111111111111111111111111111111111111111111111111111111",
"1111111111111111111111111111111111111111111111111111111111111111",
"1111111111111111111111111111111111111111111111111111111111111111",
"1111111111111111111111111111111111111111111111111111111111111111",
"1111111111111111111111111111111111111111111111111111111111111111",
"1111111111111111111111111111111111111111111111111111111111111111",
"1111111111111111111111111111111111111111111111111111111111111111",
"1111111111111111111111111111111111111111111111111111111111111111",
"1111111111111111111111111111111111111111111111111111111111111111",
"1111111111111111111111111111111111111111111111111111111111111111",
"1111111111111111111111111111111111111111111111111111111111111111",
"1111111111111111111111111111111111111111111111111111111111111111",
"1111111111111111111111111111111111111111111111111111111111111111",
"1111111111111111111111111111111111111111111111111111111111111111"
};
