/* XPM */
static char *output_25[] = {
/* columns rows colors chars-per-pixel */
"64 122 20 1 ",
"  c #222034",
". c #45212D",
"X c #333A6C",
"o c #3C447C",
"O c #46426C",
"+ c #954A51",
"@ c #CB7173",
"# c #4F5AA5",
"$ c #6A78AC",
"% c #616FCB",
"& c #7C8DB5",
"* c #F5A489",
"= c #F9BF99",
"- c #FFE0B1",
"; c #A6AEE1",
": c #E1EAFD",
"> c white",
", c #3F3F74",
"< c #5C5CA9",
"1 c None",
/* pixels */
"1111111111111111111111111111111111111111111111111111111111111111",
"1111111111111111111111111111111111111111111111111111111111111111",
"1111111111111111111111111111111111111111111111111111111111111111",
"1111111111111111111111111111111111111111111111111111111111111111",
"1111111111111111111111111111111111111111111111111111111111111111",
"1111111111111111111111111111111111111111111111111111111111111111",
"1111111111111111111111111111111111111111111111111111111111111111",
"1111111111111111111111111111111111111111111111111111111111111111",
"1111111111111111111111111111111111111111111111111111111111111111",
"1111111111111111111111111111111111111111111111111111111111111111",
"1111111111111111111111111111111111111111111111111111111111111111",
"1111111111111111111111111111111111111111111111111111111111111111",
"1111111111111111111111111111         111111111111111111111111111",
"11111111111111111111111111 Xo%%%%%%%oX 1111111111111111111111111",
"111111111111111111111111 Xo%%%%%%%%%%%oX 11111111111111111111111",
"11111111111111111111111 o%%%%%%%%%%%%%%%o 1111111111111111111111",
"1111111111111111111111 %%%%%%%%%%%%%%%%%%% 111111111111111111111",
"111111111111111111111 o%%%%%%%%%%%%%%%%%%%o 11111111111111111111",
"111111111111111111111X%%%%%%%%%%%%%%%%%%%%%X11111111111111111111",
"11111111111111111111 o%%%%%%%%%%%%%%%%%%%%%o 1111111111111111111",
"11111111111111111111X%%%%%%%%%%%%%%%%%%%%%%%X1111111111111111111",
"1111111111111111111 o%%%%%%%%%%%%%%%%%%%%%%%o 111111111111111111",
"1111111111111111111 %%%%%%%%%%%%%%%%%%%%%%%%% 111111111111111111",
"1111111111111111111 %%%%%%%%%%%%%%%%%%%%%%%%% 111111111111111111",
"1111111111111111   X%%%%%%%%%%%%%%%%%%%%%%%%%X   111111111111111",
"1111111111111111 X #%%%%%%%%%%%%%%%%%%%%%%%%%# # 111111111111111",
"11111111111111111  #%%%%%%%%%%%%%%%%%%%%%%%%%#  1111111111111111",
"111111111111111111 #%%%%%%%%%%%%%%%%%%%%%%%%%# 11111111111111111",
"111111111111111111X##%%%%%%%%%%%%%%%%%%%%%%%##X11111111111111111",
"11111111111111111 o##%%%%%%%%%%%%%%%%%%%%%%%##o 1111111111111111",
"11111111111111111 ####%%%%%%%%%%%%%%%%%%%%%#### 1111111111111111",
"11111111111111111 ####%%%%%%%%%%%%%%%%%%%%%#### 1111111111111111",
"11111111111111111 #####%%%%%%%%%%%%%%%%%%%##### 1111111111111111",
"11111111111111111 #######%%%%%%%%%%%%%%%####### 1111111111111111",
"11111111111111111 ###########%%%%%%%########### 1111111111111111",
"11111111111111111 ############################# 1111111111111111",
"11111111111111111 ############################# 1111111111111111",
"11111111111111111 ############################# 1111111111111111",
"11111111111111111X#############################X1111111111111111",
"1111111111111111 o#############################o 111111111111111",
"1111111111111111 ############################### 111111111111111",
"1111111111111111 ############################### 111111111111111",
"1111111111111111 ############################### 111111111111111",
"1111111111111111 ############################### 111111111111111",
"1111111111111111 ############################### 111111111111111",
"1111111111111111 ####o#####o#########o#####o#### 111111111111111",
"1111111111111111 ####o#####o#########o#####o#### 111111111111111",
"1111111111111111 ####o#####X#########X#####o#### 111111111111111",
"1111111111111111 ####X####oX#########Xo####X#### 111111111111111",
"1111111111111111 ###oX####XX#########XX####Xo### 111111111111111",
"1111111111111111 ###XX#### X#########X ####XX### 111111111111111",
"1111111111111111X%%# X#%%# X###%%%###X #%%#X #%%X111111111111111",
"111111111111111 #%%# X%%%%  ##%%%%%##  %%%%X #%%# 11111111111111",
"11111111111111 #%%#o X%%%#  ##%%%%%##  #%%%X o#%%# 1111111111111",
"11111111111111 o##o - %%%X  o#%%%%%#o  X%%% - o##o 1111111111111",
"111111111111111    -- #%% >> #%%%%%# :> %%# --    11111111111111",
"111111111111111.*---- X# O>> o#%%%#o >>> #X ----*.11111111111111",
"111111111111111.-----   $O>>& o###o :>>>>   -----.11111111111111",
"111111111111111+-----*..*O&&$&     O$::$O..*-----+11111111111111",
"11111111111111.==---=+1+-----OO$&&$*-OO--+1+=---==.1111111111111",
"11111111111111+=====*..*------@+-+@------*..*=====+1111111111111",
"1111111111111.*=====+1O-------=@.@=-------O1+=====*.111111111111",
"1111111111111+=====*.O&$O------*@*------O$&O.*=====+111111111111",
"111111111111.*=====+1&>:&$OOO---@---OOO$&:>&1+=====*.11111111111",
"111111111111+======.O;>>>>>:&$OOOOO$&:>>>>>;O.======+11111111111",
"11111111111.*=====*.O;:>>>>>>>>:;:>>>>>>>>:;O.*=====*.1111111111",
"11111111111+======+1.O;>>>>>>>>>;>>>>>>>>>;O.1+======+1111111111",
"1111111111.*======.1+-O$;>>>>>>:;:>>>>>>;$O-+1.======*.111111111",
"1111111111+======*..*=--O$;:>>:;&;:>>:;$O--=*..*======+111111111",
"111111111.*======+1.**=---O$&:;;&;;:&$O---=**.1+======*.11111111",
"11111111.*======*.1.*@*=====O$&;$;&$O=====*@*.1.*======*.1111111",
"1111111.***@====+11.*+@*******O&$&O*******@+*.11+====@***.111111",
"111111.***@***+..11.*@+.......+OOO+.......+@*.11..+***@***.11111",
"111111.**+**+.@@.11.*=========*@.@*=========*.11.@@.+**+**.11111",
"111111.*.*...@@.111.*==========*+*==========*.111.@@...*.*.11111",
"1111111...11.@.1111.*==========*+*==========*.1111.@.11...111111",
"111111111111..111111+===========@===========+111111..11111111111",
"11111111111111111111.===========@===========.1111111111111111111",
"11111111111111111111.*==========@==========*.1111111111111111111",
"111111111111111111111+==========@==========+11111111111111111111",
"111111111111111111111.==========@==========.11111111111111111111",
"111111111111111111111.*=========+=========*.11111111111111111111",
"1111111111111111111111+=========+=========+111111111111111111111",
"1111111111111111111111.=========+=========.111111111111111111111",
"1111111111111111111111.*========+========*.111111111111111111111",
"111111111111111111111<,+========.========+<111111111111111111111",
"111111111111111111<,,,,.========.========.,,,<111111111111111111",
"1111111111111111<,,,,,,.*=======.=======*.,,,,,<1111111111111111",
"11111111111111<,,,,,,,,,+=======.=======+,,,,,,,,<11111111111111",
"111111111111<,,,,,,,,,,,.=======.=======.,,,,,,,,,,<111111111111",
"11111111111<,,,,,,,,,,,,.=======.=======.,,,,,,,,,,,<11111111111",
"1111111111<,,,,,,,,,,,,,.=======.=======.,,,,,,,,,,,,<1111111111",
"1111111111,,,,,,,,,,,,,,.*======.======*.,,,,,,,,,,,,,1111111111",
"111111111<,,,,,,,,,,,,,,,+======.======+,,,,,,,,,,,,,,<111111111",
"111111111,,,,,,,,,,,,,,,,.======.======.,,,,,,,,,,,,,,,111111111",
"111111111,,,,,,,,,,,,,,,,.======.======.,,,,,,,,,,,,,,,111111111",
"111111111,,,,,,,,,,,,,,,,.*====*.*====*.,,,,,,,,,,,,,,,111111111",
"111111111,,,,,,,,,,,,,,,,.+====+.+====+.,,,,,,,,,,,,,,,111111111",
"111111111<,,,,,,,,,,,,,,,,.====.,.====.,,,,,,,,,,,,,,,<111111111",
"1111111111,,,,,,,,,,,,,,,,,....,,,....,,,,,,,,,,,,,,,,1111111111",
"1111111111<,,,,,,,,,,,,,,,,,,,,,,,,,,,,,,,,,,,,,,,,,,<1111111111",
"11111111111<,,,,,,,,,,,,,,,,,,,,,,,,,,,,,,,,,,,,,,,,<11111111111",
"111111111111<,,,,,,,,,,,,,,,,,,,,,,,,,,,,,,,,,,,,,,<111111111111",
"11111111111111<,,,,,,,,,,,,,,,,,,,,,,,,,,,,,,,,,,<11111111111111",
"1111111111111111,,,,,,,,,,,,,,,,,,,,,,,,,,,,,,,,<111111111111111",
"11111111111111111<,,,,,,,,,,,,,,,,,,,,,,,,,,,,<11111111111111111",
"11111111111111111111<,,,,,,,,,,,,,,,,,,,,,,<11111111111111111111",
"1111111111111111111111111<,,,,,,,,,,,,<1111111111111111111111111",
"1111111111111111111111111111111111111111111111111111111111111111",
"1111111111111111111111111111111111111111111111111111111111111111",
"1111111111111111111111111111111111111111111111111111111111111111",
"1111111111111111111111111111111111111111111111111111111111111111",
"1111111111111111111111111111111111111111111111111111111111111111",
"1111111111111111111111111111111111111111111111111111111111111111",
"1111111111111111111111111111111111111111111111111111111111111111",
"1111111111111111111111111111111111111111111111111111111111111111",
"1111111111111111111111111111111111111111111111111111111111111111",
"1111111111111111111111111111111111111111111111111111111111111111",
"1111111111111111111111111111111111111111111111111111111111111111",
"1111111111111111111111111111111111111111111111111111111111111111",
"1111111111111111111111111111111111111111111111111111111111111111",
"1111111111111111111111111111111111111111111111111111111111111111"
};
